<svg width="1920" height="233" viewBox="0 0 1920 233" fill="none" xmlns="http://www.w3.org/2000/svg">
    <path d="M1324 159.919V163.389L1609.41 136.843L1614.03 131.5L1324 159.919Z" fill="#DBFCFF"/>
    <path d="M1324 171.485V174.955L1594.59 154.136L1599.05 148.959L1324 171.485Z" fill="#DBFCFF"/>
    <path d="M1197 159.314L1197.39 162.949L1356 184.759V182.335L1197 159.314Z" fill="#DBFCFF"/>
    <path d="M1198.43 171.651L1198.87 175.451L1356 193.24V190.652L1198.43 171.651Z" fill="#DBFCFF"/>
    <path d="M1199.92 184.593L1200.41 188.614L1356 202.273V199.519L1199.92 184.593Z" fill="#DBFCFF"/>
    <path d="M1201.52 198.307L1202.07 202.548L1356 211.856V208.881L1201.52 198.307Z" fill="#DBFCFF"/>
    <path d="M1203.22 212.792L1203.77 217.309L1356 222.045V218.906L1203.22 212.792Z" fill="#DBFCFF"/>
    <path d="M1205.59 232.289H1356V228.929L1205.04 227.497L1205.59 232.289Z" fill="#DBFCFF"/>
    <path d="M1360.57 180.352V184.042L1592.61 170.218V165.427L1360.57 180.352Z" fill="#DBFCFF"/>
    <path d="M1360.57 192.634V196.269L1592.61 186.08V181.344L1360.57 192.634Z" fill="#DBFCFF"/>
    <path d="M1360.57 204.807V208.442L1592.61 201.888V197.151L1360.57 204.807Z" fill="#DBFCFF"/>
    <path d="M1360.57 216.702V220.392L1592.61 217.473V212.516L1360.57 216.702Z" fill="#DBFCFF"/>
    <path d="M1360.57 228.984V232.289H1592.61V228.489L1360.57 228.984Z" fill="#DBFCFF"/>
    <path d="M1734.7 0.586182L1597.12 158.708V162.839L1733.49 14.6304L1978.25 98.2351L1981 90.3042L1734.7 0.586182Z" fill="#DBFCFF"/>
    <path d="M1715.65 220.008L1597.12 227.994V232.289H1714.6H1714.65H1932.09L1934.9 224.028L1715.65 220.008Z" fill="#DBFCFF"/>
    <path d="M1597.12 172.256V176.442L1729.52 60.6729L1969.1 124.836L1971.86 116.85L1730.68 47.0142L1597.12 172.256Z" fill="#DBFCFF"/>
    <path d="M1597.12 186.025V190.321L1725.61 105.505L1959.91 151.603L1962.66 143.562L1726.77 92.1765L1597.12 186.025Z" fill="#DBFCFF"/>
    <path d="M1597.12 200.014V204.2L1721.81 149.014L1950.65 178.48L1953.41 170.384L1722.97 136.127L1597.12 200.014Z" fill="#DBFCFF"/>
    <path d="M1597.12 214.004V218.245L1718.07 191.423L1941.29 205.468L1944.1 197.372L1719.12 178.811L1597.12 214.004Z" fill="#DBFCFF"/>
    <g clip-path="url(#clip0)">
        <path d="M117.004 159.919V163.389L402.405 136.843L407.032 131.5L117.004 159.919Z" fill="#DBFCFF"/>
        <path d="M117.004 171.485V174.955L387.59 154.136L392.051 148.959L117.004 171.485Z" fill="#DBFCFF"/>
        <path d="M-10 159.314L-9.61477 162.949L149.003 184.759V182.335L-10 159.314Z" fill="#DBFCFF"/>
        <path d="M-8.56827 171.651L-8.12757 175.451L149.003 193.24V190.652L-8.56827 171.651Z" fill="#DBFCFF"/>
        <path d="M-7.08109 184.593L-6.58526 188.614L149.003 202.273V199.519L-7.08109 184.593Z" fill="#DBFCFF"/>
        <path d="M-5.4841 198.307L-4.93314 202.548L149.003 211.856V208.881L-5.4841 198.307Z" fill="#DBFCFF"/>
        <path d="M-3.77676 212.792L-3.22581 217.309L149.003 222.045V218.906L-3.77676 212.792Z" fill="#DBFCFF"/>
        <path d="M-1.40812 232.289H149.003V228.929L-1.95908 227.497L-1.40812 232.289Z" fill="#DBFCFF"/>
        <path d="M153.574 180.352V184.042L385.607 170.218V165.427L153.574 180.352Z" fill="#DBFCFF"/>
        <path d="M153.574 192.634V196.269L385.607 186.08V181.344L153.574 192.634Z" fill="#DBFCFF"/>
        <path d="M153.574 204.807V208.442L385.607 201.888V197.151L153.574 204.807Z" fill="#DBFCFF"/>
        <path d="M153.574 216.702V220.392L385.607 217.473V212.516L153.574 216.702Z" fill="#DBFCFF"/>
        <path d="M153.574 228.984V232.289H385.607V228.489L153.574 228.984Z" fill="#DBFCFF"/>
        <path d="M527.702 0.586182L390.124 158.708V162.839L526.491 14.6304L771.246 98.2351L774 90.3042L527.702 0.586182Z" fill="#DBFCFF"/>
        <path d="M508.646 220.008L390.124 227.994V232.289H507.6H507.655H725.093L727.902 224.028L508.646 220.008Z" fill="#DBFCFF"/>
        <path d="M390.124 172.256V176.442L522.525 60.6729L762.104 124.836L764.857 116.85L523.682 47.0142L390.124 172.256Z" fill="#DBFCFF"/>
        <path d="M390.124 186.025V190.321L518.615 105.505L752.906 151.603L755.66 143.562L519.771 92.1765L390.124 186.025Z" fill="#DBFCFF"/>
        <path d="M390.124 200.014V204.2L514.815 149.014L743.653 178.48L746.407 170.384L515.971 136.127L390.124 200.014Z" fill="#DBFCFF"/>
        <path d="M390.124 214.004V218.245L511.07 191.423L734.29 205.468L737.099 197.372L512.116 178.811L390.124 214.004Z" fill="#DBFCFF"/>
    </g>
    <defs>
        <clipPath id="clip0">
            <rect width="491" height="231" fill="white" transform="translate(-10 1)"/>
        </clipPath>
    </defs>
</svg>
