<svg width="380" height="136" viewBox="0 0 380 136" fill="none" xmlns="http://www.w3.org/2000/svg">
    <path d="M300.174 0L219.277 92.8108V95.2353L299.462 8.24339L443.381 57.3158L445 52.6607L300.174 0Z" fill="#2CBFD1"/>
    <path d="M58.6797 93.5219V95.5585L226.499 79.9769L229.219 76.8411L58.6797 93.5219Z" fill="#2CBFD1"/>
    <path d="M58.6797 100.31V102.347L217.787 90.1274L220.41 87.0887L58.6797 100.31Z" fill="#2CBFD1"/>
    <path d="M-15.7735 95.3001L-16 93.1665L77.4954 106.679V108.102L-15.7735 95.3001Z" fill="#2CBFD1"/>
    <path d="M-15.1581 100.408L-14.8989 102.638L77.4955 113.08V111.56L-15.1581 100.408Z" fill="#2CBFD1"/>
    <path d="M-13.9921 110.364L-14.2837 108.004L77.4954 116.765V118.381L-13.9921 110.364Z" fill="#2CBFD1"/>
    <path d="M-13.3446 116.054L-13.0206 118.543L77.4954 124.006V122.261L-13.3446 116.054Z" fill="#2CBFD1"/>
    <path d="M-12.0167 127.207L-12.3407 124.556L77.4954 128.144V129.987L-12.0167 127.207Z" fill="#2CBFD1"/>
    <path d="M-10.9479 136H77.4955V134.028L-11.2718 133.187L-10.9479 136Z" fill="#2CBFD1"/>
    <path d="M80.1833 107.681V105.515L216.621 96.7549V99.5673L80.1833 107.681Z" fill="#2CBFD1"/>
    <path d="M80.1833 112.724V114.858L216.621 108.877V106.097L80.1833 112.724Z" fill="#2CBFD1"/>
    <path d="M80.1833 122.002V119.869L216.621 115.375V118.155L80.1833 122.002Z" fill="#2CBFD1"/>
    <path d="M80.1833 126.851V129.017L216.621 127.304V124.394L80.1833 126.851Z" fill="#2CBFD1"/>
    <path d="M80.1833 135.999V134.06L216.621 133.769V135.999H80.1833Z" fill="#2CBFD1"/>
    <path d="M219.277 133.479L288.969 128.791L417.894 131.151L416.242 136H219.277V133.479Z" fill="#2CBFD1"/>
    <path d="M219.277 100.763V103.22L297.13 35.2687L438.005 72.9297L439.624 68.2423L297.81 27.2516L219.277 100.763Z" fill="#2CBFD1"/>
    <path d="M219.277 111.366V108.845L295.511 53.7596L434.216 83.9207L432.597 88.6404L294.831 61.5827L219.277 111.366Z" fill="#2CBFD1"/>
    <path d="M219.277 117.056V119.513L292.596 87.1211L427.156 104.416L428.775 99.664L293.276 79.5566L219.277 117.056Z" fill="#2CBFD1"/>
    <path d="M219.277 127.756V125.267L291.009 104.61L423.302 115.504L421.65 120.256L290.394 112.013L219.277 127.756Z" fill="#2CBFD1"/>
</svg>
