<svg width="180" height="180" viewBox="0 0 180 180" fill="none" xmlns="http://www.w3.org/2000/svg">
    <rect width="180" height="180" fill="#0089D1"/>
    <path d="M72.3831 82.885L77.3218 115.235L81.7646 115.221L76.8452 82.8946L72.3831 82.885Z" fill="white"/>
    <path d="M72.1761 82.885H64.6141V115.129H72.1761V82.885Z" fill="white"/>
    <path d="M49.7981 82.885H22V115.129H47.0254L49.7981 82.885Z" fill="white"/>
    <path d="M53.7259 115.129H62.1688L62.2025 82.885H56.4937L53.7259 115.129Z" fill="white"/>
    <path d="M97.9381 97.81H95.3196V91.6987C94.2675 92.3933 93.0281 92.7506 91.7672 92.7229C89.5096 92.7229 87.2377 91.5111 87.2377 87.9627V82.9332H89.8514V87.227C89.8514 89.6071 91.0019 90.285 92.47 90.285C93.4954 90.2602 94.4891 89.9248 95.3196 89.3234V82.9332H97.9381V97.81Z" fill="white"/>
    <path d="M100.778 97.81V82.9332H103.397V93.5162L111.204 82.9332H113.5V97.81H110.886V87.2462L103.079 97.81H100.778Z" fill="white"/>
    <path d="M115.782 82.9332H128.056V85.3758H123.228V97.81H120.61V85.3758H115.782V82.9332Z" fill="white"/>
    <path d="M132.109 82.8899H134.41L140.706 97.7956H137.919L136.364 93.9923H130.006L128.451 97.7956H125.813L132.109 82.8899ZM131.007 91.5448H135.368L133.197 86.2557L131.007 91.5448Z" fill="white"/>
    <path d="M142.299 97.81V82.9332H144.913V93.5162L152.72 82.9332H155.021V97.81H152.403V87.2462L144.595 97.81H142.299Z" fill="white"/>
    <path d="M87.1268 100.281H95.5313V102.724H89.7406V115.154H87.1268V100.281Z" fill="white"/>
    <path d="M152.745 79H145.116V81.457H150.973L152.745 79Z" fill="white"/>
    <path d="M103.998 100.046C108.422 100.046 111.762 103.085 111.762 107.739C111.762 112.201 108.422 115.432 103.998 115.432C99.5747 115.432 96.2534 112.398 96.2534 107.739C96.2534 103.412 99.4255 100.046 103.998 100.046ZM103.998 112.942C107.123 112.942 108.995 110.648 108.995 107.715C108.995 104.633 106.804 102.489 103.998 102.489C101.192 102.489 99.0211 104.633 99.0211 107.715C99.0211 110.696 101.211 112.942 103.998 112.942Z" fill="white"/>
    <path d="M114.159 115.154V100.281C114.988 100.281 117.346 100.233 118.391 100.233C122.771 100.233 124.167 102.575 124.167 105.042C124.167 107.571 122.275 109.85 118.718 109.85C118.27 109.85 117.423 109.85 116.793 109.788V115.163L114.159 115.154ZM116.773 102.724V107.292C117.394 107.354 118.03 107.398 118.626 107.398C120.176 107.398 121.389 106.652 121.389 104.994C121.389 103.445 120.427 102.681 118.646 102.681C118.117 102.681 117.476 102.681 116.773 102.724Z" fill="white"/>
    <path d="M133.698 100.046C138.121 100.046 141.462 103.085 141.462 107.739C141.462 112.201 138.121 115.432 133.698 115.432C129.274 115.432 125.953 112.398 125.953 107.739C125.953 103.412 129.125 100.046 133.698 100.046ZM133.698 112.942C136.822 112.942 138.694 110.648 138.694 107.715C138.694 104.633 136.504 102.489 133.698 102.489C130.892 102.489 128.716 104.633 128.716 107.715C128.716 110.696 130.91 112.942 133.698 112.942Z" fill="white"/>
    <path d="M141.688 112.711H143.714C145.424 105.306 146.454 100.277 146.454 100.277H154.964V112.711H157V117.812H154.555V115.153H144.138V117.812H141.688V112.711ZM146.323 112.711H152.369V102.724H148.432C148.432 102.724 147.503 107.532 146.323 112.711Z" fill="white"/>
</svg>
