<svg width="180" height="180" viewBox="0 0 180 180" fill="none" xmlns="http://www.w3.org/2000/svg">
    <rect width="180" height="180" fill="#E7E7E7"/>
    <path fill-rule="evenodd" clip-rule="evenodd" d="M59.0901 95.6308L60.5439 95.6159C60.8756 93.8042 60.6256 85.7059 60.5504 82.9903C60.8607 83.283 61.1275 84.1641 61.3671 84.6627L66.0239 92.4843C66.5855 93.4149 67.33 94.8368 67.936 95.6347L71.1328 95.5881C71.4478 93.9508 71.248 84.26 71.2455 80.9195C71.2454 80.3472 70.8173 80.4982 70.223 80.5027C68.9155 80.5128 68.7497 80.3874 68.7235 81.0699C68.6056 84.1334 68.7497 89.6195 68.8352 92.9381C68.2828 91.8221 67.9565 90.7359 67.3236 89.6804C66.7614 88.7429 61.9875 80.6506 61.7387 80.5399L58.7799 80.506C57.8498 80.5066 58.0946 80.8409 58.1006 81.8209L58.0995 94.4571C58.0887 95.6536 57.917 95.628 59.0901 95.6308Z" fill="#201600"/>
    <path fill-rule="evenodd" clip-rule="evenodd" d="M31.6326 82.4825C34.0526 82.4659 36.5022 82.3532 36.3992 85.1345C36.3048 87.6855 34.0329 87.8406 31.6332 87.7972L31.6326 82.4825ZM29.0043 95.5081C29.3681 95.6868 31.0484 95.6665 31.257 95.6194C32.1377 95.4208 31.6208 91.153 31.5747 89.6484C33.2002 89.6587 33.2709 89.7375 34.2159 90.6017C35.2595 91.556 36.6204 93.3328 37.5388 94.4999C38.671 95.9388 38.6155 95.6593 41.5284 95.6106C41.6275 95.3453 41.9868 95.2529 41.1873 94.6166L39.5333 92.9626C38.5296 91.8362 37.5062 90.5708 36.3172 89.7041C35.9357 89.426 35.6339 89.3021 35.3114 89.0175C37.6147 88.4463 39.7071 86.9814 39.1709 83.9738C38.4582 79.9761 33.9078 80.5064 30.3655 80.5059C28.5912 80.5056 28.8977 80.1229 28.8977 83.025C28.8977 85.1359 28.7215 94.859 29.0043 95.5081Z" fill="#201600"/>
    <path fill-rule="evenodd" clip-rule="evenodd" d="M44.7744 80.5079C44.4095 81.2588 44.5995 94.6294 44.6881 95.5999L54.5626 95.628L54.8956 93.5504L47.3123 93.5798L47.3557 88.6707L52.3268 88.8149L52.3389 86.744L47.3131 86.8177L47.3531 82.5266L54.5393 82.6319L54.2939 80.5042L44.7744 80.5079Z" fill="#201600"/>
    <path fill-rule="evenodd" clip-rule="evenodd" d="M153.218 92.3234C152.971 92.8063 153.055 93.789 153.118 94.4582C153.809 95.9727 162.256 97.5905 163.241 92.2864C163.555 90.5962 162.929 89.2536 162.063 88.4818C161.113 87.6353 160.089 87.2754 158.705 86.7282C157.521 86.2605 155.997 85.7587 155.929 84.3784C155.813 82.0513 158.805 81.7246 160.936 82.8395C161.646 83.2111 161.953 83.8353 162.659 83.73L162.712 81.2252C159.835 78.927 153.079 79.7436 153.209 84.6827C153.252 86.2894 154.171 87.3192 155.091 87.9345C156.779 89.0635 161.562 89.7413 160.428 92.4713C159.652 94.3391 156.702 94.0282 154.858 93.1356C154.203 92.8182 153.656 92.1772 153.218 92.3234Z" fill="#201600"/>
    <path fill-rule="evenodd" clip-rule="evenodd" d="M87.7727 94.443L87.805 92.4011C86.7797 92.1882 84.7429 94.7015 81.2847 93.3168C79.3531 92.5434 78.1916 90.6736 78.1908 87.9878C78.1895 83.4186 81.6651 81.6666 84.9258 82.5989C85.4276 82.7424 86.013 83.005 86.4055 83.2356C86.6848 83.3997 86.7604 83.4961 87.0239 83.6741C87.7871 84.1894 87.7105 83.8102 87.713 83.8093C87.8911 83.3355 88.0229 81.6872 87.663 81.2208C87.4469 80.9406 86.2039 80.4607 85.7038 80.3211C84.0833 79.8688 82.092 79.9295 80.5602 80.4298C73.8453 82.6231 73.8279 92.0939 78.826 94.8753C81.465 96.3437 85.6777 96.2985 87.7727 94.443Z" fill="#201600"/>
    <path fill-rule="evenodd" clip-rule="evenodd" d="M16.2167 80.5093C15.8685 81.2713 16.0772 87.0842 16.0772 87.9879C16.0772 89.7124 15.8629 94.1864 16.1483 95.5919L18.7296 95.6124C19.0096 94.5908 18.8011 90.295 18.7575 88.9894L23.8882 89.099L23.8843 87.0386L18.7572 87.0891L18.7994 82.5203L25.9959 82.6374L25.7244 80.4976L16.2167 80.5093Z" fill="#201600"/>
    <path fill-rule="evenodd" clip-rule="evenodd" d="M31.6332 87.7972C34.0329 87.8406 36.3048 87.6855 36.3992 85.1345C36.5022 82.3532 34.0526 82.4659 31.6326 82.4825L31.6332 87.7972Z" fill="white"/>
    <path fill-rule="evenodd" clip-rule="evenodd" d="M62.0438 102.038C65.1235 101.386 65.4007 106.555 62.9422 107.018C59.9173 107.587 59.5372 102.568 62.0438 102.038ZM59.1227 105.132C59.7179 109.367 66.494 108.975 65.8832 103.923C65.3588 99.5855 58.4274 100.185 59.1227 105.132Z" fill="#201600"/>
    <path fill-rule="evenodd" clip-rule="evenodd" d="M46.7125 102.043C49.8652 101.335 50.0336 106.601 47.6043 107.023C46.0854 107.286 45.2696 106.285 45.1288 104.975C44.9728 103.524 45.4083 102.335 46.7125 102.043ZM43.8005 105.132C44.425 109.346 51.1525 109.023 50.5617 103.919C50.3468 102.063 48.6078 100.675 46.4635 101.072C44.7365 101.391 43.4833 102.993 43.8005 105.132Z" fill="#201600"/>
    <path fill-rule="evenodd" clip-rule="evenodd" d="M97.3296 104.855C98.5149 104.743 99.0219 104.739 99.8261 105.399C100.094 107.237 98.9736 107.132 97.3594 107.015L97.3296 104.855ZM97.3321 102.149C98.2672 102.034 99.6131 102.017 99.494 103.148C99.3964 104.074 98.2701 104.067 97.3587 104.01L97.3321 102.149ZM99.5223 104.248C101.936 103.327 101.013 100.396 96.1384 101.286L96.1878 107.888C98.2906 108.147 102.234 108.008 100.976 105.364C100.642 104.663 100.201 104.69 99.5223 104.248Z" fill="#201600"/>
    <path fill-rule="evenodd" clip-rule="evenodd" d="M37.3125 104.867L40.5927 104.861L40.6725 107.92L41.8034 107.924L41.8023 101.22L40.6056 101.249L40.57 103.871L37.3087 103.885L37.2995 101.22L36.0841 101.246L36.1598 107.919L37.2906 107.922L37.3125 104.867Z" fill="#201600"/>
    <path fill-rule="evenodd" clip-rule="evenodd" d="M76.47 102.5L77.4389 105.197L75.606 105.211L76.47 102.5ZM74.5456 107.926C74.9456 107.394 74.9681 106.698 75.3321 106.024L77.7495 106.021L78.4446 107.91L79.6208 107.915C79.6155 107.125 77.6513 102.467 77.2687 101.228L75.9339 101.254C75.7263 101.528 73.4846 107.253 73.5658 107.924L74.5456 107.926Z" fill="#201600"/>
    <path fill-rule="evenodd" clip-rule="evenodd" d="M46.7126 102.043C45.4084 102.335 44.9729 103.524 45.1289 104.975C45.2697 106.285 46.0855 107.286 47.6044 107.022C50.0337 106.601 49.8653 101.335 46.7126 102.043Z" fill="white"/>
    <path fill-rule="evenodd" clip-rule="evenodd" d="M62.0436 102.038C59.537 102.568 59.9171 107.587 62.942 107.018C65.4005 106.555 65.1233 101.386 62.0436 102.038Z" fill="white"/>
    <path fill-rule="evenodd" clip-rule="evenodd" d="M146.72 102.136L149.925 102.144L149.812 101.221L145.531 101.228C145.491 102.422 145.372 107.051 145.615 107.927L149.904 107.928L150.013 106.977L146.732 107.021L146.726 104.864L148.92 104.832L148.921 103.983L146.734 104.013L146.72 102.136Z" fill="#201600"/>
    <path fill-rule="evenodd" clip-rule="evenodd" d="M88.7021 104.82L90.3931 104.811L90.3889 104.022C89.9806 104.027 89.5742 104.034 89.1662 104.056C88.8266 104.075 88.161 104.243 88.2064 103.958L88.2339 102.133L91.4364 102.161L91.3334 101.313C90.5107 101.08 88.0566 101.22 87.052 101.224C87.0073 102.42 86.8978 107.027 87.1225 107.923C91.06 107.944 91.5524 108.371 91.5345 106.972L88.2448 107.011L88.2449 104.854L88.7021 104.82Z" fill="#201600"/>
    <path fill-rule="evenodd" clip-rule="evenodd" d="M34.2529 106.48C33.3556 106.658 32.6816 107.448 31.3398 106.871C29.399 106.035 29.686 102.791 31.3403 102.207C32.9151 101.651 33.4006 102.574 34.258 102.702L34.2481 101.673C33.8203 100.647 28.7561 100.291 28.7102 104.528C28.6766 107.627 31.7357 108.996 34.2688 107.413L34.2529 106.48Z" fill="#201600"/>
    <path fill-rule="evenodd" clip-rule="evenodd" d="M57.7377 106.472C56.768 106.612 56.1681 107.459 54.8059 106.867C52.8917 106.036 53.1452 102.817 54.8095 102.213C56.3563 101.652 56.8579 102.549 57.742 102.711L57.695 101.555C55.0559 100.05 52.1406 101.695 52.1816 104.684C52.2223 107.656 55.2271 108.939 57.7322 107.433L57.7377 106.472Z" fill="#201600"/>
    <path fill-rule="evenodd" clip-rule="evenodd" d="M79.6598 102.203L82.0408 102.171C82.0897 103.522 81.8611 106.893 82.1402 107.931L83.206 107.909L83.2554 102.164L85.5038 102.206L85.6034 101.231L79.7946 101.221L79.6598 102.203Z" fill="#201600"/>
    <path fill-rule="evenodd" clip-rule="evenodd" d="M72.4154 106.959L69.0471 106.992L69.042 101.217L67.8263 101.254L67.896 107.922L72.301 107.93L72.4154 106.959Z" fill="#201600"/>
    <path fill-rule="evenodd" clip-rule="evenodd" d="M91.7843 95.6029L94.3197 95.6247C94.6531 93.8782 94.4365 90.4772 94.3876 88.697L101.925 88.7342C101.894 90.1196 101.708 94.5342 101.983 95.6136C105.083 95.7531 104.621 96.0708 104.621 93.2515V83.025C104.621 80.083 105.146 80.3987 101.995 80.5204C101.721 81.4523 101.884 85.3087 101.927 86.5033L94.3879 86.4912L94.4407 80.9168C94.3278 80.2945 94.4347 80.823 94.2986 80.5596L91.7983 80.51C91.5946 81.1998 91.5802 94.8168 91.7843 95.6029Z" fill="#201600"/>
    <path fill-rule="evenodd" clip-rule="evenodd" d="M116.594 95.5996L119.185 95.6255C119.593 93.7383 118.976 90.4121 119.264 88.4967C120.511 88.5423 122.193 90.8971 123.027 91.8818C123.308 92.2139 126.119 95.4911 126.454 95.617C127.356 95.6456 128.927 95.8532 129.621 95.5159C129.621 95.5159 130.044 95.5409 129.567 94.9722L127.959 93.5619C126.317 91.9689 123.865 88.9075 122.117 87.3863L126.98 82.3351C127.62 81.7417 128.51 81.0455 128.586 80.6187C128.108 80.416 127.353 80.5075 126.765 80.5056C124.842 80.4996 125.504 80.5373 123.382 82.9574C123.215 83.148 123.107 83.2045 122.938 83.4056L121.578 85.0641C120.81 85.8971 120.103 86.7383 119.216 86.8007L119.265 82.1226C119.266 81.3136 119.352 81.0157 119.113 80.5638L116.608 80.5109C116.418 81.2355 116.405 94.7577 116.594 95.5996Z" fill="#201600"/>
    <path fill-rule="evenodd" clip-rule="evenodd" d="M139.834 92.3458C139.589 92.8239 139.674 93.7902 139.75 94.434C141.178 96.0785 145.458 96.4576 147.687 95.2228C150.662 93.575 150.41 89.9249 148.696 88.4638C146.413 86.5186 142.659 86.6075 142.554 84.3818C142.442 82.0151 145.495 81.7474 147.559 82.8328C148.197 83.1685 148.587 83.8147 149.287 83.7423L149.338 81.1909C147.184 79.6217 143.704 79.5968 141.458 81.1745C139.167 82.7846 139.332 86.3631 141.718 87.9292C143.494 89.0949 148.178 89.7235 147.057 92.49C146.577 93.6743 144.908 94.0038 143.431 93.7664C140.78 93.3401 140.486 92.0567 139.834 92.3458Z" fill="#201600"/>
    <path fill-rule="evenodd" clip-rule="evenodd" d="M132.927 95.4928C133.047 95.5621 132.978 95.5886 133.239 95.6262L134.745 95.6374C135.753 95.6347 135.584 95.5581 135.584 94.605L135.585 81.521C135.584 80.346 135.611 80.4931 134.438 80.5034C133.319 80.5133 132.833 80.1684 132.819 81.2083C132.789 83.3183 132.716 95.0124 132.927 95.4928Z" fill="#201600"/>
    <path fill-rule="evenodd" clip-rule="evenodd" d="M134.332 105.433C133.495 108.411 129.492 107.145 130.409 103.51C131.077 100.859 135.377 101.715 134.332 105.433ZM133.488 107.68C133.521 107.658 133.563 107.627 133.587 107.613L133.902 107.452C134.68 107.087 135.255 106.59 135.587 105.678C136.001 104.538 135.751 103.211 135.208 102.407C134.041 100.678 130.916 100.523 129.632 102.281C128.135 104.328 129.174 107.022 131.037 107.784C132.345 108.32 132.635 107.923 134.085 108.794C135.097 109.403 136.157 110.055 137.088 109.348L137.076 108.511C136.177 108.517 136.125 108.731 135.134 108.345C134.49 108.095 134.196 107.862 133.488 107.68Z" fill="#201600"/>
    <path fill-rule="evenodd" clip-rule="evenodd" d="M108.006 105.433C107.201 108.388 103.172 107.185 104.075 103.498C104.359 102.343 105.535 101.616 106.88 102.148C107.51 102.397 107.719 102.643 107.952 103.352C108.161 103.986 108.175 104.811 108.006 105.433ZM109.32 105.584C110.609 100.691 103.927 99.3477 102.769 103.388C101.367 108.284 108.228 109.73 109.32 105.584Z" fill="#201600"/>
    <path fill-rule="evenodd" clip-rule="evenodd" d="M111.303 101.254C111.191 104.446 110.543 108.011 114.132 108.041C117.752 108.072 117.242 104.741 117.04 101.222L115.891 101.232C115.74 104.625 116.563 107.006 114.131 106.947C111.882 106.893 112.657 104.497 112.516 101.215L111.303 101.254Z" fill="#201600"/>
    <path fill-rule="evenodd" clip-rule="evenodd" d="M137.583 101.224C137.453 104.752 136.807 108.045 140.452 108.042C144.14 108.038 143.396 104.716 143.315 101.215L142.136 101.263C142.08 104.885 142.745 106.943 140.45 106.95C138.214 106.957 138.839 104.438 138.791 101.228L137.583 101.224Z" fill="#201600"/>
    <path fill-rule="evenodd" clip-rule="evenodd" d="M134.332 105.433C135.377 101.715 131.077 100.859 130.409 103.51C129.492 107.145 133.495 108.411 134.332 105.433Z" fill="white"/>
    <path fill-rule="evenodd" clip-rule="evenodd" d="M108.006 105.433C108.175 104.811 108.161 103.986 107.952 103.352C107.719 102.643 107.51 102.397 106.88 102.148C105.535 101.616 104.359 102.343 104.075 103.498C103.172 107.185 107.201 108.388 108.006 105.433Z" fill="white"/>
    <path fill-rule="evenodd" clip-rule="evenodd" d="M122.044 107.884L122.034 102.165L124.342 102.211L124.379 101.216L118.574 101.307L118.465 102.205L120.834 102.187C120.88 103.494 120.646 106.923 120.942 107.933L122.044 107.884Z" fill="#201600"/>
    <path fill-rule="evenodd" clip-rule="evenodd" d="M125.842 101.231C125.796 102.456 125.686 106.983 125.916 107.931L127.041 107.907L127.043 101.237L125.842 101.231Z" fill="#201600"/>
    <path fill-rule="evenodd" clip-rule="evenodd" d="M97.3594 107.015C98.9736 107.132 100.094 107.237 99.8261 105.399C99.0219 104.739 98.5149 104.743 97.3296 104.855L97.3594 107.015Z" fill="white"/>
    <path fill-rule="evenodd" clip-rule="evenodd" d="M97.3588 104.01C98.2702 104.067 99.3965 104.074 99.4941 103.148C99.6132 102.017 98.2673 102.034 97.3322 102.149L97.3588 104.01Z" fill="white"/>
    <path fill-rule="evenodd" clip-rule="evenodd" d="M75.606 105.211L77.4389 105.197L76.47 102.5L75.606 105.211Z" fill="white"/>
    <path fill-rule="evenodd" clip-rule="evenodd" d="M88.7021 104.82C89.0941 105.004 89.8843 105.011 90.5036 104.903L90.4961 103.958C89.7622 103.781 88.9623 103.905 88.2064 103.958C88.161 104.243 88.8266 104.075 89.1662 104.056C89.5742 104.034 89.9806 104.027 90.3889 104.022L90.3931 104.811L88.7021 104.82Z" fill="#928C82"/>
</svg>
