<svg width="180" height="180" viewBox="0 0 180 180" fill="none" xmlns="http://www.w3.org/2000/svg">
    <rect width="180" height="180" fill="#E7E7E7"/>
    <path d="M22 90.5V76H90H158V90.5V105H90H22V90.5ZM157.622 90.5312V76.3742L89.9843 76.3742L22.3463 76.3742L22.3623 90.5312L22.3783 104.688H90.0003H157.622V90.5312ZM97.7444 96.1702C97.6579 96.155 97.417 96.113 97.2093 96.0767C96.6787 95.9841 96.0984 95.8018 95.6313 95.581C95.2319 95.3921 94.313 94.7458 94.313 94.6537C94.313 94.6268 94.6194 94.349 94.9939 94.0362L95.6749 93.4676L96.0195 93.7456C96.6023 94.2158 97.0972 94.4088 98.0252 94.5278C98.6437 94.6071 99.5507 94.5658 100.048 94.4357C100.769 94.2472 101.081 93.9455 101.081 93.4373C101.081 93.1778 101.052 93.0824 100.939 92.9773C100.655 92.7129 100.342 92.6434 98.884 92.5207C98.1042 92.4551 97.2808 92.3565 97.0544 92.3016C95.5578 91.9388 94.7672 90.9098 94.9784 89.5998C95.1047 88.8172 95.6534 88.152 96.5022 87.7527C97.1897 87.4293 97.7463 87.3272 98.8148 87.3282C99.8597 87.3293 100.577 87.4459 101.364 87.7425C101.871 87.934 102.781 88.4407 102.781 88.5319C102.781 88.5723 102.023 89.2325 101.57 89.5871C101.475 89.661 101.393 89.639 100.941 89.4176C100.237 89.0734 99.6986 88.9553 98.8148 88.951C97.8978 88.9466 97.4448 89.0671 97.1019 89.4067C96.8904 89.6162 96.863 89.6784 96.863 89.9487C96.863 90.5871 97.2049 90.7381 98.9584 90.8741C99.6239 90.9258 100.366 90.9995 100.607 91.0381C102.214 91.2951 102.986 92.0593 102.991 93.4C102.994 94.1118 102.831 94.5237 102.342 95.0419C101.618 95.8076 100.623 96.1393 98.9407 96.1754C98.3694 96.1877 97.831 96.1853 97.7444 96.1702ZM109.67 96.1197C109.013 96.0135 108.332 95.8074 107.852 95.5702C107.449 95.3708 106.559 94.7415 106.559 94.6558C106.559 94.6278 106.779 94.4224 107.047 94.1994C107.316 93.9765 107.623 93.7209 107.729 93.6315L107.923 93.4689L108.232 93.7216C108.971 94.3268 109.702 94.5448 110.998 94.5467C112.608 94.5491 113.358 94.1879 113.359 93.4108C113.359 93.1976 113.322 93.1039 113.181 92.9645C112.902 92.6881 112.677 92.6464 110.472 92.4612C108.763 92.3177 107.88 91.892 107.435 90.9969C106.91 89.9407 107.265 88.7018 108.291 88.0073C109.797 86.9878 112.822 87.0981 114.637 88.2387C114.869 88.3846 115.059 88.5185 115.059 88.5363C115.059 88.586 113.748 89.6581 113.687 89.6581C113.658 89.6581 113.476 89.5734 113.283 89.4699C112.186 88.8813 110.613 88.7576 109.669 89.1855C109.263 89.3696 109.109 89.5872 109.109 89.9777C109.109 90.5877 109.475 90.7414 111.25 90.8762C112.67 90.9841 113.208 91.0636 113.674 91.2345C114.373 91.4907 114.774 91.831 115.051 92.4022C115.198 92.7058 115.217 92.8205 115.217 93.4013C115.217 94.0168 115.204 94.0832 115.01 94.4731C114.648 95.2009 113.87 95.7381 112.761 96.0251C112.114 96.1924 110.436 96.2438 109.67 96.1197ZM31.0457 96.1025C31.0226 96.0796 31.0037 94.1151 31.0037 91.7369V87.4129H31.9796H32.9556V91.7785V96.1441H32.0216C31.5079 96.1441 31.0688 96.1254 31.0457 96.1025ZM38.4333 91.7801V87.4129H39.4093H40.3852V87.6324V87.852L40.6528 87.7162C41.5356 87.2683 43.1928 87.1755 44.2179 87.5165C45.1296 87.8198 45.927 88.4652 46.2612 89.1702C46.5753 89.833 46.587 89.9762 46.587 93.1505V96.1129L45.6269 96.1301L44.6667 96.1473L44.6659 93.3237C44.6651 90.2324 44.6453 90.0278 44.305 89.6016C44.2066 89.4783 43.958 89.2937 43.7527 89.1914C43.4255 89.0284 43.2984 89.0024 42.7251 88.9814C41.6227 88.9409 40.9649 89.2019 40.594 89.8269L40.4167 90.1258L40.3852 93.1194L40.3537 96.1129L39.3935 96.1301L38.4333 96.1473V91.7801ZM54.3728 96.0779C53.8852 96.0141 53.2713 95.7385 52.9234 95.4271C52.5942 95.1325 52.2955 94.5343 52.2203 94.019C52.1881 93.7986 52.1612 92.5588 52.1605 91.264L52.1593 88.9097H51.5296H50.9V88.1613V87.4129H51.5296H52.1593V86.1656V84.9183H53.1352H54.1111V86.1656V87.4129H55.1815H56.2519V88.1613V88.9097H55.1815H54.1111V91.4074C54.1111 94.1854 54.1135 94.2023 54.5225 94.3716C54.6675 94.4316 54.9822 94.4602 55.4961 94.4602H56.2555L56.2379 95.2866L56.2204 96.1129L55.4963 96.1215C55.0981 96.1262 54.5925 96.1066 54.3728 96.0779ZM60.9111 91.7801V87.4129H61.8875H62.8638L62.8477 91.7629L62.8315 96.1129L61.8713 96.1301L60.9111 96.1473V91.7801ZM68.3407 91.7785V87.4129H69.2852H70.2296V87.6278V87.8426L70.5602 87.6986C71.645 87.2259 73.0924 87.1789 74.2164 87.58C74.6952 87.7509 75.2189 88.0546 75.4181 88.2769C75.5759 88.453 75.6084 88.4479 75.9172 88.2001C76.2899 87.9009 76.8543 87.6286 77.4389 87.4658C78.0839 87.2862 79.3423 87.2708 80.014 87.4344C81.289 87.7448 82.173 88.5144 82.5238 89.6194C82.6617 90.0537 82.6648 90.1295 82.6648 93.0882V96.1129L81.7405 96.1301L80.8163 96.1474L80.7927 93.2301C80.7664 89.9711 80.764 89.9521 80.3222 89.5016C79.917 89.0883 79.6375 89.0043 78.6667 89.0039C77.9126 89.0035 77.7812 89.0197 77.5019 89.1469C77.1247 89.3187 76.8158 89.5994 76.6306 89.9387C76.4972 90.183 76.4941 90.2493 76.4764 93.1661L76.4583 96.1441H75.5206H74.5829L74.5594 93.2285C74.5328 89.9414 74.5331 89.944 74.0572 89.4726C73.677 89.096 73.1405 88.9504 72.2577 88.9843C71.472 89.0145 71.0777 89.1518 70.7139 89.5216C70.2528 89.9903 70.2633 89.9087 70.2425 93.1973L70.2239 96.1441H69.2823H68.3407V91.7785ZM88.0481 91.7785V87.4129H88.9926H89.937V91.7785V96.1441H88.9926H88.0481V91.7785ZM119.97 91.7785V87.4129H120.915H121.859V91.7785V96.1441H120.915H119.97V91.7785ZM127.337 91.7801V87.4129H128.313H129.289V87.6324V87.852L129.536 87.7271C130.374 87.3035 131.904 87.1852 132.909 87.4663C133.46 87.6203 133.959 87.8716 134.372 88.2036L134.639 88.418L135.054 88.1252C135.513 87.8008 136.128 87.5308 136.694 87.4058C137.301 87.2715 138.548 87.3013 139.13 87.464C140.454 87.8341 141.297 88.6175 141.596 89.7542C141.676 90.0589 141.693 90.6294 141.693 93.1325V96.1441H140.748H139.804V93.2866C139.804 90.0958 139.79 89.9757 139.39 89.5371C139.049 89.1629 138.635 89.015 137.844 88.9845C136.784 88.9437 136.092 89.2195 135.732 89.8247L135.554 90.1258L135.522 93.1194L135.491 96.1129L134.531 96.1301L133.57 96.1473V93.2882C133.57 90.0957 133.557 89.9758 133.157 89.5371C132.816 89.1629 132.402 89.015 131.61 88.9845C130.436 88.9393 129.756 89.2604 129.394 90.0323C129.343 90.1407 129.311 91.0893 129.289 93.1505L129.257 96.1129L128.297 96.1301L127.337 96.1473V91.7801ZM147.107 91.7785V87.4129H148.052H148.996V91.7785V96.1441H148.052H147.107V91.7785Z" fill="black"/>
</svg>
