<svg width="180" height="180" viewBox="0 0 180 180" fill="none" xmlns="http://www.w3.org/2000/svg">
    <rect width="180" height="180" fill="#E7E7E7"/>
    <path fill-rule="evenodd" clip-rule="evenodd" d="M63.4938 73.0995C65.0531 71.0675 66.6124 69.0356 68.1681 67C69.2476 67.8714 70.1825 68.9015 71.1562 69.8893C69.0748 71.4204 67.0463 73.0255 64.9755 74.5742C64.4816 74.0803 63.9877 73.5899 63.4938 73.0996V73.0995ZM35.0388 76.2427C37.7552 76.3168 40.4786 76.1122 43.1844 76.3662C43.2126 80.342 43.0151 84.3319 43.2973 88.2971C44.2251 84.2225 45.4739 80.215 46.7228 76.2286C49.224 76.2744 51.7287 76.2427 54.2334 76.2463C51.9192 81.9224 49.5415 87.5775 47.2237 93.2537V93.5641C49.8448 100.045 52.466 106.529 55.1365 112.988C52.145 112.978 49.1499 113.009 46.1548 112.97C45.227 108.578 44.0381 104.239 43.2832 99.8153C43.0221 104.197 43.2303 108.596 43.1668 112.988C40.4433 112.988 37.7234 112.988 35 112.988C35.0493 100.74 34.9753 88.4912 35.0388 76.2427ZM56.9075 76.2427C62.1462 76.2533 67.385 76.2533 72.6237 76.2427C72.6696 77.8549 72.6343 79.4671 72.659 81.0828C70.1119 80.7441 67.5649 80.4196 65.0178 80.0668C65.039 83.704 65.0319 87.3446 65.0214 90.9853C67.3356 90.9923 69.6498 90.9818 71.964 90.9924C71.9499 92.4917 71.9499 93.991 71.9605 95.4903C69.6463 95.1445 67.3356 94.7636 65.0178 94.4249C65.0355 99.399 65.0355 104.373 65.0214 109.347C67.5437 109.002 70.0837 108.73 72.5955 108.3C72.6943 109.862 72.6272 111.425 72.6625 112.988C67.3956 112.988 62.1286 112.988 56.8616 112.988C56.9216 100.74 56.8369 88.4912 56.9075 76.2427ZM75.0685 76.2463C78.6386 76.2533 82.2087 76.2498 85.7788 76.2463C89.6594 76.2709 93.5222 77.3751 96.7924 79.4742C96.7995 89.6236 96.7783 99.773 96.7995 109.926C93.8362 111.792 90.3896 113.09 86.8442 112.992C82.9143 112.984 78.9843 112.992 75.0543 112.988C75.065 111.432 75.0543 109.877 75.0649 108.321C75.961 108.469 76.8641 108.575 77.7637 108.688C77.7602 99.3673 77.7602 90.0469 77.7672 80.7265C76.8606 80.8394 75.9575 80.977 75.0543 81.0899C75.0685 79.4741 75.0508 77.8584 75.0685 76.2463ZM85.9023 109.376C86.7948 109.344 87.6838 109.284 88.5728 109.192C88.5234 99.5155 88.6187 89.8388 88.5234 80.1621C87.6485 80.1233 86.7736 80.0809 85.8987 80.0351C85.9058 89.8141 85.8987 99.5966 85.9023 109.376ZM99.3219 81.0863C99.343 79.4706 99.3183 77.8584 99.3501 76.2463C102.945 76.2568 106.536 76.2463 110.131 76.2498C113.966 76.285 117.772 77.3822 121.011 79.4424C121 88.8651 121.007 98.2913 121.011 107.718C120.986 108.479 121.085 109.263 120.929 110.018C118.016 111.817 114.643 113.076 111.179 112.992C107.228 112.984 103.276 112.988 99.3218 112.988C99.3395 111.436 99.3289 109.88 99.3359 108.328C100.239 108.472 101.146 108.578 102.056 108.666C102.035 99.3567 102.042 90.0469 102.056 80.7336C101.142 80.8359 100.235 80.977 99.3218 81.0864L99.3219 81.0863ZM110.177 80.035C110.195 89.814 110.18 99.593 110.184 109.372C111.073 109.347 111.962 109.284 112.851 109.188C112.837 99.5471 112.83 89.9022 112.854 80.2572C111.965 80.1337 111.073 80.0667 110.177 80.035ZM124.277 79.4352C128.19 77.0152 132.998 75.65 137.57 76.6977C139.973 77.1633 142.234 78.1617 144.319 79.4247C144.262 89.6164 144.393 99.8188 144.252 110.004C141.246 111.916 137.697 113.14 134.106 112.995C130.649 113.066 127.272 111.831 124.376 110.014C124.2 109.502 124.306 108.942 124.277 108.412C124.292 98.7534 124.288 89.0943 124.277 79.4353L124.277 79.4352ZM132.42 81.2131C132.427 90.5441 132.434 99.8786 132.42 109.213C133.665 109.358 134.924 109.368 136.17 109.217C136.117 99.5752 136.233 89.9303 136.113 80.2924C135.182 79.922 134.025 80.1478 133.012 80.1337C132.265 79.9926 132.448 80.751 132.42 81.2131Z" fill="black"/>
</svg>
