<svg width="180" height="180" viewBox="0 0 180 180" fill="none" xmlns="http://www.w3.org/2000/svg">
    <rect width="180" height="180" fill="#E4042C"/>
    <path fill-rule="evenodd" clip-rule="evenodd" d="M105.814 40.9167C105.968 41.0757 106.113 41.2058 106.135 41.2058C106.158 41.2058 106.051 41.0757 105.897 40.9167C105.742 40.758 105.598 40.6279 105.575 40.6279C105.552 40.6279 105.66 40.758 105.814 40.9167ZM107.136 144.662C107.29 144.821 107.434 144.952 107.457 144.952C107.48 144.952 107.372 144.821 107.218 144.662C107.064 144.504 106.919 144.374 106.897 144.374C106.874 144.374 106.981 144.504 107.136 144.662Z" fill="#9C9C9C"/>
    <path fill-rule="evenodd" clip-rule="evenodd" d="M32.4887 34.5409L32.246 34.8094L32.5144 34.567C32.6621 34.4334 32.7828 34.3128 32.7828 34.2985C32.7828 34.2347 32.7148 34.2909 32.4887 34.5409ZM31.8934 36.0061C31.8934 36.1648 31.9102 36.2298 31.9312 36.1505C31.9518 36.0709 31.9518 35.9411 31.9312 35.8614C31.9102 35.7821 31.8934 35.8471 31.8934 36.0061Z" fill="#F4839A"/>
    <path fill-rule="evenodd" clip-rule="evenodd" d="M33.3749 34.0176C32.529 34.3096 31.9595 35.1042 31.9547 36.0001C31.9525 36.4263 38.3897 117.819 38.4485 118.107L38.4866 118.293H49.0183H59.55V76.0766V33.8602L46.6829 33.8628C34.401 33.8653 33.7955 33.8723 33.3749 34.0176ZM121.51 76.0766V118.293H132.033H142.554L142.599 117.942C142.864 115.861 149.114 35.7475 149.034 35.4612C148.828 34.7294 148.174 34.1052 147.451 33.9504C147.157 33.8872 143.182 33.8602 134.27 33.8602H121.51V76.0766Z" fill="#E4042C"/>
    <path fill-rule="evenodd" clip-rule="evenodd" d="M32.057 29.0851C29.2264 29.4917 27 32.0482 27 34.8913C27 36.0572 36.1642 150.971 36.2999 151.505C36.8942 153.847 39.005 155.65 41.4823 155.932C42.0062 155.992 57.4068 156.011 91.0673 155.994L139.892 155.97L140.509 155.779C142.622 155.125 144.211 153.524 144.719 151.536C144.992 150.468 154.121 35.036 153.999 34.1972C153.642 31.7553 151.991 29.888 149.558 29.1768C149 29.0137 33.1831 28.9233 32.057 29.0851ZM149.269 30.7521C151.063 31.3538 152.287 32.825 152.457 34.5841C152.523 35.2768 143.367 150.455 143.194 151.1C142.79 152.602 141.628 153.769 140.057 154.25C139.394 154.453 41.9445 154.492 41.1269 154.289C39.6228 153.916 38.3398 152.734 37.9018 151.317C37.743 150.804 28.5705 36.378 28.5698 34.9036C28.5692 32.9288 30.0879 31.126 32.1221 30.6874C33.0763 30.4814 148.652 30.5456 149.269 30.7521ZM88.2584 34.9049C85.5958 35.1858 81.9651 36.18 79.1342 37.4031C77.5453 38.0895 77.2295 38.3329 77.2292 38.8698C77.2289 39.5658 75.9227 41.1027 74.9161 41.5914C73.9209 42.0744 73.3809 42.2064 71.5448 42.4149C71.3488 42.4371 71.1691 42.5069 71.1449 42.5697C71.0013 42.9439 72.4978 44.7023 73.2433 45.0355C73.9466 45.3497 73.4892 45.5052 71.6528 45.5756C69.8032 45.6464 69.2657 45.9028 68.7918 46.9418C68.5643 47.4404 68.5958 47.5755 69.1316 48.3908C70.3495 50.2435 70.3181 51.3075 69.0141 52.344C67.3757 53.6467 67.3611 53.8691 68.5907 58.8702C69.0649 60.798 69.5077 62.5291 69.5751 62.717C69.7028 63.0728 69.645 63.2422 69.3962 63.2422C69.1545 63.2422 68.6507 63.603 68.4897 63.8918C67.8064 65.1161 68.0037 67.0021 69.2469 71.1244C70.1265 74.0418 70.2326 74.4331 70.5004 75.7462C71.1706 79.0371 71.9753 80.1992 73.566 80.1757C74.2036 80.1662 74.2258 80.1948 74.2935 81.111C74.4164 82.7672 74.8255 84.3758 75.4897 85.8156C75.7048 86.2808 75.8249 86.695 75.8973 87.2186C76.2191 89.5492 77.6644 92.1469 79.8454 94.3154C80.7723 95.2369 81.508 95.8338 83.8592 97.5723C84.802 98.2692 85.5733 98.8658 85.5733 98.8978C85.5733 98.9299 84.7277 98.9772 83.694 99.0029C81.8625 99.0486 81.0712 99.1526 80.846 99.378C80.5938 99.6299 80.5051 103.725 80.7418 104.182C81.0213 104.722 81.905 104.769 87.4941 104.541C88.9315 104.482 88.853 104.369 88.3019 105.702C88.0757 106.249 87.5043 107.681 87.0319 108.884C85.9595 111.614 84.9481 113.906 83.9037 115.971C82.8859 117.982 82.8561 117.764 84.1873 118.04C84.4475 118.094 85.0352 118.322 85.4938 118.546C86.6806 119.126 86.6399 119.138 87.1774 118.025C88.1297 116.052 89.8428 111.725 90.2656 110.225C90.3838 109.805 90.5105 109.462 90.5467 109.462C90.6331 109.462 90.623 117.064 90.5343 118.664C90.4403 120.366 90.4841 120.416 91.7859 120.107C92.2624 119.994 92.8519 119.92 93.3379 119.913C94.2693 119.9 94.2686 119.901 94.4081 118.79C94.788 115.762 94.1044 108.585 93.1295 105.364C92.8627 104.482 92.8653 104.459 93.236 104.397C93.8366 104.298 96.3731 104.343 97.928 104.48C99.6668 104.633 99.8923 104.612 100.059 104.281C100.254 103.897 100.313 99.9165 100.13 99.55C99.8539 98.9968 98.6233 98.7461 96.6644 98.8436C95.483 98.9023 95.4709 98.8893 96.2546 98.4072C98.8409 96.8164 102.774 93.3119 103.86 91.6297C105.526 89.0503 106.968 84.3425 106.97 81.48C106.971 80.237 106.998 80.1964 107.856 80.145C109.509 80.0466 110.019 79.1986 111.388 74.2734C112.824 69.1064 113.191 67.4071 113.201 65.8835C113.21 64.3691 113.063 64.0851 111.906 63.3768C111.63 63.2086 111.605 63.3482 112.312 61.1135C113.058 58.7518 113.247 58.0152 113.305 57.2422L113.356 56.5653L112.945 56.1692C112.218 55.4676 112.117 55.2483 111.969 54.0399C110.746 44.0232 103.898 36.6989 94.248 35.0849C93.2477 34.9179 89.2698 34.7983 88.2584 34.9049ZM91.9466 36.8347C95.8674 37.2292 99.5823 38.7381 103.162 41.3914C106.707 44.0184 108.645 47.521 109.383 52.6366C109.684 54.7244 109.484 59.4544 109.074 59.9253C108.786 60.257 108.699 60.1078 108.22 58.4513C107.309 55.3045 106.586 53.4794 105.597 51.8403C104.984 50.8226 104.89 51.026 104.877 53.401L104.866 55.3781L105.113 55.7205C106.172 57.192 106.432 57.7464 106.86 59.4404C107.215 60.8472 107.314 61.9728 107.091 62.0585C107.007 62.0903 106.416 62.0357 105.777 61.9367C104.373 61.7193 102.476 61.6736 98.6678 61.7656C95.1123 61.8516 94.4659 62.0176 92.7607 63.2838C91.8148 63.9864 91.7211 64.0238 91.1966 63.9115C90.6055 63.7849 89.94 63.7973 89.3666 63.9458C88.7628 64.1019 88.5843 64.0381 87.7625 63.3736C85.9503 61.9072 85.4106 61.8021 79.6767 61.7999L74.978 61.798L75.0196 61.1376C75.092 59.9859 75.4497 59.4515 76.4599 58.9857C77.2009 58.6439 77.1418 58.7718 77.5929 56.5336C78.4839 52.1152 79.8127 49.7024 82.2417 48.0915C84.0371 46.9009 87.3893 47.0056 90.014 48.3346C90.6122 48.6374 90.6519 48.6263 91.4606 47.9281C92.4259 47.0951 92.4259 47.0967 91.3358 46.0323C87.5411 42.3276 83.1985 41.5174 78.0017 43.5449C77.3725 43.7903 76.8461 43.9613 76.8318 43.9245C76.5942 43.3079 79.8975 41.016 82.1252 40.2519C83.62 39.739 83.4949 39.2284 81.8739 39.2259C81.2478 39.2246 81.1389 39.0894 81.4781 38.7356C82.5826 37.5839 88.5747 36.4958 91.9466 36.8347ZM82.2554 45.5452C82.6366 45.7042 82.5718 45.7902 81.8291 46.1126C79.5385 47.1075 78.1977 48.3838 76.8798 50.8252C76.5256 51.4808 76.3369 51.7251 75.8684 52.1339C74.6928 53.1599 74.5543 53.3649 74.1051 54.7412C73.4854 56.6411 73.1671 58.403 73.0254 60.7155C72.9441 62.0449 72.8713 62.2201 72.2773 62.5206C71.7065 62.8094 71.771 62.9116 71.2466 60.8859C69.779 55.2182 69.7787 55.2245 71.8545 52.2364C72.3666 51.4989 72.277 50.5186 71.556 48.9801C71.1259 48.062 71.076 48.1068 72.7681 47.8919C74.3418 47.6923 76.356 47.0865 77.8632 46.3592C79.6348 45.5046 81.3819 45.1805 82.2554 45.5452ZM75.5911 62.8836C76.0447 63.2939 75.5422 63.8344 74.9132 63.6126C74.7217 63.5453 74.4593 63.4901 74.3303 63.4901C73.9942 63.4901 73.8586 63.2156 74.108 63.041C74.2093 62.9703 74.4046 62.9115 74.5422 62.9109C74.6797 62.9103 74.8481 62.8738 74.9161 62.8297C75.1063 62.7069 75.4237 62.7323 75.5911 62.8836ZM106.367 62.9055C106.963 63.0115 107.159 63.4901 106.606 63.4901C106.5 63.4901 106.255 63.5456 106.062 63.6138C105.604 63.775 105.516 63.7703 105.318 63.5726C104.956 63.2108 105.229 62.691 105.73 62.7881C105.89 62.8189 106.176 62.8719 106.367 62.9055ZM79.2796 63.9642C79.3003 64.1089 79.2231 64.1993 78.9261 64.3767C78.7171 64.5018 78.1339 64.8734 77.6301 65.2025C76.6574 65.8381 76.4246 65.9047 76.1466 65.6274C75.8506 65.3313 76.1597 64.5617 76.7508 64.1238C77.2781 63.7335 79.2295 63.61 79.2796 63.9642ZM102.878 63.8277C103.868 64.0768 104.063 65.636 103.104 65.636C102.501 65.636 100.583 64.2231 100.716 63.8769C100.78 63.7087 102.27 63.6751 102.878 63.8277ZM83.7039 64.1451C84.1264 64.3494 84.5539 64.88 84.4704 65.0968C84.43 65.2018 84.2858 65.2142 83.5727 65.1745C82.5505 65.1174 81.9177 65.2583 80.6557 65.8238C79.6662 66.2672 79.1361 66.3969 78.8661 66.2624C78.4245 66.0425 78.6107 65.8111 79.7491 65.1647C80.1125 64.9581 80.5731 64.6953 80.7726 64.5802C81.8974 63.9312 82.9412 63.776 83.7039 64.1451ZM99.5178 64.3891C99.7065 64.4849 100.15 64.8255 100.503 65.1453C100.857 65.4652 101.396 65.8943 101.702 66.0993C102.348 66.5321 102.383 66.5734 102.22 66.7089C101.921 66.9564 100.989 66.6077 100.081 65.9095C99.2243 65.2507 98.6376 65.1269 97.3892 65.3421C96.1672 65.5528 96.0586 65.1574 97.1805 64.5827C98.1024 64.1105 98.8498 64.0486 99.5178 64.3891ZM107.643 64.5836C107.837 64.9451 107.865 65.4494 107.787 67.1976C107.685 69.4622 107.794 69.6044 108.835 68.5641C109.275 68.1252 109.334 67.9154 109.226 67.1671C109.053 65.9587 109.606 64.9343 110.329 65.1253C111.52 65.4398 111.53 66.4011 110.383 70.5053C110.136 71.3907 109.808 72.6391 109.653 73.2798C108.765 76.9677 108.147 77.948 107.01 77.4735C106.511 77.2651 106.378 77.3517 105.833 78.2425C105.217 79.2494 105.178 79.383 105.121 80.6984C104.843 87.0621 101.721 92.3329 97.1799 94.1065C96.0008 94.5673 95.6923 94.5616 95.165 94.0691C94.8045 93.7321 94.5116 93.5985 94.4856 93.7594C94.4802 93.7936 94.4691 94.2319 94.4611 94.7336C94.444 95.8132 94.3697 95.9957 93.5056 97.0813C92.708 98.0835 92.5019 98.5421 92.3078 99.7423C92.0676 101.23 88.5347 97.7227 87.5487 95.018C87.2647 94.2392 87.2829 93.1101 87.5957 92.0882C88.1793 90.1829 88.2965 89.2623 88.1119 88.031C88.0605 87.6873 88.0741 87.5794 88.1834 87.4702C88.4153 87.2386 88.6122 87.4252 89.2339 88.4654C89.6344 89.136 89.8873 88.5143 89.7469 87.204C89.6735 86.5201 89.3784 86.1824 88.6767 85.9784C87.2146 85.5538 88.2295 84.7103 90.1173 84.7814C93.268 84.8997 93.9494 84.8388 95.7181 84.2796C96.9753 83.8823 97.0783 83.882 97.6901 84.2774C98.3107 84.6782 98.3552 84.7956 98.4079 86.1869C98.4985 88.5774 99.3593 88.4483 99.8669 85.9682C100.114 84.7611 100.262 84.3818 100.651 83.9626C101.62 82.9176 102.04 81.3969 101.895 79.4624C101.807 78.284 101.608 77.9715 100.661 77.5221C100.063 77.2384 99.3107 76.4857 98.5811 75.4394C97.4289 73.7876 96.8956 73.2849 95.8318 72.8476C94.856 72.4468 94.5647 72.6277 94.7893 73.494C95.1012 74.6961 94.9637 74.9643 93.7261 75.5673C91.8583 76.4774 90.2916 76.4196 88.7952 75.3857C87.3162 74.3636 87.1234 73.0809 88.1297 70.9594C88.5836 70.002 88.6557 69.7408 88.8365 68.4007C89.1633 65.9758 89.4051 65.4706 90.2396 65.4706C90.9492 65.4706 91.2602 65.7604 91.4809 66.6264C91.9079 68.302 92.5921 68.9732 93.3297 68.4394C93.8389 68.0709 93.8862 67.9088 93.6397 67.3772C93.3039 66.6537 93.4821 66.5401 94.2982 66.9577C95.3668 67.5045 97.2727 67.7238 98.6179 67.4543C100.082 67.1614 100.682 67.2811 101.015 67.9329C101.238 68.3692 101.322 68.421 101.975 68.5232C103.009 68.6847 103.099 68.7774 102.875 69.4498C102.601 70.2755 101.746 70.8677 100.406 71.1603C99.548 71.3475 99.5353 71.3561 99.5353 71.7299C99.5353 72.4376 100.165 72.595 101.565 72.237C103.486 71.7464 104.309 70.5148 104.983 67.1214C105.412 64.9676 105.429 64.9359 106.393 64.6147C107.195 64.3469 107.511 64.339 107.643 64.5836ZM71.9168 65.3846C72.4451 65.7064 72.6531 66.4081 72.4139 67.0596C72.1363 67.8152 72.1535 68.0252 72.7665 71.372C73.2617 74.0754 73.1448 74.772 72.3177 74.0469C71.9533 73.7273 71.8136 73.4709 71.6601 72.841C71.596 72.5779 71.2593 71.3412 70.9114 70.0927C70.2009 67.541 70.1008 66.8685 70.3206 66.1136C70.5592 65.2942 71.2504 64.9784 71.9168 65.3846ZM82.8577 67.2858C83.951 67.4769 84.3624 67.488 85.3004 67.3525C86.1927 67.2236 86.3029 67.3055 85.8753 67.7784C85.5151 68.1766 85.5158 68.17 85.7889 68.692C86.4122 69.8827 84.9983 71.0029 82.6099 71.2111C81.8688 71.2755 81.7732 71.3453 81.7732 71.8204C81.7732 72.3027 81.9987 72.4141 82.9549 72.4033C84.0403 72.391 84.0037 72.3878 84.0037 72.4995C84.0037 72.5525 83.8942 72.7664 83.7601 72.9749C83.6261 73.1837 83.4587 73.5756 83.3881 73.846C83.2249 74.4718 83.1855 74.5073 82.2401 74.8789C81.8069 75.049 81.2179 75.3553 80.9311 75.559C78.5211 77.273 77.3591 76.7586 76.2791 73.4998C75.5279 71.2339 75.6959 70.8772 77.1796 71.5884C78.1742 72.065 78.5694 72.1006 78.7936 71.7328C79.1446 71.1581 79.0544 70.9594 78.2759 70.5897C76.9109 69.942 76.0116 68.5086 76.6908 68.064C76.9157 67.917 77.0853 67.9716 77.5065 68.3274C78.2873 68.9871 78.6027 68.9992 79.1592 68.3908C80.2405 67.21 81.0464 66.9691 82.8577 67.2858ZM86.1603 72.5592C86.3305 72.6969 86.341 72.7391 86.2524 72.9336C86.0732 73.3265 86.0421 73.9818 86.1838 74.3845C86.5275 75.3616 86.0783 75.7812 85.3769 75.1385C84.3014 74.1529 85.0561 71.6661 86.1603 72.5592ZM95.5723 76.716C95.7235 76.8182 96.1498 77.2733 96.5192 77.7271C97.2215 78.5893 98.1211 79.3513 98.6265 79.5109C100.947 80.2456 96.7482 81.3074 93.6181 80.7777C93.1692 80.7019 92.3373 80.4918 91.7694 80.3109C90.5645 79.9269 90.1509 79.9225 89.2475 80.2836C87.2158 81.0954 83.6299 81.182 82.1922 80.4537C81.3205 80.012 81.3387 79.7737 82.2735 79.3798C82.6118 79.2374 83.3815 78.7956 83.9837 78.3983C85.8077 77.1956 86.6437 76.9975 87.4734 77.5716C89.3514 78.8711 91.5254 78.9911 92.6346 77.8566C92.9129 77.5722 93.1931 77.3815 93.5021 77.2666C93.7534 77.1733 94.126 76.9975 94.3306 76.8757C94.9881 76.4838 95.1901 76.458 95.5723 76.716ZM79.2066 79.4544C79.3699 79.628 79.4048 79.7857 79.4674 80.6305C79.7269 84.1191 80.879 87.879 81.6884 87.879C81.8542 87.879 81.9308 87.7736 82.1912 87.1875C82.7776 85.867 83.0298 85.7702 83.2916 86.7648C83.5787 87.8552 84.18 89.8097 84.4186 90.4288C84.7934 91.4015 84.6533 91.6357 83.6975 91.6322C80.2545 91.6202 75.2934 83.6938 76.8067 80.6226C77.3604 79.4988 78.6555 78.8686 79.2066 79.4544ZM93.5774 82.1398C94.7943 82.2572 94.7419 82.4724 93.4183 82.7919C92.1528 83.0979 89.2094 83.3124 88.5874 83.1442C87.9398 82.9693 87.2082 82.348 87.4941 82.2156C87.9321 82.0129 91.7681 81.9649 93.5774 82.1398ZM119.445 124.573C110.226 125.216 104.617 130.319 104.624 138.06C104.631 145.813 112.462 149.784 123.423 147.591C125.709 147.134 125.566 147.27 125.968 145.152C126.386 142.947 126.366 142.922 124.552 143.38C116.467 145.422 111.227 141.492 112.956 134.684C113.867 131.096 116.356 128.71 119.644 128.275C122.271 127.928 124.003 129.034 124.135 131.145C124.192 132.07 124.203 132.076 125.606 132.076C127.011 132.076 126.837 132.346 127.584 128.996C128.418 125.25 128.461 125.474 126.855 125.107C124.43 124.553 122.12 124.386 119.445 124.573ZM57.7842 125.081C57.6511 125.293 57.3195 126.688 57.3195 127.037C57.3195 127.306 57.4303 127.413 58.0081 127.701C58.6075 128 58.9131 128.461 58.9551 129.127C58.9865 129.625 56.6391 140.763 56.1559 142.407C55.7217 143.886 55.0006 144.828 54.1074 145.082C53.2539 145.325 53.2504 145.328 53.0433 146.15C52.5731 148.016 51.9674 147.84 58.8448 147.84C65.4767 147.84 64.7776 147.962 65.0508 146.762C65.3624 145.393 65.3259 145.205 64.6969 144.957C64.3297 144.812 63.8793 144.354 63.7659 144.01C63.6833 143.761 64.6118 139 64.972 137.825C65.0378 137.61 65.0362 137.608 66.1629 139.628C69.3673 145.373 70.8848 146.99 73.6817 147.639C74.5254 147.835 80.8958 147.919 81.1408 147.738C81.2932 147.624 81.6833 146.222 81.6881 145.769C81.6919 145.427 81.4235 145.257 80.772 145.187C79.4258 145.044 79.2406 144.851 75.261 139.47C72.2202 135.359 72.1004 135.183 72.2456 135.046C73.0997 134.238 80.3994 128.307 80.7662 128.122C81.3577 127.824 82.176 127.571 82.7913 127.494C83.4606 127.41 83.5632 127.296 83.7547 126.422C84.1241 124.738 84.6537 124.896 78.6339 124.896C73.1811 124.896 73.4129 124.876 73.304 125.335C72.8939 127.056 72.9085 127.249 73.4692 127.563C74.3414 128.051 74.3443 128.047 70.2707 131.432C65.7252 135.208 65.5822 135.325 65.5501 135.286C65.4977 135.225 66.9005 128.982 67.0345 128.68C67.2229 128.255 67.692 127.827 68.2276 127.591C68.82 127.33 68.8334 127.309 69.0402 126.358C69.394 124.733 70.0214 124.896 63.4076 124.896H57.9014L57.7842 125.081ZM85.7079 125.081C85.5745 125.293 85.2429 126.688 85.2429 127.037C85.2429 127.307 85.3042 127.367 85.9062 127.681C86.1854 127.827 86.4478 128.046 86.5993 128.262C87.0697 128.931 87.1193 128.625 84.9621 138.391C82.8256 148.067 82.9453 147.443 83.1775 147.675C83.4189 147.916 92.3831 147.936 92.6635 147.696C92.8579 147.529 93.3036 145.642 93.2143 145.362C93.1854 145.271 93.0209 145.124 92.8484 145.037C91.4619 144.33 91.4412 143.916 92.5549 139.195L92.5987 139.009H96.4229C99.353 139.009 100.28 138.985 100.386 138.906C100.522 138.805 101.27 135.728 101.27 135.269C101.27 134.796 101.305 134.8 97.2774 134.8C93.8173 134.8 93.587 134.791 93.5885 134.655C93.5895 134.576 93.8801 133.192 94.2346 131.581L94.8788 128.651L97.5169 128.629C101.491 128.596 101.929 128.804 101.93 130.729C101.931 131.618 102.041 131.684 103.475 131.649C104.364 131.627 104.595 131.596 104.707 131.484C104.839 131.352 106.144 125.775 106.144 125.346C106.144 124.868 106.771 124.896 95.8337 124.896H85.8252L85.7079 125.081ZM147.451 147.757C147.451 148.003 147.456 148.005 147.906 148.005H148.36V149.532V151.059H148.649H148.938V149.532V148.005H149.393C149.843 148.005 149.847 148.003 149.847 147.757V147.51H148.649H147.451V147.757ZM150.673 149.285V151.059H150.921H151.169L151.172 149.8L151.175 148.542L151.514 149.264C151.946 150.181 152.023 150.185 152.467 149.305L152.811 148.624L152.816 149.841L152.821 151.059H153.069H153.317V149.285V147.51H153.064C152.823 147.51 152.79 147.553 152.414 148.356L152.018 149.202L151.593 148.356C151.196 147.566 151.151 147.51 150.92 147.51H150.673V149.285Z" fill="#050505"/>
    <path fill-rule="evenodd" clip-rule="evenodd" d="M32.2873 30.6982C30.159 31.0555 28.6607 32.8235 28.6543 34.9858C28.6521 35.7678 37.6842 149.826 37.8169 150.688C38.0857 152.436 39.5656 153.946 41.3279 154.27C42.1767 154.426 139.066 154.392 139.81 154.236C141.362 153.909 142.624 152.781 143.076 151.316C143.237 150.797 152.408 36.3717 152.408 34.8884C152.408 33.1306 151.245 31.5477 149.451 30.8623L148.98 30.6827L90.7367 30.6728C58.7031 30.6677 32.401 30.6788 32.2873 30.6982ZM59.55 76.0766V118.293H48.9754C43.1592 118.293 38.4011 118.265 38.4017 118.231C38.4024 118.197 36.9313 99.6452 35.1328 77.0048C31.9858 37.3926 31.8673 35.8246 31.9893 35.4054C32.1526 34.844 32.617 34.3039 33.15 34.056L33.5677 33.8618L46.5587 33.8609L59.55 33.8602V76.0766ZM148.077 34.1512C148.557 34.4464 148.975 35.0268 149.088 35.5555C149.151 35.8538 148.489 44.4719 145.916 76.8443C144.127 99.3459 142.662 117.877 142.661 118.025L142.66 118.293H132.044H121.428V76.0753V33.858L134.549 33.8796L147.671 33.9015L148.077 34.1512ZM94.1238 35.009C96.3143 35.3641 98.6862 36.1073 100.385 36.9705C106.944 40.3023 111.094 46.415 112.046 54.1459C112.186 55.2785 112.354 55.6326 112.995 56.1394C113.623 56.6367 113.526 57.4523 112.426 60.9142C111.663 63.3133 111.68 63.2064 112.025 63.3907C113.861 64.3736 113.757 66.0523 111.319 74.7146C110.056 79.2047 109.487 80.099 107.815 80.2221C107.036 80.2792 107.056 80.25 107.054 81.3353C107.05 84.4136 105.369 89.6974 103.655 92.0222C102.523 93.556 99.2576 96.4812 97.0153 97.969C96.4248 98.3609 95.9112 98.7065 95.8743 98.7366C95.8375 98.7668 96.414 98.7912 97.1551 98.7909C100.323 98.789 100.369 98.8375 100.287 102.116C100.217 104.895 100.336 104.761 98.1144 104.563C95.8728 104.363 94.9131 104.323 93.8938 104.386L92.9475 104.445L93.0145 104.705C94.1724 109.184 94.7333 113.993 94.5389 117.773C94.4309 119.868 94.3753 119.963 93.2401 119.983C92.6769 119.993 92.1461 120.06 91.6702 120.182C90.9924 120.354 90.9368 120.357 90.69 120.229L90.4279 120.094L90.4784 118.513C90.5864 115.136 90.6312 111.339 90.5731 110.486L90.5121 109.593L90.2373 110.497C89.602 112.586 87.327 118.129 86.8426 118.767C86.5726 119.123 86.4868 119.112 85.3938 118.581C84.8382 118.311 84.2566 118.092 83.9624 118.042C83.1816 117.91 83.1159 117.889 83.0657 117.758C83.039 117.688 83.505 116.641 84.1219 115.384C85.3471 112.887 86.1526 111.033 87.3756 107.894C87.8267 106.736 88.2933 105.558 88.413 105.276C88.6884 104.624 88.6935 104.476 88.4384 104.54C88.3333 104.566 86.7168 104.628 84.8468 104.677C80.203 104.799 80.4962 104.999 80.5464 101.745C80.5896 98.9464 80.4524 99.0752 83.4914 98.9781C84.5498 98.9445 85.4332 98.8997 85.4541 98.8788C85.4751 98.8578 84.7203 98.2704 83.7772 97.5732C78.5306 93.6962 76.3499 90.8474 75.8287 87.1881C75.7645 86.7375 75.6209 86.2491 75.4157 85.7832C74.7544 84.2819 74.4056 82.95 74.2591 81.3677C74.1486 80.1738 74.1921 80.2443 73.5629 80.2443C71.9289 80.2443 71.136 79.1047 70.4483 75.7682C70.163 74.3842 69.9337 73.5347 69.2117 71.1873C68.063 67.4521 67.7943 65.4906 68.259 64.2339C68.4722 63.658 69.029 63.1597 69.4594 63.1597C69.6694 63.1597 69.6745 63.2254 69.3908 62.2699C69.2596 61.8288 68.9776 60.7251 68.7635 59.8171C68.5494 58.9092 68.2279 57.6094 68.0491 56.9283C67.3239 54.1674 67.4617 53.5692 69.1472 52.1628C69.4575 51.9038 69.691 51.6179 69.8387 51.3164L70.0617 50.8613L69.9232 50.3047C69.7425 49.5793 69.4699 48.9881 68.9531 48.2001C68.4607 47.4492 68.4738 47.1878 69.0395 46.4398C69.5938 45.7073 70.0639 45.5404 71.6058 45.5296C72.5108 45.5233 72.9876 45.4852 73.2144 45.4005L73.5368 45.2802L73.1318 45.0435C72.5645 44.7121 71.5334 43.644 71.2395 43.0835C70.9136 42.4619 70.9711 42.4117 72.1503 42.2895C74.7839 42.0166 76.6558 40.7526 77.1571 38.9085C77.3578 38.1701 77.5475 38.0225 79.212 37.3114C84.3252 35.1274 89.7189 34.2944 94.1238 35.009ZM89.0846 36.8823C84.9303 37.3091 82.3618 37.946 81.494 38.7648C81.1677 39.0726 81.2891 39.1589 82.0832 39.184C83.587 39.2316 83.6194 39.807 82.1458 40.2976C80.3787 40.8856 77.7755 42.5326 77.085 43.4993C76.7292 43.9975 76.6911 43.9997 78.1453 43.4396C82.958 41.5854 87.1551 42.2391 90.7367 45.4002C92.4771 46.9361 92.5209 47.0827 91.5016 47.9541C90.6436 48.6878 90.6064 48.6932 89.6344 48.2318C87.589 47.2607 84.524 47.0278 83.0212 47.7295C80.2297 49.0322 78.6011 51.7223 77.631 56.6313C77.2034 58.795 77.2663 58.6585 76.5459 58.9911C75.4557 59.4941 75.0186 60.23 75.0002 61.5917C74.999 61.7003 75.5555 61.7155 79.522 61.7155C85.4176 61.7155 85.8772 61.8091 87.9045 63.4228C88.6097 63.9842 88.8435 64.0477 89.4994 63.8572C89.9771 63.7186 90.2977 63.7205 91.439 63.8699C91.8008 63.9172 91.8338 63.9017 92.6781 63.28C94.6854 61.8024 95.3496 61.6761 101.116 61.6749C104.263 61.6742 104.737 61.6917 105.577 61.8383C106.093 61.9287 106.655 62.003 106.826 62.0036L107.136 62.0043V61.5133C107.136 59.9269 106.283 57.3482 105.361 56.1445C104.778 55.3841 104.797 55.4828 104.815 53.3487C104.832 51.2853 104.833 51.2748 105.068 51.2748C105.699 51.2748 107.089 54.3699 108.252 58.3627C108.955 60.779 109.249 60.58 109.458 57.5475C109.78 52.8939 108.762 48.2648 106.746 45.2085C103.378 40.1037 95.2111 36.2533 89.0846 36.8823ZM80.5753 45.5363C79.6023 45.6905 79.043 45.873 77.8683 46.4185C75.9929 47.2893 73.2014 48.056 71.9057 48.056C71.27 48.056 71.2361 48.1591 71.608 48.9639C72.4936 50.8801 72.4816 51.4935 71.5337 52.8006C70.1557 54.7018 70.0217 55.3524 70.5309 57.6712C70.9854 59.7419 71.7367 62.6647 71.8145 62.6647C72.5254 62.6647 72.8688 62.1061 72.9495 60.8193C73.0921 58.5414 73.5022 56.3371 74.1235 54.5099C74.5025 53.3947 74.6063 53.2411 75.6015 52.3199C76.3521 51.6252 76.4945 51.4459 76.8988 50.6871C78.0735 48.4835 79.664 46.9656 81.6858 46.1183C82.4876 45.7826 82.5505 45.6931 82.0984 45.5299C81.7433 45.4017 81.4133 45.403 80.5753 45.5363ZM74.9272 62.8741C74.7744 62.9404 74.5514 62.9953 74.4316 62.996C73.9285 62.9988 73.8665 63.3514 74.3528 63.4441C74.5037 63.4729 74.7807 63.5358 74.9685 63.5837C75.416 63.6983 75.6597 63.5789 75.6597 63.2454C75.6597 62.7992 75.4014 62.6685 74.9272 62.8741ZM105.335 62.9287C105.049 63.214 105.315 63.7084 105.71 63.6269C105.835 63.6011 106.106 63.5482 106.312 63.5094C106.924 63.3946 107.121 63.1258 106.66 63.0363C106.536 63.0118 106.275 62.9557 106.081 62.9109C105.62 62.8046 105.455 62.8084 105.335 62.9287ZM78.0554 63.829C76.93 63.9566 76.2365 64.4174 76.1034 65.1263C75.9538 65.9235 76.4636 65.9102 77.7168 65.0841C78.2549 64.7293 78.8117 64.3758 78.9537 64.2984C79.3562 64.0797 79.2625 63.7135 78.813 63.7484C78.7371 63.7541 78.3962 63.7906 78.0554 63.829ZM100.812 63.8423C100.683 64.1771 102.188 65.4081 102.945 65.5858C103.773 65.781 103.936 64.3333 103.126 63.9753C102.614 63.7493 100.885 63.65 100.812 63.8423ZM81.9384 64.1438C81.0648 64.432 78.9601 65.5985 78.7698 65.9C78.4486 66.4084 79.2691 66.3792 80.4702 65.8397C81.946 65.1764 83.0079 64.9553 83.8798 65.1292C84.416 65.2361 84.5085 65.1498 84.2918 64.7455C83.9364 64.0822 82.9161 63.8214 81.9384 64.1438ZM97.7177 64.4009C96.5268 64.8261 96.0583 65.5093 97.0874 65.3199C98.4622 65.0666 99.2815 65.219 100.123 65.8832C100.949 66.5353 101.87 66.8844 102.155 66.6531C102.253 66.5737 102.271 66.5198 102.207 66.4928C101.95 66.3846 101.315 65.9051 100.568 65.2555C99.3494 64.1971 98.7729 64.0242 97.7177 64.4009ZM106.732 64.5757C105.525 64.8912 105.468 64.9737 105.068 66.9977C104.27 71.0324 103.002 72.4862 100.278 72.4862C99.0861 72.4862 99.1204 71.3625 100.32 71.1225C101.564 70.8741 102.389 70.3666 102.727 69.6421C103.088 68.8675 103.003 68.7364 102.048 68.5977C101.306 68.4902 101.238 68.4514 101.013 68.011C100.692 67.3823 99.9285 67.2071 98.7504 67.4912C97.5433 67.7825 95.3483 67.5359 94.2651 66.9875C93.4894 66.595 93.369 66.6686 93.6968 67.3363C94.0018 67.9577 93.6536 68.5454 92.863 68.7437C92.4297 68.8523 91.7871 67.9151 91.4396 66.6677C91.1874 65.7616 90.9511 65.5395 90.2392 65.5395C89.4047 65.5395 89.3117 65.762 88.7993 68.9786C88.6494 69.9192 88.5731 70.1683 88.1802 71.0007C87.2949 72.8765 87.3359 73.9279 88.3339 74.925C89.6236 76.2134 91.5921 76.4971 93.4122 75.6571C94.8801 74.9792 95.024 74.7831 94.7908 73.7781C94.5208 72.6147 94.6758 72.4148 95.6104 72.7213C96.6888 73.0752 97.4709 73.759 98.5197 75.2655C99.3615 76.4749 100.031 77.1365 100.845 77.5624C101.809 78.067 101.883 78.2266 101.916 79.8667C101.958 81.9085 101.674 82.9075 100.779 83.8785C100.334 84.3612 100.132 84.8414 99.9498 85.8569C99.7182 87.1459 99.2967 87.9202 98.8263 87.9202C98.4931 87.9202 98.3012 87.0364 98.2974 85.483C98.2942 84.1994 97.4092 83.8049 95.7209 84.3349C93.8747 84.9143 92.8443 85.0302 91.0651 84.8585C89.5023 84.7078 89.3107 84.7204 88.6764 85.0168C87.9245 85.3685 87.8762 85.7515 88.5668 85.8895C89.4044 86.0568 89.7478 86.5093 89.8352 87.5604C89.946 88.8926 89.5544 89.1801 88.9997 88.1735C88.3851 87.0583 88.0601 87.1535 88.2193 88.402C88.3476 89.4073 88.2736 89.963 87.7908 91.6151C87.2244 93.5534 87.2565 94.3122 87.9674 95.8021C88.7675 97.4802 90.3977 99.3129 91.7083 100.009C92.1057 100.22 92.1677 100.153 92.3192 99.3516C92.4837 98.4818 92.7236 97.9848 93.3716 97.1724C94.3048 96.003 94.3528 95.8907 94.4071 94.7466C94.4675 93.482 94.5507 93.3919 95.1342 93.9612C95.659 94.4734 95.9217 94.5178 96.7269 94.2303C101.346 92.5808 104.417 87.8847 104.989 81.5975C105.231 78.9432 105.157 79.271 105.733 78.3148C106.367 77.2622 106.481 77.1848 107.042 77.4256C108.119 77.8887 108.713 76.9331 109.573 73.3528C109.726 72.7172 110.039 71.5341 110.269 70.7236C111.494 66.4084 111.452 65.1406 110.081 65.1406C109.55 65.1406 109.143 66.1894 109.291 67.1795L109.392 67.8606L109.152 68.2471C108.901 68.6504 108.22 69.1848 107.956 69.1848C107.675 69.1848 107.65 68.9484 107.734 67.0802C107.851 64.4529 107.79 64.2996 106.732 64.5757ZM70.6821 65.5141C70.1862 66.0095 70.1624 67.0938 70.6106 68.7723C71.9177 73.6664 71.9524 73.7647 72.5016 74.1408C73.1407 74.5781 73.1648 73.7381 72.5988 70.7528C72.1909 68.6012 72.1109 67.6314 72.3034 67.1732C72.8205 65.9428 71.5521 64.6449 70.6821 65.5141ZM80.8053 67.3236C80.2405 67.5 79.7532 67.8291 79.2742 68.3581C78.6335 69.0655 78.3969 69.0579 77.3934 68.2975C76.977 67.9821 76.7902 67.9618 76.6145 68.2128C76.2159 68.7812 77.0564 69.9452 78.2758 70.5136C79.1205 70.9071 79.2567 71.2669 78.7873 71.8632C78.5274 72.1933 78.1297 72.1206 76.916 71.5221C75.8541 70.9985 75.6952 71.2898 76.1536 72.9203C77.1866 76.5964 78.3819 77.2498 80.9133 75.5228C81.2811 75.2721 81.8945 74.9469 82.2763 74.7999C83.155 74.4626 83.1442 74.4724 83.3417 73.8101C83.4329 73.5048 83.6162 73.0926 83.7496 72.8946C84.0682 72.4205 84.0603 72.4154 83.0749 72.4586C81.9301 72.5087 81.8145 72.4468 81.8145 71.7842C81.8145 71.2063 81.7786 71.2269 83.0276 71.0902C85.0748 70.8658 86.3547 69.7557 85.7489 68.7301C85.5081 68.3223 85.5284 68.0865 85.8334 67.739C86.193 67.33 86.0831 67.2865 85.0574 67.4328C84.2077 67.5537 84.1225 67.5515 83.0746 67.3801C81.8431 67.1786 81.3123 67.1656 80.8053 67.3236ZM85.2461 72.7182C84.6152 73.3481 84.7886 74.6895 85.571 75.2331C86.0926 75.5952 86.4083 75.3216 86.2066 74.6825C86.0456 74.1722 86.0284 73.4252 86.1666 72.9638C86.3264 72.4313 85.7003 72.264 85.2461 72.7182ZM94.8261 76.6735C94.7578 76.6999 94.572 76.803 94.4128 76.903C94.2537 77.0026 93.8833 77.1718 93.5895 77.2787C93.1784 77.4285 92.9469 77.5837 92.5828 77.9531C91.519 79.0324 89.5004 78.9514 87.6618 77.756C86.5522 77.035 85.9674 77.147 83.9843 78.4605C83.4634 78.8058 82.7156 79.2364 82.3227 79.4179C81.5251 79.7861 81.4714 79.8844 81.892 80.205C83.079 81.1094 86.9194 81.1233 89.2272 80.2313C90.1563 79.8724 90.6229 79.8794 91.8252 80.271C94.3734 81.1008 98.0455 81.0494 99.1338 80.1691C99.3421 80.0003 99.1865 79.6667 98.8993 79.6667C98.4467 79.6667 97.2949 78.7706 96.5528 77.8407C95.645 76.7037 95.3197 76.4834 94.8261 76.6735ZM78.1523 79.4113C76.7692 79.8886 76.2537 81.4197 76.814 83.3857C78.1186 87.9612 81.1735 91.5827 83.7102 91.5605C84.728 91.5516 84.741 91.497 84.1378 89.7678C83.9777 89.3086 83.6734 88.3245 83.4615 87.5807C83.2499 86.8368 83.0463 86.1955 83.0092 86.1558C82.8888 86.0266 82.5419 86.5042 82.2601 87.1862C81.8542 88.1678 81.5975 88.2141 81.0788 87.3992C80.3002 86.1752 79.3771 82.294 79.3771 80.244C79.3771 79.3665 79.0087 79.1158 78.1523 79.4113ZM88.3984 82.1579C87.3816 82.2604 87.2978 82.4064 88.0058 82.8411L88.414 83.0918L89.9473 83.0788C92.182 83.0595 94.6895 82.639 94.3846 82.3343C94.1997 82.1496 89.7748 82.0189 88.3984 82.1579ZM123.989 124.575C125.923 124.763 127.819 125.197 128.099 125.518C128.354 125.809 128.362 125.742 127.658 128.94C126.889 132.426 127.063 132.159 125.563 132.159C124.168 132.159 124.137 132.137 124.064 131.097C123.925 129.128 122.514 128.152 120.027 128.305C116.305 128.535 113.414 131.524 112.789 135.79C111.887 141.943 117.041 145.253 124.526 143.331C126.409 142.847 126.451 142.9 126.013 145.22C125.647 147.158 125.7 147.085 124.402 147.423C120.55 148.425 115.278 148.439 112.01 147.456C105.812 145.591 103.122 140.248 105.195 133.926C107.396 127.212 114.537 123.659 123.989 124.575ZM69.1583 125.078L69.3254 125.301L69.131 126.226C68.9115 127.271 68.8025 127.44 68.2085 127.654C67.7841 127.808 67.226 128.31 67.0745 128.676C66.9757 128.914 65.5831 135.153 65.6193 135.194C65.6483 135.226 73.6143 128.608 73.7363 128.451C73.992 128.121 73.8294 127.779 73.2855 127.504C73.1213 127.421 72.9965 127.282 72.9612 127.143C72.8729 126.796 73.2242 125.237 73.4431 125.004L73.6232 124.813H78.6338H83.6445L83.8357 125.017C84.0498 125.244 84.0447 125.415 83.7909 126.528C83.6013 127.36 83.5266 127.43 82.6518 127.58C81.8504 127.718 80.9257 128.047 80.4098 128.378C80.1338 128.555 72.6331 134.748 72.2824 135.088C72.1858 135.181 72.654 135.856 75.296 139.43C79.3457 144.91 79.3946 144.961 80.7392 145.111C81.7563 145.225 81.8539 145.387 81.6035 146.546C81.2748 148.068 81.6229 147.952 77.5437 147.9C71.3507 147.822 70.2567 147.043 66.2165 139.834C65.6441 138.813 65.1448 137.926 65.107 137.863C65.0072 137.698 63.73 143.567 63.7948 143.891C63.8719 144.277 64.1238 144.567 64.6038 144.823C65.4313 145.265 65.4389 145.288 65.1619 146.534C64.937 147.546 64.8652 147.718 64.6213 147.83C64.4755 147.896 62.8018 147.923 58.8137 147.923C51.987 147.923 52.5299 148.073 52.9448 146.296C53.1652 145.352 53.2475 145.236 53.7754 145.122C54.912 144.879 55.6413 144.026 56.1082 142.393C56.2289 141.97 58.8041 130.253 58.9223 129.588C59.0586 128.823 58.6479 128.057 57.9242 127.726C57.1965 127.393 57.1673 127.297 57.4281 126.106C57.746 124.653 57.0078 124.808 63.4958 124.833L68.9915 124.854L69.1583 125.078ZM106.024 125.016C106.284 125.276 106.324 124.98 105.567 128.394C104.771 131.983 104.982 131.663 103.411 131.663C101.891 131.663 101.848 131.634 101.848 130.564C101.848 129.695 101.658 129.277 101.117 128.959L100.733 128.733L97.8276 128.709L94.922 128.684L94.8226 129.163C94.768 129.426 94.4741 130.774 94.1692 132.159L93.6152 134.676L97.3305 134.717L101.046 134.758L101.216 134.986L101.386 135.214L100.999 136.96C100.704 138.291 100.569 138.752 100.431 138.899L100.25 139.091H96.4423H92.6349L92.1921 141.115C91.5822 143.903 91.6232 144.188 92.7372 144.932C92.9913 145.101 93.2254 145.315 93.2575 145.405C93.3592 145.695 92.8951 147.599 92.68 147.773C92.4551 147.955 83.7058 148.009 83.3144 147.831C82.8465 147.618 82.783 147.997 84.8642 138.571C87.1389 128.267 86.9318 129.301 86.8118 128.85C86.6714 128.324 86.374 127.981 85.8127 127.698C85.1219 127.349 85.0933 127.254 85.3344 126.116C85.4754 125.451 85.5844 125.131 85.7143 124.999L85.8963 124.813H95.8588H105.821L106.024 125.016Z" fill="#FBFBFB"/>
    <path fill-rule="evenodd" clip-rule="evenodd" d="M152.432 34.9744C152.432 35.2013 152.448 35.2845 152.467 35.1588C152.486 35.0334 152.486 34.8478 152.466 34.7462C152.447 34.6447 152.431 34.7472 152.432 34.9744ZM90.0553 36.8058C90.1347 36.8264 90.2647 36.8264 90.3444 36.8058C90.4238 36.7849 90.3587 36.768 90.1999 36.768C90.0407 36.768 89.9756 36.7849 90.0553 36.8058ZM90.7986 36.8058C90.8784 36.8264 91.0083 36.8264 91.088 36.8058C91.1674 36.7849 91.1023 36.768 90.9432 36.768C90.7843 36.768 90.7192 36.7849 90.7986 36.8058ZM70.8886 45.5544C70.9683 45.575 71.0982 45.575 71.178 45.5544C71.2574 45.5334 71.1923 45.5166 71.0334 45.5166C70.8743 45.5166 70.8092 45.5334 70.8886 45.5544ZM72.2091 51.2748C72.2091 51.4338 72.2262 51.4989 72.2469 51.4192C72.2675 51.3399 72.2675 51.2098 72.2469 51.1304C72.2262 51.0511 72.2091 51.1158 72.2091 51.2748ZM104.842 52.5953C104.842 52.7543 104.859 52.8193 104.879 52.7397C104.9 52.6604 104.9 52.5306 104.879 52.4509C104.859 52.3716 104.842 52.4366 104.842 52.5953ZM67.6708 54.6587C67.6708 54.9084 67.6863 55.0106 67.7054 54.8856C67.7241 54.7609 67.7241 54.5565 67.7054 54.4318C67.6863 54.3071 67.6708 54.4092 67.6708 54.6587ZM72.9527 61.0963C72.9527 61.2553 72.9695 61.3204 72.9905 61.2407C73.0111 61.1614 73.0111 61.0316 72.9905 60.9519C72.9695 60.8726 72.9527 60.9377 72.9527 61.0963ZM76.3001 61.7323C76.4021 61.752 76.5695 61.752 76.6717 61.7323C76.774 61.7126 76.6902 61.6968 76.4859 61.6968C76.2813 61.6968 76.1978 61.7126 76.3001 61.7323ZM82.9101 61.7326C83.0127 61.7523 83.1613 61.7517 83.2404 61.731C83.3195 61.7101 83.2354 61.6942 83.0537 61.6949C82.872 61.6958 82.8072 61.7129 82.9101 61.7326ZM98.07 61.7336C98.1954 61.7523 98.3813 61.752 98.4829 61.7323C98.5846 61.7126 98.482 61.6971 98.2545 61.6977C98.0274 61.6983 97.9442 61.7145 98.07 61.7336ZM90.0966 63.7957C90.1986 63.8153 90.366 63.8153 90.4683 63.7957C90.5706 63.776 90.4867 63.7601 90.2824 63.7601C90.0779 63.7601 89.9943 63.776 90.0966 63.7957ZM113.268 65.7185C113.268 65.8771 113.285 65.9422 113.306 65.8629C113.327 65.7835 113.327 65.6534 113.306 65.5741C113.285 65.4944 113.268 65.5595 113.268 65.7185ZM70.2307 66.9152C70.2314 67.1421 70.2476 67.2252 70.2663 67.0996C70.2854 66.9742 70.285 66.7886 70.2654 66.687C70.2457 66.5855 70.2301 66.6883 70.2307 66.9152ZM81.5058 67.1798C81.6084 67.1995 81.757 67.1989 81.8361 67.1783C81.9149 67.1576 81.831 67.1414 81.6493 67.1424C81.4673 67.1433 81.4028 67.1602 81.5058 67.1798ZM82.621 72.463C82.7465 72.4817 82.9326 72.4814 83.034 72.4617C83.1356 72.4421 83.033 72.4265 82.8059 72.4271C82.5785 72.4278 82.4956 72.444 82.621 72.463ZM100.176 72.462C100.279 72.4817 100.428 72.4811 100.507 72.4605C100.586 72.4398 100.502 72.4236 100.32 72.4246C100.138 72.4256 100.074 72.4424 100.176 72.462ZM107.445 80.2202C107.548 80.2399 107.715 80.2399 107.817 80.2202C107.919 80.2005 107.836 80.1843 107.631 80.1843C107.427 80.1843 107.343 80.2005 107.445 80.2202ZM84.6025 80.9615C84.6823 80.9824 84.8122 80.9824 84.8919 80.9615C84.9713 80.9409 84.9062 80.9237 84.7474 80.9237C84.5882 80.9237 84.5231 80.9409 84.6025 80.9615ZM90.3457 82.0376C90.4943 82.0557 90.7173 82.0554 90.8415 82.0367C90.9657 82.0179 90.8441 82.0027 90.5715 82.0033C90.299 82.0037 90.1973 82.0192 90.3457 82.0376ZM88.2361 89.1582C88.2361 89.3172 88.2533 89.3819 88.2739 89.3026C88.2949 89.2232 88.2949 89.0931 88.2739 89.0138C88.2533 88.9341 88.2361 88.9992 88.2361 89.1582ZM80.5665 101.662C80.5668 102.298 80.5795 102.547 80.5954 102.216C80.6109 101.885 80.6109 101.365 80.595 101.06C80.5792 100.756 80.5665 101.027 80.5665 101.662ZM84.8919 104.652C85.0396 104.67 85.281 104.67 85.4287 104.652C85.5765 104.634 85.4557 104.619 85.1603 104.619C84.8649 104.619 84.7442 104.634 84.8919 104.652ZM90.5566 116.56C90.5566 116.855 90.5715 116.975 90.5899 116.828C90.6084 116.68 90.6084 116.439 90.5899 116.291C90.5715 116.144 90.5566 116.265 90.5566 116.56ZM96.2152 128.671C96.9563 128.685 98.1459 128.685 98.8587 128.671C99.5715 128.657 98.9651 128.646 97.5112 128.646C96.057 128.646 95.4738 128.658 96.2152 128.671ZM124.095 131.292C124.096 131.519 124.112 131.602 124.131 131.476C124.15 131.351 124.149 131.165 124.13 131.064C124.11 130.962 124.094 131.065 124.095 131.292ZM125.084 132.137C125.345 132.153 125.772 132.153 126.034 132.137C126.295 132.121 126.081 132.107 125.559 132.107C125.036 132.107 124.822 132.121 125.084 132.137ZM94.5164 139.071C95.5501 139.084 97.2415 139.084 98.2752 139.071C99.3091 139.058 98.4632 139.047 96.396 139.047C94.3284 139.047 93.4828 139.058 94.5164 139.071ZM56.1007 147.902C57.6343 147.915 60.1437 147.915 61.6773 147.902C63.2106 147.89 61.9562 147.879 58.889 147.879C55.8221 147.879 54.5674 147.89 56.1007 147.902ZM77.0901 147.902C77.8083 147.916 78.9607 147.916 79.651 147.902C80.3409 147.888 79.7533 147.877 78.3445 147.877C76.936 147.877 76.3716 147.888 77.0901 147.902ZM85.6708 147.902C86.8829 147.915 88.8905 147.915 90.1319 147.902C91.3733 147.889 90.3816 147.879 87.928 147.879C85.4742 147.879 84.4586 147.889 85.6708 147.902Z" fill="#7C7C7C"/>
    <path fill-rule="evenodd" clip-rule="evenodd" d="M61.5052 30.6208C77.416 30.6322 103.477 30.6322 119.418 30.6208C135.359 30.609 122.341 30.5998 90.4889 30.5998C58.6371 30.5998 45.5944 30.609 61.5052 30.6208ZM90.3857 34.8291C90.6468 34.8453 91.0744 34.8453 91.3358 34.8291C91.5969 34.8126 91.3831 34.7992 90.8606 34.7992C90.338 34.7992 90.1243 34.8126 90.3857 34.8291ZM85.0984 47.2899C85.2232 47.3087 85.4278 47.3087 85.5526 47.2899C85.6778 47.2709 85.5755 47.2553 85.3255 47.2553C85.0755 47.2553 84.9735 47.2709 85.0984 47.2899ZM104.842 52.1002C104.842 52.2589 104.859 52.324 104.879 52.2446C104.9 52.1653 104.9 52.0352 104.879 51.9558C104.859 51.8762 104.842 51.9413 104.842 52.1002ZM70.1453 55.6079C70.1462 55.7894 70.1631 55.8541 70.1831 55.7513C70.2028 55.6488 70.2021 55.5003 70.1812 55.4213C70.1605 55.3422 70.1443 55.4263 70.1453 55.6079ZM78.2825 61.7361C79.1119 61.7494 80.4689 61.7494 81.298 61.7361C82.1274 61.7225 81.4489 61.7113 79.7904 61.7113C78.132 61.7113 77.4535 61.7225 78.2825 61.7361ZM99.1462 61.7355C99.4546 61.7513 99.9381 61.7513 100.22 61.7351C100.502 61.7193 100.25 61.706 99.6592 61.7063C99.0684 61.7063 98.8374 61.7196 99.1462 61.7355ZM102.489 61.7355C102.818 61.751 103.357 61.751 103.686 61.7355C104.016 61.7199 103.746 61.7069 103.088 61.7069C102.429 61.7069 102.159 61.7199 102.489 61.7355ZM107.819 65.636C107.819 65.84 107.835 65.9238 107.855 65.8216C107.875 65.7194 107.875 65.5522 107.855 65.45C107.835 65.3481 107.819 65.4316 107.819 65.636ZM68.0783 66.131C68.0783 66.29 68.0955 66.3551 68.1161 66.2754C68.1368 66.1961 68.1368 66.066 68.1161 65.9866C68.0955 65.9073 68.0783 65.972 68.0783 66.131ZM73.0384 73.5591C73.0384 73.7635 73.0546 73.8469 73.0743 73.7447C73.094 73.6426 73.094 73.4756 73.0743 73.3734C73.0546 73.2713 73.0384 73.3547 73.0384 73.5591ZM88.0519 74.7406C88.0519 74.7545 88.1726 74.8754 88.3203 75.0087L88.5887 75.2512L88.346 74.9827C88.1199 74.733 88.0519 74.6768 88.0519 74.7406ZM90.5937 78.6534C90.7421 78.6718 90.9651 78.6715 91.0893 78.6528C91.2135 78.6338 91.0921 78.6188 90.8193 78.6192C90.5467 78.6198 90.4451 78.635 90.5937 78.6534ZM79.3965 80.1618C79.3965 80.3208 79.4134 80.3858 79.4344 80.3065C79.455 80.2268 79.455 80.097 79.4344 80.0174C79.4134 79.938 79.3965 80.0031 79.3965 80.1618ZM106.999 81.1522C106.999 81.5381 107.013 81.6961 107.031 81.5032C107.048 81.3102 107.048 80.9945 107.031 80.8015C107.013 80.6086 106.999 80.7663 106.999 81.1522ZM85.1406 80.9631C85.2432 80.9827 85.3922 80.9821 85.471 80.9615C85.5501 80.9409 85.4659 80.9247 85.2842 80.9256C85.1025 80.9266 85.0377 80.9434 85.1406 80.9631ZM89.6843 82.036C89.7872 82.0557 89.9359 82.0551 90.015 82.0344C90.0938 82.0138 90.0099 81.9976 89.8279 81.9986C89.6462 81.9995 89.5817 82.0163 89.6843 82.036ZM91.1706 82.036C91.2726 82.0557 91.44 82.0557 91.5423 82.036C91.6445 82.0163 91.5607 82.0002 91.3564 82.0002C91.1519 82.0002 91.0683 82.0163 91.1706 82.036ZM100.774 91.6754C100.574 91.8797 100.428 92.047 100.451 92.047C100.474 92.047 100.656 91.8797 100.857 91.6754C101.057 91.4713 101.203 91.3041 101.18 91.3041C101.158 91.3041 100.975 91.4713 100.774 91.6754ZM102.176 93.5943L101.642 94.1516L102.199 93.6175C102.506 93.3237 102.757 93.073 102.757 93.0603C102.757 92.9996 102.673 93.0768 102.176 93.5943ZM94.438 94.7704C94.438 95.0202 94.4532 95.1224 94.4723 94.9973C94.4913 94.8726 94.4913 94.6682 94.4723 94.5435C94.4532 94.4188 94.438 94.5207 94.438 94.7704ZM100.23 102.364C100.23 103.113 100.242 103.419 100.258 103.045C100.273 102.67 100.273 102.057 100.258 101.683C100.242 101.308 100.23 101.615 100.23 102.364ZM80.5585 103.189C80.5585 103.439 80.5741 103.541 80.5931 103.416C80.6119 103.291 80.6119 103.087 80.5931 102.962C80.5741 102.837 80.5585 102.939 80.5585 103.189ZM87.5767 104.567C87.6564 104.587 87.7863 104.587 87.8658 104.567C87.9455 104.546 87.8804 104.529 87.7212 104.529C87.5624 104.529 87.4973 104.546 87.5767 104.567ZM84.0244 104.651C84.1492 104.67 84.3538 104.67 84.4786 104.651C84.6038 104.632 84.5015 104.617 84.2515 104.617C84.0015 104.617 83.8993 104.632 84.0244 104.651ZM81.7538 104.734C81.9025 104.753 82.1255 104.753 82.2497 104.733C82.3739 104.715 82.2522 104.7 81.9797 104.7C81.7071 104.701 81.6055 104.716 81.7538 104.734ZM94.4322 114.826C94.4322 114.985 94.4494 115.05 94.47 114.971C94.4907 114.891 94.4907 114.761 94.47 114.682C94.4494 114.603 94.4322 114.667 94.4322 114.826ZM90.5537 117.426C90.5544 117.653 90.5706 117.736 90.5896 117.611C90.6084 117.485 90.608 117.3 90.5883 117.198C90.5687 117.097 90.5531 117.199 90.5537 117.426ZM60.7272 124.875C62.2154 124.887 64.6502 124.887 66.1384 124.875C67.6266 124.862 66.4091 124.852 63.4327 124.852C60.4566 124.852 59.2391 124.862 60.7272 124.875ZM76.1759 124.875C77.5278 124.888 79.7399 124.888 81.0915 124.875C82.4435 124.862 81.3374 124.852 78.6339 124.852C75.9303 124.852 74.8243 124.862 76.1759 124.875ZM90.9289 124.875C93.6702 124.887 98.1313 124.887 100.843 124.875C103.554 124.863 101.311 124.853 95.8588 124.853C90.4063 124.853 88.1879 124.863 90.9289 124.875ZM120.166 128.256C120.313 128.275 120.573 128.275 120.745 128.257C120.916 128.239 120.796 128.224 120.478 128.224C120.16 128.224 120.019 128.238 120.166 128.256ZM95.3839 134.779C96.3947 134.792 98.049 134.792 99.0601 134.779C100.071 134.766 99.244 134.755 97.2219 134.755C95.2 134.755 94.3728 134.766 95.3839 134.779ZM112.614 137.152C112.614 137.424 112.63 137.526 112.648 137.377C112.666 137.229 112.666 137.006 112.647 136.882C112.628 136.758 112.613 136.88 112.614 137.152ZM104.517 138.101C104.517 138.351 104.532 138.453 104.551 138.328C104.57 138.203 104.57 137.999 104.551 137.874C104.532 137.749 104.517 137.851 104.517 138.101ZM120.003 143.938C120.151 143.956 120.392 143.956 120.54 143.938C120.687 143.92 120.567 143.905 120.271 143.905C119.976 143.905 119.855 143.92 120.003 143.938ZM116.326 148.145C116.406 148.165 116.536 148.165 116.616 148.145C116.695 148.124 116.63 148.107 116.471 148.107C116.312 148.107 116.247 148.124 116.326 148.145ZM118.722 148.145C118.802 148.165 118.932 148.165 119.011 148.145C119.091 148.124 119.026 148.107 118.867 148.107C118.708 148.107 118.643 148.124 118.722 148.145ZM66.221 154.422C79.591 154.434 101.469 154.434 114.839 154.422C128.209 154.411 117.27 154.401 90.5302 154.401C63.79 154.401 52.8511 154.411 66.221 154.422Z" fill="#6C6C6C"/>
    <path fill-rule="evenodd" clip-rule="evenodd" d="M28.5943 35.0157C28.5943 35.2651 28.6098 35.3673 28.6289 35.2426C28.6476 35.1179 28.6476 34.9135 28.6289 34.7884C28.6098 34.6637 28.5943 34.7659 28.5943 35.0157ZM81.9187 39.2008C82.0213 39.2205 82.1702 39.2195 82.249 39.1989C82.3281 39.1783 82.2439 39.1621 82.0622 39.163C81.8805 39.164 81.8157 39.1808 81.9187 39.2008ZM82.6623 42.4196C82.7649 42.4393 82.9135 42.4384 82.9926 42.4177C83.0717 42.3971 82.9876 42.3809 82.8059 42.3819C82.6242 42.3828 82.5594 42.3996 82.6623 42.4196ZM104.849 53.3382C104.849 53.6333 104.864 53.7539 104.882 53.6064C104.9 53.4588 104.9 53.2176 104.882 53.0701C104.864 52.9225 104.849 53.0431 104.849 53.3382ZM113.352 57.0108C113.353 57.1927 113.37 57.2571 113.39 57.1546C113.41 57.0518 113.409 56.9033 113.388 56.8242C113.368 56.7455 113.351 56.8293 113.352 57.0108ZM109.468 57.2174C109.468 57.3761 109.485 57.4412 109.506 57.3618C109.527 57.2822 109.527 57.1524 109.506 57.073C109.485 56.9934 109.468 57.0584 109.468 57.2174ZM97.4076 61.731C97.4874 61.752 97.6173 61.752 97.697 61.731C97.7764 61.7104 97.7113 61.6933 97.5525 61.6933C97.3933 61.6933 97.3282 61.7104 97.4076 61.731ZM107.733 66.9564C107.733 67.1154 107.75 67.1802 107.771 67.1008C107.792 67.0215 107.792 66.8914 107.771 66.812C107.75 66.7324 107.733 66.7974 107.733 66.9564ZM76.5084 81.9776C76.5084 82.182 76.5243 82.2655 76.544 82.1633C76.5637 82.0611 76.5637 81.8942 76.544 81.792C76.5243 81.6898 76.5084 81.7733 76.5084 81.9776ZM88.9813 83.1899C89.0607 83.2108 89.1906 83.2108 89.2704 83.1899C89.3498 83.1693 89.2847 83.1524 89.1258 83.1524C88.9667 83.1524 88.9016 83.1693 88.9813 83.1899ZM91.7074 84.9232C91.7868 84.9442 91.917 84.9442 91.9965 84.9232C92.0762 84.9026 92.0111 84.8855 91.8519 84.8855C91.6931 84.8855 91.628 84.9026 91.7074 84.9232ZM92.6162 84.9232C92.6956 84.9442 92.8258 84.9442 92.9053 84.9232C92.985 84.9026 92.9199 84.8855 92.7607 84.8855C92.6016 84.8855 92.5368 84.9026 92.6162 84.9232ZM98.3225 85.8569C98.3225 86.152 98.3374 86.2726 98.3555 86.125C98.3739 85.9774 98.3739 85.7359 98.3555 85.5887C98.3374 85.4411 98.3225 85.5617 98.3225 85.8569ZM97.0786 98.7915C97.204 98.8102 97.3899 98.8099 97.4915 98.7902C97.5931 98.7706 97.4905 98.755 97.2631 98.7557C97.036 98.7563 96.9528 98.7725 97.0786 98.7915ZM84.9754 98.9556C85.078 98.9753 85.2267 98.9746 85.3058 98.954C85.3849 98.9334 85.3007 98.9172 85.119 98.9181C84.9373 98.9191 84.8725 98.9359 84.9754 98.9556ZM100.298 100.218C100.298 100.377 100.315 100.442 100.335 100.362C100.356 100.283 100.356 100.153 100.335 100.073C100.315 99.9939 100.298 100.059 100.298 100.218ZM95.9207 104.402C96.0001 104.422 96.1304 104.422 96.2098 104.402C96.2895 104.381 96.2244 104.364 96.0652 104.364C95.9064 104.364 95.8413 104.381 95.9207 104.402ZM85.9671 104.652C86.1158 104.67 86.3388 104.67 86.463 104.651C86.5872 104.632 86.4655 104.617 86.193 104.618C85.9204 104.618 85.8188 104.634 85.9671 104.652ZM90.5537 109.998C90.5543 110.225 90.5705 110.308 90.5896 110.183C90.6083 110.057 90.608 109.872 90.5883 109.77C90.5686 109.669 90.5531 109.771 90.5537 109.998ZM90.561 115.198C90.5613 115.697 90.575 115.891 90.5912 115.628C90.6077 115.365 90.6077 114.957 90.5909 114.72C90.5743 114.484 90.561 114.698 90.561 115.198ZM94.5278 116.766C94.5278 117.356 94.5412 117.587 94.557 117.278C94.5729 116.97 94.5729 116.487 94.5567 116.205C94.5405 115.924 94.5275 116.176 94.5278 116.766ZM75.35 147.897C75.4294 147.918 75.5596 147.918 75.639 147.897C75.7184 147.876 75.6533 147.859 75.4945 147.859C75.3353 147.859 75.2702 147.876 75.35 147.897Z" fill="#BCBCBC"/>
    <path fill-rule="evenodd" clip-rule="evenodd" d="M121.469 76.0766C121.469 99.318 121.478 108.814 121.49 97.1778C121.502 85.542 121.502 66.5261 121.49 54.9202C121.478 43.3145 121.469 52.8349 121.469 76.0766ZM91.3152 45.9926C91.5388 46.2195 91.7405 46.4052 91.7634 46.4052C91.7859 46.4052 91.6214 46.2195 91.3978 45.9926C91.1738 45.7657 90.9721 45.5801 90.9496 45.5801C90.9267 45.5801 91.0912 45.7657 91.3152 45.9926ZM78.754 48.0766L78.4274 48.4273L78.7784 48.1011C79.105 47.7977 79.1676 47.726 79.105 47.726C79.0913 47.726 78.9334 47.8837 78.754 48.0766ZM103.289 71.3513L103.046 71.6195L103.315 71.377C103.462 71.2437 103.583 71.1232 103.583 71.1089C103.583 71.0451 103.515 71.1013 103.289 71.3513ZM96.8915 78.2894C96.8915 78.3037 97.0122 78.4243 97.1599 78.5576L97.4287 78.8001L97.186 78.5319C96.9598 78.2818 96.8915 78.2257 96.8915 78.2894ZM108.205 128.919L107.92 129.229L108.23 128.944C108.519 128.679 108.578 128.61 108.515 128.61C108.501 128.61 108.362 128.749 108.205 128.919ZM114.24 141.593C114.24 141.608 114.361 141.728 114.509 141.862L114.778 142.104L114.535 141.836C114.309 141.586 114.24 141.53 114.24 141.593Z" fill="#CCCCCC"/>
</svg>
