<svg width="180" height="180" viewBox="0 0 180 180" fill="none" xmlns="http://www.w3.org/2000/svg">
    <rect width="180" height="180" fill="#E7E7E7"/>
    <path fill-rule="evenodd" clip-rule="evenodd" d="M179.939 78.9011L179.817 110.429C166.146 117.723 152.667 118.096 137.891 111.842C123.114 105.588 100.163 106.07 84.2018 113.653C68.2411 121.235 65.2129 118.259 50.6058 112.736C35.9987 107.214 16.0787 101.339 0.243926 111.362L0 80.9784C14.679 73.1116 27.4028 72.2717 44.036 79.2522C60.6693 86.2315 81.3774 82.062 94.3108 77.2815C107.244 72.5008 111.416 70.2881 127.18 75.9926C142.943 81.6975 164.911 87.0205 179.939 78.9011Z" fill="#FEFEFE"/>
    <path fill-rule="evenodd" clip-rule="evenodd" d="M179.939 67.9146L179.817 82.3957C166.146 85.3149 152.727 88.6002 137.891 83.058C123.054 77.5157 106.407 75.1645 91.1326 82.0589C75.8577 88.9533 59.3831 86.6386 43.6754 82.0909C27.9679 77.543 16.0787 75.6952 0.243926 82.8333L0 68.5935C14.9012 64.0161 28.1614 60.8718 44.036 67.7843C59.9111 74.6972 80.6741 71.4092 94.3108 66.861C107.947 62.3132 112.238 61.3765 127.18 66.2575C142.121 71.1387 163.976 74.2138 179.939 67.9146Z" fill="#393476"/>
    <path fill-rule="evenodd" clip-rule="evenodd" d="M179.939 109.034L179.817 123.977C167.301 129.986 152.264 129.916 137.429 125.102C122.593 120.287 106.176 116.976 90.9015 123.871C75.6267 130.765 59.3831 127.758 43.6754 123.21C27.9679 118.662 15.8477 117.507 0.0129818 124.646L0 108.789C14.9012 104.211 28.1614 101.991 44.036 108.904C59.9111 115.817 79.2788 111.663 94.3108 107.981C109.342 104.299 113.922 103.478 127.18 107.376C140.437 111.276 163.976 115.334 179.939 109.034Z" fill="#FBBA00"/>
    <path fill-rule="evenodd" clip-rule="evenodd" d="M41.3312 94.0039L39.9712 93.2321C41.0916 92.4317 42.4252 91.7743 43.9724 91.2598C45.9466 90.6309 48.2 90.317 50.7345 90.317C54.656 90.317 57.937 91.384 60.5777 93.5176C61.832 94.5469 62.7782 95.6814 63.4191 96.9188C64.0589 98.158 64.3791 99.5198 64.3791 101.007C64.3791 103.865 63.1186 106.195 60.5974 107.996C58.0771 109.796 54.7895 110.696 50.7345 110.696C49.3208 110.696 48.0472 110.639 46.9133 110.524C45.7792 110.41 44.7461 110.22 43.8121 109.953C42.4517 109.572 41.1448 108.952 39.891 108.095L41.2112 107.238C42.1188 107.943 43.2786 108.533 44.6923 109.011C46.0532 109.411 47.8268 109.61 50.0142 109.61C53.1352 109.61 55.5564 108.834 57.2766 107.28C58.9973 105.727 59.857 103.855 59.857 101.664L58.3769 102.006C57.8434 102.121 57.3505 102.178 56.8968 102.178C56.2835 102.178 55.7226 102.102 55.2156 101.95L53.7355 101.435C53.4156 101.302 52.995 101.174 52.4753 101.049C51.9548 100.925 51.428 100.863 50.8945 100.863C50.2271 100.863 49.5743 100.931 48.9333 101.064C48.5072 101.14 48.1669 101.211 47.9133 101.278C47.6601 101.344 47.3201 101.464 46.8936 101.636V100.148C48.3608 99.54 49.6537 99.2337 50.7744 99.2337C51.3882 99.2337 51.9817 99.2968 52.5551 99.4207C53.1285 99.5437 53.6821 99.7295 54.2161 99.9775L55.6559 100.463C56.1097 100.558 56.5765 100.606 57.0571 100.606C57.9634 100.606 58.8973 100.453 59.857 100.148C59.857 97.8241 59.0573 95.8132 57.4571 94.1178C55.7226 92.3083 53.2414 91.4029 50.0142 91.4029C48.1206 91.4029 46.3865 91.6697 44.8125 92.2027C43.5325 92.6223 42.3719 93.2225 41.3312 94.0039Z" fill="#383481"/>
    <path fill-rule="evenodd" clip-rule="evenodd" d="M68.7635 96.7733H82.4298V97.6308H77.4855V110.779H73.8685V97.6308H68.7635V96.7733Z" fill="#383481"/>
    <path fill-rule="evenodd" clip-rule="evenodd" d="M85.4079 96.6463H89.3511L97.5506 107.451L105.209 96.6463H106.455L92.9629 115.796H91.7181L95.7029 110.137L85.4079 96.6463Z" fill="#383481"/>
    <path fill-rule="evenodd" clip-rule="evenodd" d="M122.784 109.696V102.979H116.763C115.38 102.979 114.303 103.312 113.532 103.979C112.761 104.646 112.375 105.475 112.375 106.465C112.375 107.456 112.714 108.242 113.392 108.824C114.07 109.406 115.087 109.696 116.442 109.696H122.784ZM122.784 99.6347C122.784 98.72 122.458 98.0578 121.806 97.6478C121.155 97.2378 119.899 97.0331 118.038 97.0331C116.124 97.0331 114.821 97.2378 114.13 97.6478C113.439 98.0578 113.093 98.7678 113.093 99.7778H109.784C109.784 98.5768 110.527 97.6771 112.016 97.0758C113.505 96.4762 115.513 96.1762 118.038 96.1762C121.201 96.1762 123.389 96.453 124.597 97.0048C125.807 97.5579 126.412 98.5578 126.412 100.006V110.524H115.526C113.372 110.524 111.73 110.162 110.601 109.438C109.471 108.714 108.907 107.77 108.907 106.609C108.907 105.294 109.597 104.217 110.979 103.379C112.362 102.54 114.356 102.121 116.962 102.121H122.784V99.6347Z" fill="#383481"/>
    <path fill-rule="evenodd" clip-rule="evenodd" d="M171.096 109.667C172.566 109.667 173.689 109.352 174.465 108.723C175.242 108.095 175.63 107.295 175.63 106.323C175.63 105.351 175.256 104.551 174.507 103.922C173.758 103.293 172.69 102.979 171.304 102.979H165.897V109.667H171.096ZM165.897 96.519V102.121H170.889C173.578 102.121 175.63 102.511 177.044 103.293C178.458 104.074 179.165 105.083 179.165 106.323C179.165 107.523 178.444 108.523 177.003 109.324C175.561 110.124 173.523 110.524 170.889 110.524H162.154V96.519H165.897Z" fill="#383481"/>
    <path fill-rule="evenodd" clip-rule="evenodd" d="M129.279 110.779C135.144 88.3782 153.701 90.1701 159.247 110.944C159.313 111.192 160.457 109.499 160.514 109.755C154.597 83.387 132.328 85.8188 128.255 111.803L129.279 110.779Z" fill="#383481"/>
    <path fill-rule="evenodd" clip-rule="evenodd" d="M2.96774 110.779C8.8327 88.3782 27.3901 90.1701 32.9361 110.944C33.0022 111.192 34.146 109.499 34.2031 109.755C28.2858 83.387 6.01709 85.8188 1.94379 111.803L2.96774 110.779Z" fill="#383481"/>
    <path fill-rule="evenodd" clip-rule="evenodd" d="M33.25 93.0663L33.9501 95.2111L34.9665 93.0766C35.4619 92.7842 35.7961 92.2451 35.7961 91.6306C35.7961 90.7058 35.0424 89.9519 34.1174 89.9519C33.1932 89.9519 32.4392 90.7058 32.4392 91.6306C32.4392 92.2381 32.7647 92.7715 33.25 93.0663Z" fill="#383481"/>
</svg>
