<svg width="197" height="97" viewBox="0 0 197 97" fill="none" xmlns="http://www.w3.org/2000/svg">
    <path d="M52.8267 90.7255V96.3998H51.8266V90.7255H50.0264V89.8307H54.6374V90.7255H52.8267Z" fill="#00B4C2"/>
    <path d="M59.6064 95.7471C59.144 96.2004 58.5222 96.4542 57.8747 96.4542C57.2271 96.4542 56.6053 96.2004 56.1429 95.7471C55.8712 95.3788 55.6755 94.9602 55.5671 94.5156C55.4587 94.071 55.4397 93.6093 55.5113 93.1573V92.8099C55.4497 92.3978 55.4741 91.9775 55.5828 91.5753C55.6915 91.1731 55.8821 90.7978 56.1429 90.4728C56.6091 90.0269 57.2295 89.778 57.8747 89.778C58.5198 89.778 59.1402 90.0269 59.6064 90.4728C59.85 90.7766 60.0311 91.1255 60.1395 91.4994C60.2479 91.8734 60.2814 92.2651 60.2381 92.652V93.1152C60.3155 93.5738 60.2994 94.0433 60.1908 94.4956C60.0823 94.9478 59.8836 95.3735 59.6064 95.7471ZM58.8484 91.0729C58.7207 90.9436 58.5681 90.8415 58.3998 90.7728C58.2316 90.704 58.0511 90.67 57.8694 90.6728C57.6878 90.6712 57.5078 90.7058 57.3397 90.7744C57.1716 90.8431 57.0188 90.9446 56.8903 91.0729C56.5008 91.4834 56.5114 92.1256 56.5114 93.0731C56.5114 94.0205 56.5114 94.7259 56.8903 95.1786C57.0169 95.3102 57.169 95.4146 57.3374 95.4852C57.5058 95.5558 57.6868 95.5912 57.8694 95.5891C58.0524 95.5944 58.2345 95.5606 58.4033 95.4898C58.5722 95.4189 58.7239 95.3128 58.8484 95.1786C59.238 94.7785 59.2379 94.1995 59.2379 93.0731C59.2379 91.9466 59.238 91.4834 58.8484 91.0939" fill="#00B4C2"/>
    <path d="M64.1438 93.81H62.6489V96.4314H61.5961V89.8622H64.0911C64.6188 89.8622 65.1249 90.0719 65.498 90.445C65.8712 90.8182 66.0808 91.3242 66.0808 91.8519C66.0808 92.3796 65.8712 92.8857 65.498 93.2589C65.1249 93.632 64.6188 93.8416 64.0911 93.8416L64.1438 93.81ZM64.028 90.7571H62.5962V92.9468H64.028C64.3183 92.9468 64.5968 92.8314 64.8021 92.6261C65.0074 92.4208 65.1228 92.1423 65.1228 91.8519C65.1228 91.5616 65.0074 91.2831 64.8021 91.0778C64.5968 90.8724 64.3183 90.7571 64.028 90.7571Z" fill="#00B4C2"/>
    <path d="M68.4705 90.7255V96.3998H67.4704V89.8307H71.5129V90.7255H68.4705Z" fill="#00B4C2"/>
    <path d="M76.4819 95.7471C76.0195 96.2004 75.3978 96.4542 74.7502 96.4542C74.1026 96.4542 73.4809 96.2004 73.0184 95.7471C72.7468 95.3788 72.5511 94.9602 72.4426 94.5156C72.3342 94.071 72.3152 93.6093 72.3868 93.1573V92.8099C72.3226 92.3978 72.3457 91.9769 72.4545 91.5743C72.5633 91.1717 72.7554 90.7965 73.0184 90.4728C73.4847 90.0269 74.105 89.778 74.7502 89.778C75.3954 89.778 76.0156 90.0269 76.4819 90.4728C76.7254 90.7766 76.9066 91.1255 77.015 91.4994C77.1234 91.8734 77.1569 92.2651 77.1136 92.652V93.1152C77.191 93.5738 77.1749 94.0433 77.0664 94.4956C76.9578 94.9478 76.759 95.3735 76.4819 95.7471ZM75.724 91.0729C75.4623 90.817 75.1109 90.6737 74.7449 90.6737C74.3789 90.6737 74.0275 90.817 73.7659 91.0729C73.3764 91.4834 73.3868 92.1256 73.3868 93.0731C73.3868 94.0205 73.3869 94.7259 73.7659 95.1786C73.8916 95.3112 74.0436 95.4163 74.2121 95.487C74.3807 95.5577 74.5622 95.5925 74.7449 95.5891C74.9279 95.5944 75.11 95.5606 75.2788 95.4898C75.4477 95.4189 75.5995 95.3128 75.724 95.1786C76.103 94.7785 76.1029 94.1995 76.1029 93.0731C76.1029 91.9466 76.103 91.4834 75.724 91.0939" fill="#00B4C2"/>
    <path d="M81.1771 96.4314H78.5242V89.8622H81.0824C81.3317 89.8323 81.5845 89.8559 81.824 89.9312C82.0635 90.0066 82.2843 90.1322 82.4715 90.2995C82.6587 90.4668 82.8081 90.672 82.9099 90.9016C83.0116 91.1312 83.0633 91.3798 83.0615 91.6308C83.0749 91.9307 82.9977 92.2276 82.84 92.483C82.6823 92.7383 82.4514 92.9403 82.1773 93.0626C82.4813 93.1813 82.7404 93.3925 82.9179 93.6664C83.0955 93.9403 83.1826 94.263 83.1668 94.589C83.1778 94.8468 83.1326 95.1038 83.0344 95.3423C82.9362 95.5808 82.7873 95.7951 82.5981 95.9704C82.4088 96.1456 82.1837 96.2776 81.9383 96.3572C81.6929 96.4368 81.4332 96.4621 81.1771 96.4314ZM80.9982 90.7571H79.5243V92.6415H80.9982C81.6614 92.6415 82.0509 92.2835 82.0509 91.694C82.0509 91.1045 81.6404 90.7571 80.9982 90.7571ZM81.0824 93.5363H79.5243V95.5365H81.0824C81.2239 95.5495 81.3665 95.5311 81.5001 95.4828C81.6337 95.4345 81.755 95.3573 81.8555 95.2569C81.9559 95.1564 82.0331 95.0351 82.0814 94.9015C82.1297 94.7679 82.1481 94.6253 82.1351 94.4838C82.1403 94.3469 82.1161 94.2106 82.0642 94.0839C82.0122 93.9572 81.9337 93.8432 81.834 93.7494C81.7342 93.6556 81.6155 93.5843 81.4859 93.5403C81.3562 93.4963 81.2186 93.4806 81.0824 93.4942" fill="#00B4C2"/>
    <path d="M87.062 96.4313H84.5459V89.8622H85.5987V92.4414H87.1146C87.3888 92.4215 87.6641 92.4583 87.9234 92.5495C88.1827 92.6408 88.4205 92.7845 88.6218 92.9717C88.8231 93.1588 88.9836 93.3855 89.0934 93.6375C89.2032 93.8896 89.2598 94.1615 89.2598 94.4364C89.2598 94.7113 89.2032 94.9832 89.0934 95.2352C88.9836 95.4872 88.8231 95.7139 88.6218 95.9011C88.4205 96.0883 88.1827 96.232 87.9234 96.3232C87.6641 96.4145 87.3888 96.4513 87.1146 96.4313H87.062ZM86.9778 93.2731H85.5461V95.4733H86.9778C87.2695 95.4733 87.5493 95.3574 87.7556 95.1511C87.9619 94.9448 88.0779 94.665 88.0779 94.3732C88.0779 94.0814 87.9619 93.8016 87.7556 93.5953C87.5493 93.389 87.2695 93.2731 86.9778 93.2731ZM89.936 89.799H90.9887V96.4313H89.936V89.799Z" fill="#00B4C2"/>
    <path d="M96.4103 96.4314V91.6624L93.4627 96.4314H92.5573V89.8622H93.6101V94.6207L96.5472 89.8622H97.4526V96.4314H96.4103ZM94.9892 89.4833C94.8057 89.5006 94.6206 89.4804 94.4452 89.4239C94.2698 89.3673 94.1078 89.2757 93.9689 89.1546C93.8301 89.0335 93.7173 88.8853 93.6375 88.7192C93.5577 88.5531 93.5126 88.3725 93.5048 88.1884H94.1364C94.1675 88.376 94.271 88.5439 94.4245 88.6561C94.578 88.7683 94.7694 88.8158 94.9576 88.7885C95.0496 88.8018 95.1433 88.7969 95.2333 88.774C95.3234 88.751 95.408 88.7105 95.4824 88.6547C95.5567 88.599 95.6193 88.5291 95.6665 88.449C95.7138 88.369 95.7447 88.2804 95.7576 88.1884H96.4314C96.4237 88.3725 96.3785 88.5531 96.2987 88.7192C96.2189 88.8853 96.1062 89.0335 95.9673 89.1546C95.8284 89.2757 95.6664 89.3673 95.491 89.4239C95.3156 89.4804 95.1305 89.5006 94.9471 89.4833" fill="#00B4C2"/>
    <path d="M105.285 96.3998L103.443 93.1574L102.337 94.4943V96.3998H101.337V89.8307H102.337V93.1363L105.011 89.8307H106.232L104.106 92.4099L106.453 96.3998H105.285Z" fill="#00B4C2"/>
    <path d="M111.075 95.7471C110.613 96.2004 109.991 96.4542 109.343 96.4542C108.696 96.4542 108.074 96.2004 107.612 95.7471C107.34 95.3788 107.144 94.9602 107.036 94.5156C106.927 94.071 106.908 93.6093 106.98 93.1573V92.8099C106.918 92.3978 106.943 91.9775 107.051 91.5753C107.16 91.1731 107.351 90.7978 107.612 90.4728C108.078 90.0269 108.698 89.778 109.343 89.778C109.989 89.778 110.609 90.0269 111.075 90.4728C111.319 90.7766 111.5 91.1255 111.608 91.4994C111.717 91.8734 111.75 92.2651 111.707 92.652V93.1152C111.784 93.5738 111.768 94.0433 111.66 94.4956C111.551 94.9478 111.352 95.3735 111.075 95.7471ZM110.317 91.0729C110.189 90.9436 110.037 90.8415 109.869 90.7728C109.7 90.704 109.52 90.67 109.338 90.6728C109.157 90.6712 108.976 90.7058 108.808 90.7744C108.64 90.8431 108.488 90.9446 108.359 91.0729C107.97 91.4834 107.98 92.1256 107.98 93.0731C107.98 94.0205 107.98 94.7259 108.359 95.1786C108.486 95.3102 108.638 95.4146 108.806 95.4852C108.974 95.5558 109.156 95.5912 109.338 95.5891C109.521 95.5944 109.703 95.5606 109.872 95.4898C110.041 95.4189 110.193 95.3128 110.317 95.1786C110.707 94.7785 110.707 94.1995 110.707 93.0731C110.707 91.9466 110.707 91.4834 110.317 91.0939" fill="#00B4C2"/>
    <path d="M117.918 96.3998V92.0099L116.402 95.2102H115.665L114.117 92.0099V96.3998H113.128V89.8307H114.107L116.033 93.9153L117.918 89.8307H118.918V96.3998H117.918Z" fill="#00B4C2"/>
    <path d="M124.182 96.3998V90.7255H121.529V96.3998H120.539V89.8307H125.182V96.3998H124.182Z" fill="#00B4C2"/>
    <path d="M130.646 96.4314V90.7571H128.814L128.719 93.5995C128.656 95.6102 128.024 96.4314 126.771 96.4314H126.266V95.5365H126.498C127.203 95.5365 127.687 95.1786 127.729 93.431L127.835 89.8201H131.635V96.4314H130.646Z" fill="#00B4C2"/>
    <path d="M133.267 96.3998V89.8307H137.467V90.7255H134.267V92.6415H136.994V93.5363H134.267V95.505H137.467V96.3998H133.267Z" fill="#00B4C2"/>
    <path d="M142.689 96.3998L140.847 93.1574L139.731 94.4943V96.3998H138.741V89.8307H139.731V93.1363L142.405 89.8307H143.636L141.499 92.4099L143.858 96.3998H142.689Z" fill="#00B4C2"/>
    <path d="M147.721 96.2735C147.413 96.3961 147.084 96.4569 146.753 96.4524C146.43 96.4593 146.11 96.4002 145.811 96.2789C145.513 96.1577 145.242 95.9767 145.016 95.7471C144.737 95.3744 144.536 94.9491 144.426 94.4968C144.315 94.0445 144.297 93.5746 144.373 93.1153V92.8415C144.373 91.6414 144.468 91.0308 145.016 90.4729C145.242 90.2475 145.512 90.0698 145.808 89.9505C146.105 89.8311 146.422 89.7725 146.742 89.778C147.077 89.7725 147.41 89.8333 147.721 89.957C148.04 90.0981 148.329 90.2981 148.574 90.5466L147.911 91.2203C147.769 91.0481 147.59 90.9097 147.388 90.815C147.186 90.7204 146.965 90.6718 146.742 90.6729C146.563 90.6689 146.384 90.7014 146.218 90.7684C146.051 90.8353 145.9 90.9353 145.773 91.0624C145.42 91.6499 145.282 92.3424 145.384 93.0205V93.2732C145.384 94.3996 145.458 94.7891 145.773 95.1155C145.896 95.2487 146.046 95.3535 146.214 95.4226C146.381 95.4917 146.561 95.5234 146.742 95.5155C146.966 95.5146 147.187 95.4641 147.389 95.3676C147.591 95.2711 147.769 95.1311 147.911 94.9576L148.574 95.6313C148.326 95.8791 148.038 96.0821 147.721 96.2314" fill="#00B4C2"/>
    <path d="M3.6846 60.238V76.8398H0V56.8271H9.13781V60.238H3.6846Z" fill="#999797"/>
    <path d="M17.7282 76.8398L17.0545 73.6079H13.0751L12.433 76.8398H8.7589L13.4015 56.8376H16.665L21.3813 76.8398H17.7282ZM15.3912 65.5965L15.0017 63.4068L14.6332 65.5965L13.5804 70.576H16.3913L15.3912 65.5965Z" fill="#999797"/>
    <path d="M31.1613 76.8398V60.2275H28.6031L28.382 69.4496C28.2662 73.9132 27.0029 76.8188 23.1183 76.8188H22.0655V73.3868C24.2868 73.3868 24.5395 71.0287 24.5605 69.3443L24.8764 56.8061H34.8564V76.8082L31.1613 76.8398Z" fill="#999797"/>
    <path d="M37.7198 76.8398V56.8271H46.9945V60.238H41.4044V65.0701H46.1207V68.4389H41.4044V73.4394H46.9945V76.8398H37.7198Z" fill="#999797"/>
    <path d="M54.848 69.3127H52.9952V76.8398H49.3106V56.8376H54.848C58.1957 56.8376 60.217 58.5536 60.217 62.7435V63.4489C60.217 67.6599 58.2484 69.3232 54.848 69.3232V69.3127ZM56.5324 62.912C56.5324 60.9749 56.0061 60.1854 54.4901 60.1854H52.9952V65.9755H54.4901C56.0061 65.9755 56.5324 65.2385 56.5324 63.2804V62.912Z" fill="#999797"/>
    <path d="M62.5646 76.8398V56.8271H71.8392V60.238H66.2387V65.0701H70.9655V68.4389H66.2387V73.4394H71.8392V76.8398H62.5646Z" fill="#999797"/>
    <path d="M81.4298 76.8398V69.2285H80.2192L77.661 76.8398H73.8079L76.8399 68.4178C75.2713 67.723 74.208 66.0913 74.208 63.1541V62.5014C74.208 58.9642 75.8081 56.8271 79.3769 56.8271H85.0829V76.8293L81.4298 76.8398ZM81.4298 60.1433H79.8296C78.4505 60.1433 77.9452 60.9855 77.9452 62.733V63.3541C77.9452 65.0912 78.5558 65.9334 79.8296 65.9334H81.4298V60.1433Z" fill="#999797"/>
    <path d="M102.232 77.0083L101.558 73.7869H97.5473L96.9051 77.0083H93.2837L97.9158 57.0061H101.169L105.885 77.0083H102.232ZM99.9054 65.786L99.5159 63.5963L99.1475 65.786L98.0948 70.755H100.895L99.9054 65.786Z" fill="#00B4C2"/>
    <path d="M112.444 77.2083C109.285 77.2083 107.18 75.3554 107.18 70.8918H110.801C110.865 73.1447 111.37 73.8395 112.517 73.8395C113.665 73.8395 114.254 73.2815 114.254 70.8707V68.5336H110.443V65.228H114.254V63.0594C114.254 60.6802 113.549 60.1433 112.486 60.1433C111.222 60.1433 110.865 61.0065 110.833 63.0278H107.18C107.18 58.4062 109.433 56.8271 112.444 56.8271C115.455 56.8271 117.834 58.2904 117.834 62.9751V71.0602C117.834 75.7449 115.476 77.2083 112.444 77.2083Z" fill="#00B4C2"/>
    <path d="M125.971 69.4917H124.119V77.0083H120.455V57.0061H125.982C129.319 57.0061 131.34 58.7221 131.34 62.9015V63.5963C131.34 67.8073 129.382 69.4706 125.982 69.4706L125.971 69.4917ZM127.666 63.0699C127.666 61.1329 127.129 60.3433 125.561 60.3433H124.076V66.1229H125.561C127.077 66.1229 127.666 65.3965 127.666 63.4279V63.0699Z" fill="#00B4C2"/>
    <path d="M138.91 77.2083C135.909 77.2083 133.52 75.7449 133.52 71.0602V62.9751C133.52 58.2904 135.909 56.8271 138.91 56.8271C141.91 56.8271 144.3 58.2904 144.3 62.9751V71.0602C144.3 75.7449 141.942 77.2083 138.91 77.2083ZM140.626 63.0594C140.626 60.6696 139.889 60.2275 138.91 60.2275C137.931 60.2275 137.225 60.6696 137.225 63.0594V70.9444C137.225 73.3341 137.931 73.8079 138.91 73.8079C139.889 73.8079 140.626 73.3341 140.626 70.9444V63.0594Z" fill="#00B4C2"/>
    <path d="M153.985 77.0082V60.4275H150.627V77.0082H146.942V57.0271H157.691V77.0082H153.985Z" fill="#00B4C2"/>
    <path d="M165.723 77.2083C162.723 77.2083 160.333 75.7449 160.333 71.0602V62.9751C160.333 58.2904 162.723 56.8271 165.723 56.8271C168.723 56.8271 171.113 58.2904 171.113 62.9751V71.0602C171.113 75.7449 168.755 77.2083 165.723 77.2083ZM167.428 63.0594C167.428 60.6696 166.702 60.2275 165.723 60.2275C164.744 60.2275 164.039 60.6696 164.039 63.0594V70.9444C164.039 73.3341 164.744 73.8079 165.723 73.8079C166.702 73.8079 167.428 73.3341 167.428 70.9444V63.0594Z" fill="#00B4C2"/>
    <path d="M179.251 69.4917H177.398V77.0083H173.724V57.0061H179.251C182.588 57.0061 184.609 58.7221 184.609 62.9015V63.5963C184.609 67.8073 182.641 69.4706 179.251 69.4706V69.4917ZM180.935 63.0699C180.935 61.1329 180.398 60.3433 178.83 60.3433H177.345V66.1229H178.83C180.346 66.1229 180.935 65.3965 180.935 63.4279V63.0699Z" fill="#00B4C2"/>
    <path d="M193.558 60.4275V77.0082H189.873V60.4275H186.367V57.0271H197V60.4275H193.558Z" fill="#00B4C2"/>
    <path d="M48.142 30.4559V31.1191L102.695 26.0449L103.58 25.0237L48.142 30.4559Z" fill="#00B4C2"/>
    <path d="M48.142 32.6666V33.3299L99.8633 29.3505L100.716 28.3609L48.142 32.6666Z" fill="#00B4C2"/>
    <path d="M23.8658 30.3401L23.9394 31.0349L54.2585 35.2038V34.7406L23.8658 30.3401Z" fill="#00B4C2"/>
    <path d="M24.1394 32.6982L24.2237 33.4246L54.2585 36.825V36.3302L24.1394 32.6982Z" fill="#00B4C2"/>
    <path d="M24.4237 35.1721L24.5185 35.9407L54.2585 38.5515V38.0251L24.4237 35.1721Z" fill="#00B4C2"/>
    <path d="M24.7289 37.7935L24.8343 38.6041L54.2585 40.3833V39.8148L24.7289 37.7935Z" fill="#00B4C2"/>
    <path d="M25.0553 40.5623L25.1606 41.4255L54.2585 42.3309V41.7308L25.0553 40.5623Z" fill="#00B4C2"/>
    <path d="M25.508 44.289H54.2585V43.6468L25.4027 43.3731L25.508 44.289Z" fill="#00B4C2"/>
    <path d="M55.1322 34.3616V35.0669L99.4843 32.4245V31.5086L55.1322 34.3616Z" fill="#00B4C2"/>
    <path d="M55.1322 36.7092V37.404L99.4843 35.4564V34.5511L55.1322 36.7092Z" fill="#00B4C2"/>
    <path d="M55.1322 39.0358V39.7306L99.4843 38.4778V37.5724L55.1322 39.0358Z" fill="#00B4C2"/>
    <path d="M55.1322 41.3097V42.015L99.4843 41.4571V40.5096L55.1322 41.3097Z" fill="#00B4C2"/>
    <path d="M55.1322 43.6573V44.289H99.4843V43.5626L55.1322 43.6573Z" fill="#00B4C2"/>
    <path d="M126.645 0L100.348 30.2243V31.0138L126.414 2.6845L173.197 18.6652L173.724 17.1492L126.645 0Z" fill="#00B4C2"/>
    <path d="M123.003 41.9413L100.348 43.4678V44.289H122.803H122.813H164.375L164.912 42.7098L123.003 41.9413Z" fill="#00B4C2"/>
    <path d="M100.348 32.814V33.6141L125.656 11.4854L171.45 23.7499L171.976 22.2234L125.877 8.87463L100.348 32.814Z" fill="#00B4C2"/>
    <path d="M100.348 35.4459V36.267L124.908 20.0548L169.692 28.8663L170.218 27.3292L125.129 17.5071L100.348 35.4459Z" fill="#00B4C2"/>
    <path d="M100.348 38.1199V38.9199L124.182 28.3714L167.923 34.0036L168.45 32.4561L124.403 25.908L100.348 38.1199Z" fill="#00B4C2"/>
    <path d="M100.348 40.7938V41.6044L123.466 36.4776L166.134 39.1621L166.67 37.6145L123.666 34.0668L100.348 40.7938Z" fill="#00B4C2"/>
</svg>
