<svg width="105" height="51" viewBox="0 0 105 51" fill="none" xmlns="http://www.w3.org/2000/svg">
    <path d="M27.9319 47.971V50.9713H27.4032V47.971H26.4513V47.4979H28.8894V47.971H27.9319Z" fill="#00B4C2"/>
    <path d="M31.5167 50.6261C31.2721 50.8658 30.9434 51 30.601 51C30.2586 51 29.9298 50.8658 29.6853 50.6261C29.5417 50.4314 29.4382 50.21 29.3809 49.975C29.3235 49.7399 29.3135 49.4958 29.3513 49.2568V49.0731C29.3188 48.8552 29.3317 48.633 29.3891 48.4203C29.4466 48.2077 29.5474 48.0092 29.6853 47.8374C29.9318 47.6016 30.2598 47.47 30.601 47.47C30.9421 47.47 31.2701 47.6016 31.5167 47.8374C31.6454 47.998 31.7412 48.1825 31.7985 48.3802C31.8558 48.5779 31.8735 48.785 31.8506 48.9896V49.2345C31.8915 49.477 31.883 49.7253 31.8256 49.9644C31.7683 50.2035 31.6632 50.4286 31.5167 50.6261ZM31.1159 48.1546C31.0483 48.0863 30.9676 48.0323 30.8786 47.996C30.7897 47.9596 30.6943 47.9416 30.5982 47.9431C30.5022 47.9423 30.407 47.9605 30.3181 47.9968C30.2292 48.0332 30.1485 48.0868 30.0805 48.1546C29.8746 48.3717 29.8801 48.7113 29.8801 49.2122C29.8801 49.7132 29.8801 50.0862 30.0805 50.3255C30.1474 50.3951 30.2278 50.4503 30.3169 50.4877C30.4059 50.525 30.5017 50.5437 30.5982 50.5426C30.695 50.5454 30.7912 50.5275 30.8805 50.4901C30.9698 50.4526 31.05 50.3965 31.1159 50.3255C31.3218 50.114 31.3218 49.8078 31.3218 49.2122C31.3218 48.6166 31.3218 48.3717 31.1159 48.1658" fill="#00B4C2"/>
    <path d="M33.916 49.6019H33.1256V50.9879H32.569V47.5145H33.8882C34.1672 47.5145 34.4348 47.6253 34.6321 47.8226C34.8294 48.0199 34.9402 48.2875 34.9402 48.5665C34.9402 48.8455 34.8294 49.1131 34.6321 49.3104C34.4348 49.5077 34.1672 49.6186 33.8882 49.6186L33.916 49.6019ZM33.8548 47.9876H33.0977V49.1454H33.8548C34.0083 49.1454 34.1556 49.0844 34.2641 48.9759C34.3727 48.8673 34.4337 48.72 34.4337 48.5665C34.4337 48.413 34.3727 48.2657 34.2641 48.1572C34.1556 48.0486 34.0083 47.9876 33.8548 47.9876Z" fill="#00B4C2"/>
    <path d="M36.2036 47.971V50.9713H35.6748V47.4979H37.8123V47.971H36.2036Z" fill="#00B4C2"/>
    <path d="M40.4396 50.6261C40.1951 50.8658 39.8663 51 39.5239 51C39.1816 51 38.8528 50.8658 38.6083 50.6261C38.4646 50.4314 38.3612 50.21 38.3038 49.975C38.2465 49.7399 38.2365 49.4958 38.2743 49.2568V49.0731C38.2404 48.8552 38.2526 48.6326 38.3101 48.4198C38.3676 48.2069 38.4692 48.0085 38.6083 47.8374C38.8548 47.6016 39.1828 47.47 39.5239 47.47C39.8651 47.47 40.1931 47.6016 40.4396 47.8374C40.5683 47.998 40.6641 48.1825 40.7214 48.3802C40.7788 48.5779 40.7965 48.785 40.7736 48.9896V49.2345C40.8145 49.477 40.806 49.7253 40.7486 49.9644C40.6912 50.2035 40.5861 50.4286 40.4396 50.6261ZM40.0388 48.1546C39.9005 48.0193 39.7147 47.9436 39.5212 47.9436C39.3276 47.9436 39.1418 48.0193 39.0035 48.1546C38.7975 48.3717 38.8031 48.7113 38.8031 49.2122C38.8031 49.7132 38.8031 50.0862 39.0035 50.3255C39.07 50.3957 39.1503 50.4512 39.2394 50.4886C39.3286 50.526 39.4245 50.5444 39.5212 50.5426C39.6179 50.5454 39.7142 50.5275 39.8035 50.4901C39.8927 50.4526 39.973 50.3965 40.0388 50.3255C40.2392 50.114 40.2392 49.8078 40.2392 49.2122C40.2392 48.6166 40.2392 48.3717 40.0388 48.1658" fill="#00B4C2"/>
    <path d="M42.9221 50.9879H41.5194V47.5145H42.872C43.0039 47.4987 43.1375 47.5111 43.2642 47.551C43.3908 47.5908 43.5075 47.6572 43.6065 47.7457C43.7055 47.8341 43.7845 47.9427 43.8383 48.064C43.8921 48.1854 43.9195 48.3169 43.9185 48.4496C43.9256 48.6082 43.8848 48.7652 43.8014 48.9002C43.718 49.0352 43.5959 49.142 43.451 49.2066C43.6117 49.2694 43.7487 49.3811 43.8426 49.5259C43.9365 49.6707 43.9825 49.8414 43.9742 50.0138C43.98 50.15 43.9561 50.2859 43.9042 50.412C43.8522 50.5382 43.7735 50.6515 43.6735 50.7441C43.5734 50.8368 43.4543 50.9066 43.3246 50.9487C43.1949 50.9908 43.0576 51.0041 42.9221 50.9879ZM42.8275 47.9876H42.0482V48.984H42.8275C43.1782 48.984 43.3842 48.7947 43.3842 48.483C43.3842 48.1713 43.1671 47.9876 42.8275 47.9876ZM42.872 49.4571H42.0482V50.5147H42.872C42.9468 50.5216 43.0223 50.5119 43.0929 50.4863C43.1635 50.4608 43.2277 50.42 43.2808 50.3669C43.3339 50.3138 43.3747 50.2496 43.4003 50.179C43.4258 50.1083 43.4355 50.0329 43.4287 49.9581C43.4314 49.8858 43.4186 49.8137 43.3912 49.7467C43.3637 49.6797 43.3222 49.6194 43.2694 49.5698C43.2167 49.5202 43.1539 49.4825 43.0854 49.4592C43.0168 49.436 42.9441 49.4277 42.872 49.4349" fill="#00B4C2"/>
    <path d="M46.0339 50.9878H44.7035V47.5144H45.2601V48.8782H46.0617C46.2066 48.8676 46.3522 48.8871 46.4893 48.9353C46.6264 48.9836 46.7522 49.0595 46.8586 49.1585C46.965 49.2575 47.0499 49.3774 47.108 49.5106C47.166 49.6439 47.196 49.7877 47.196 49.933C47.196 50.0783 47.166 50.2221 47.108 50.3554C47.0499 50.4886 46.965 50.6085 46.8586 50.7075C46.7522 50.8065 46.6264 50.8824 46.4893 50.9307C46.3522 50.9789 46.2066 50.9984 46.0617 50.9878H46.0339ZM45.9893 49.3179H45.2323V50.4813H45.9893C46.1436 50.4813 46.2915 50.42 46.4006 50.3109C46.5097 50.2018 46.571 50.0539 46.571 49.8996C46.571 49.7453 46.5097 49.5974 46.4006 49.4883C46.2915 49.3792 46.1436 49.3179 45.9893 49.3179ZM47.5535 47.481H48.1101V50.9878H47.5535V47.481Z" fill="#00B4C2"/>
    <path d="M50.9768 50.9879V48.4663L49.4183 50.9879H48.9396V47.5144H49.4962V50.0304L51.0492 47.5144H51.5279V50.9879H50.9768ZM50.2254 47.3141C50.1284 47.3232 50.0306 47.3125 49.9378 47.2826C49.8451 47.2528 49.7594 47.2043 49.686 47.1403C49.6125 47.0762 49.5529 46.9979 49.5107 46.9101C49.4685 46.8222 49.4447 46.7267 49.4406 46.6294H49.7745C49.791 46.7286 49.8457 46.8174 49.9268 46.8767C50.008 46.936 50.1092 46.9611 50.2087 46.9467C50.2574 46.9538 50.3069 46.9512 50.3545 46.939C50.4021 46.9269 50.4469 46.9055 50.4862 46.876C50.5255 46.8465 50.5586 46.8095 50.5836 46.7672C50.6085 46.7249 50.6249 46.6781 50.6317 46.6294H50.988C50.9839 46.7267 50.96 46.8222 50.9178 46.9101C50.8756 46.9979 50.816 47.0762 50.7426 47.1403C50.6692 47.2043 50.5835 47.2528 50.4907 47.2826C50.398 47.3125 50.3002 47.3232 50.2032 47.3141" fill="#00B4C2"/>
    <path d="M55.6693 50.9713L54.6952 49.2568L54.1107 49.9638V50.9713H53.5819V47.4979H54.1107V49.2457L55.5246 47.4979H56.1703L55.0459 48.8616L56.2872 50.9713H55.6693Z" fill="#00B4C2"/>
    <path d="M58.7308 50.6261C58.4862 50.8658 58.1575 51 57.8151 51C57.4727 51 57.1439 50.8658 56.8994 50.6261C56.7558 50.4314 56.6523 50.21 56.595 49.975C56.5376 49.7399 56.5276 49.4958 56.5654 49.2568V49.0731C56.5329 48.8552 56.5458 48.633 56.6033 48.4203C56.6607 48.2077 56.7615 48.0092 56.8994 47.8374C57.1459 47.6016 57.4739 47.47 57.8151 47.47C58.1562 47.47 58.4842 47.6016 58.7308 47.8374C58.8595 47.998 58.9553 48.1825 59.0126 48.3802C59.0699 48.5779 59.0876 48.785 59.0647 48.9896V49.2345C59.1057 49.477 59.0972 49.7253 59.0398 49.9644C58.9824 50.2035 58.8773 50.4286 58.7308 50.6261ZM58.33 48.1546C58.2624 48.0863 58.1817 48.0323 58.0928 47.996C58.0038 47.9596 57.9084 47.9416 57.8123 47.9431C57.7163 47.9423 57.6211 47.9605 57.5322 47.9968C57.4433 48.0332 57.3626 48.0868 57.2946 48.1546C57.0887 48.3717 57.0943 48.7113 57.0943 49.2122C57.0943 49.7132 57.0942 50.0862 57.2946 50.3255C57.3615 50.3951 57.442 50.4503 57.531 50.4877C57.62 50.525 57.7158 50.5437 57.8123 50.5426C57.9091 50.5454 58.0053 50.5275 58.0946 50.4901C58.1839 50.4526 58.2641 50.3965 58.33 50.3255C58.5359 50.114 58.5359 49.8078 58.5359 49.2122C58.5359 48.6166 58.5359 48.3717 58.33 48.1658" fill="#00B4C2"/>
    <path d="M62.349 50.9713V48.6501L61.5474 50.3423H61.1578L60.3395 48.6501V50.9713H59.8163V47.4979H60.334L61.3526 49.6576L62.349 47.4979H62.8778V50.9713H62.349Z" fill="#00B4C2"/>
    <path d="M65.6608 50.9713V47.971H64.2581V50.9713H63.7349V47.4979H66.1896V50.9713H65.6608Z" fill="#00B4C2"/>
    <path d="M69.0785 50.9879V47.9876H68.11L68.0599 49.4905C68.0265 50.5537 67.6925 50.9879 67.0301 50.9879H66.7629V50.5147H66.8854C67.2583 50.5147 67.5144 50.3255 67.5366 49.4014L67.5923 47.4922H69.6018V50.9879H69.0785Z" fill="#00B4C2"/>
    <path d="M70.4647 50.9713V47.4979H72.6857V47.971H70.9935V48.9841H72.4352V49.4572H70.9935V50.4981H72.6857V50.9713H70.4647Z" fill="#00B4C2"/>
    <path d="M75.4465 50.9713L74.4724 49.2568L73.8824 49.9638V50.9713H73.3591V47.4979H73.8824V49.2457L75.2962 47.4979H75.9475L74.8175 48.8616L76.0644 50.9713H75.4465Z" fill="#00B4C2"/>
    <path d="M78.1074 50.9044C77.9446 50.9692 77.7706 51.0014 77.5953 50.999C77.4249 51.0026 77.2555 50.9714 77.0976 50.9073C76.9397 50.8431 76.7965 50.7474 76.6769 50.6261C76.5294 50.429 76.4233 50.2041 76.3649 49.9649C76.3066 49.7258 76.2972 49.4773 76.3373 49.2345V49.0897C76.3373 48.4552 76.3874 48.1323 76.6769 47.8373C76.7967 47.7181 76.9393 47.6242 77.0961 47.5611C77.2529 47.498 77.4207 47.467 77.5897 47.4699C77.7668 47.467 77.9428 47.4991 78.1074 47.5646C78.276 47.6391 78.429 47.7449 78.5583 47.8763L78.2076 48.2325C78.1325 48.1415 78.0381 48.0683 77.9313 48.0182C77.8244 47.9682 77.7077 47.9425 77.5897 47.9431C77.4949 47.941 77.4006 47.9581 77.3126 47.9935C77.2245 48.0289 77.1446 48.0818 77.0776 48.149C76.8906 48.4597 76.8178 48.8258 76.8717 49.1844V49.318C76.8717 49.9136 76.9106 50.1195 77.0776 50.2921C77.1424 50.3625 77.2218 50.4179 77.3103 50.4545C77.3987 50.491 77.4941 50.5078 77.5897 50.5036C77.7081 50.5031 77.8249 50.4764 77.9317 50.4254C78.0386 50.3744 78.1328 50.3003 78.2076 50.2086L78.5583 50.5648C78.4275 50.6958 78.2749 50.8032 78.1074 50.8821" fill="#00B4C2"/>
    <path d="M1.94823 31.8507V40.6289H0V30.0472H4.8316V31.8507H1.94823Z" fill="#1F1F1F"/>
    <path d="M9.37374 40.6288L9.01752 38.9199H6.91342L6.57388 40.6288H4.63123L7.08598 30.0527H8.81154L11.3053 40.6288H9.37374ZM8.13803 34.6839L7.93207 33.5261L7.73723 34.6839L7.1806 37.3168H8.66684L8.13803 34.6839Z" fill="#1F1F1F"/>
    <path d="M16.4765 40.6289V31.8451H15.1238L15.0069 36.7213C14.9457 39.0814 14.2777 40.6177 12.2238 40.6177H11.6671V38.8031C12.8416 38.8031 12.9752 37.5562 12.9863 36.6656L13.1534 30.0361H18.4303V40.6122L16.4765 40.6289Z" fill="#1F1F1F"/>
    <path d="M19.9443 40.6289V30.0472H24.8483V31.8507H21.8926V34.4057H24.3863V36.1869H21.8926V38.831H24.8483V40.6289H19.9443Z" fill="#1F1F1F"/>
    <path d="M29.0008 36.6489H28.0211V40.6288H26.0729V30.0527H29.0008C30.7709 30.0527 31.8397 30.9601 31.8397 33.1755V33.5484C31.8397 35.775 30.7987 36.6544 29.0008 36.6544V36.6489ZM29.8914 33.2645C29.8914 32.2403 29.6131 31.8228 28.8116 31.8228H28.0211V34.8843H28.8116C29.6131 34.8843 29.8914 34.4947 29.8914 33.4593V33.2645Z" fill="#1F1F1F"/>
    <path d="M33.0808 40.6289V30.0472H37.9848V31.8507H35.0235V34.4057H37.5228V36.1869H35.0235V38.831H37.9848V40.6289H33.0808Z" fill="#1F1F1F"/>
    <path d="M43.0557 40.6289V36.6044H42.4156L41.0629 40.6289H39.0256L40.6287 36.1758C39.7994 35.8084 39.2372 34.9456 39.2372 33.3926V33.0475C39.2372 31.1772 40.0832 30.0472 41.9702 30.0472H44.9872V40.6233L43.0557 40.6289ZM43.0557 31.8006H42.2096C41.4804 31.8006 41.2132 32.246 41.2132 33.17V33.4984C41.2132 34.4168 41.536 34.8621 42.2096 34.8621H43.0557V31.8006Z" fill="#1F1F1F"/>
    <path d="M54.055 40.7179L53.6988 39.0146H51.578L51.2384 40.7179H49.3236L51.7728 30.1418H53.4928L55.9865 40.7179H54.055ZM52.8248 34.7842L52.6189 33.6264L52.4241 34.7842L51.8674 37.4115H53.3481L52.8248 34.7842Z" fill="#00B4C2"/>
    <path d="M59.4544 40.8237C57.7845 40.8237 56.6713 39.844 56.6713 37.4839H58.5861C58.6195 38.6751 58.8867 39.0425 59.4934 39.0425C60.1001 39.0425 60.4118 38.7475 60.4118 37.4728V36.237H58.3968V34.4892H60.4118V33.3425C60.4118 32.0845 60.0389 31.8006 59.4767 31.8006C58.8087 31.8006 58.6195 32.2571 58.6028 33.3258H56.6713C56.6713 30.8822 57.8625 30.0472 59.4544 30.0472C61.0464 30.0472 62.3044 30.821 62.3044 33.298V37.573C62.3044 40.05 61.0576 40.8237 59.4544 40.8237Z" fill="#00B4C2"/>
    <path d="M66.6073 36.7436H65.6276V40.7179H63.6906V30.1418H66.6129C68.3774 30.1418 69.4462 31.0492 69.4462 33.259V33.6264C69.4462 35.8529 68.4108 36.7324 66.6129 36.7324L66.6073 36.7436ZM67.5035 33.3481C67.5035 32.3239 67.2196 31.9064 66.3902 31.9064H65.6054V34.9623H66.3902C67.1918 34.9623 67.5035 34.5782 67.5035 33.5373V33.3481Z" fill="#00B4C2"/>
    <path d="M73.4482 40.8237C71.8617 40.8237 70.5981 40.05 70.5981 37.573V33.298C70.5981 30.821 71.8617 30.0472 73.4482 30.0472C75.0346 30.0472 76.2981 30.821 76.2981 33.298V37.573C76.2981 40.05 75.0513 40.8237 73.4482 40.8237ZM74.3554 33.3425C74.3554 32.079 73.9658 31.8452 73.4482 31.8452C72.9305 31.8452 72.5575 32.079 72.5575 33.3425V37.5117C72.5575 38.7753 72.9305 39.0258 73.4482 39.0258C73.9658 39.0258 74.3554 38.7753 74.3554 37.5117V33.3425Z" fill="#00B4C2"/>
    <path d="M81.4192 40.7179V31.9509H79.6435V40.7179H77.6953V30.153H83.3786V40.7179H81.4192Z" fill="#00B4C2"/>
    <path d="M87.6259 40.8237C86.0394 40.8237 84.7759 40.05 84.7759 37.573V33.298C84.7759 30.821 86.0394 30.0472 87.6259 30.0472C89.2123 30.0472 90.4758 30.821 90.4758 33.298V37.573C90.4758 40.05 89.229 40.8237 87.6259 40.8237ZM88.5276 33.3425C88.5276 32.079 88.1435 31.8452 87.6259 31.8452C87.1082 31.8452 86.7352 32.079 86.7352 33.3425V37.5117C86.7352 38.7753 87.1082 39.0258 87.6259 39.0258C88.1435 39.0258 88.5276 38.7753 88.5276 37.5117V33.3425Z" fill="#00B4C2"/>
    <path d="M94.7784 36.7436H93.7988V40.7179H91.8561V30.1418H94.7784C96.543 30.1418 97.6117 31.0492 97.6117 33.259V33.6264C97.6117 35.8529 96.5708 36.7324 94.7784 36.7324V36.7436ZM95.6691 33.3481C95.6691 32.3239 95.3852 31.9064 94.5558 31.9064H93.7709V34.9623H94.5558C95.3573 34.9623 95.6691 34.5782 95.6691 33.5373V33.3481Z" fill="#00B4C2"/>
    <path d="M102.343 31.9509V40.7179H100.395V31.9509H98.5413V30.153H104.163V31.9509H102.343Z" fill="#00B4C2"/>
    <path d="M25.4551 16.1035V16.4542L54.2999 13.7712L54.7675 13.2313L25.4551 16.1035Z" fill="#00B4C2"/>
    <path d="M25.4551 17.2724V17.6231L52.8026 15.519L53.2535 14.9957L25.4551 17.2724Z" fill="#00B4C2"/>
    <path d="M12.619 16.0422L12.658 16.4096L28.6891 18.6139V18.369L12.619 16.0422Z" fill="#00B4C2"/>
    <path d="M12.7637 17.2891L12.8082 17.6732L28.6891 19.4711V19.2095L12.7637 17.2891Z" fill="#00B4C2"/>
    <path d="M12.9139 18.5971L12.9641 19.0035L28.689 20.3839V20.1056L12.9139 18.5971Z" fill="#00B4C2"/>
    <path d="M13.0754 19.9833L13.1311 20.4119L28.6891 21.3526V21.052L13.0754 19.9833Z" fill="#00B4C2"/>
    <path d="M13.2479 21.4472L13.3036 21.9036L28.689 22.3824V22.0651L13.2479 21.4472Z" fill="#00B4C2"/>
    <path d="M13.4873 23.4177H28.6891V23.0781L13.4316 22.9334L13.4873 23.4177Z" fill="#00B4C2"/>
    <path d="M29.151 18.1686V18.5416L52.6021 17.1444V16.6602L29.151 18.1686Z" fill="#00B4C2"/>
    <path d="M29.151 19.41V19.7773L52.6021 18.7476V18.2689L29.151 19.41Z" fill="#00B4C2"/>
    <path d="M29.151 20.6401V21.0074L52.6021 20.345V19.8663L29.151 20.6401Z" fill="#00B4C2"/>
    <path d="M29.151 21.8424V22.2153L52.6021 21.9203V21.4193L29.151 21.8424Z" fill="#00B4C2"/>
    <path d="M29.151 23.0837V23.4176H52.6021V23.0336L29.151 23.0837Z" fill="#00B4C2"/>
    <path d="M66.9634 0L53.0586 15.981V16.3985L66.8409 1.41942L91.5778 9.86916L91.8561 9.0676L66.9634 0Z" fill="#00B4C2"/>
    <path d="M65.0374 22.1764L53.0586 22.9835V23.4177H64.9317H64.9372H86.9132L87.1971 22.5827L65.0374 22.1764Z" fill="#00B4C2"/>
    <path d="M53.0586 17.3504V17.7734L66.4401 6.0729L90.6538 12.5577L90.9321 11.7506L66.557 4.69244L53.0586 17.3504Z" fill="#00B4C2"/>
    <path d="M53.0586 18.7419V19.1761L66.0449 10.6039L89.7242 15.2629L90.0025 14.4503L66.1618 9.25684L53.0586 18.7419Z" fill="#00B4C2"/>
    <path d="M53.0586 20.1558V20.5788L65.6608 15.0013L88.7891 17.9793L89.0674 17.1611L65.7778 13.6988L53.0586 20.1558Z" fill="#00B4C2"/>
    <path d="M53.0586 21.5697V21.9983L65.2823 19.2875L87.8428 20.7069L88.1267 19.8887L65.3881 18.0128L53.0586 21.5697Z" fill="#00B4C2"/>
</svg>
