<svg width="180" height="180" viewBox="0 0 180 180" fill="none" xmlns="http://www.w3.org/2000/svg">
    <rect width="180" height="180" fill="#BB1A12"/>
    <path d="M114.63 52.2294C123.229 52.2294 130.2 88.479 130.2 133.196H142.658C142.658 85.0381 130.108 46 114.631 46C105.825 46 97.9676 57.7325 92.8304 76.0789C87.6939 57.7325 79.8346 46 71.0292 46C55.5519 46 43 85.0381 43 133.196H55.4601C55.4601 88.479 62.4323 52.2294 71.0292 52.2294C79.6289 52.2294 86.6026 85.6908 86.6026 126.97H99.058C99.0583 85.6908 106.03 52.2294 114.63 52.2294Z" fill="#FDC500"/>
    <path d="M148.894 126.97C150.584 126.97 152 128.307 152 130.068C152 131.856 150.584 133.195 148.894 133.195C147.198 133.195 145.77 131.856 145.77 130.068C145.77 128.307 147.198 126.97 148.894 126.97ZM148.894 132.741C150.325 132.741 151.437 131.591 151.437 130.069C151.437 128.574 150.324 127.426 148.894 127.426C147.445 127.426 146.335 128.574 146.335 130.069C146.334 131.59 147.445 132.741 148.894 132.741ZM147.683 128.26H149.086C149.945 128.26 150.35 128.602 150.35 129.299C150.35 129.957 149.94 130.232 149.402 130.289L150.435 131.898H149.828L148.844 130.333H148.248V131.898H147.683L147.683 128.26ZM148.248 129.877H148.836C149.332 129.877 149.788 129.852 149.788 129.275C149.788 128.792 149.374 128.715 148.994 128.715H148.248L148.248 129.877Z" fill="#FDC500"/>
</svg>
