<svg width="180" height="180" viewBox="0 0 180 180" fill="none" xmlns="http://www.w3.org/2000/svg">
    <rect width="180" height="180" fill="#E7E7E7"/>
    <path fill-rule="evenodd" clip-rule="evenodd" d="M139.113 81.8878C140.647 81.6386 141.922 80.6105 142.512 79.2249C142.739 78.692 142.865 78.1066 142.865 77.492C142.865 77.2043 142.837 76.9229 142.784 76.6502C142.71 76.2684 142.587 75.9039 142.422 75.5631C141.761 74.2004 140.423 73.2211 138.846 73.0611C138.696 73.0459 138.544 73.038 138.39 73.038H138.389C136.845 73.038 135.481 73.8193 134.675 75.0043C134.192 75.7154 133.909 76.5718 133.909 77.492C133.909 79.95 135.919 81.946 138.389 81.946H138.39C138.551 81.946 138.709 81.9375 138.865 81.921C138.949 81.9122 139.031 81.9011 139.113 81.8878ZM138.39 85.656C136.443 85.656 134.864 87.225 134.864 89.162V102.06C134.864 104 136.444 105.566 138.39 105.566C138.852 105.567 139.309 105.478 139.736 105.302C140.163 105.127 140.551 104.869 140.878 104.543C141.206 104.218 141.466 103.831 141.643 103.405C141.821 102.979 141.913 102.522 141.914 102.06V89.16C141.911 88.2278 141.539 87.3349 140.878 86.6774C140.217 86.02 139.322 85.6519 138.39 85.654V85.656ZM119.769 98.56C117.3 98.5595 115.294 96.5567 115.294 94.105C115.294 91.652 117.301 89.648 119.77 89.648C122.24 89.648 124.249 91.652 124.249 94.105C124.249 96.556 122.24 98.56 119.769 98.56ZM127.773 73C125.826 73 124.249 74.569 124.249 76.504V83.539C122.83 82.9446 121.307 82.64 119.769 82.643C113.413 82.643 108.241 87.778 108.241 94.105C108.241 100.421 113.413 105.567 119.77 105.567C126.127 105.567 131.3 100.421 131.3 94.105V76.505C131.3 74.568 129.72 73 127.773 73ZM94.413 98.56C91.9449 98.56 89.937 96.557 89.937 94.105C89.937 91.652 91.9449 89.648 94.4141 89.648C96.886 89.648 98.894 91.652 98.894 94.105C98.894 96.556 96.886 98.56 94.4141 98.56H94.413ZM94.413 82.643C88.057 82.643 82.885 87.778 82.885 94.105C82.885 100.421 88.057 105.567 94.4141 105.567C100.774 105.567 105.943 100.421 105.943 94.105C105.943 87.778 100.773 82.643 94.413 82.643ZM69.439 82.643C66.4869 82.643 63.799 83.787 61.801 85.655C59.731 83.7164 57 82.6394 54.1639 82.643C48.007 82.643 43 87.619 43 93.74V102.061C43.001 102.523 43.0928 102.98 43.2705 103.406C43.4481 103.832 43.708 104.219 44.0353 104.544C44.3625 104.87 44.7509 105.128 45.1779 105.303C45.6049 105.479 46.0624 105.568 46.524 105.567C48.469 105.567 50.05 104.001 50.05 102.061V93.74C50.05 91.482 51.895 89.648 54.1639 89.648C56.4301 89.648 58.275 91.482 58.275 93.74V102.061C58.2759 102.523 58.3678 102.98 58.5455 103.406C58.7233 103.832 58.9833 104.219 59.3107 104.545C59.6381 104.87 60.0264 105.128 60.4536 105.304C60.8807 105.479 61.3383 105.569 61.8 105.567C63.744 105.567 65.326 104.001 65.326 102.061V93.74C65.326 91.482 67.171 89.648 69.439 89.648C71.7061 89.648 73.554 91.482 73.554 93.74V102.061C73.5549 102.523 73.6469 102.979 73.8243 103.406C74.002 103.832 74.2617 104.219 74.589 104.544C74.9161 104.87 75.3043 105.128 75.7312 105.303C76.1581 105.479 76.6154 105.568 77.077 105.567C79.0229 105.567 80.605 104.001 80.605 102.061V93.74C80.605 87.619 75.594 82.643 69.439 82.643ZM71.9325 119.781C71.9325 120.316 71.8495 120.811 71.6825 121.264C71.5289 121.698 71.2906 122.097 70.9814 122.438C70.6736 122.771 70.2959 123.033 69.8755 123.204C69.4117 123.391 68.9154 123.483 68.4155 123.476C67.8925 123.476 67.4165 123.387 66.9855 123.21C66.5682 123.042 66.1915 122.787 65.8805 122.462C65.5662 122.128 65.3232 121.733 65.1665 121.302C64.991 120.818 64.9042 120.307 64.9105 119.792V114.455H66.0785V119.805C66.0785 120.176 66.1345 120.51 66.2465 120.807C66.3481 121.09 66.5103 121.348 66.7217 121.563C66.933 121.777 67.1886 121.943 67.4705 122.049C67.5823 122.091 67.6984 122.126 67.8187 122.152C68.0107 122.194 68.2136 122.216 68.4275 122.216C68.7589 122.22 69.0881 122.161 69.3975 122.042C69.452 122.02 69.505 121.997 69.5564 121.972L69.5784 121.961C69.6281 121.936 69.6763 121.909 69.7229 121.881C69.8763 121.788 70.0139 121.677 70.1355 121.548C70.3395 121.334 70.4955 121.078 70.6024 120.782C70.7104 120.485 70.7634 120.156 70.7634 119.793V114.455H71.9325V119.781ZM95.9376 119.923C95.8346 119.747 95.7096 119.577 95.5646 119.417V119.418C95.478 119.322 95.3846 119.225 95.2848 119.128C95.2174 119.062 95.147 118.996 95.0736 118.93C95.0076 118.864 94.9326 118.798 94.8496 118.732C94.7676 118.666 94.6616 118.579 94.5336 118.472C94.4855 118.432 94.4314 118.388 94.3726 118.34C94.3158 118.295 94.254 118.246 94.1873 118.194C94.1393 118.157 94.0887 118.118 94.0355 118.077C93.8336 117.92 93.5786 117.718 93.2716 117.472C93.1146 117.348 92.9565 117.189 92.7996 116.996C92.6515 116.826 92.568 116.609 92.5636 116.384C92.5636 116.096 92.6646 115.888 92.8676 115.76C92.881 115.752 92.8945 115.743 92.9083 115.736C92.9445 115.715 92.9819 115.696 93.0208 115.679C93.0674 115.659 93.1158 115.641 93.1663 115.627C93.2283 115.609 93.2931 115.595 93.3607 115.585C93.4392 115.574 93.5215 115.568 93.6075 115.568C94.0067 115.571 94.3967 115.687 94.7325 115.903C95.077 116.111 95.3821 116.379 95.6335 116.693L95.8936 115.532C95.8036 115.367 95.6805 115.21 95.5276 115.062C95.3745 114.913 95.2006 114.784 95.0056 114.672C94.8105 114.561 94.5966 114.473 94.3646 114.407C93.8254 114.261 93.2555 114.276 92.7246 114.449C92.5398 114.512 92.3713 114.591 92.2198 114.689C92.1669 114.724 92.1162 114.76 92.0674 114.799L92.0381 114.823C92.0244 114.834 92.0109 114.845 91.9976 114.857C91.7955 115.034 91.6376 115.247 91.5255 115.5C91.4136 115.751 91.3575 116.033 91.3575 116.346C91.3535 116.668 91.4327 116.985 91.5875 117.267C91.7646 117.575 91.9796 117.859 92.2275 118.113C92.3693 118.261 92.5164 118.404 92.6685 118.541C92.7877 118.649 92.9102 118.753 93.0355 118.854L93.2155 119.003L93.4847 119.226L93.8383 119.521C93.9915 119.649 94.1545 119.785 94.3275 119.93C94.436 120.016 94.5367 120.11 94.6288 120.213C94.7092 120.302 94.7831 120.397 94.8496 120.498C94.9916 120.712 95.0615 120.935 95.0615 121.166C95.0615 121.478 94.9596 121.732 94.7566 121.926C94.5536 122.119 94.2416 122.216 93.8186 122.216C93.3466 122.216 92.8966 122.084 92.4696 121.82C92.0436 121.557 91.6936 121.211 91.4196 120.782L91.0596 121.969C91.1417 122.166 91.2621 122.344 91.4136 122.494C91.5972 122.682 91.8038 122.846 92.0286 122.982C92.2695 123.13 92.5345 123.25 92.8246 123.34C93.1143 123.431 93.416 123.477 93.7196 123.476C94.0728 123.481 94.424 123.422 94.7566 123.303C95.0529 123.196 95.3254 123.033 95.5586 122.821C95.7832 122.614 95.9611 122.361 96.0806 122.08C96.2046 121.791 96.2666 121.474 96.2666 121.128C96.2666 120.898 96.2375 120.683 96.1796 120.485C96.1216 120.288 96.0405 120.101 95.9376 119.923ZM114.579 115.815C114.19 115.973 113.837 116.208 113.541 116.506C113.243 116.81 113.006 117.169 112.846 117.563C112.676 117.971 112.591 118.418 112.591 118.903C112.591 119.39 112.675 119.837 112.845 120.245C113.001 120.636 113.235 120.991 113.534 121.289C113.832 121.586 114.187 121.82 114.579 121.975C114.977 122.135 115.407 122.215 115.871 122.215C116.327 122.215 116.754 122.135 117.151 121.975C117.549 121.815 117.893 121.587 118.183 121.295C118.473 121.002 118.703 120.652 118.873 120.245C119.043 119.837 119.127 119.385 119.127 118.892C119.132 118.433 119.046 117.977 118.873 117.551C118.718 117.16 118.486 116.805 118.19 116.506C117.895 116.208 117.541 115.973 117.152 115.815C116.746 115.648 116.311 115.564 115.872 115.567C115.429 115.563 114.989 115.647 114.579 115.815ZM117.562 114.653C118.1 114.883 118.572 115.205 118.978 115.617C119.385 116.029 119.708 116.515 119.948 117.075C120.188 117.635 120.308 118.24 120.308 118.892C120.314 119.518 120.192 120.138 119.948 120.714C119.718 121.254 119.389 121.747 118.978 122.166C118.575 122.576 118.096 122.903 117.568 123.13C117.036 123.36 116.463 123.478 115.884 123.476C115.292 123.479 114.706 123.359 114.163 123.124C113.082 122.663 112.223 121.799 111.77 120.714C111.527 120.142 111.404 119.526 111.41 118.904C111.41 118.253 111.53 117.645 111.77 117.081C112.01 116.517 112.334 116.031 112.74 115.623C113.146 115.215 113.627 114.888 114.156 114.659C114.693 114.424 115.274 114.305 115.86 114.307C116.456 114.307 117.024 114.422 117.563 114.653H117.562ZM82.4381 121.425L77.6781 114.455H76.4102V123.328H77.5781V116.395L82.3381 123.328H83.6062V114.455H82.4381V121.425ZM127.566 115.815C127.385 115.739 127.191 115.701 126.995 115.703H125.478V118.595H126.995C127.401 118.595 127.74 118.461 128.014 118.193C128.287 117.925 128.424 117.577 128.424 117.149C128.424 117.091 128.421 117.032 128.415 116.974C128.413 116.962 128.412 116.949 128.41 116.936C128.405 116.903 128.4 116.87 128.393 116.836C128.386 116.802 128.377 116.768 128.368 116.734C128.367 116.733 128.367 116.732 128.367 116.731C128.357 116.696 128.346 116.661 128.333 116.626C128.328 116.613 128.323 116.6 128.318 116.587C128.251 116.414 128.15 116.257 128.021 116.125C127.891 115.992 127.737 115.887 127.566 115.815ZM127.908 114.645C128.252 114.773 128.548 114.957 128.796 115.195C129.046 115.435 129.242 115.72 129.387 116.055C129.532 116.388 129.605 116.756 129.605 117.16C129.605 117.556 129.536 117.918 129.4 118.248C129.263 118.578 129.07 118.859 128.821 119.094C128.564 119.334 128.262 119.521 127.933 119.644C127.573 119.779 127.192 119.846 126.808 119.842H125.478V123.327H124.31V114.455H126.796C127.194 114.455 127.564 114.519 127.908 114.646V114.645ZM61.1746 115.703V114.455H56.8496V123.327H58.0176V119.385H60.9257V118.138H58.0176V115.703H61.1746ZM101.418 118.138V114.455H100.25V123.327H101.418V119.385H106.253V123.328H107.42V114.455H106.253V118.138H101.418Z" fill="#262624"/>
</svg>
