<svg width="180" height="180" viewBox="0 0 180 180" fill="none" xmlns="http://www.w3.org/2000/svg">
    <rect width="180" height="180" fill="#76B72A"/>
    <path fill-rule="evenodd" clip-rule="evenodd" d="M134.984 81.2885V90.0013C134.749 90.225 133.615 91.2201 132.081 91.2201C130.302 91.2201 129.281 89.9261 129.281 87.6691V81.2885H126.827V87.4454C126.827 90.7709 128.614 92.6806 131.732 92.6806C133.197 92.6806 134.433 91.9468 134.988 91.5298V92.5106H137.441V81.2885H134.984Z" fill="white"/>
    <path fill-rule="evenodd" clip-rule="evenodd" d="M159.542 81.2885V90.0013C159.307 90.225 158.171 91.2201 156.637 91.2201C154.857 91.2201 153.837 89.9261 153.837 87.6691V81.2885H151.384V87.4454C151.384 89.135 151.838 90.4541 152.73 91.3651C153.573 92.2242 154.805 92.6788 156.292 92.6788C157.778 92.6788 158.992 91.945 159.547 91.528V92.5106H162V81.2885H159.542Z" fill="white"/>
    <path fill-rule="evenodd" clip-rule="evenodd" d="M138.631 81.2795V82.5754H142.99C142.99 82.8671 142.99 92.5017 142.99 92.5017H145.473C145.473 92.5017 145.473 82.8599 145.473 82.5682H149.854V81.2795H138.631Z" fill="white"/>
    <path fill-rule="evenodd" clip-rule="evenodd" d="M25.9278 94.4444C24.8063 94.4475 23.709 94.1216 22.7747 93.5077C21.8404 92.8938 21.1111 92.0195 20.679 90.9954C20.2468 89.9714 20.1312 88.8435 20.3469 87.7545C20.5625 86.6654 21.0997 85.6641 21.8904 84.8771C22.6812 84.0901 23.69 83.5529 24.7893 83.3332C25.8886 83.1136 27.0291 83.2215 28.0664 83.6432C29.1038 84.065 29.9915 84.7816 30.6172 85.7026C31.243 86.6235 31.5787 87.7074 31.5819 88.8172C31.5848 90.3049 30.9911 91.733 29.931 92.788C28.871 93.843 27.4312 94.4387 25.9278 94.4444ZM25.9278 81.0029C24.3646 80.9968 22.8348 81.45 21.5321 82.305C20.2294 83.16 19.2124 84.3783 18.61 85.8056C18.0076 87.233 17.8468 88.8051 18.148 90.323C18.4492 91.8408 19.1989 93.236 20.3021 94.3319C21.4053 95.4278 22.8123 96.1751 24.345 96.4791C25.8777 96.7831 27.4671 96.6301 28.9119 96.0395C30.3567 95.449 31.5919 94.4475 32.461 93.1617C33.3301 91.876 33.794 90.364 33.794 88.8172C33.7879 86.7518 32.9581 84.7724 31.4851 83.3091C30.0121 81.8458 28.0149 81.017 25.9278 81.0029Z" fill="white"/>
    <path fill-rule="evenodd" clip-rule="evenodd" d="M36.0783 91.3311C36.0769 90.8133 36.2307 90.3066 36.5204 89.8754C36.8101 89.4441 37.2226 89.1076 37.7057 88.9085C38.1888 88.7093 38.7207 88.6565 39.2341 88.7566C39.7476 88.8568 40.2194 89.1055 40.59 89.4711C40.9605 89.8368 41.2131 90.303 41.3157 90.8108C41.4184 91.3186 41.3664 91.8451 41.1665 92.3237C40.9665 92.8022 40.6276 93.2113 40.1926 93.4992C39.7576 93.787 39.246 93.9406 38.7227 93.9406C38.0226 93.9407 37.3511 93.6659 36.8554 93.1768C36.3597 92.6876 36.0802 92.0239 36.0783 91.3311ZM35.4507 91.3311C35.4478 91.9717 35.6371 92.5988 35.9947 93.1328C36.3523 93.6668 36.8621 94.0838 37.4594 94.3309C38.0567 94.5781 38.7146 94.6442 39.35 94.521C39.9853 94.3977 40.5693 94.0907 41.0281 93.6387C41.4869 93.1867 41.7998 92.6101 41.9272 91.982C42.0545 91.3539 41.9906 90.7025 41.7435 90.1104C41.4964 89.5183 41.0773 89.012 40.5392 88.6558C40.0011 88.2996 39.3683 88.1094 38.7209 88.1094C37.8564 88.1099 37.0272 88.4491 36.4148 89.0528C35.8023 89.6565 35.4563 90.4757 35.4525 91.3311H35.4507Z" fill="#1F1F1F"/>
    <path fill-rule="evenodd" clip-rule="evenodd" d="M38.1782 91.3311C38.1782 91.2249 38.21 91.1211 38.2697 91.0328C38.3293 90.9445 38.414 90.8757 38.5132 90.835C38.6123 90.7944 38.7215 90.7838 38.8267 90.8045C38.932 90.8252 39.0287 90.8763 39.1045 90.9514C39.1804 91.0265 39.2321 91.1222 39.2531 91.2264C39.274 91.3305 39.2632 91.4385 39.2222 91.5366C39.1811 91.6347 39.1116 91.7186 39.0223 91.7776C38.9331 91.8366 38.8282 91.8681 38.7209 91.8681C38.5769 91.8681 38.4389 91.8115 38.3372 91.7108C38.2354 91.6101 38.1782 91.4735 38.1782 91.3311ZM37.6609 91.3311C37.6606 91.539 37.7225 91.7423 37.839 91.9153C37.9554 92.0883 38.1211 92.2232 38.3151 92.303C38.5091 92.3828 38.7226 92.4039 38.9287 92.3636C39.1348 92.3232 39.3241 92.2233 39.4728 92.0764C39.6214 91.9296 39.7227 91.7424 39.7639 91.5385C39.805 91.3347 39.7841 91.1233 39.7037 90.9313C39.6234 90.7392 39.4874 90.575 39.3127 90.4595C39.1381 90.344 38.9327 90.2823 38.7227 90.2823C38.4415 90.2828 38.172 90.3934 37.9731 90.5899C37.7741 90.7864 37.6619 91.0529 37.6609 91.3311Z" fill="#1F1F1F"/>
    <path fill-rule="evenodd" clip-rule="evenodd" d="M38.6503 96.3175C38.3938 97.3955 37.8211 98.3746 37.0042 99.1317C36.1874 99.8889 35.1627 100.39 34.0588 100.573C32.9549 100.756 31.821 100.612 30.7994 100.16C29.7778 99.7076 28.914 98.9666 28.3165 98.0301C27.7189 97.0936 27.4142 96.0034 27.4406 94.8961C27.467 93.7889 27.8234 92.7141 28.4649 91.8065C29.1064 90.8989 30.0045 90.1991 31.0466 89.7948C32.0886 89.3906 33.2281 89.2999 34.322 89.5341C34.3539 88.8146 34.3011 88.0938 34.1646 87.3863C30.4694 86.8225 26.425 89.1672 25.4826 93.1997C25.2237 94.2013 25.1688 95.2438 25.321 96.2667C25.4732 97.2895 25.8295 98.2721 26.3691 99.1574C26.9088 100.043 27.6211 100.813 28.4644 101.423C29.3078 102.033 30.2654 102.471 31.2816 102.712C32.2977 102.952 33.352 102.991 34.3832 102.824C35.4143 102.657 36.4017 102.29 37.2878 101.742C38.1738 101.194 38.9409 100.477 39.5444 99.6332C40.1479 98.7893 40.5756 97.8349 40.8028 96.8258L38.6503 96.3175Z" fill="#1F1F1F"/>
    <path fill-rule="evenodd" clip-rule="evenodd" d="M159.752 100.919C159.671 101.035 159.552 101.121 159.415 101.161C159.067 101.225 158.712 101.25 158.357 101.234H157.956V99.6502H158.245C158.603 99.6413 158.961 99.6581 159.316 99.7003C159.475 99.7265 159.619 99.81 159.719 99.9347C159.832 100.082 159.889 100.264 159.88 100.448C159.888 100.614 159.843 100.779 159.753 100.919H159.752ZM159.612 99.0005C159.14 98.9216 158.661 98.8892 158.182 98.9038H157.956V96.7972H157.192V101.988H158.316C158.768 102.004 159.22 101.967 159.663 101.877C159.956 101.8 160.212 101.624 160.387 101.379C160.58 101.103 160.678 100.772 160.665 100.436C160.679 100.097 160.578 99.7628 160.378 99.4873C160.191 99.2381 159.918 99.0655 159.611 99.0022L159.612 99.0005ZM160.983 96.7972V101.988H161.747V96.7972H160.983ZM154.618 99.1651C154.812 99.0513 154.971 98.8884 155.08 98.6934C155.189 98.4983 155.243 98.2781 155.237 98.0554C155.242 97.866 155.205 97.6779 155.128 97.5045C155.05 97.3312 154.935 97.177 154.79 97.0531C154.483 96.7953 154.09 96.6595 153.687 96.6719C153.419 96.6691 153.155 96.7257 152.912 96.8375C152.669 96.9493 152.455 97.1135 152.285 97.318L152.2 97.4165L152.743 97.8872L152.831 97.7977C152.937 97.6757 153.068 97.5764 153.214 97.5059C153.36 97.4354 153.519 97.3953 153.682 97.3878C153.781 97.3845 153.881 97.401 153.974 97.4364C154.067 97.4717 154.152 97.5252 154.224 97.5937C154.297 97.6664 154.354 97.7536 154.391 97.8495C154.428 97.9454 154.444 98.0479 154.438 98.1503C154.438 98.664 154.126 98.9038 153.457 98.9038H153.144V99.6018H153.363L153.964 99.634C154.085 99.6604 154.201 99.7083 154.306 99.7754C154.421 99.845 154.515 99.9431 154.58 100.06C154.648 100.19 154.682 100.335 154.678 100.481C154.688 100.61 154.668 100.741 154.618 100.861C154.568 100.982 154.491 101.089 154.392 101.175C154.188 101.338 153.931 101.423 153.669 101.417C153.471 101.417 153.276 101.373 153.097 101.288C152.851 101.14 152.646 100.934 152.5 100.688L152.432 100.586L151.82 100.944L151.893 101.059C152.084 101.39 152.357 101.67 152.685 101.871C152.991 102.034 153.334 102.116 153.682 102.108C154.156 102.132 154.622 101.973 154.98 101.664C155.14 101.513 155.266 101.33 155.349 101.128C155.433 100.926 155.471 100.708 155.463 100.49C155.479 100.209 155.406 99.9307 155.254 99.6933C155.102 99.4559 154.88 99.2712 154.617 99.1651H154.618ZM149.735 96.7972V98.8555H147.47V96.7972H146.707V101.988H147.47V99.6018H149.735V101.979H150.498V96.7882L149.735 96.7972ZM144.752 96.7972L141.639 100.409V96.7972H140.876V101.988H141.179L144.272 98.4259V101.988H145.056V96.7972H144.752ZM137.155 96.7972L134.87 101.988H135.692L137.291 98.3597L138.855 101.98H139.675L137.432 96.79L137.155 96.7972ZM127.641 96.7972V101.988H130.748V101.227H128.397V99.5553H130.748V98.8089H128.397V97.5346H130.761V96.7882L127.641 96.7972ZM123.687 100.914C123.606 101.03 123.487 101.115 123.351 101.155C123.002 101.22 122.647 101.244 122.292 101.229H121.893V99.6448H122.182C122.54 99.636 122.898 99.6528 123.253 99.6949C123.412 99.7217 123.556 99.8059 123.656 99.9312C123.754 100.076 123.809 100.245 123.815 100.419C123.821 100.593 123.777 100.765 123.689 100.916L123.687 100.914ZM123.548 98.9951C123.075 98.9163 122.596 98.884 122.117 98.8984H121.891V96.7972H121.128V101.988H122.251C122.703 102.004 123.157 101.967 123.6 101.877C123.892 101.799 124.148 101.623 124.324 101.379C124.517 101.103 124.614 100.772 124.602 100.436C124.616 100.097 124.515 99.7629 124.315 99.4873C124.125 99.2364 123.849 99.0637 123.539 99.0022L123.548 98.9951ZM124.919 96.7918V101.982H125.682V96.7918H124.919ZM118.407 96.7918V98.8501H116.13V96.7918H115.367V101.982H116.13V99.6018H118.395V101.979H119.158V96.7882L118.407 96.7918ZM110.923 96.7918V97.5382H112.037V101.975H112.8V97.5435H113.894V96.7972L110.923 96.7918ZM109.95 96.7918H108.895L107.061 98.4653V96.7918H106.298V101.982H107.061V99.8828L109.069 101.98H110.096L107.383 99.1401L109.95 96.7918ZM101.776 99.6162L101.926 99.3065L102.42 98.2738L103.055 99.6179L101.776 99.6162ZM102.53 96.7936H102.279L99.7988 101.984H100.647L101.419 100.373H103.404L104.178 101.984H105.008L102.57 96.7936H102.53ZM96.2645 96.7936V97.54H97.3787V101.977H98.142V97.5435H99.2562V96.7972L96.2645 96.7936ZM94.0289 96.7936V98.8519H91.7715V96.7936H91.0083V101.984H91.7715V99.6018H94.0361V101.979H94.7994V96.7882L94.0289 96.7936ZM88.6985 100.389C88.5289 100.69 88.2784 100.937 87.975 101.105C87.6709 101.279 87.3257 101.369 86.9747 101.367C86.7168 101.367 86.4613 101.316 86.2232 101.218C85.9852 101.119 85.7691 100.975 85.5876 100.794C85.4061 100.613 85.2628 100.397 85.1659 100.161C85.069 99.9242 85.0205 99.671 85.0231 99.4157C85.0188 99.0632 85.1079 98.7158 85.2817 98.408C85.4542 98.1099 85.704 97.8628 86.0052 97.6921C86.2996 97.5185 86.6357 97.4264 86.9784 97.4254C87.3268 97.426 87.6688 97.518 87.9696 97.6921C88.2715 97.8619 88.5214 98.1093 88.6931 98.408C88.8658 98.7109 88.9544 99.0536 88.9499 99.4014C88.953 99.7466 88.8664 100.087 88.6985 100.389ZM86.9603 96.6719C86.4815 96.6703 86.011 96.7954 85.5976 97.0342C85.1841 97.2731 84.8428 97.617 84.6089 98.0304C84.369 98.4514 84.2443 98.927 84.2471 99.4103C84.2419 99.7653 84.31 100.118 84.4472 100.446C84.5843 100.774 84.7877 101.071 85.0448 101.318C85.2998 101.574 85.6049 101.776 85.9414 101.911C86.2779 102.047 86.6387 102.113 87.0019 102.106C87.5452 102.102 88.0754 101.94 88.526 101.64C88.9766 101.339 89.3274 100.914 89.5345 100.417C89.7416 99.9197 89.7958 99.3732 89.6902 98.8458C89.5845 98.3184 89.3239 97.8336 88.9408 97.4523C88.6811 97.1966 88.3717 96.9957 88.0313 96.8615C87.6909 96.7274 87.3265 96.6629 86.9603 96.6719ZM83.719 96.7972H82.6645L80.8304 98.4707V96.7972H80.0707V101.988H80.834V99.8828L82.8417 101.98H83.8691L81.156 99.1401L83.719 96.7972ZM74.9104 96.7972L71.7975 100.409V96.7972H71.027V101.988H71.3326L74.4256 98.4259V101.988H75.2088V96.7972H74.9104ZM65.7816 96.7972L62.6687 100.409V96.7972H61.9054V101.988H62.2111L65.3041 98.4259V101.988H66.0873V96.7972H65.7816ZM60.9287 96.7972H59.8742L58.0401 98.4707V96.7972H57.2805V101.988H58.0437V99.8828L60.0515 101.98H61.0788L58.3657 99.1401L60.9287 96.7972ZM55.1787 96.7972V98.9145H54.3702C54.0211 98.9145 53.7733 98.843 53.634 98.7051C53.4947 98.5673 53.4242 98.306 53.4242 97.9319V96.7972H52.6609V97.9051C52.6514 98.1923 52.6874 98.4791 52.7676 98.7553C52.8451 98.9783 52.9896 99.1725 53.1818 99.3119C53.3784 99.4581 53.6071 99.5562 53.8492 99.5983C54.216 99.6475 54.5862 99.6678 54.9562 99.6591H55.1805V101.986H55.9438V96.7954L55.1787 96.7972ZM50.939 100.389C50.7694 100.69 50.519 100.938 50.2155 101.105C49.9112 101.278 49.5661 101.368 49.2152 101.367C48.9584 101.37 48.7036 101.322 48.4663 101.224C48.229 101.127 48.0143 100.983 47.8351 100.801C47.6492 100.621 47.5024 100.405 47.4038 100.167C47.3052 99.9287 47.2569 99.6731 47.2618 99.4157C47.2574 99.0632 47.3466 98.7158 47.5204 98.408C47.6927 98.1098 47.9425 97.8626 48.2439 97.6921C48.5388 97.5183 48.8756 97.4262 49.2188 97.4254C49.5673 97.4257 49.9094 97.5177 50.21 97.6921C50.5117 97.8622 50.7616 98.1095 50.9335 98.408C51.1063 98.7109 51.1949 99.0536 51.1904 99.4014C51.1939 99.7466 51.1073 100.087 50.939 100.389ZM49.2026 96.6719C48.7238 96.6703 48.2533 96.7954 47.8399 97.0342C47.4264 97.2731 47.0851 97.617 46.8512 98.0304C46.6111 98.4513 46.4864 98.927 46.4894 99.4103C46.484 99.7653 46.552 100.118 46.6892 100.446C46.8263 100.774 47.0298 101.071 47.2871 101.318C47.5419 101.574 47.8467 101.776 48.1828 101.911C48.519 102.046 48.8795 102.113 49.2424 102.106C49.7857 102.102 50.3159 101.94 50.7665 101.64C51.2171 101.339 51.5679 100.914 51.775 100.417C51.9821 99.9197 52.0363 99.3732 51.9307 98.8458C51.825 98.3184 51.5644 97.8336 51.1813 97.4523C50.9218 97.1968 50.6126 96.996 50.2726 96.8619C49.9325 96.7278 49.5685 96.6632 49.2026 96.6719Z" fill="#1F1F1F"/>
    <path fill-rule="evenodd" clip-rule="evenodd" d="M56.0668 86.8835C56.0668 90.0353 54.8531 91.6336 52.4602 91.6336H52.4276C50.0346 91.6336 48.821 90.0353 48.821 86.8835C48.821 84.7357 49.4468 82.1601 52.4276 82.1601C54.8531 82.1601 56.0668 83.7495 56.0668 86.8835ZM52.4602 81.0021H52.4276C48.7522 81.0021 46.0843 83.4739 46.0843 86.8781C46.0843 90.2823 48.7522 92.7845 52.4276 92.7845C56.1355 92.7523 58.8035 90.268 58.8035 86.8781C58.8035 83.4882 56.1374 81.0021 52.4602 81.0021Z" fill="white"/>
    <path fill-rule="evenodd" clip-rule="evenodd" d="M66.1578 81.1041C64.4811 81.1041 63.0106 82.1547 62.9021 82.4053V81.2813H60.453V92.5016H62.9057V83.9946C63.4682 83.3091 64.964 82.5628 66.0131 82.5628C67.4909 82.5628 68.9831 83.5883 68.9831 85.8793V92.5016H71.4358V86.0279C71.4358 82.3963 68.71 81.1023 66.1578 81.1023" fill="white"/>
    <path fill-rule="evenodd" clip-rule="evenodd" d="M92.7971 81.2885V90.0013C92.562 90.225 91.4261 91.2201 89.8923 91.2201C88.1125 91.2201 87.0923 89.9261 87.0923 87.6691V81.2885H84.6396V87.4454C84.6396 90.7709 86.4267 92.6806 89.545 92.6806C91.0101 92.6806 92.2455 91.9468 92.8007 91.5298V92.5106H95.2534V81.2885H92.7971Z" fill="white"/>
    <path fill-rule="evenodd" clip-rule="evenodd" d="M71.736 81.2795V82.5754H76.0915C76.0915 82.8671 76.0915 92.5017 76.0915 92.5017H78.5749C78.5749 92.5017 78.5749 82.8599 78.5749 82.5682H82.9557V81.2795H71.736Z" fill="white"/>
    <path fill-rule="evenodd" clip-rule="evenodd" d="M105.543 88.9829C104.74 87.7873 104.107 86.8351 102.941 86.4181C102.419 86.2209 101.87 86.1074 101.313 86.0816L106.762 81.2795H104.67L99.6052 85.7361V81.2777H97.1616V92.5088H99.6052V87.6244C99.6886 87.4923 99.8062 87.3847 99.9459 87.3129C100.086 87.2411 100.242 87.2078 100.399 87.2163C101.434 87.2163 102.161 88.4012 102.597 89.1099L104.65 92.4963H107.893L105.543 88.9829Z" fill="white"/>
    <path fill-rule="evenodd" clip-rule="evenodd" d="M124.631 90.4738L124.521 90.5543C124.054 90.898 123.074 91.6103 120.988 91.6103C118.818 91.6103 117.085 89.5717 117.063 86.9693V86.8512C117.087 84.2792 118.812 82.2406 120.994 82.1798C122.26 82.1136 123.51 82.4885 124.526 83.2394L124.637 83.3145L125.414 82.4751L125.268 82.3785C123.934 81.4466 122.332 80.9641 120.699 81.0021C116.678 81.0021 114.799 83.6116 114.414 85.8453C114.286 86.5905 114.292 87.352 114.432 88.0951C114.987 91.034 117.326 92.788 120.701 92.788C122.324 92.7765 123.908 92.299 125.262 91.4134L125.413 91.3168L124.631 90.4738Z" fill="white"/>
</svg>
