<svg width="180" height="180" viewBox="0 0 180 180" fill="none" xmlns="http://www.w3.org/2000/svg">
    <rect width="180" height="180" fill="#E7E7E7"/>
    <path d="M108.499 85.3593H109.13L108.605 80.0525L108.552 80H108.394V80.0525L107.816 85.3593H107.869H108.499ZM111.495 85.7271V85.6746L112.389 80.9458V80.8932L112.231 80.8407L112.178 80.8932L110.234 85.4119L111.495 85.7271ZM110.549 87.7763C110.917 87.7763 111.285 87.461 111.285 87.0407C111.285 86.6203 110.97 86.3051 110.549 86.3051C110.129 86.3051 109.813 86.6203 109.813 87.0407C109.813 87.461 110.129 87.7763 110.549 87.7763ZM108.499 87.5136C108.867 87.5136 109.235 87.1983 109.235 86.778C109.235 86.3576 108.92 86.0424 108.499 86.0424C108.079 86.0424 107.764 86.3576 107.764 86.778C107.711 87.2508 108.079 87.5136 108.499 87.5136ZM105.504 85.7271L106.713 85.4119H106.765L104.768 80.8932L104.715 80.8407L104.61 80.8932L104.558 80.9458L105.451 85.6746L105.504 85.7271ZM105.661 86.9881C105.661 87.4085 105.977 87.7237 106.397 87.7237C106.765 87.7237 107.133 87.4085 107.133 86.9881C107.133 86.5678 106.818 86.2525 106.397 86.2525C106.029 86.3051 105.661 86.6203 105.661 86.9881ZM21.3594 89.0898H15C15 89.0898 15.1577 90.6136 15.1577 93.2407V106.534C15.1577 109.161 15 110.685 15 110.685L15.0526 110.737H19.2046V110.685C19.2046 110.685 19.0469 109.161 19.0469 106.534V102.646L19.0995 102.593C19.6776 102.646 20.939 102.698 21.3594 102.698C25.6166 102.698 29.2956 100.124 29.2956 95.7102C29.243 91.5068 25.564 89.0898 21.3594 89.0898ZM21.1492 99.178C20.6762 99.178 19.5199 99.1254 19.0469 99.0203V92.6102H21.4646C23.6194 92.6102 25.3012 93.4508 25.3012 95.7102C25.3012 97.9695 23.8296 99.178 21.1492 99.178ZM41.0684 90.8237C40.5954 89.7203 40.4377 89.0898 40.4377 89.0898L40.3852 89.0373H37.0741L37.0215 89.0898C37.0215 89.0898 36.9164 89.7203 36.4434 90.8237L29.1379 108.373C28.5072 109.844 27.8765 110.685 27.8765 110.685V110.737H32.1337L32.1862 110.685C32.1862 110.58 32.2914 110.054 32.8169 108.741L34.1309 105.431H43.5386L44.9577 108.741C45.4307 110.002 45.6935 110.685 45.6935 110.685L45.746 110.737H50.0032V110.685C50.0032 110.685 49.425 109.897 48.7418 108.373L41.0684 90.8237ZM35.6025 101.858L38.6508 94.239H38.7034L42.0145 101.858H35.6025ZM71.3414 89.0898L67.5573 89.0373L67.5048 89.0898C67.5048 89.0898 67.6624 90.6136 67.6624 93.2407V104.117H67.6099L55.9422 89.0898H51.7901C52.2631 90.0881 52.5259 90.7712 52.5259 91.2441V106.534C52.5259 109.161 52.3683 110.685 52.3683 110.685L52.4208 110.737H56.2049L56.2575 110.685C56.2575 110.685 56.0998 109.161 56.0998 106.534V95.4475H56.1524L67.8727 110.685H71.394L71.4466 110.632C71.4466 110.632 71.2889 109.108 71.2889 106.481V93.2407C71.1838 90.6136 71.3414 89.0898 71.3414 89.0898ZM83.1143 89.0898H75.8614L75.8088 89.1424C75.8088 89.1424 75.9665 90.6661 75.9665 93.2932V106.586C75.9665 109.214 75.8088 110.737 75.8088 110.737L75.8614 110.79H78.0688C79.5404 110.79 81.1697 111 83.0092 111C89.6314 111 94.3615 106.324 94.3615 100.019C94.3615 93.6085 89.7891 89.0898 83.1143 89.0898ZM82.8515 107.322C81.8003 107.322 80.8543 107.269 80.2762 107.112C79.9608 107.007 79.8557 106.902 79.8557 106.324V92.6102H82.7464C87.424 92.6102 90.4198 95.7627 90.4198 99.9661C90.4198 104.117 87.424 107.322 82.8515 107.322ZM108.499 88.7746C102.245 88.7746 97.4099 93.6085 97.4099 99.861C97.4099 106.166 102.245 110.947 108.499 110.947C114.806 110.947 119.589 106.166 119.589 99.861C119.589 93.6085 114.806 88.7746 108.499 88.7746ZM108.499 107.427C104.505 107.427 101.352 104.169 101.352 99.9136C101.352 95.6576 104.453 92.4 108.499 92.4C112.546 92.4 115.647 95.6576 115.647 99.9136C115.647 104.117 112.546 107.427 108.499 107.427ZM134.988 103.381C134.463 102.541 133.674 101.858 132.834 101.595V101.542C135.093 101.069 137.196 98.4424 137.196 95.8153C137.196 92.2424 134.463 89.0898 130.206 89.0898H123.268L123.216 89.1424C123.216 89.1424 123.373 90.6661 123.373 93.2932V106.586C123.373 109.214 123.216 110.737 123.216 110.737L123.268 110.79H127.42L127.473 110.737C127.473 110.737 127.315 109.214 127.315 106.586V102.436C129.365 102.436 130.206 102.856 130.941 104.012L132.728 106.797C134.2 109.161 134.778 110.632 134.778 110.632L134.831 110.685H139.771V110.632C139.771 110.632 138.51 109.108 137.091 106.797L134.988 103.381ZM129.26 98.9678C128.787 98.9678 127.893 98.9678 127.315 98.8627V92.6102H129.68C131.993 92.6102 133.254 94.1339 133.254 95.8678C133.254 97.4966 131.993 98.9678 129.26 98.9678ZM162.739 108.373L155.065 90.8237C154.592 89.7203 154.435 89.0898 154.435 89.0898L154.382 89.0373H151.018L150.966 89.0898C150.966 89.0898 150.861 89.7203 150.388 90.8237L143.135 108.373C142.504 109.844 141.873 110.685 141.873 110.685V110.737H146.131L146.183 110.685C146.183 110.58 146.288 110.054 146.814 108.741L148.128 105.431H157.535L158.954 108.741C159.428 110.002 159.69 110.685 159.69 110.685L159.743 110.737H164V110.685C164 110.685 163.422 109.897 162.739 108.373ZM149.599 101.858L152.648 94.239H152.7L156.011 101.858H149.599Z" fill="black"/>
</svg>
