<svg width="180" height="180" viewBox="0 0 180 180" fill="none" xmlns="http://www.w3.org/2000/svg">
    <rect width="180" height="180" fill="#E7E7E7"/>
    <g clip-path="url(#clip0)">
        <path fill-rule="evenodd" clip-rule="evenodd" d="M31.6695 98.5513C30.8384 97.0297 29.3524 95.6212 31.0399 94.1373L31.002 94.0367C29.6168 93.9864 28.9998 95.0428 28.8613 95.6212C28.6472 96.6021 29.3146 97.5201 29.3146 97.5201C29.3146 97.5201 26.393 96.4764 26.8842 93.4205C27.199 91.5594 28.836 90.8426 29.302 90.6791L29.2769 90.591C28.8235 90.4527 27.3627 90.0377 25.776 90.327C22.0485 90.9809 21.3307 93.3325 21.2425 94.7535C21.1292 95.6841 21.444 96.3883 21.444 96.3883C21.444 96.3883 20.8144 96.0488 20.3862 95.2943C19.8951 94.4266 20.1847 93.3576 20.2981 93.0181L20.2477 92.9678C20.1721 93.0181 20.0588 93.1187 19.9203 93.257C19.3914 93.7852 18.5854 94.917 19.2528 96.5267C20.1092 98.589 22.6278 100.199 23.5722 101.092C26.456 103.808 23.8115 106.021 22.7285 106.059L22.7663 106.147C24.6804 106.486 26.6827 105.631 27.1864 103.405C27.6398 101.343 25.8515 99.922 24.3152 98.1489C22.9678 96.6147 22.7411 94.5397 23.6982 93.1439C24.4411 92.0498 25.3226 91.7354 25.6501 91.66L25.6752 91.6977C25.2471 92.0121 23.7107 93.3954 24.4789 95.835C25.096 97.8094 27.8161 99.4064 28.6975 100.651C30.2969 102.928 29.1131 104.424 28.5716 104.94L28.622 105.015C28.9116 104.889 29.365 104.676 29.6924 104.474C31.191 103.544 33.0421 101.029 31.6695 98.5513Z" fill="url(#paint0_linear)"/>
        <path d="M56.591 111.253V114.925H55.9865V112.385L54.0598 114.925H53.6442V111.253H54.2487V113.768L56.1628 111.253H56.591Z" fill="#2B2E32"/>
        <path d="M62.0312 111.818H60.9482V114.925H60.3437V111.818H59.2607V111.253H62.0186V111.818H62.0312Z" fill="#2B2E32"/>
        <path d="M66.5646 114.132H64.9275L64.6128 114.937H63.9705L65.4439 111.265H66.0105L67.5343 114.937H66.8794L66.5646 114.132ZM65.1416 113.592H66.3631L65.7461 112.045L65.1416 113.592Z" fill="#2B2E32"/>
        <path d="M73.1634 111.253V114.925H72.5588V111.818H71.3499L71.1736 113.692C71.098 114.522 70.7077 114.937 69.9899 114.937H69.8136V114.346H69.9899C70.3425 114.346 70.5188 114.145 70.5692 113.717L70.8084 111.253H73.1634Z" fill="#2B2E32"/>
        <path d="M78.8679 113.705C78.8679 114.409 78.339 114.925 77.596 114.925H76.2107V111.253H76.8153V112.472H77.596C78.3264 112.485 78.8679 112.988 78.8679 113.705ZM78.2508 113.705C78.2508 113.315 77.9612 113.051 77.5456 113.051H76.8153V114.371H77.5456C77.9612 114.359 78.2508 114.082 78.2508 113.705Z" fill="#2B2E32"/>
        <path d="M84.0562 111.253V114.925H83.4518V113.566H82.7717L81.991 114.925H81.2984L82.1547 113.478C81.6635 113.315 81.3613 112.913 81.3613 112.409C81.3613 111.743 81.8902 111.253 82.608 111.253H84.0562ZM83.4391 113.026V111.831H82.6206C82.2302 111.831 81.9658 112.07 81.9658 112.422C81.9658 112.774 82.2428 113.026 82.6206 113.026H83.4391Z" fill="#2B2E32"/>
        <path d="M89.9875 111.253V114.925H89.383V113.328H87.6956V114.925H87.0911V111.253H87.6956V112.762H89.383V111.253H89.9875Z" fill="#2B2E32"/>
        <path d="M94.672 115C93.589 115 92.783 114.195 92.783 113.101C92.783 112.007 93.589 111.202 94.672 111.202C95.541 111.202 96.2336 111.743 96.4348 112.573H95.8182C95.642 112.083 95.2138 111.793 94.672 111.793C93.9291 111.793 93.4001 112.347 93.4001 113.114C93.4001 113.881 93.9416 114.434 94.672 114.434C95.2388 114.434 95.6671 114.12 95.8304 113.592H96.4477C96.2586 114.434 95.5661 115 94.672 115Z" fill="#2B2E32"/>
        <path d="M99.1928 111.253H99.7972V114.925H99.1928V111.253ZM102.089 114.925H101.308L99.7972 113.063V113.001L101.208 111.253H101.951L100.528 113.013L102.089 114.925Z" fill="#2B2E32"/>
        <path d="M106.824 114.132H105.187L104.872 114.937H104.23L105.704 111.265H106.27L107.794 114.937H107.139L106.824 114.132ZM105.388 113.592H106.61L105.993 112.045L105.388 113.592Z" fill="#2B2E32"/>
        <path d="M112.894 111.253V114.925H112.289V113.566H111.61L110.828 114.925H110.136L110.992 113.478C110.501 113.315 110.199 112.913 110.199 112.409C110.199 111.743 110.728 111.253 111.446 111.253H112.894ZM112.289 113.026V111.831H111.471C111.081 111.831 110.816 112.07 110.816 112.422C110.816 112.774 111.093 113.026 111.471 113.026H112.289Z" fill="#2B2E32"/>
        <path d="M119.367 111.253H119.971V114.925H119.367V111.253ZM122.276 114.925H121.495L119.984 113.063V113.001L121.382 111.253H122.125L120.702 113.013L122.276 114.925Z" fill="#2B2E32"/>
        <path d="M127.54 111.253L126.444 113.768C126.054 114.673 125.713 114.937 124.996 114.937H124.833V114.371H125.047C125.411 114.371 125.562 114.271 125.776 113.856L124.391 111.24H125.084L126.092 113.151L126.91 111.24H127.54V111.253Z" fill="#2B2E32"/>
        <path d="M132.174 114.925L131.279 113.491L130.386 114.925H129.705L130.914 113.001L129.794 111.253H130.474L131.279 112.548L132.086 111.253H132.753L131.645 113.026L132.854 114.925H132.174Z" fill="#2B2E32"/>
        <path d="M138.332 111.253V114.925H137.727V113.328H136.04V114.925H135.435V111.253H136.04V112.762H137.727V111.253H138.332Z" fill="#2B2E32"/>
        <path d="M143.886 111.253V114.925H143.281V113.566H142.601L141.82 114.925H141.128L141.984 113.478C141.493 113.315 141.191 112.913 141.191 112.409C141.191 111.743 141.719 111.253 142.437 111.253H143.886ZM143.281 113.026V111.831H142.463C142.072 111.831 141.807 112.07 141.807 112.422C141.807 112.774 142.084 113.026 142.463 113.026H143.281Z" fill="#2B2E32"/>
        <path d="M80.7065 105.304H80.5679C79.485 105.254 78.9057 104.437 78.9057 102.978V93.3954C78.9057 91.9995 79.4598 91.2702 80.5679 91.2199H80.7065C80.8576 91.2199 80.9332 91.157 80.9332 91.0187V90.4653C80.9332 90.3647 80.908 90.2641 80.7065 90.2641H63.5046C63.303 90.2641 63.2779 90.3647 63.2779 90.4653V91.0187C63.2779 91.1193 63.303 91.2199 63.5046 91.2199H63.6431C64.7513 91.2702 65.3179 91.9995 65.3179 93.3954V102.99C65.3179 104.437 64.7261 105.267 63.6557 105.317H63.5172C63.3534 105.317 63.2905 105.38 63.2905 105.518V106.021C63.2905 106.122 63.3156 106.222 63.5172 106.222H70.0277C70.1914 106.222 70.2543 106.159 70.2543 106.021V105.518C70.2543 105.367 70.1914 105.317 70.0277 105.317H69.8765C68.7936 105.267 68.2017 104.449 68.2017 102.99V93.7601C68.2017 92.3642 68.7558 91.6349 69.8639 91.5846H70.0025C70.0151 91.5846 70.0277 91.5846 70.0403 91.5846H74.2085C74.2211 91.5846 74.2337 91.5846 74.2463 91.5846H74.3849C75.493 91.6349 76.0597 92.3642 76.0597 93.7601V102.99C76.0597 104.437 75.4679 105.267 74.3974 105.317H74.2337C74.07 105.317 74.0071 105.38 74.0071 105.518V106.021C74.0071 106.172 74.07 106.222 74.2337 106.222H80.7065C80.8576 106.222 80.9332 106.159 80.9332 106.021V105.518C80.9206 105.367 80.8576 105.304 80.7065 105.304Z" fill="#2B2E32"/>
        <path d="M56.125 105.895V105.078C56.125 104.952 56.0998 104.889 55.9236 104.889H39.2001C39.049 104.889 39.0112 104.927 39.0112 105.078V105.895C39.0112 106.046 39.049 106.084 39.2001 106.084H55.9236C56.0998 106.084 56.125 106.034 56.125 105.895Z" fill="#2B2E32"/>
        <path d="M39.6157 90.8678C40.2453 90.8929 40.9757 91.2073 40.9757 92.5906V99.4317C40.9757 100.802 40.2453 101.117 39.6282 101.154H39.5023V101.607H44.3884C44.3884 101.607 44.3884 101.607 44.401 101.607V101.154C44.401 101.154 44.401 101.154 44.3884 101.154H44.2876C43.658 101.129 42.9276 100.802 42.9276 99.4317V92.578C42.9276 91.2073 43.658 90.8929 44.275 90.8552H44.3884C44.3884 90.8552 44.3884 90.8552 44.401 90.8552V90.4025C44.401 90.4025 44.401 90.4025 44.3884 90.4025H39.5023V90.8552H39.6157V90.8678Z" fill="#2B2E32"/>
        <path d="M95.7552 106.197H102.291C102.492 106.197 102.517 106.097 102.517 105.996V105.506C102.517 105.405 102.492 105.304 102.291 105.304C101.434 105.304 100.969 104.173 100.516 103.066L100.49 103.016L95.314 90.4402C95.2639 90.3018 95.1758 90.2515 95.0376 90.2515H89.6726C89.4712 90.2515 89.446 90.3521 89.446 90.4527V91.0061C89.446 91.1067 89.4712 91.2073 89.6726 91.2073C90.7305 91.2073 91.5868 91.9366 91.5868 92.8421C91.5868 93.0307 91.549 93.2319 91.4735 93.4205L91.3979 93.6217L87.7459 102.902C87.343 103.997 86.7133 105.317 85.92 105.317C85.7562 105.317 85.6933 105.38 85.6933 105.518V105.971C85.6933 106.071 85.7185 106.172 85.92 106.172H91.4357C91.5994 106.172 91.6624 106.109 91.6624 105.971V105.518C91.6624 105.367 91.5994 105.317 91.4357 105.317C90.8816 105.317 90.3149 105.053 89.9245 104.625C89.6223 104.286 89.4712 103.871 89.5215 103.468C89.5467 103.28 89.5593 103.091 89.6223 102.902L90.3023 101.079C90.3149 101.029 90.3653 101.004 90.4157 101.004H96.6998C96.7499 101.004 96.8 101.029 96.813 101.079L97.5306 102.902C97.6065 103.104 97.6566 103.305 97.6566 103.506C97.6566 104.449 96.775 105.279 95.7673 105.279C95.5661 105.279 95.541 105.38 95.541 105.48V105.971C95.5281 106.097 95.5539 106.197 95.7552 106.197ZM96.2085 99.8214C96.1835 99.8592 96.1455 99.8717 96.1075 99.8717H90.9067C90.869 99.8717 90.8312 99.8466 90.8061 99.8214C90.7808 99.7837 90.7808 99.746 90.7935 99.7082L93.3372 92.9049C93.3498 92.8546 93.4002 92.8295 93.4506 92.8295C93.5009 92.8295 93.5513 92.8546 93.5639 92.9049L96.2207 99.7082C96.2465 99.746 96.2336 99.7837 96.2085 99.8214Z" fill="#2B2E32"/>
        <path d="M160.621 98.3752C160.621 97.7842 160.558 97.1932 160.42 96.6021C159.5 92.5277 156.554 90 152.738 90C152.172 90 151.592 90.0629 151.038 90.1761C146.694 91.0438 145.145 94.8667 145.145 98.1614C145.145 98.7525 145.208 99.3561 145.346 99.922C146.265 103.984 149.187 106.499 152.99 106.499C153.557 106.499 154.136 106.436 154.703 106.323C158.354 105.594 160.621 102.538 160.621 98.3752ZM154.413 104.902C154.048 104.99 153.683 105.04 153.343 105.04C153.33 105.04 153.305 105.04 153.293 105.04C152.285 105.04 149.225 104.6 148.029 99.3939C147.84 98.6016 147.739 97.8093 147.726 97.0548C147.688 95.332 148.117 92.3265 151.34 91.5719C151.705 91.4839 152.058 91.4462 152.398 91.4336C153.343 91.4084 156.529 91.7857 157.75 97.1303C157.939 97.9351 158.027 98.7022 158.052 99.4442C158.09 102.412 156.805 104.349 154.413 104.902Z" fill="#2B2E32"/>
        <path d="M140.724 105.317H140.586C139.49 105.267 138.911 104.487 138.911 103.041V93.3954C138.911 91.9995 139.465 91.2702 140.573 91.2199H140.712C140.913 91.2199 140.939 91.1193 140.939 91.0187V90.4653C140.939 90.3647 140.913 90.2641 140.712 90.2641H139.352H139.339H137.551C137.425 90.2641 137.337 90.2893 137.249 90.327C137.236 90.327 137.211 90.3396 137.199 90.3396L128.698 101.318C128.66 101.356 128.61 101.381 128.559 101.356C128.509 101.343 128.471 101.293 128.471 101.243V93.3954C128.471 91.9995 129.026 91.2702 130.134 91.2199H130.298C130.499 91.2199 130.524 91.1193 130.524 91.0187V90.4653C130.524 90.3647 130.499 90.2641 130.298 90.2641H123.837C123.636 90.2641 123.611 90.3647 123.611 90.4653V91.0187C123.611 91.1193 123.636 91.2199 123.837 91.2199H123.976C125.084 91.2702 125.651 91.9995 125.651 93.3954V103.921V103.934V106.009C125.651 106.109 125.676 106.21 125.877 106.21H126.62C126.771 106.21 126.872 106.159 126.96 106.109L135.826 95.0302C135.851 95.0051 135.889 94.9799 135.927 94.9799C135.939 94.9799 135.952 94.9799 135.965 94.9925C136.015 95.0051 136.04 95.0554 136.04 95.1057V103.053C136.04 104.487 135.46 105.279 134.378 105.329H134.214C134.012 105.329 133.987 105.43 133.987 105.531V106.021C133.987 106.122 134.012 106.222 134.214 106.222H140.712C140.913 106.222 140.939 106.122 140.939 106.021V105.531C140.951 105.418 140.926 105.317 140.724 105.317Z" fill="#2B2E32"/>
        <path d="M118.611 90.3773C118.611 90.3647 118.611 90.3521 118.611 90.3521C118.573 90.3521 118.536 90.3521 118.473 90.3647C118.322 90.3773 118.095 90.3899 117.793 90.3899H113.272C113.259 90.3899 113.234 90.3899 113.221 90.3899H110.048C110.036 90.3899 110.011 90.3899 109.998 90.3899H105.439C105.137 90.3899 104.91 90.3773 104.759 90.3647C104.696 90.3647 104.659 90.3521 104.621 90.3521V90.3647L104.016 94.414V94.4266C104.003 94.4643 104.003 94.4895 104.016 94.502C104.016 94.5146 104.041 94.5272 104.104 94.5398L104.935 94.7158C104.961 94.7158 104.973 94.7284 104.986 94.7284C104.998 94.7284 105.011 94.7284 105.011 94.7284C105.036 94.7158 105.049 94.6907 105.061 94.6404L105.086 94.502V94.4895C105.943 91.5342 108.071 91.4462 109.481 91.3833H109.91C109.922 91.3833 109.935 91.3833 109.948 91.3833C109.96 91.3833 109.973 91.3833 110.011 91.3833C110.136 91.3833 110.25 91.4965 110.25 91.6223V102.978C110.25 104.487 109.607 105.342 108.474 105.392H108.323C108.222 105.392 108.222 105.405 108.222 105.48V106.109C108.222 106.172 108.222 106.197 108.323 106.197H114.984C115.085 106.197 115.085 106.185 115.085 106.109V105.48C115.085 105.418 115.085 105.392 114.984 105.392H114.833C113.687 105.342 113.045 104.487 113.045 102.978V91.6223C113.045 91.4965 113.146 91.3959 113.259 91.3833C113.31 91.3833 113.335 91.3833 113.347 91.3833H113.763C115.173 91.4462 117.289 91.5468 118.133 94.502L118.171 94.6529C118.183 94.6907 118.196 94.741 118.221 94.741C118.221 94.741 118.234 94.741 118.246 94.741C118.259 94.741 118.284 94.741 118.309 94.7284L119.14 94.5523C119.203 94.5398 119.228 94.5146 119.228 94.5146C119.228 94.502 119.241 94.4895 119.228 94.4392L118.611 90.3773Z" fill="#2B2E32"/>
        <path d="M47.9396 90.4149V90.8677C47.9396 90.8677 47.9396 90.8677 47.9522 90.8677H47.9648C48.6196 90.8677 49.4004 91.1695 49.4004 92.5905V99.4315C49.4004 100.853 48.6196 101.154 47.9648 101.154H47.9522C47.9522 101.154 47.9522 101.154 47.9396 101.154V101.607C47.9396 101.607 47.9396 101.607 47.9522 101.607H55.4828C55.7094 101.607 55.8858 101.62 55.9865 101.632C55.9991 101.632 55.9991 101.632 56.0117 101.632L56.465 98.3249V98.3123C56.465 98.3123 56.465 98.3123 56.4525 98.3123L55.8605 98.1866H55.8479C55.8479 98.1866 55.8479 98.1866 55.8479 98.1992L55.8228 98.2998C55.1931 100.714 54.1857 100.953 53.0524 101.003H52.7501C52.1205 100.978 51.3649 100.677 51.3649 99.2806V91.1066C51.3649 90.9683 51.4782 90.8677 51.6041 90.8677H52.599C52.6746 90.8677 52.7753 90.8425 52.8131 90.8174V90.4275C52.8005 90.4275 52.7879 90.4149 52.7627 90.4149H47.9396C47.9522 90.4149 47.9396 90.4149 47.9396 90.4149Z" fill="#2B2E32"/>
    </g>
    <defs>
        <linearGradient id="paint0_linear" x1="20.4468" y1="98.2265" x2="32.8622" y2="98.2265" gradientUnits="userSpaceOnUse">
            <stop offset="0.098026" stop-color="#F47D20"/>
            <stop offset="0.3411" stop-color="#C54A1A"/>
            <stop offset="0.5331" stop-color="#F37021"/>
            <stop offset="0.7745" stop-color="#A93C12"/>
            <stop offset="0.9432" stop-color="#F47D20"/>
        </linearGradient>
        <clipPath id="clip0">
            <rect width="142" height="25" fill="white" transform="translate(19 90)"/>
        </clipPath>
    </defs>
</svg>
