<svg width="180" height="180" viewBox="0 0 180 180" fill="none" xmlns="http://www.w3.org/2000/svg">
    <rect width="180" height="180" fill="#33A457"/>
    <path fill-rule="evenodd" clip-rule="evenodd" d="M78.1209 125.148V107.557H82.3549L84.1802 117.23L85.9794 107.557H90.2198V125.148H87.279V115.075L85.1779 125.148H83.1557L81.068 115.082V125.148H78.1209ZM129.65 107.557H136.485V110.209H132.631V114.748H136.105V117.4H132.631V122.331H136.485V125.023H129.65V107.557ZM108.898 115.357L108.912 115.514L108.917 115.664L108.924 115.815L108.938 115.974L108.945 116.123L108.95 116.274L108.957 116.424L108.964 116.568L108.971 116.719L108.976 116.87L108.983 117.013L108.99 117.158L108.997 117.301L109.003 117.445L109.009 117.59L109.017 117.734V117.871L109.024 118.016L109.029 118.153L109.036 118.291V118.428L109.043 118.566V118.697L109.05 118.834L109.055 118.971V119.104L109.062 119.234V119.496L109.069 119.627V119.882L109.076 120.007V120.386L109.081 120.504V122.167L109.076 122.293V122.889L109.069 123.007V123.445L109.062 123.549V123.753L109.055 123.852V124.048L109.05 124.139V124.323L109.043 124.415V124.5L109.036 124.585L109.024 125.023H106.05V107.557H108.846L112.128 117.99L112.121 117.983L112.115 117.853L112.109 117.722L112.095 117.585L112.089 117.445L112.076 117.315L112.062 117.178L112.057 117.04L112.043 116.902L112.036 116.759L112.024 116.622L112.01 116.477L111.998 116.338L111.99 116.201L111.978 116.064L111.971 115.926L111.957 115.789L111.945 115.658L111.938 115.527L111.924 115.396L111.919 115.272L111.912 115.148L111.898 115.023L111.892 114.898L111.885 114.775L111.872 114.656L111.865 114.538L111.859 114.422L111.853 114.308L111.846 114.197L111.833 114.086L111.826 113.975L111.82 113.864L111.813 113.759L111.807 113.654L111.8 113.549L111.794 113.452V113.353L111.787 113.255L111.781 113.156L111.774 113.059L111.768 112.967L111.76 112.783V112.527L111.755 112.449V111.919L111.748 111.789V111.14L111.741 110.956V110.55L111.734 110.334V109.87L111.727 109.626V109.103L111.722 108.822V108.238L111.715 107.557H114.748V125.023H111.971L108.872 114.938L108.879 115.042L108.891 115.2L108.898 115.357ZM56.4095 107.557H59.3968V122.331H62.2854V125.023H56.4095V107.557ZM33.5042 121.533L33.8775 121.781L33.9502 121.827L34.0158 121.867L34.0821 121.912L34.1534 121.952L34.2197 121.99L34.2853 122.03L34.3502 122.07L34.4158 122.102L34.4822 122.141L34.5478 122.174L34.6127 122.208L34.679 122.234L34.7446 122.267L34.8102 122.293L34.8766 122.319L34.9351 122.345L35.0007 122.371L35.0664 122.39L35.1256 122.416L35.1912 122.437L35.2498 122.456L35.3161 122.475L35.3747 122.489L35.4339 122.501L35.4989 122.522L35.5588 122.535L35.6174 122.542L35.6767 122.554L35.7359 122.561L35.8015 122.574H35.9201L35.9659 122.568L36.0181 122.561L36.0704 122.554L36.1162 122.548L36.1628 122.542L36.2087 122.528L36.2545 122.522L36.3004 122.509L36.3399 122.496L36.3857 122.483L36.4253 122.468L36.4641 122.449L36.5036 122.437L36.5438 122.416L36.5826 122.397L36.6221 122.378L36.6553 122.357L36.6948 122.331L36.7272 122.312L36.7597 122.286L36.7992 122.26L36.8324 122.234L36.8655 122.208L36.898 122.174L36.9241 122.148L36.9572 122.115L36.9897 122.082L37.0158 122.049L37.049 122.011L37.0751 121.978L37.1082 121.938L37.1343 121.9L37.1604 121.86L37.1802 121.82L37.2063 121.781L37.2261 121.742L37.2529 121.703L37.2726 121.657L37.2917 121.611L37.3114 121.578L37.3248 121.533L37.3446 121.487L37.358 121.441L37.3707 121.389L37.3841 121.342L37.3968 121.29L37.4102 121.238L37.4166 121.186L37.43 121.134L37.4363 121.081L37.4427 121.022L37.449 120.968L37.4554 120.911V120.852L37.4624 120.793V120.608L37.4554 120.544V120.478L37.449 120.412L37.4427 120.341L37.4363 120.288V120.236L37.43 120.183L37.4229 120.131L37.4166 120.079L37.4039 120.033L37.3968 119.981L37.3898 119.928L37.3771 119.882L37.3636 119.83L37.3509 119.785L37.3375 119.738L37.3248 119.686L37.3114 119.641L37.2987 119.594L37.279 119.549L37.2656 119.503L37.2458 119.45L37.2261 119.405L37.2134 119.364L37.1866 119.319L37.1675 119.274L37.147 119.227L37.1273 119.182L37.1012 119.135L37.0821 119.097L37.0553 119.052L37.0292 119.004L37.0031 118.966L36.977 118.919L36.9502 118.879L36.9177 118.834L36.8846 118.796L36.8585 118.749L36.8253 118.703L36.7865 118.657L36.7533 118.612L36.7138 118.566L36.675 118.514L36.6355 118.468L36.596 118.415L36.5501 118.37L36.5106 118.318L36.4641 118.264L36.4189 118.212L36.366 118.16L36.3201 118.108L36.2679 118.056L36.215 117.997L36.1628 117.944L36.1106 117.885L36.0513 117.833L35.9984 117.774L35.9391 117.715L35.8742 117.656L35.8149 117.597L35.7557 117.537L35.6901 117.478L35.6244 117.419L35.5588 117.355L35.4932 117.296L35.4205 117.23L35.3479 117.171L35.2696 117.099L35.1778 117.001L35.0925 116.922L35.0134 116.837L34.9351 116.759L34.8624 116.68L34.7841 116.601L34.7122 116.523L34.6395 116.445L34.5675 116.372L34.5019 116.301L34.4356 116.227L34.3707 116.156L34.3044 116.083L34.2451 116.019L34.1865 115.952L34.1273 115.888L34.068 115.822L34.0158 115.756L33.9636 115.697L33.9106 115.632L33.8584 115.572L33.8126 115.514L33.766 115.462L33.7201 115.403L33.6743 115.35L33.6348 115.292L33.596 115.239L33.5558 115.187L33.5169 115.141L33.4845 115.089L33.445 115.042L33.4118 114.99L33.3857 114.945L33.3526 114.898L33.3194 114.847L33.2933 114.794L33.2608 114.748L33.234 114.696L33.2086 114.642L33.1755 114.59L33.1494 114.531L33.1225 114.479L33.1035 114.426L33.0774 114.367L33.0513 114.315L33.0308 114.256L33.0047 114.197L32.985 114.138L32.9652 114.086L32.9454 114.021L32.9257 113.962L32.9066 113.903L32.8869 113.844L32.8735 113.779L32.8537 113.72L32.841 113.654L32.8206 113.596L32.8079 113.53L32.7945 113.464L32.7818 113.4L32.7684 113.334L32.7557 113.268L32.7422 113.201L32.7295 113.123L32.7161 112.967L32.7027 112.815L32.69 112.665L32.683 112.515L32.6766 112.371L32.6703 112.227V112.082L32.6766 111.945V111.801L32.69 111.663L32.6964 111.533L32.7091 111.394L32.7295 111.263L32.7422 111.133L32.7684 111.001L32.7888 110.878L32.8142 110.753L32.8474 110.629L32.8798 110.504L32.913 110.386L32.9518 110.268L32.992 110.151L33.0379 110.04L33.083 109.929L33.1367 109.816L33.1889 109.705L33.2411 109.6L33.3003 109.496L33.3589 109.391L33.4252 109.293L33.4908 109.194L33.5628 109.096L33.6348 109.005L33.7074 108.912L33.7794 108.822L33.8584 108.737L33.9368 108.657L34.0228 108.571L34.1082 108.5L34.1929 108.422L34.2782 108.356L34.3707 108.285L34.4624 108.218L34.5541 108.159L34.6529 108.1L34.751 108.041L34.8497 107.989L34.9478 107.944L35.0529 107.891L35.1581 107.852L35.2632 107.812L35.3747 107.774L35.4798 107.741L35.5913 107.708L35.7098 107.675L35.8213 107.656L35.9391 107.629L36.0577 107.61L36.1755 107.597L36.294 107.583L36.4189 107.57L36.5438 107.564L36.6687 107.557H36.8846L36.9699 107.564H37.0553L37.147 107.57H37.2324L37.3178 107.577L37.4039 107.59L37.4892 107.597L37.5739 107.603L37.6593 107.616L37.7446 107.629L37.83 107.642L37.9154 107.656L37.9944 107.668L38.0798 107.688L38.1581 107.708L38.2435 107.727L38.3225 107.747L38.4079 107.767L38.4869 107.793L38.5652 107.812L38.6506 107.839L38.7296 107.864L38.8086 107.891L38.8869 107.918L38.966 107.951L39.045 107.982L39.124 108.008L39.196 108.048L39.2743 108.081L39.3533 108.114L39.4323 108.153L40.7186 108.848L39.3738 111.244L38.9857 110.937L38.9462 110.904L38.9004 110.871L38.8608 110.845L38.815 110.812L38.7691 110.786L38.7233 110.76L38.6774 110.734L38.6315 110.707L38.5786 110.681L38.5328 110.655L38.4798 110.635L38.434 110.616L38.3818 110.589L38.3296 110.57L38.2766 110.557L38.2244 110.537L38.1715 110.518L38.1193 110.504L38.0664 110.492L38.0078 110.471L37.9549 110.459L37.8956 110.452L37.8371 110.438L37.7778 110.426L37.7185 110.419L37.6593 110.412L37.6007 110.405L37.5351 110.4L37.4758 110.393L37.4102 110.386H37.2395L37.2134 110.393H37.1541L37.1273 110.4H37.0948L37.0687 110.405L37.0426 110.412H37.0158L36.9897 110.419L36.9636 110.426L36.9375 110.431L36.9107 110.438L36.8846 110.445L36.8585 110.452L36.8324 110.459L36.8063 110.466L36.7802 110.471L36.7533 110.478L36.7336 110.492L36.7075 110.498L36.6814 110.511L36.6553 110.518L36.6355 110.53L36.6094 110.537L36.5897 110.55L36.5628 110.563L36.5374 110.576L36.5177 110.583L36.4972 110.596L36.4782 110.609L36.4514 110.622L36.4323 110.635L36.4119 110.648L36.3921 110.661L36.373 110.675L36.3533 110.694L36.3335 110.707L36.3138 110.72L36.294 110.74L36.2806 110.753L36.2609 110.773L36.2411 110.786L36.2221 110.805L36.2087 110.825L36.1889 110.845L36.1755 110.864L36.1557 110.884L36.143 110.904L36.1233 110.923L36.1106 110.943L36.0901 110.969L36.0774 110.989L36.0577 111.015L36.045 111.034L36.0316 111.06L36.0181 111.086L35.9984 111.113L35.9857 111.14L35.9723 111.166L35.9596 111.192L35.9462 111.218L35.9328 111.244L35.9201 111.27L35.9067 111.303L35.8933 111.329L35.8869 111.363L35.8742 111.394L35.8608 111.427L35.8474 111.46L35.8411 111.493L35.8276 111.526L35.8213 111.559L35.8079 111.59L35.8015 111.63L35.7881 111.663L35.7818 111.703L35.7754 111.742L35.7684 111.782L35.7557 111.82L35.7486 111.86L35.7423 111.9L35.7359 111.938L35.7289 111.985L35.7225 112.023V112.07L35.7162 112.109L35.7098 112.155L35.7028 112.2V112.246L35.6964 112.292V112.338L35.6901 112.377V112.403L35.6964 112.443V112.508L35.7028 112.548V112.58L35.7098 112.612V112.645L35.7162 112.685L35.7225 112.718L35.7289 112.75L35.7359 112.783L35.7423 112.815L35.7557 112.848L35.762 112.874L35.7684 112.907L35.7818 112.941L35.7952 112.974L35.8015 113L35.8149 113.033L35.8276 113.064L35.8411 113.092L35.8538 113.123L35.8672 113.156L35.8869 113.182L35.9003 113.215L35.9201 113.242L35.9328 113.268L35.9525 113.301L35.9723 113.327L35.992 113.36L36.0118 113.386L36.0316 113.419L36.0577 113.452L36.0838 113.483L36.1106 113.523L36.143 113.556L36.1755 113.602L36.2087 113.641L36.2482 113.687L36.2877 113.733L36.3272 113.785L36.373 113.831L36.4189 113.884L36.4641 113.942L36.5177 113.995L36.5699 114.053L36.6221 114.112L36.675 114.171L36.7336 114.237L36.7929 114.303L36.8585 114.367L36.9241 114.433L36.9897 114.507L37.0553 114.578L37.1273 114.649L37.2 114.727L37.2726 114.807L37.3509 114.886L37.43 114.964L37.5083 115.042L37.5873 115.128L37.6727 115.213L37.7581 115.305L37.8434 115.383L37.9217 115.468L38.0078 115.553L38.0861 115.632L38.1652 115.716L38.2435 115.796L38.3162 115.874L38.3881 115.952L38.4664 116.031L38.5328 116.111L38.6054 116.189L38.6774 116.267L38.743 116.346L38.8086 116.418L38.8742 116.497L38.9335 116.568L38.9921 116.641L39.0577 116.712L39.117 116.785L39.1692 116.857L39.2284 116.929L39.2814 117.001L39.3336 117.073L39.3858 117.138L39.4387 117.21L39.4846 117.275L39.5304 117.348L39.577 117.413L39.6228 117.478L39.6687 117.545L39.7075 117.609L39.7541 117.675L39.7929 117.741L39.8324 117.812L39.8656 117.879L39.9051 117.944L39.9375 118.016L39.977 118.082L40.0102 118.153L40.0427 118.226L40.0688 118.297L40.1019 118.37L40.128 118.441L40.1541 118.514L40.1873 118.586L40.207 118.657L40.2331 118.73L40.2593 118.808L40.279 118.879L40.2988 118.959L40.3185 119.037L40.3383 119.111L40.358 119.189L40.3707 119.267L40.3841 119.345L40.4032 119.424L40.4173 119.503L40.4237 119.582L40.4364 119.66L40.4434 119.745L40.4568 119.823L40.4632 119.908L40.4695 119.987L40.4759 120.072L40.4829 120.223V120.374L40.4893 120.518V120.667L40.4829 120.812L40.4759 120.957L40.4695 121.094L40.4568 121.238L40.4434 121.375L40.43 121.506L40.4102 121.637L40.3841 121.768L40.3644 121.9L40.3312 122.023L40.3051 122.155L40.2727 122.279L40.2331 122.404L40.1936 122.522L40.1541 122.64L40.109 122.757L40.0624 122.875L40.0102 122.986L39.9573 123.098L39.898 123.202L39.8394 123.314L39.7802 123.419L39.7146 123.516L39.6489 123.622L39.577 123.719L39.5043 123.819L39.4253 123.909L39.3533 124.001L39.2679 124.087L39.1889 124.172L39.1036 124.257L39.0189 124.335L38.9335 124.415L38.8474 124.493L38.7557 124.564L38.6647 124.63L38.5723 124.696L38.4742 124.761L38.3818 124.827L38.2837 124.879L38.1849 124.938L38.0798 124.99L37.9747 125.035L37.8759 125.089L37.7715 125.127L37.6593 125.174L37.5541 125.207L37.4427 125.245L37.3312 125.278L37.2197 125.305L37.1082 125.331L36.9897 125.357L36.8719 125.378L36.7533 125.397L36.6355 125.409L36.5177 125.423L36.3921 125.437L36.2743 125.442L36.1494 125.449H35.9264L35.8276 125.442H35.7359L35.6379 125.437L35.5454 125.43L35.4474 125.416L35.3549 125.409L35.2632 125.397L35.1778 125.383L35.0861 125.364L34.9944 125.352L34.9083 125.331L34.8229 125.305L34.7383 125.286L34.6529 125.26L34.5675 125.233L34.4822 125.207L34.4031 125.179L34.3178 125.148L34.2394 125.115L34.1604 125.082L34.0821 125.042L34.0094 125.004L33.9304 124.964L33.8584 124.925L33.7794 124.879L33.7074 124.833L33.6348 124.787L33.5692 124.741L33.4972 124.689L33.4316 124.637L33.3787 124.597L32 123.648L33.5042 121.533ZM47.5272 119.3H49.3983L48.4727 113.379L47.5272 119.3ZM47.3106 107.557H49.7201L53.5541 125.023H50.5018L49.8259 121.788H47.0749L46.4181 125.023H43.4307L47.3106 107.557ZM69.2316 119.3H71.1091L70.177 113.379L69.2316 119.3ZM69.0213 107.557H71.4308L75.2648 125.023H72.2125L71.5359 121.788H68.7857L68.1288 125.023H65.1422L69.0213 107.557ZM97.1667 119.3H99.0364L98.1115 113.379L97.1667 119.3ZM96.9557 107.557H99.3645L103.2 125.023H100.148L99.464 121.788H96.7201L96.0576 125.023H93.0702L96.9557 107.557ZM121.621 122.201L121.681 122.18L121.733 122.161L121.778 122.142L121.83 122.123L121.877 122.097L121.929 122.077L121.974 122.051L122.021 122.025L122.066 121.999L122.106 121.973L122.151 121.947L122.19 121.921L122.23 121.888L122.27 121.855L122.309 121.821L122.349 121.79L122.388 121.757L122.421 121.717L122.462 121.677L122.495 121.638L122.534 121.598L122.567 121.565L122.6 121.52L122.632 121.475L122.665 121.428L122.698 121.383L122.731 121.331L122.764 121.279L122.797 121.227L122.824 121.174L122.857 121.122L122.883 121.063L122.916 121.004L122.942 120.946L122.968 120.88L122.994 120.814L123.02 120.748L123.039 120.683L123.066 120.617L123.092 120.545L123.112 120.472L123.138 120.4L123.157 120.321L123.176 120.249L123.195 120.171L123.216 120.086L123.235 120.008L123.254 119.923L123.268 119.831L123.287 119.746L123.306 119.653L123.32 119.563L123.339 119.471L123.353 119.378L123.373 119.279L123.387 119.182L123.399 119.082L123.413 118.978L123.426 118.874L123.44 118.769L123.453 118.665L123.467 118.561L123.473 118.45L123.487 118.338L123.494 118.227L123.507 118.109L123.514 117.991L123.521 117.873L123.528 117.755L123.535 117.631L123.54 117.513L123.548 117.388L123.555 117.257V117.132L123.56 117.001V115.901L123.555 115.744V115.586L123.548 115.429V115.278L123.54 115.127L123.535 114.983L123.528 114.84L123.514 114.696L123.507 114.559L123.501 114.422L123.487 114.283L123.48 114.152L123.467 114.021L123.453 113.896L123.44 113.771L123.426 113.647L123.413 113.529L123.399 113.411L123.387 113.3L123.373 113.189L123.353 113.078L123.339 112.974L123.32 112.868L123.301 112.764L123.287 112.665L123.268 112.567L123.249 112.475L123.229 112.384L123.21 112.299L123.19 112.207L123.17 112.122L123.144 112.044L123.125 111.959L123.099 111.879L123.073 111.808L123.054 111.73L123.028 111.656L123 111.59L122.968 111.519L122.942 111.453L122.916 111.393L122.883 111.329L122.857 111.27L122.824 111.211L122.797 111.159L122.764 111.107L122.731 111.055L122.698 111.001L122.665 110.956L122.632 110.911L122.6 110.871L122.567 110.826L122.527 110.786L122.495 110.747L122.462 110.714L122.421 110.681L122.388 110.648L122.349 110.615L122.316 110.589L122.276 110.563L122.237 110.537L122.191 110.504L122.152 110.485L122.107 110.459L122.06 110.431L122.015 110.412L121.97 110.386L121.916 110.367L121.864 110.348L121.812 110.328L121.76 110.309L121.707 110.295L121.648 110.276L121.589 110.263L121.53 110.249L121.465 110.237L121.405 110.223L121.339 110.209L121.274 110.196L121.208 110.189L121.136 110.183L121.07 110.176L120.996 110.169L120.924 110.162H120.846L120.773 110.155H120.72V122.336H120.741L120.813 122.329H120.885L120.951 122.324L121.023 122.317L121.089 122.31L121.149 122.302L121.215 122.29L121.28 122.283L121.339 122.27L121.398 122.256L121.458 122.242L121.517 122.229L121.569 122.21L121.621 122.201ZM117.689 107.557H121.384L121.536 107.564L121.686 107.571L121.831 107.578L121.976 107.59L122.12 107.605L122.258 107.617L122.395 107.636L122.533 107.657L122.664 107.683L122.797 107.702L122.921 107.735L123.047 107.761L123.171 107.794L123.296 107.834L123.415 107.872L123.526 107.913L123.643 107.953L123.755 108.005L123.866 108.05L123.971 108.102L124.077 108.154L124.181 108.213L124.281 108.272L124.379 108.331L124.471 108.397L124.562 108.462L124.655 108.535L124.74 108.607L124.825 108.686L124.904 108.764L124.982 108.842L125.055 108.92L125.127 109L125.201 109.083L125.266 109.161L125.332 109.248L125.397 109.333L125.456 109.417L125.515 109.509L125.575 109.594L125.634 109.686L125.693 109.778L125.745 109.87L125.798 109.961L125.843 110.06L125.896 110.152L125.941 110.25L125.98 110.349L126.027 110.447L126.066 110.551L126.106 110.65L126.146 110.754L126.178 110.86L126.218 110.964L126.244 111.068L126.277 111.179L126.303 111.283L126.337 111.394L126.356 111.507L126.382 111.618L126.401 111.729L126.42 111.84L126.44 111.958L126.453 112.069L126.473 112.186L126.486 112.304L126.5 112.429L126.519 112.547L126.533 112.671L126.546 112.803L126.559 112.934L126.566 113.065L126.58 113.202L126.593 113.341L126.607 113.478L126.614 113.622L126.627 113.766L126.634 113.91L126.641 114.06L126.648 114.211L126.66 114.368L126.667 114.526L126.675 114.683L126.68 114.848V115.011L126.687 115.174L126.694 115.344V115.514L126.701 115.69V115.867L126.707 116.045V117.165L126.701 117.355V117.538L126.694 117.722L126.687 117.898L126.68 118.075L126.667 118.253L126.66 118.423L126.648 118.593L126.634 118.756L126.621 118.919L126.607 119.076L126.588 119.241L126.567 119.39L126.548 119.549L126.529 119.7L126.51 119.843L126.49 119.994L126.464 120.131L126.437 120.275L126.411 120.412L126.385 120.544L126.352 120.682L126.326 120.805L126.293 120.938L126.26 121.061L126.228 121.186L126.188 121.305L126.155 121.421L126.116 121.534L126.076 121.645L126.03 121.749L125.99 121.86L125.945 121.964L125.9 122.07L125.846 122.174L125.801 122.278L125.749 122.377L125.697 122.475L125.637 122.567L125.585 122.665L125.526 122.757L125.46 122.842L125.4 122.934L125.335 123.019L125.269 123.104L125.204 123.189L125.131 123.267L125.059 123.345L124.985 123.425L124.913 123.497L124.835 123.57L124.755 123.641L124.677 123.708L124.599 123.772L124.513 123.838L124.428 123.904L124.343 123.963L124.257 124.023L124.166 124.075L124.074 124.127L123.981 124.179L123.89 124.231L123.791 124.277L123.698 124.322L123.6 124.367L123.502 124.407L123.397 124.452L123.292 124.492L123.188 124.531L123.083 124.571L122.972 124.604L122.867 124.637L122.749 124.669L122.636 124.703L122.519 124.735L122.4 124.761L122.282 124.794L122.165 124.82L122.039 124.84L121.915 124.866L121.782 124.885L121.658 124.904L121.527 124.925L121.394 124.944L121.257 124.956L121.119 124.97L120.981 124.983L120.844 124.997L120.706 125.004L120.562 125.01L120.418 125.017L120.267 125.024H117.692V107.557H117.689ZM142.926 114.853L143.012 114.813L143.09 114.774L143.162 114.734L143.234 114.682L143.307 114.63L143.374 114.578L143.432 114.512L143.491 114.447L143.55 114.374L143.602 114.296L143.649 114.211L143.701 114.118L143.74 114.021L143.78 113.922L143.82 113.81L143.852 113.692L143.885 113.569L143.911 113.436L143.93 113.299L143.951 113.162L143.964 113.011L143.978 112.854L143.985 112.691V112.37L143.978 112.22L143.971 112.081L143.958 111.944L143.944 111.813L143.925 111.688L143.899 111.57L143.872 111.452L143.846 111.342L143.813 111.243L143.78 111.144L143.74 111.053L143.701 110.968L143.661 110.883L143.616 110.81L143.569 110.738L143.518 110.672L143.465 110.613L143.412 110.561L143.353 110.509L143.295 110.464L143.235 110.417L143.17 110.379L143.103 110.346L143.031 110.313L142.953 110.287L142.873 110.261L142.788 110.24L142.704 110.228L142.612 110.213L142.512 110.206H142.414V114.962H142.428L142.533 114.949L142.637 114.929L142.741 114.91L142.834 114.884L142.926 114.853ZM143.451 107.583L143.563 107.59L143.667 107.604L143.772 107.616L143.876 107.631L143.982 107.65L144.08 107.664L144.184 107.69L144.284 107.709L144.376 107.735L144.474 107.761L144.567 107.787L144.658 107.82L144.75 107.846L144.843 107.886L144.928 107.919L145.013 107.958L145.099 107.998L145.183 108.036L145.261 108.083L145.341 108.128L145.419 108.174L145.497 108.219L145.569 108.271L145.643 108.323L145.715 108.382L145.788 108.441L145.854 108.5L145.919 108.559L145.986 108.626L146.043 108.692L146.11 108.756L146.169 108.83L146.221 108.901L146.281 108.979L146.333 109.057L146.385 109.137L146.437 109.215L146.484 109.3L146.529 109.385L146.574 109.476L146.621 109.568L146.659 109.66L146.706 109.752L146.739 109.85L146.778 109.949L146.811 110.047L146.844 110.152L146.877 110.256L146.909 110.36L146.935 110.472L146.961 110.576L146.988 110.694L147.008 110.805L147.027 110.923L147.046 111.041L147.067 111.166L147.079 111.283L147.093 111.408L147.106 111.539L147.113 111.657L147.12 111.775L147.127 111.893L147.134 112.012V112.365L147.127 112.476V112.594L147.12 112.705L147.106 112.816L147.1 112.934L147.086 113.045L147.074 113.156L147.059 113.262L147.04 113.373L147.026 113.483L147.007 113.588L146.987 113.692L146.961 113.803L146.935 113.909L146.916 114.013L146.884 114.119L146.859 114.218L146.832 114.322L146.798 114.426L146.767 114.526L146.734 114.623L146.693 114.722L146.66 114.82L146.621 114.919L146.581 115.017L146.536 115.116L146.496 115.214L146.451 115.306L146.405 115.398L146.352 115.483L146.307 115.568L146.254 115.654L146.202 115.732L146.15 115.81L146.091 115.889L146.039 115.961L145.972 116.033L145.913 116.106L145.855 116.172L145.789 116.237L145.722 116.296L145.65 116.355L145.584 116.414L145.511 116.466L145.439 116.511L145.367 116.564L145.289 116.603L145.209 116.649L145.131 116.688L145.052 116.721L144.974 116.754L144.9 116.78L148 124.854L145.335 126L142.413 118.371V125.025H139.432V107.557H142.998L143.116 107.564H143.228L143.339 107.571L143.451 107.583ZM85.4149 73.3648L85.664 73.1356C81.1668 72.0224 86.7082 67.3924 87.4766 66.462C87.0688 66.5408 84.6141 67.5035 82.9525 69.187L83.9177 66.9015L80.7272 67.4775L83.5438 65.9184L80.215 65.4009L84.2924 64.4972L82.0339 63.017C81.9556 62.9319 83.6031 63.2793 84.9747 63.5542C83.7138 60.0705 85.8277 62.6112 86.4451 63.8165C100.304 63.5352 91.2838 69.0886 91.2838 69.0886L91.3028 69.1279C109.404 56.1873 121.484 51.2556 146.95 61.8651L146.989 62.1661C121.412 56.2394 109.699 61.5641 99.0773 76.5082L99.1493 76.5145C99.6425 78.0342 104.205 75.9252 106.241 75.8992C107.869 75.8795 110.212 77.3992 108.59 79.8808C108.053 81.8196 105.669 82.769 103.89 85.4869C103.956 86.515 104.895 88.0213 104.797 87.9299L103.351 87.3666L102.407 90.1366L101.493 87.8905L98.7161 90.9157L99.4908 87.5755L97.3247 87.5494L99.9776 85.8336L98.237 85.4609L100.325 85.0411C101.586 83.6332 102.229 82.873 103.581 81.1509C101.624 81.9371 95.0726 88.0797 93.2798 83.7971V83.7837L93.2939 83.7647C83.6884 95.5921 73.5651 105.226 55.2813 96.2264L55.1825 96.2855C55.9699 97.7208 55.4513 98.6244 55.8648 100.437C56.1999 101.892 55.0576 104.498 52.1493 103.877C50.0291 104.04 48.5778 102.226 45.3999 101.545C44.3367 101.944 42.9383 103.288 43.0173 103.17L43.332 101.69L40.2593 101.768L42.426 100.203L38.7367 98.7292L42.3738 98.3038L41.9928 96.3523L44.2845 98.1533L44.3501 96.4705L45.184 98.1997C46.8978 98.8537 47.8165 99.1814 49.8711 99.8107C48.6766 98.3234 44.9343 94.3812 45.1579 91.8925L45.1184 91.9256C44.9913 91.3972 44.8555 90.8709 44.7113 90.3468C38.2117 87.8849 36.0386 87.9306 33.9311 80.2226C32.4078 75.3894 32.7888 70.3143 38.7501 72.8226C49.4915 73.8507 44.5208 72.1419 49.4117 76.9027C49.2805 76.1369 47.8362 75.0758 49.1951 73.4387C50.6458 72.1553 54.9991 72.9738 56.1018 72.9809C56.9288 71.1863 54.5983 71.9 52.3462 71.9L54.0663 70.8979L50.5343 70.0006L55.1296 69.6793L54.8276 67.8192L56.3185 68.6708L56.9619 67.3024C57.0014 67.1779 58.4916 70.2362 58.9579 71.1989C67.5777 77.0602 60.3888 78.4428 59.8766 78.717C62.5358 80.1973 62.2338 81.0222 67.3809 81.6508C73.5707 81.0665 77.6679 79.7437 85.4149 73.3648ZM45.5241 87.3343L45.4846 87.3539C35.5779 86.0045 37.9083 81.5517 34.1527 78.6565L34.2317 78.6242C37.981 81.5186 36.819 85.4546 45.5241 87.3343ZM146.806 61.9108L146.983 62.2709L146.865 61.9825C124.793 50.5412 108.367 56.9461 91.3367 69.1272L91.3176 69.0879C91.3176 69.0879 100.331 63.5345 86.4789 63.8088C85.8545 62.6105 83.7414 60.0635 85.0085 63.5472C83.6292 63.2786 81.988 62.9249 82.0607 63.0099L84.3256 64.4965L80.2488 65.4002L83.5777 65.9114L80.7547 67.4697L83.9516 66.8931L82.9864 69.1786C84.6409 67.5021 87.1026 66.5331 87.5034 66.4543C86.735 67.3847 81.2006 72.021 85.6915 73.1278L85.4418 73.3571C77.7004 79.7367 73.6039 81.0665 67.4063 81.6431C62.2592 81.0144 62.5605 80.1889 59.9083 78.7093C60.4135 78.4336 67.6031 77.0588 58.9897 71.1912C58.517 70.2285 57.0268 67.1702 56.9873 67.2946L56.3502 68.6631L54.8601 67.8115L55.1557 69.6779L50.5604 69.9992L54.0988 70.8895L52.3786 71.8916C54.6244 71.8986 56.9542 71.1848 56.1272 72.9795C55.0301 72.9654 50.6775 72.1469 49.2269 73.4309C47.868 75.068 49.3123 76.1355 49.4435 76.902C44.5462 72.1342 49.5162 73.85 38.7748 72.8156C34.4483 70.995 33.0626 73.1757 33.2143 76.3584L33.2206 76.3655C33.2531 74.0336 34.54 72.6911 36.8578 74.6433C37.5076 75.7304 38.0071 76.8767 38.6696 77.774C37.5534 79.1685 38.374 79.352 39.7266 78.7627C40.0866 79.1172 40.5611 79.333 41.0657 79.3717C41.7818 81.3492 40.5274 81.2774 42.4705 79.4899C43.2515 79.5222 44.2633 79.2276 45.5566 78.4617C46.732 78.8352 47.9922 79.4048 48.8127 80.6818C48.4981 81.7359 48.1827 82.7774 47.868 83.8259C47.8355 84.6965 48.7281 85.5741 49.9035 85.9405C51.1968 86.4841 52.4703 87.008 53.7178 87.5255C89.1043 111.185 90.6213 41.8121 146.806 61.9108ZM109.712 60.9087C109.043 60.0311 110.526 59.3497 110.847 59.6317C111.058 59.92 110.888 60.4896 110.664 60.8236C110.513 61.1387 109.962 61.1183 109.712 60.9087ZM103.278 64.3735C102.031 63.2462 104.066 61.9038 104.63 62.2315C105.031 62.6049 104.926 63.4825 104.689 64.0261C104.545 64.5176 103.718 64.6154 103.278 64.3735ZM96.6869 68.8002C94.8609 67.4838 97.3565 65.4599 98.1502 65.827C98.7415 66.2595 98.7345 67.4184 98.5059 68.1582C98.393 68.8199 97.3043 69.0555 96.6869 68.8002ZM89.1304 69.9859C87.8505 69.0632 89.6031 67.635 90.1676 67.8903C90.581 68.1983 90.574 69.0168 90.4166 69.5337C90.332 69.9992 89.5636 70.1694 89.1304 69.9859ZM91.9533 73.0702C89.6419 72.0224 91.9272 69.3762 92.8847 69.6054C93.634 69.9528 93.8964 71.1968 93.804 72.0287C93.8308 72.7558 92.6885 73.2214 91.9533 73.0702ZM85.6908 72.1595C83.977 70.9352 86.3145 69.0421 87.0561 69.3762C87.6142 69.7826 87.6078 70.8698 87.3912 71.5639C87.279 72.1799 86.2616 72.4021 85.6908 72.1595ZM87.7454 76.7839C85.0798 75.7951 87.9225 72.8416 89.0316 73.0378C89.8917 73.3648 90.1281 74.6749 89.9771 75.5722C89.9707 76.3451 88.5984 76.9076 87.7454 76.7839ZM82.6506 81.7873C79.3154 80.5489 82.8806 76.8493 84.279 77.0848C85.3627 77.4969 85.6584 79.1481 85.4671 80.2676C85.4544 81.2374 83.7343 81.9441 82.6506 81.7873ZM76.5581 86.5677C72.1921 84.9503 76.853 80.1108 78.6783 80.4251C80.0894 80.9617 80.4767 83.1163 80.234 84.5769C80.215 85.8469 77.9628 86.771 76.5581 86.5677ZM68.6862 91.3742C62.4032 89.0431 69.1123 82.0749 71.7391 82.5334C73.781 83.3062 74.332 86.4039 73.9842 88.5128C73.951 90.3335 70.7154 91.6696 68.6862 91.3742ZM62.6071 90.87C55.9897 88.1781 64.1367 82.3238 67.1107 83.0116C67.7739 84.4595 66.2576 85.8603 64.7604 86.7907C64.2877 89.3244 63.8214 90.8503 62.6071 90.87ZM56.5605 87.9496C52.2601 84.4194 59.8434 81.5573 61.898 82.7359C62.0426 84.02 60.5525 84.7928 59.1929 85.2049C58.2023 87.0916 57.4734 88.1922 56.5605 87.9496ZM50.2189 83.8632C50.1272 82.6909 51.2434 81.1066 53.0094 79.9469C56.0355 78.6833 57.1912 79.7311 58.1099 80.608C58.0838 81.1248 57.8276 81.7085 57.381 82.2844C56.7051 82.7894 55.7074 83.2471 54.4925 83.5298C52.6284 84.4391 51.9256 85.5657 50.2189 83.8632ZM57.8213 76.7044C56.5012 79.7697 50.4941 77.0912 50.6521 75.7748C51.7613 75.3296 53.1399 75.7881 54.1249 76.2994C56.305 76.1946 57.6308 76.2072 57.8213 76.7044ZM57.9723 73.8107C59.8237 72.1208 62.7052 75.6433 62.1675 76.4822C61.3209 76.4688 60.6047 75.7621 60.1588 75.1397C58.7533 74.5898 57.9264 74.2038 57.9723 73.8107ZM41.3818 77.89C42.9312 78.1256 44.1264 77.4189 45.0451 76.3704C44.9075 75.3817 44.106 74.6151 42.807 74.1897C41.9004 73.9478 40.9747 74.0912 40.3249 74.5111C40.8174 74.8774 41.3423 75.3233 42.0514 75.8472C41.1059 75.952 40.2917 76.0694 39.5234 76.1875C39.6687 76.9344 40.3707 77.6151 41.3818 77.89ZM112.326 62.9326C111.537 63.9937 110.356 63.0634 110.573 62.6316C110.829 62.2842 111.518 62.1337 111.958 62.1408C112.345 62.1077 112.482 62.5986 112.326 62.9326ZM106.856 66.4163C105.853 67.7721 104.336 66.5802 104.611 66.0303C104.946 65.5915 105.825 65.3882 106.383 65.4079C106.884 65.3622 107.06 65.9909 106.856 66.4163ZM101.526 70.123C101.585 71.9696 99.1818 71.9303 99.0315 71.2629C99.0174 70.6602 99.7272 69.9071 100.279 69.5534C100.732 69.187 101.388 69.6195 101.526 70.123ZM102.353 80.5362C101.519 82.0686 99.3398 81.5454 99.5233 80.9687C99.7991 80.4708 100.816 79.9934 101.492 79.8161C102.089 79.6059 102.477 80.0981 102.353 80.5362ZM97.856 73.8564C98.079 75.9456 94.947 76.3254 94.6923 75.5919C94.633 74.9105 95.4931 73.9218 96.1888 73.4239C96.7518 72.926 97.6451 73.3065 97.856 73.8564ZM98.5447 82.6649C97.2316 84.911 93.9437 84.2099 94.2379 83.3653C94.6704 82.6318 96.2198 81.9117 97.257 81.6368C98.1644 81.3091 98.7352 82.0158 98.5447 82.6649ZM94.0538 78.8984C93.6213 81.5179 90.5359 80.5883 90.5218 79.5996C90.6664 78.7416 91.7897 77.9364 92.6039 77.6411C93.2932 77.2944 94.015 78.146 94.0538 78.8984ZM89.5375 84.1641C88.9604 87.6746 84.8307 86.4299 84.8103 85.1008C85.0142 83.9553 86.5177 82.8737 87.6078 82.4813C88.5201 82.0095 89.4916 83.1487 89.5375 84.1641ZM83.0513 90.2217C82.4347 93.955 78.0419 92.6323 78.0228 91.2181C78.2324 89.9994 79.8283 88.8539 80.9904 88.4348C81.9683 87.9299 83.0048 89.1479 83.0513 90.2217ZM75.6782 95.0879C73.2554 98.5323 68.8774 95.9191 69.5067 94.5373C70.3082 93.4178 72.6514 92.7891 74.1676 92.7244C75.5075 92.5338 76.1185 94.0268 75.6782 95.0879ZM67.5834 95.6639C64.8458 100.759 60.2364 95.0415 61.0182 92.7835C62.3115 92.1928 63.4411 93.2406 64.1628 94.3081C66.343 94.5043 67.6356 94.7602 67.5834 95.6639ZM59.6268 94.3875C55.4774 98.6371 52.9501 91.8208 54.381 89.8159C55.7794 89.5937 56.5082 90.9164 56.8497 92.1478C58.8253 92.9206 59.9549 93.5155 59.6268 94.3875ZM54.5383 101.46C54.5976 103.307 52.2015 103.267 52.0505 102.6C52.0308 101.997 52.7399 101.244 53.298 100.889C53.7509 100.523 54.4071 100.956 54.5383 101.46ZM50.2323 96.2862C47.6648 97.7665 45.5051 92.9663 46.3517 92.1288C47.2908 92.3637 47.875 93.3594 48.1897 94.197C49.5888 95.1857 50.4024 95.8481 50.2323 96.2862ZM52.6742 92.422C51.8932 92.4621 50.8165 91.6626 50.015 90.4122C49.1225 88.2899 49.8054 87.5044 50.3762 86.8821C50.7241 86.9018 51.1114 87.0916 51.5058 87.4123C51.8537 87.8905 52.1747 88.5909 52.385 89.4355C53.0221 90.7519 53.7834 91.2561 52.6742 92.422Z" fill="white"/>
</svg>
