<svg width="180" height="180" viewBox="0 0 180 180" fill="none" xmlns="http://www.w3.org/2000/svg">
    <rect width="180" height="180" fill="#E7E7E7"/>
    <path d="M40.0481 95.3589C40.0481 95.3589 38.8335 94.6208 38.0805 94.3342C38.0805 94.3342 35.7539 93.2741 35.2923 92.7682C35.2923 92.7682 34.3854 91.9257 34.9167 90.9516C34.9167 90.9516 35.1378 90.3128 36.0962 90.3128C36.0962 90.3128 37.3451 90.3791 37.3451 91.3891V92.8123H41.8192L41.8069 90.7154C41.8069 90.7154 42.1492 87.2829 36.5385 87.1328C36.5385 87.1328 36.1164 87.106 35.4959 87.1328C35.4959 87.1328 32.0975 87.312 30.8826 89.1459C30.8708 89.1586 30.8661 89.169 30.8589 89.1818C30.8589 89.1818 30.3633 89.702 30.3633 91.5206V92.833C30.3633 92.833 30.3124 94.3471 31.0991 95.3235C31.0991 95.3235 31.5441 95.9631 32.6393 96.6693C32.6393 96.6693 34.8622 97.8468 36.1963 98.521C36.1963 98.521 37.5452 99.2772 37.368 100.481C37.368 100.481 37.2574 101.717 35.9576 101.667C35.9576 101.667 34.7676 101.613 34.7676 100.402V98.9793H30.0002V101.047C30.0002 101.047 29.8665 105 35.9909 105C35.9909 105 41.8402 105.117 42.1158 100.943V99.2616C42.1158 99.2616 42.3203 96.7012 40.0446 95.3554L40.0481 95.3589ZM113.371 100.24C113.371 100.24 113.43 101.618 112.129 101.618C112.129 101.618 110.768 101.69 110.768 100.273L110.756 87.6366H105.894V100.171C105.894 100.171 105.398 104.917 112.199 104.917C112.199 104.917 118.114 104.986 118.114 100.389V87.6366H113.371V100.24ZM128.548 94.2038L133.253 104.425H138.545V87.625H134.051L134.367 97.8493H134.183L129.628 87.6261H124.187V104.425H128.619L128.347 94.2038H128.548ZM149.234 95.1292V97.5947H150.454V100.241C150.454 101.533 149.331 101.558 149.331 101.558C147.961 101.558 148.023 100.329 148.023 100.329V91.175C148.023 90.2325 149.225 90.1814 149.225 90.1814C150.401 90.1814 150.401 91.3065 150.401 91.3065V92.6983H154.877C155.035 89.9824 154.482 89.3239 154.482 89.3239C153.368 86.8675 149.164 87.0013 149.164 87.0013C142.696 87.0013 143.415 91.8817 143.415 91.8817V100.732C143.547 105.308 149.927 104.843 150.033 104.837C152.867 104.529 153.719 103.643 153.719 103.643C154.517 103.068 154.71 102.272 154.71 102.272C154.939 101.808 155 100.328 155 100.328V95.1275H149.234V95.1292ZM56.8283 87.6923H49.3132L46.3696 104.402H51.1307L52.8746 91.4462H53.266L55.009 104.402H59.7701L56.8283 87.6923ZM68.9974 91.8266H69.3449L71.6899 104.419H76.3431L78.6591 91.8313H78.9672L79.0751 104.422H83.5203L83.042 87.6227H75.6445L74.1464 96.854H73.7962L72.3666 87.7053H64.8945L64.5206 104.422H68.9439L68.9974 91.8266ZM98.5425 95.3589C98.5425 95.3589 97.3262 94.6191 96.574 94.3333C96.574 94.3333 94.2475 93.2715 93.785 92.7665C93.785 92.7665 92.8784 91.9257 93.4085 90.9494C93.4085 90.9494 93.6305 90.3106 94.5889 90.3106C94.5889 90.3106 95.8368 90.3779 95.8368 91.3868V92.8097H100.31L100.298 90.7131C100.298 90.7131 100.642 87.2806 95.0294 87.1292C95.0294 87.1292 90.6159 86.8442 89.3495 89.1818C89.3495 89.1818 88.8527 89.7032 88.8527 91.5206V92.833C88.8527 92.833 88.8018 94.348 89.589 95.3235C89.589 95.3235 90.0331 95.9631 91.1293 96.6693C91.1293 96.6693 93.3532 97.8468 94.6872 98.5218C94.6872 98.5218 96.0343 99.278 95.857 100.481C95.857 100.481 95.7482 101.717 94.4476 101.667C94.4476 101.667 93.2575 101.613 93.2575 100.402V98.9802H88.4911V101.047C88.4911 101.047 88.3577 105 94.4827 105C94.4827 105 100.334 105.117 100.607 100.943V99.2616C100.607 99.2616 100.813 96.7047 98.539 95.3589H98.5425Z" fill="black"/>
</svg>
