<svg width="180" height="180" viewBox="0 0 180 180" fill="none" xmlns="http://www.w3.org/2000/svg">
    <rect width="180" height="180" fill="#E7E7E7"/>
    <path d="M131.572 88.3286L136.826 84.5276H119.238V107.297H136.826V103.496H124.263V97.6822H134.998V93.8811H124.263V88.3286H131.572Z" fill="#21A038"/>
    <path d="M105.951 93.3967H99.8601V88.3286H109.606L114.86 84.5276H94.8349V107.297H105.304C111.167 107.297 114.555 104.688 114.555 100.142C114.555 95.7816 111.509 93.3967 105.951 93.3967ZM105.114 103.496H99.8601V97.1977H105.114C108.312 97.1977 109.796 98.2411 109.796 100.365C109.796 102.489 108.197 103.496 105.114 103.496Z" fill="#21A038"/>
    <path d="M151.064 84.5276H141.508V107.297H146.534V100.85H151.102C157.193 100.85 161 97.7194 161 92.6886C161 87.6578 157.193 84.5276 151.064 84.5276ZM150.95 97.0487H146.495V88.3286H150.95C154.186 88.3286 155.937 89.8938 155.937 92.6886C155.937 95.4835 154.186 97.0487 150.95 97.0487Z" fill="#21A038"/>
    <path d="M86.2311 102.378C84.8987 103.086 83.414 103.458 81.8912 103.458C77.3609 103.458 74.0869 100.291 74.0869 95.9307C74.0869 91.5707 77.3609 88.4031 81.8912 88.4031C83.5282 88.3659 85.1271 88.8876 86.4596 89.8192L90.0762 87.2107L89.8478 86.9871C87.7539 85.1611 84.9368 84.2294 81.7389 84.2294C78.2746 84.2294 75.1148 85.3847 72.8306 87.4715C70.5464 89.6329 69.2521 92.6514 69.3282 95.7816C69.2901 98.9492 70.5464 102.005 72.8306 104.241C75.229 106.439 78.4269 107.669 81.7008 107.595C85.3175 107.595 88.4773 106.365 90.6092 104.129L87.3732 101.781L86.2311 102.378Z" fill="#21A038"/>
    <path d="M53.6054 84.3785C54.519 85.5337 55.2804 86.8007 55.9276 88.1423L38.3394 100.85L30.9539 96.3033V90.8626L38.3013 95.3717L53.6054 84.3785Z" fill="#21A038"/>
    <path d="M23.4542 95.9307C23.4542 95.6699 23.4542 95.4463 23.4922 95.1854L19.0381 94.9618C19.0381 95.26 19 95.5953 19 95.8935C19 101.111 21.17 105.843 24.6724 109.272L27.8322 106.179C25.1292 103.57 23.4542 99.9554 23.4542 95.9307Z" fill="url(#paint0_linear)"/>
    <path d="M38.3013 81.3976C38.5678 81.3976 38.7962 81.3976 39.0627 81.4349L39.2911 77.0748C38.9866 77.0748 38.6439 77.0376 38.3394 77.0376C33.0096 77.0376 28.1748 79.1617 24.6723 82.5901L27.8321 85.6831C30.497 83.0373 34.2278 81.3976 38.3013 81.3976Z" fill="url(#paint1_linear)"/>
    <path d="M38.3014 110.464C38.0349 110.464 37.8065 110.464 37.54 110.427L37.3116 114.787C37.6161 114.787 37.9588 114.824 38.2633 114.824C43.5931 114.824 48.4279 112.7 51.9303 109.272L48.7706 106.179C46.1057 108.862 42.4129 110.464 38.3014 110.464Z" fill="url(#paint2_linear)"/>
    <path d="M46.6767 83.9313L50.4456 81.211C47.1336 78.6024 42.9078 77 38.3014 77V81.36C41.4231 81.3973 44.3164 82.3289 46.6767 83.9313Z" fill="url(#paint3_linear)"/>
    <path d="M57.6408 95.9307C57.6408 94.7755 57.5266 93.6575 57.3362 92.5396L53.1866 95.558C53.1866 95.6698 53.1866 95.8189 53.1866 95.9307C53.1866 100.216 51.2832 104.054 48.2757 106.7L51.2832 109.942C55.1663 106.514 57.6408 101.483 57.6408 95.9307Z" fill="#21A038"/>
    <path d="M38.3013 110.464C33.9233 110.464 30.0021 108.601 27.2992 105.657L23.9871 108.601C27.5276 112.439 32.6289 114.824 38.3013 114.824V110.464Z" fill="url(#paint4_linear)"/>
    <path d="M28.3651 85.1611L25.3576 81.919C21.4365 85.3846 19 90.3782 19 95.9307H23.4542C23.4542 91.6825 25.3576 87.8069 28.3651 85.1611Z" fill="url(#paint5_linear)"/>
    <defs>
        <linearGradient id="paint0_linear" x1="24.2116" y1="108.741" x2="19.8236" y2="95.8249" gradientUnits="userSpaceOnUse">
            <stop offset="0.1444" stop-color="#F2E913"/>
            <stop offset="0.3037" stop-color="#E7E518"/>
            <stop offset="0.5823" stop-color="#CADB26"/>
            <stop offset="0.891" stop-color="#A3CD39"/>
        </linearGradient>
        <linearGradient id="paint1_linear" x1="25.942" y1="82.0846" x2="37.4348" y2="77.6246" gradientUnits="userSpaceOnUse">
            <stop offset="0.0592" stop-color="#0FA8E0"/>
            <stop offset="0.5385" stop-color="#0099F9"/>
            <stop offset="0.9234" stop-color="#0291EB"/>
        </linearGradient>
        <linearGradient id="paint2_linear" x1="37.05" y1="111.105" x2="50.7907" y2="107.942" gradientUnits="userSpaceOnUse">
            <stop offset="0.1226" stop-color="#A3CD39"/>
            <stop offset="0.2846" stop-color="#86C339"/>
            <stop offset="0.8693" stop-color="#21A038"/>
        </linearGradient>
        <linearGradient id="paint3_linear" x1="37.3862" y1="79.7896" x2="48.7957" y2="83.3744" gradientUnits="userSpaceOnUse">
            <stop offset="0.0566" stop-color="#0291EB"/>
            <stop offset="0.79" stop-color="#0C8ACB"/>
        </linearGradient>
        <linearGradient id="paint4_linear" x1="25.1197" y1="109.309" x2="37.3538" y2="113.964" gradientUnits="userSpaceOnUse">
            <stop offset="0.1324" stop-color="#F2E913"/>
            <stop offset="0.2977" stop-color="#EBE716"/>
            <stop offset="0.5306" stop-color="#D9E01F"/>
            <stop offset="0.8023" stop-color="#BBD62D"/>
            <stop offset="0.9829" stop-color="#A3CD39"/>
        </linearGradient>
        <linearGradient id="paint5_linear" x1="22.3892" y1="96.4573" x2="27.1383" y2="83.8769" gradientUnits="userSpaceOnUse">
            <stop offset="0.0698" stop-color="#A3CD39"/>
            <stop offset="0.2599" stop-color="#81C55F"/>
            <stop offset="0.9216" stop-color="#0FA8E0"/>
        </linearGradient>
    </defs>
</svg>
