<svg xmlns="http://www.w3.org/2000/svg" display="none">
    <symbol id="icon-schedule" viewBox="0 0 20 20">
        <path fill-rule="evenodd" clip-rule="evenodd"
              d="M10 0C4.47679 0 0 4.47679 0 10C0 15.5232 4.47679 20 10 20C15.5232 20 20 15.5232 20 10C20 4.47679 15.5232 0 10 0ZM10 1.5C14.6948 1.5 18.5 5.30521 18.5 10C18.5 14.6948 14.6948 18.5 10 18.5C5.30521 18.5 1.5 14.6948 1.5 10C1.5 5.30521 5.30521 1.5 10 1.5ZM10.4047 5.74463C10.3551 5.37856 10.0413 5.09641 9.66159 5.09641C9.24738 5.09641 8.91159 5.43219 8.91159 5.84641V10.6934L8.91995 10.8051C8.95308 11.0252 9.08293 11.2215 9.27735 11.3375L13.0474 13.5865L13.1383 13.6328C13.4781 13.7777 13.8812 13.6527 14.0757 13.3266L14.1219 13.2357C14.2668 12.8959 14.1419 12.4928 13.8158 12.2983L10.4112 10.2665L10.4116 5.84641L10.4047 5.74463Z"/>
    </symbol>
    <symbol id="location" viewBox="0 0 17 20">
        <path fill-rule="evenodd" clip-rule="evenodd"
              d="M0 8.31776C0 3.71789 3.84388 0 8.49345 0C13.1561 0 17 3.71789 17 8.31776C17 10.6357 16.157 12.7876 14.7695 14.6116C13.2388 16.6235 11.3522 18.3765 9.22854 19.7524C8.74251 20.0704 8.30387 20.0944 7.77045 19.7524C5.63474 18.3765 3.74809 16.6235 2.2305 14.6116C0.841983 12.7876 0 10.6357 0 8.31776ZM5.69423 8.57674C5.69423 10.1177 6.95166 11.3297 8.49345 11.3297C10.0362 11.3297 11.3058 10.1177 11.3058 8.57674C11.3058 7.04779 10.0362 5.77682 8.49345 5.77682C6.95166 5.77682 5.69423 7.04779 5.69423 8.57674Z"/>
    </symbol>

    <symbol id="search" viewBox="0 0 25 25">
        <path d="M24.3898 21.444L19.1012 16.1554C20.194 14.5085 20.8336 12.5366 20.8336 10.4168C20.8336 4.67297 16.1606 0 10.4168 0C4.67297 0 0 4.67297 0 10.4168C0 16.1606 4.67297 20.8336 10.4168 20.8336C12.5366 20.8336 14.5085 20.194 16.1554 19.1012L21.444 24.3898C22.2565 25.2034 23.5773 25.2034 24.3898 24.3898C25.2034 23.5763 25.2034 22.2575 24.3898 21.444ZM3.12503 10.4168C3.12503 6.3959 6.3959 3.12503 10.4168 3.12503C14.4377 3.12503 17.7085 6.3959 17.7085 10.4168C17.7085 14.4377 14.4377 17.7085 10.4168 17.7085C6.3959 17.7085 3.12503 14.4377 3.12503 10.4168Z"/>
    </symbol>

    <symbol id="fb" viewBox="0 0 14 27">
        <path d="M8.95056 26.6191C8.81839 26.6244 8.7338 26.6349 8.64921 26.6349C6.84113 26.6349 5.03833 26.6296 3.23024 26.6402C2.97647 26.6402 2.90774 26.5715 2.90774 26.3177C2.91303 22.1094 2.91303 17.8958 2.91303 13.6875C2.91303 13.5765 2.91303 13.4655 2.91303 13.3228C1.92968 13.3228 0.972772 13.3228 0 13.3228C0 11.8213 0 10.3463 0 8.82898C0.100449 8.82898 0.195611 8.82898 0.285487 8.82898C1.07851 8.82898 1.87153 8.82369 2.66455 8.83426C2.86545 8.83426 2.91832 8.77611 2.91832 8.5805C2.90774 7.40154 2.90774 6.2173 2.91832 5.03834C2.9236 4.2136 3.05577 3.41 3.43642 2.66456C3.98096 1.61249 4.84271 0.930491 5.9318 0.507546C6.81998 0.158617 7.75574 0.0317341 8.69679 0.0158736C10.23 -0.00527358 11.7631 0.00530002 13.2963 1.32171e-05C13.4391 1.32171e-05 13.5554 -0.00527359 13.5554 0.195625C13.5501 1.6495 13.5501 3.10337 13.5501 4.55724C13.5501 4.5731 13.5448 4.58896 13.5236 4.65769C13.4338 4.65769 13.3333 4.65769 13.2329 4.65769C12.2812 4.65769 11.3296 4.6524 10.378 4.65769C9.82817 4.65769 9.38408 4.87973 9.10388 5.36083C9.01929 5.50358 8.96642 5.68862 8.96642 5.85779C8.95056 6.75655 8.96642 7.65531 8.95585 8.55406C8.95585 8.76554 9.01929 8.82369 9.22547 8.82369C10.5472 8.81312 11.8689 8.8184 13.1906 8.8184C13.2963 8.8184 13.3968 8.8184 13.5765 8.8184C13.3915 10.3304 13.2117 11.8107 13.0267 13.3069C11.6521 13.3069 10.3146 13.3069 8.95056 13.3069C8.95056 17.7531 8.95056 22.1729 8.95056 26.6191Z"/>
    </symbol>

    <symbol id="inst" viewBox="0 0 26 26">
        <path d="M25.3168 4.48068C24.9853 3.62674 24.5433 2.9034 23.8199 2.18006C23.0966 1.45672 22.3733 1.01468 21.5193 0.683152C20.6955 0.361668 19.7411 0.140648 18.3648 0.0803697C16.9784 0.0200915 16.5363 0 13 0C9.46368 0 9.02164 0.0100451 7.63524 0.0803697C6.24884 0.140648 5.30448 0.361668 4.48068 0.683152C3.62674 1.01468 2.9034 1.45672 2.18006 2.18006C1.45672 2.9034 1.01468 3.62674 0.683153 4.48068C0.36167 5.30448 0.140649 6.25889 0.0803713 7.63524C0.020093 9.02164 0 9.46368 0 13C0 16.5363 0.0100467 16.9784 0.0803713 18.3648C0.140649 19.7512 0.36167 20.6955 0.683153 21.5193C1.01468 22.3733 1.45672 23.0966 2.18006 23.8199C2.9034 24.5433 3.62674 24.9853 4.48068 25.3168C5.30448 25.6383 6.25889 25.8594 7.63524 25.9196C9.02164 25.9799 9.46368 26 13 26C16.5363 26 16.9784 25.99 18.3648 25.9196C19.7512 25.8594 20.6955 25.6383 21.5193 25.3168C22.3733 24.9853 23.0966 24.5433 23.8199 23.8199C24.5433 23.0966 24.9853 22.3733 25.3168 21.5193C25.6383 20.6955 25.8594 19.7411 25.9196 18.3648C25.9799 16.9784 26 16.5363 26 13C26 9.46368 25.99 9.02164 25.9196 7.63524C25.8594 6.24884 25.6383 5.30448 25.3168 4.48068ZM23.5788 18.2542C23.5185 19.5201 23.3076 20.2133 23.1267 20.6654C22.8957 21.2682 22.6043 21.7102 22.1522 22.1623C21.7002 22.6144 21.2682 22.8957 20.6553 23.1368C20.1932 23.3176 19.51 23.5286 18.2442 23.5889C16.8679 23.6491 16.466 23.6692 12.99 23.6692C9.51391 23.6692 9.10201 23.6592 7.7357 23.5889C6.46986 23.5286 5.77666 23.3176 5.32457 23.1368C4.72179 22.9057 4.27975 22.6144 3.82767 22.1623C3.37558 21.7102 3.09428 21.2782 2.85317 20.6654C2.67233 20.2032 2.46136 19.5201 2.40108 18.2542C2.3408 16.8779 2.32071 16.466 2.32071 13C2.32071 9.534 2.33076 9.11206 2.40108 7.74575C2.46136 6.47991 2.67233 5.78671 2.85317 5.33462C3.08424 4.73184 3.37558 4.2898 3.82767 3.83771C4.27975 3.38563 4.71175 3.10433 5.32457 2.86321C5.78671 2.68238 6.46986 2.47141 7.7357 2.41113C9.11206 2.35085 9.52396 2.33076 12.99 2.33076C16.456 2.33076 16.8779 2.3408 18.2442 2.41113C19.51 2.47141 20.2032 2.68238 20.6553 2.86321C21.2581 3.09428 21.7002 3.38563 22.1522 3.83771C22.6043 4.2898 22.8856 4.72179 23.1267 5.33462C23.3076 5.79675 23.5185 6.47991 23.5788 7.74575C23.6391 9.1221 23.6592 9.534 23.6592 13C23.6592 16.466 23.6391 16.8879 23.5788 18.2542Z"/>
        <path d="M12.9899 6.31915C9.3029 6.31915 6.30908 9.31297 6.30908 13C6.30908 16.687 9.3029 19.6808 12.9899 19.6808C16.6769 19.6808 19.6708 16.687 19.6708 13C19.6708 9.31297 16.6769 6.31915 12.9899 6.31915Z"/>
        <path d="M19.9321 7.61514C20.7921 7.61514 21.4893 6.91796 21.4893 6.05795C21.4893 5.19794 20.7921 4.50076 19.9321 4.50076C19.0721 4.50076 18.3749 5.19794 18.3749 6.05795C18.3749 6.91796 19.0721 7.61514 19.9321 7.61514Z"/>
    </symbol>

    <symbol id="vk" viewBox="0 0 32 18">
        <path d="M31.3275 16.228C31.2894 16.1458 31.2539 16.0777 31.2208 16.023C30.6744 15.0389 29.6302 13.8309 28.0888 12.3988L28.0563 12.366L28.04 12.3499L28.0235 12.3335H28.0069C27.3074 11.6666 26.8644 11.2182 26.6789 10.9886C26.3394 10.5513 26.2634 10.1087 26.4489 9.66018C26.58 9.32132 27.0723 8.60569 27.9247 7.51231C28.3731 6.93286 28.7282 6.46845 28.9905 6.11856C30.8819 3.60409 31.7018 1.99731 31.4503 1.29759L31.3526 1.13407C31.2869 1.03563 31.1175 0.945575 30.8445 0.863444C30.5709 0.781485 30.2212 0.767931 29.7947 0.822551L25.0723 0.855174C24.9958 0.828065 24.8865 0.830592 24.7442 0.863444C24.6021 0.896296 24.531 0.91278 24.531 0.91278L24.4488 0.953846L24.3835 1.00318C24.3288 1.0358 24.2687 1.09318 24.2031 1.1752C24.1378 1.25693 24.0831 1.35284 24.0395 1.46214C23.5253 2.78491 22.9408 4.01474 22.2847 5.1516C21.8802 5.82949 21.5087 6.41699 21.1694 6.91442C20.8306 7.41169 20.5464 7.77806 20.317 8.01291C20.0873 8.24799 19.8799 8.43632 19.6937 8.57858C19.5078 8.7209 19.3659 8.78104 19.2676 8.75904C19.1691 8.73704 19.0764 8.71522 18.9886 8.69339C18.8356 8.59495 18.7126 8.46107 18.6198 8.29164C18.5267 8.12221 18.4639 7.90896 18.4312 7.65205C18.3985 7.39498 18.3792 7.17386 18.3737 6.98794C18.3686 6.80226 18.371 6.53961 18.382 6.20075C18.3934 5.86171 18.3985 5.63232 18.3985 5.51205C18.3985 5.09657 18.4066 4.64566 18.4229 4.15919C18.4394 3.67272 18.4528 3.28728 18.464 3.00333C18.4751 2.71909 18.4803 2.41836 18.4803 2.10132C18.4803 1.78429 18.461 1.53565 18.4229 1.3552C18.3852 1.17497 18.3274 1.00002 18.2512 0.83042C18.1745 0.660989 18.0623 0.529924 17.915 0.43688C17.7674 0.343952 17.584 0.270206 17.3657 0.215414C16.7862 0.0842918 16.0484 0.0133606 15.1518 0.0023332C13.1185 -0.0194918 11.8121 0.111803 11.2327 0.396044C11.0031 0.516139 10.7954 0.680229 10.6096 0.887796C10.4128 1.12839 10.3854 1.25968 10.5275 1.28128C11.1835 1.37955 11.6479 1.61463 11.9212 1.98628L12.0197 2.18322C12.0963 2.32532 12.1728 2.57688 12.2494 2.93757C12.3258 3.29825 12.3752 3.69725 12.3969 4.13432C12.4514 4.93249 12.4514 5.61572 12.3969 6.18409C12.3422 6.75269 12.2905 7.19534 12.2411 7.51237C12.1918 7.82941 12.118 8.08631 12.0197 8.28302C11.9212 8.47979 11.8557 8.60006 11.8228 8.64371C11.79 8.68736 11.7627 8.71487 11.741 8.72567C11.5989 8.78012 11.4511 8.80786 11.2982 8.80786C11.145 8.80786 10.9593 8.73124 10.7407 8.57812C10.5221 8.425 10.2953 8.21468 10.0602 7.9468C9.82515 7.67887 9.56004 7.30446 9.26477 6.82351C8.96973 6.34255 8.66361 5.77413 8.34657 5.11823L8.08427 4.64256C7.92029 4.33655 7.6963 3.89097 7.41206 3.30624C7.12764 2.72127 6.87625 2.15543 6.65772 1.60882C6.57036 1.37926 6.43912 1.20449 6.26423 1.08422L6.18216 1.03489C6.1276 0.991235 6.04001 0.944886 5.91986 0.895492C5.79953 0.846156 5.67398 0.810777 5.54269 0.789009L1.04967 0.821632C0.590538 0.821632 0.279015 0.925645 0.114983 1.13338L0.049336 1.23165C0.0165411 1.28639 0 1.3738 0 1.49413C0 1.6144 0.0327949 1.762 0.0984422 1.93677C0.754341 3.47831 1.46762 4.96499 2.23827 6.39706C3.00892 7.82912 3.6786 8.98269 4.24691 9.85672C4.81534 10.7314 5.39474 11.5569 5.9851 12.3328C6.57547 13.109 6.96625 13.6065 7.15745 13.825C7.34888 14.044 7.49924 14.2076 7.60854 14.3169L8.01856 14.7104C8.28092 14.9728 8.66619 15.2871 9.17454 15.6533C9.68301 16.0196 10.2459 16.3803 10.8636 16.7359C11.4813 17.0909 12.2 17.3806 13.02 17.6047C13.8399 17.8289 14.6379 17.9189 15.4141 17.8755H17.2999C17.6823 17.8425 17.9721 17.7222 18.169 17.5147L18.2343 17.4325C18.2781 17.3672 18.3192 17.2659 18.3571 17.1294C18.3955 16.9928 18.4146 16.8423 18.4146 16.6785C18.4034 16.2085 18.4391 15.785 18.5209 15.4079C18.6027 15.0309 18.6958 14.7466 18.8 14.5552C18.9041 14.3639 19.0216 14.2025 19.1524 14.0717C19.2835 13.9406 19.3769 13.8611 19.4317 13.8338C19.4861 13.8063 19.5296 13.7876 19.5624 13.7764C19.8247 13.689 20.1335 13.7737 20.4891 14.0308C20.8445 14.2877 21.1778 14.6049 21.4895 14.9819C21.8011 15.3593 22.1755 15.7826 22.6126 16.2526C23.0501 16.7228 23.4326 17.0722 23.7605 17.3021L24.0883 17.4989C24.3072 17.6302 24.5915 17.7505 24.9414 17.8598C25.2906 17.969 25.5966 17.9964 25.8594 17.9417L30.0571 17.8763C30.4723 17.8763 30.7954 17.8075 31.0245 17.6711C31.2541 17.5345 31.3906 17.3839 31.4345 17.2202C31.4784 17.0563 31.4808 16.8703 31.4429 16.6624C31.404 16.455 31.3657 16.31 31.3275 16.228Z"/>
    </symbol>

    <symbol id="youtube" viewBox="0 0 27 19">
        <path d="M13.3042 18.4641C10.3518 18.371 7.54425 18.2987 4.73667 18.1901C4.13172 18.1642 3.51643 18.0712 2.927 17.9316C1.82051 17.673 1.05528 17.006 0.662321 15.9151C0.346921 15.0361 0.23317 14.1312 0.150443 13.2109C-0.0305247 11.0496 -0.0305248 8.88836 0.0573736 6.72709C0.109079 5.50685 0.140102 4.27627 0.465843 3.09223C0.662321 2.38387 0.900164 1.69103 1.47409 1.17915C2.07904 0.636247 2.78739 0.310505 3.59399 0.274312C5.80696 0.165732 8.01476 0.0312988 10.2277 0.0106168C13.2059 -0.0204061 16.1893 0.020958 19.1675 0.0778334C20.455 0.103686 21.7528 0.170902 23.0299 0.336358C24.1984 0.491473 25.0722 1.14296 25.5376 2.28046C25.8943 3.15428 26.0288 4.06946 26.1063 5.00014C26.308 7.33204 26.3131 9.66393 26.1994 11.9958C26.1425 13.1799 26.0856 14.3691 25.7496 15.5221C25.3669 16.8457 24.5552 17.7196 23.2005 18.0194C22.6731 18.1332 22.125 18.1746 21.5873 18.1952C18.7746 18.2935 15.967 18.3814 13.3042 18.4641ZM10.4449 12.5853C12.8026 11.365 15.1345 10.1551 17.513 8.91938C15.1397 7.67846 12.8078 6.46339 10.4449 5.22765C10.4449 7.69397 10.4449 10.1189 10.4449 12.5853Z"/>
    </symbol>

    <symbol id="cat1" viewBox="0 0 30 29">
        <path fill-rule="evenodd" clip-rule="evenodd"
              d="M1 0C0.447715 0 0 0.447715 0 1C0 1.55228 0.447715 2 1 2H3.94454L4.96887 8.14598C4.93872 8.35255 4.97724 8.57207 5.06965 8.75063L6.72194 18.6644C6.73143 18.7213 6.74582 18.7773 6.76496 18.8317C7.0817 19.7325 7.63126 20.5289 8.35287 21.1427C7.3574 21.8529 6.70834 23.0173 6.70834 24.3334C6.70834 26.4965 8.46189 28.25 10.625 28.25C12.7881 28.25 14.5417 26.4965 14.5417 24.3334C14.5417 23.6371 14.36 22.9832 14.0415 22.4167H18.8752C18.5567 22.9832 18.375 23.6371 18.375 24.3334C18.375 26.4965 20.1286 28.25 22.2917 28.25C24.4548 28.25 26.2083 26.4965 26.2083 24.3334C26.2083 23.3272 25.8289 22.4096 25.2054 21.7159C25.3125 21.6548 25.4177 21.5897 25.5209 21.521C26.4904 20.8747 27.2235 19.9309 27.61 18.8317C27.6318 18.77 27.6474 18.7062 27.6566 18.6414L29.115 8.43309C29.1559 8.14611 29.0704 7.85546 28.8805 7.63647C28.6905 7.41747 28.4149 7.29167 28.125 7.29167H6.85407L5.77806 0.835601C5.6977 0.353413 5.28051 0 4.79167 0H1ZM22.268 22.4168C22.3277 22.4199 22.3874 22.4219 22.4471 22.4229C23.4329 22.502 24.2083 23.3271 24.2083 24.3334C24.2083 25.3919 23.3502 26.25 22.2917 26.25C21.2331 26.25 20.375 25.3919 20.375 24.3334C20.375 23.2827 21.2204 22.4295 22.268 22.4168ZM22.5275 20.4237C23.1965 20.426 23.8526 20.2295 24.4115 19.8569C24.9947 19.4681 25.4416 18.9079 25.6915 18.2548L26.972 9.29167H7.1874L8.67954 18.2445C8.92867 18.902 9.3773 19.4661 9.96348 19.8569C10.5722 20.2627 11.2963 20.4597 12.0267 20.4183C12.0456 20.4172 12.0644 20.4167 12.0833 20.4167H22.2917C22.294 20.4167 22.2964 20.4167 22.2988 20.4167C22.3756 20.4168 22.4518 20.4192 22.5275 20.4237ZM10.625 22.4167C9.56646 22.4167 8.70834 23.2748 8.70834 24.3334C8.70834 25.3919 9.56646 26.25 10.625 26.25C11.6836 26.25 12.5417 25.3919 12.5417 24.3334C12.5417 23.2748 11.6836 22.4167 10.625 22.4167Z"/>
    </symbol>

    <symbol id="cat2" viewBox="0 0 48 25">
        <path fill-rule="evenodd" clip-rule="evenodd"
              d="M35 12.5C35 18.299 30.299 23 24.5 23C18.701 23 14 18.299 14 12.5C14 6.70101 18.701 2 24.5 2C30.299 2 35 6.70101 35 12.5ZM37 12.5C37 19.4036 31.4036 25 24.5 25C17.5964 25 12 19.4036 12 12.5C12 5.59644 17.5964 0 24.5 0C31.4036 0 37 5.59644 37 12.5ZM30 12.5C30 15.5376 27.5376 18 24.5 18C21.4624 18 19 15.5376 19 12.5C19 9.46243 21.4624 7 24.5 7C27.5376 7 30 9.46243 30 12.5ZM32 12.5C32 16.6421 28.6421 20 24.5 20C20.3579 20 17 16.6421 17 12.5C17 8.35786 20.3579 5 24.5 5C28.6421 5 32 8.35786 32 12.5ZM3.00609 10.8742C1.28279 10.4294 0 8.85722 0 7V2C0 1.4 0.4 1 1 1H7C7.6 1 8 1.4 8 2V7C8 8.85722 6.71721 10.4294 4.99391 10.8742C4.99794 10.9151 5 10.957 5 11V24C5 24.6 4.6 25 4 25C3.4 25 3 24.6 3 24V11C3 10.957 3.00206 10.9151 3.00609 10.8742ZM2 7V3H6V7C6 8.1 5.1 9 4 9C2.9 9 2 8.1 2 7ZM47 16H44V24C44 24.6 43.6 25 43 25C42.4 25 42 24.6 42 24V15V2C42 1.4 42.4 1 43 1C45.8 1 48 3.2 48 6V15C48 15.6 47.6 16 47 16ZM46 14H44V3.2C45.2 3.6 46 4.7 46 6V14Z"/>
    </symbol>

    <symbol id="cat3" viewBox="0 0 26 26">
        <path fill-rule="evenodd" clip-rule="evenodd"
              d="M0.720029 0.720029C1.18106 0.259003 1.80634 0 2.45833 0H17.0417C17.6937 0 18.3189 0.259003 18.78 0.720029C19.241 1.18106 19.5 1.80634 19.5 2.45833V2.91667H22.875C23.527 2.91667 24.1523 3.17567 24.6133 3.6367C25.0743 4.09772 25.3333 4.72301 25.3333 5.375V21.4167C25.3333 22.4554 24.9207 23.4516 24.1862 24.1862C23.4516 24.9207 22.4554 25.3333 21.4167 25.3333H5.375C3.94946 25.3333 2.58231 24.767 1.5743 23.759C0.566293 22.751 0 21.3839 0 19.9583V2.45833C0 1.80634 0.259003 1.18106 0.720029 0.720029ZM18.001 23.3333H5.375C4.47989 23.3333 3.62145 22.9778 2.98851 22.3448C2.35558 21.7119 2 20.8534 2 19.9583V2.45833C2 2.33678 2.04829 2.2202 2.13424 2.13424C2.2202 2.04829 2.33678 2 2.45833 2H17.0417C17.1632 2 17.2798 2.04829 17.3658 2.13424C17.4517 2.2202 17.5 2.33678 17.5 2.45833V21.4167C17.5 22.0939 17.6754 22.753 18.001 23.3333ZM19.5 4.91667V21.4167C19.5 21.925 19.7019 22.4125 20.0614 22.772C20.4208 23.1314 20.9083 23.3333 21.4167 23.3333C21.925 23.3333 22.4125 23.1314 22.772 22.772C23.1314 22.4125 23.3333 21.925 23.3333 21.4167V5.375C23.3333 5.25344 23.285 5.13686 23.1991 5.05091C23.1131 4.96496 22.9966 4.91667 22.875 4.91667H19.5Z"/>
        <path fill-rule="evenodd" clip-rule="evenodd"
              d="M5.66669 6.66663C5.66669 6.11434 6.1144 5.66663 6.66669 5.66663H12.5C13.0523 5.66663 13.5 6.11434 13.5 6.66663C13.5 7.21891 13.0523 7.66663 12.5 7.66663H6.66669C6.1144 7.66663 5.66669 7.21891 5.66669 6.66663Z"/>
        <path fill-rule="evenodd" clip-rule="evenodd"
              d="M5.66669 12.5C5.66669 11.9477 6.1144 11.5 6.66669 11.5H12.5C13.0523 11.5 13.5 11.9477 13.5 12.5C13.5 13.0523 13.0523 13.5 12.5 13.5H6.66669C6.1144 13.5 5.66669 13.0523 5.66669 12.5Z"/>
        <path fill-rule="evenodd" clip-rule="evenodd"
              d="M5.66669 18.3334C5.66669 17.7811 6.1144 17.3334 6.66669 17.3334H12.5C13.0523 17.3334 13.5 17.7811 13.5 18.3334C13.5 18.8857 13.0523 19.3334 12.5 19.3334H6.66669C6.1144 19.3334 5.66669 18.8857 5.66669 18.3334Z"/>
    </symbol>

    <symbol id="cat4" viewBox="0 0 29 29">
        <path fill-rule="evenodd" clip-rule="evenodd"
              d="M2 10.25V12.75C1.99999 12.7542 1.99988 12.7993 2.07952 12.8657C2.16211 12.9345 2.30754 13 2.5 13H26.5C26.6925 13 26.8379 12.9345 26.9205 12.8657C27.0001 12.7993 27 12.7543 27 12.7501V10.25C27 10.2458 27.0001 10.2007 26.9205 10.1343C26.8379 10.0655 26.6925 10 26.5 10H2.5C2.30754 10 2.16211 10.0655 2.07952 10.1343C1.99988 10.2007 1.99999 10.2458 2 10.25ZM0 10.25C0 8.84439 1.29775 8.00001 2.5 8.00001H26.5C27.7023 8.00001 29 8.84439 29 10.25V12.75C29 14.1556 27.7023 15 26.5 15H2.5C1.29775 15 0 14.1556 0 12.75V10.25Z"/>
        <path fill-rule="evenodd" clip-rule="evenodd"
              d="M15 8.00001C15.5523 8.00001 16 8.44772 16 9.00001V28C16 28.5523 15.5523 29 15 29C14.4477 29 14 28.5523 14 28V9.00001C14 8.44772 14.4477 8.00001 15 8.00001Z"/>
        <path fill-rule="evenodd" clip-rule="evenodd"
              d="M4 14C4.55228 14 5 14.4477 5 15V25.1111C5 25.5996 5.20118 26.0762 5.57232 26.4336C5.94475 26.7922 6.45765 27 7 27H22C22.5424 27 23.0553 26.7922 23.4277 26.4336C23.7988 26.0762 24 25.5996 24 25.1111V15C24 14.4477 24.4477 14 25 14C25.5523 14 26 14.4477 26 15V25.1111C26 26.155 25.569 27.148 24.815 27.8742C24.0622 28.5991 23.0489 29 22 29H7C5.95106 29 4.93783 28.5991 4.18504 27.8742C3.43096 27.148 3 26.155 3 25.1111V15C3 14.4477 3.44772 14 4 14Z"/>
        <path fill-rule="evenodd" clip-rule="evenodd"
              d="M11.0548 3.79448C9.98404 2.5255 8.83131 1.98079 7.76858 2.00054L7.75 2.00071C7.04221 2.00071 6.34929 2.3 5.82786 2.85615C5.30438 3.41448 5 4.18475 5 5.00036C5 5.81597 5.30438 6.58624 5.82786 7.14457C6.34929 7.70071 7.04221 8.00001 7.75 8.00001C8.30228 8.00001 8.75 8.44773 8.75 9.00001C8.75 9.55229 8.30228 10 7.75 10C6.46866 10 5.25393 9.45652 4.36884 8.51251C3.4858 7.57068 3 6.3063 3 5.00036C3 3.69442 3.4858 2.43004 4.36884 1.48821C5.25177 0.546495 6.46275 0.0033598 7.74064 0.000718899C9.56839 -0.0299498 11.2483 0.922481 12.5834 2.50467C13.3366 3.39731 13.9802 4.48681 14.5 5.71521C15.0198 4.48681 15.6634 3.39731 16.4166 2.50467C17.7517 0.922481 19.4316 -0.0299498 21.2594 0.000718899C22.5373 0.0033598 23.7482 0.546495 24.6312 1.48821C25.5142 2.43004 26 3.69442 26 5.00036C26 6.3063 25.5142 7.57068 24.6312 8.51251C23.7461 9.45652 22.5313 10 21.25 10C20.6977 10 20.25 9.55229 20.25 9.00001C20.25 8.44773 20.6977 8.00001 21.25 8.00001C21.9578 8.00001 22.6507 7.70071 23.1721 7.14457C23.6956 6.58624 24 5.81597 24 5.00036C24 4.18475 23.6956 3.41448 23.1721 2.85615C22.6507 2.3 21.9578 2.00071 21.25 2.00071L21.2314 2.00054C20.1687 1.98079 19.016 2.5255 17.9452 3.79448C16.8711 5.06734 15.9928 6.94639 15.4751 9.22186C15.3715 9.67704 14.9668 10 14.5 10C14.0332 10 13.6285 9.67704 13.5249 9.22186C13.0072 6.94639 12.1289 5.06734 11.0548 3.79448Z"/>
    </symbol>

    <symbol id="cat5" viewBox="0 0 30 32">
        <path fill-rule="evenodd" clip-rule="evenodd"
              d="M22.0068 1.94139C21.8401 1.83582 21.6327 1.79432 21.4217 1.85446L21.3532 1.874L2.60878 4.17261L2.53364 4.16943C2.32012 4.16041 2.13196 4.24805 1.99589 4.39106C1.84745 4.54707 1.82154 4.70018 1.82897 4.76073L3.6294 19.4421L3.79464 20.7896C3.94723 22.0342 4.42314 23.0902 5.1479 23.9632C5.05348 23.4689 5.00377 22.9518 5.00377 22.4122V18.1333V6.26337C5.00377 5.49426 5.4625 4.90336 5.93039 4.54638C6.40492 4.18432 7.02878 3.94696 7.64804 3.94696H19.9008H22.4634L22.2561 2.25604C22.2488 2.19632 22.188 2.05616 22.0068 1.94139ZM1.98083 21.0121C2.36097 24.1125 4.30177 26.26 6.83405 27.5117C7.42047 28.2221 8.12359 28.8433 8.90715 29.3726C11.1836 30.9104 14.1659 31.7025 17.1035 31.7594C20.0398 31.8162 23.036 31.1402 25.3285 29.621C27.6537 28.0802 29.2386 25.6735 29.2386 22.4122V6.26337C29.2386 4.91599 27.9078 3.7614 26.427 3.94696H24.3045L24.0699 2.03336C23.9057 0.696214 22.4444 -0.288009 20.9971 0.076573L2.52736 2.3415C1.02405 2.32734 -0.1479 3.65417 0.0151773 4.98335L1.98083 21.0121ZM27.2021 5.92088C27.0495 5.79579 26.8486 5.72932 26.6319 5.76332L26.5615 5.77436H26.4903H17.9818H7.64805C7.47227 5.77436 7.23084 5.85272 7.03885 5.9992C6.84021 6.15076 6.83117 6.26122 6.83117 6.26337V16.3931V22.4122C6.83117 24.7509 8.02616 26.5721 9.93012 27.8583C11.8551 29.1588 14.4747 29.8807 17.1389 29.9323C19.8045 29.9839 22.4102 29.3627 24.319 28.0977C26.1952 26.8545 27.4112 24.9902 27.4112 22.4122V6.26337C27.4112 6.2033 27.368 6.05684 27.2021 5.92088ZM11.6685 22.7688C13.0253 24.068 15.1094 25.3599 17.0169 25.366C19.0091 25.3722 21.2699 24.1425 22.781 22.8879C22.9207 22.772 23.0496 22.6594 23.1678 22.5512C20.6253 22.9973 17.8854 23.0333 15.5935 22.9141C14.2208 22.8428 12.9915 22.7148 12.0371 22.5796C11.8056 22.5468 11.5844 22.5128 11.3774 22.4782C11.467 22.5716 11.564 22.6687 11.6685 22.7688ZM10.532 21.3452C10.5321 21.3453 10.5328 21.3474 10.5337 21.3515C10.5324 21.3472 10.5319 21.3452 10.532 21.3452ZM10.032 20.299C10.2486 20.3192 10.4641 20.3821 10.6641 20.4584L10.6642 20.4585C10.8002 20.5103 11.3528 20.6371 12.2934 20.7703C13.1942 20.8979 14.3697 21.0206 15.6884 21.0892C18.3398 21.227 21.5009 21.1418 24.1587 20.4752L24.1587 20.4752C24.363 20.4239 24.5911 20.387 24.8195 20.4017C25.0434 20.4161 25.375 20.489 25.6368 20.7674C25.9128 21.0608 25.9566 21.4156 25.9347 21.6641C25.9139 21.9008 25.8315 22.1111 25.7528 22.2711C25.4515 22.883 24.7606 23.6195 23.9483 24.2939C22.3043 25.6588 19.6319 27.2016 17.0111 27.1934L17.0111 27.1934C14.4078 27.1851 11.89 25.5109 10.4047 24.0887C9.67324 23.3884 9.05373 22.6193 8.82345 21.9959C8.76304 21.8324 8.69996 21.6031 8.71756 21.3482C8.7373 21.0622 8.86706 20.7136 9.20933 20.4865C9.50841 20.2882 9.82866 20.28 10.032 20.299ZM10.4253 15.1326C10.2899 15.4991 9.88465 15.6911 9.51411 15.5619C9.13928 15.4313 8.94137 15.021 9.07202 14.6461L9.11339 14.5434L9.15783 14.4513L9.21041 14.353L9.27258 14.2462L9.34453 14.1311L9.42687 14.0072L9.52002 13.8761L9.62376 13.7387L9.64119 13.7171L9.73872 13.5962L9.86468 13.4509L10.0017 13.3038L10.15 13.157L10.3094 13.0119L10.4808 12.8702L10.6645 12.7335L10.6958 12.7128L10.8606 12.6042L11.0693 12.4844L11.2908 12.3766L11.5252 12.2832L11.7723 12.2068L12.0315 12.1503L12.3016 12.1167L12.5812 12.1085L12.868 12.1279L13.1603 12.1766L13.4556 12.2561L13.7524 12.3664L14.049 12.5086L14.3449 12.6823L14.64 12.8886L14.9342 13.1279L15.2271 13.4004C15.5091 13.6796 15.5114 14.1352 15.2321 14.4173C14.9529 14.6993 14.4974 14.7016 14.2153 14.4223L13.9884 14.2114L13.7722 14.0353L13.5667 13.8918L13.3719 13.7772L13.1886 13.6896L13.0162 13.6254L12.8537 13.5818L12.7001 13.5563L12.5531 13.5463L12.4116 13.5508L12.2733 13.5681L12.1379 13.5977L12.0046 13.639L11.8725 13.692L11.7423 13.7554L11.6147 13.8288L11.49 13.9112L11.3687 14.0014L11.2519 14.0983L11.1398 14.2002L11.0338 14.3053L10.9343 14.4122L10.8418 14.5192L10.757 14.6241L10.6802 14.726L10.6119 14.8224L10.5528 14.9113L10.5033 14.9906L10.4647 15.0566L10.4378 15.1068L10.4253 15.1326ZM24.9006 15.5619C25.2754 15.4313 25.4734 15.021 25.3427 14.6461L25.3013 14.5434L25.2569 14.4513L25.2043 14.353L25.1421 14.2462L25.0702 14.1311L24.9879 14.0072L24.8947 13.8761L24.791 13.7387L24.676 13.5962L24.55 13.4509L24.4131 13.3038L24.2647 13.157L24.1053 13.0119L23.9339 12.8702L23.7502 12.7335L23.5542 12.6042L23.3455 12.4844L23.1239 12.3766L22.8895 12.2832L22.6425 12.2068L22.3832 12.1503L22.1131 12.1167L21.8335 12.1085L21.5467 12.1279L21.2544 12.1766L20.9591 12.2561L20.6623 12.3664L20.3658 12.5086L20.0698 12.6823L19.7747 12.8886L19.4806 13.1279L19.1877 13.4004C18.9056 13.6796 18.9033 14.1352 19.1826 14.4173C19.4618 14.6993 19.9174 14.7016 20.1995 14.4223L20.4263 14.2114L20.6426 14.0353L20.848 13.8918L21.0429 13.7772L21.2261 13.6896L21.3985 13.6254L21.561 13.5818L21.7147 13.5563L21.8616 13.5463L22.0031 13.5508L22.1415 13.5681L22.2768 13.5977L22.4101 13.639L22.5422 13.692L22.6724 13.7554L22.8 13.8288L22.9248 13.9112L23.046 14.0014L23.1628 14.0983L23.2749 14.2002L23.3809 14.3053L23.4804 14.4122L23.5729 14.5192L23.6577 14.6241L23.7345 14.726L23.8028 14.8224L23.8619 14.9113L23.9115 14.9906L23.95 15.0566L23.9769 15.1068L23.9894 15.1326C24.1249 15.4991 24.5301 15.6911 24.9006 15.5619Z"/>
    </symbol>

    <symbol id="cat6" viewBox="0 0 372.3 372.3">
<g>
	<g>
		<path d="M298.1,91.35c-1.6-2-4.4-2.8-7.2-1.6l-10.4,4l-32-70.8c-1.2-2.4-3.2-3.6-5.6-3.6h-104c-2,0-3.6,0.8-4.8,2.4l-58.8,70.4
			c-1.2,1.2-1.6,3.2-1.2,4.8c0.4,1.6,1.2,3.2,2.4,4.4l58.8,43.6c2.8,2,6.8,1.6,8.8-1.2l38.4-52l18.4,32.8l-11.6,6
			c-2.4,1.2-3.6,3.6-3.2,6c0.4,2.4,2,4.8,4.8,5.2l65.6,16c0.4,0,0.8,0,1.6,0c2,0,4-1.2,5.2-2.8l35.2-56.4
			C300.1,96.15,299.7,93.35,298.1,91.35z M137.7,130.95l-48.4-36l52.8-63.2h8.4l26,48.4L137.7,130.95z M254.5,144.95l-44.4-10.8
			l2.4-1.2c1.6-0.8,2.8-2,3.2-3.6c0.4-1.6,0.4-3.2-0.4-4.8l-26.4-47.2l-24.8-46h74.4l32.8,72.8c1.2,2.4,4,4,6.4,3.6L254.5,144.95z"
        />
	</g>
</g>
            <g>
	<g>
		<path d="M159.7,252.95l-64.8-2.8l16.8-33.6l11.2,6.4c2.4,1.2,5.2,1.2,7.2-0.8c2-1.6,2.8-4.4,1.6-6.8l-23.6-63.2
			c-0.8-2.4-3.2-4-6-4l-66.8,2.4c-2.8,0-4.8,2-5.6,4.4c-0.8,2.4,0.4,5.2,2.4,6.8l9.2,6.4l-40.4,66.4c-1.2,2-1.2,4.8,0,6.8l44.8,66
			l17.2,26c1.2,1.6,3.2,2.8,5.2,2.8h91.2c3.6,0,6.4-2.8,6.4-6.4v-70.4C165.7,256.15,162.9,253.35,159.7,252.95z M55.3,299.35
			l-41.6-61.6l42-68c1.6-2.4,1.2-5.2-0.8-7.2l43.6-2l16,43.2l-2.4-1.2c-1.6-0.8-3.2-1.2-4.8-0.4c-1.6,0.4-2.8,1.6-3.6,3.2l-24,48
			L55.3,299.35z M152.9,323.75H71.3l-8-12.4l25.6-48.8l64,2.8V323.75z"/>
	</g>
</g>
            <g>
	<g>
		<path d="M371.7,232.15l-40-82.4c-0.8-1.6-2-2.8-3.6-3.2c-1.6-0.4-3.2-0.4-4.8,0.8l-64,35.6c-2.8,1.6-4,5.6-2.4,8.4l31.2,56.4
			l-37.6,3.2l-0.4-12.8c0-2.8-2-4.8-4.4-5.6c-2.4-0.8-5.2,0-6.8,2l-41.6,53.2c-1.6,2-1.6,5.2-0.4,7.2l37.2,55.2
			c1.2,1.6,3.2,2.8,5.2,2.8c0.4,0,1.2,0,1.6-0.4c2.4-0.8,4.4-3.2,4.4-5.6l0.4-11.2h77.6c2.4,0,4.8-1.6,5.6-3.6l42.8-94.8
			C372.5,235.75,372.5,233.75,371.7,232.15z M320.1,323.75h-79.6c-2.8,0-5.2,2-6,4.4l-24.4-36.4l28.4-36.4v2.8c0,1.6,0.8,3.2,2,4.4
			c1.2,1.2,2.8,1.6,4.8,1.6l53.6-4.8l52-3.6L320.1,323.75z M356.1,242.55l-54.8,4l-30.8-56l52.8-29.6l36.4,74L356.1,242.55z"/>
	</g>
</g>
    </symbol>

    <symbol id="cat7" viewBox="0 0 29 29">
        <path fill-rule="evenodd" clip-rule="evenodd"
              d="M14.125 2C7.42855 2 2 7.42855 2 14.125C2 20.8215 7.42855 26.25 14.125 26.25C20.8215 26.25 26.25 20.8215 26.25 14.125C26.25 7.42855 20.8215 2 14.125 2ZM0 14.125C0 6.32398 6.32398 0 14.125 0C21.926 0 28.25 6.32398 28.25 14.125C28.25 21.926 21.926 28.25 14.125 28.25C6.32398 28.25 0 21.926 0 14.125Z"/>
        <path fill-rule="evenodd" clip-rule="evenodd"
              d="M8.75 11.2083C8.75 10.656 9.19772 10.2083 9.75 10.2083H9.76458C10.3169 10.2083 10.7646 10.656 10.7646 11.2083C10.7646 11.7606 10.3169 12.2083 9.76458 12.2083H9.75C9.19772 12.2083 8.75 11.7606 8.75 11.2083Z"/>
        <path fill-rule="evenodd" clip-rule="evenodd"
              d="M17.5 11.2083C17.5 10.656 17.9477 10.2083 18.5 10.2083H18.5146C19.0669 10.2083 19.5146 10.656 19.5146 11.2083C19.5146 11.7606 19.0669 12.2083 18.5146 12.2083H18.5C17.9477 12.2083 17.5 11.7606 17.5 11.2083Z"/>
        <path fill-rule="evenodd" clip-rule="evenodd"
              d="M9.92515 17.9107C10.3196 17.5242 10.9528 17.5307 11.3393 17.9251C11.7214 18.3152 12.1775 18.625 12.6809 18.8365C13.1843 19.048 13.7248 19.157 14.2708 19.157C14.8168 19.157 15.3574 19.048 15.8608 18.8365C16.3641 18.625 16.8203 18.3152 17.2024 17.9251C17.5889 17.5307 18.222 17.5242 18.6165 17.9107C19.011 18.2972 19.0175 18.9304 18.631 19.3249C18.0626 19.9049 17.3842 20.3658 16.6355 20.6803C15.8869 20.9949 15.0829 21.157 14.2708 21.157C13.4587 21.157 12.6548 20.9949 11.9061 20.6803C11.1574 20.3658 10.4791 19.9049 9.91071 19.3249C9.5242 18.9304 9.53066 18.2972 9.92515 17.9107Z"/>
        <path fill-rule="evenodd" clip-rule="evenodd"
              d="M11.3555 1.14716C12.09 0.412647 13.0862 0 14.125 0C14.6773 0 15.125 0.447715 15.125 1C15.125 1.55228 14.6773 2 14.125 2C13.6166 2 13.1291 2.20193 12.7697 2.56138C12.4102 2.92082 12.2083 3.40834 12.2083 3.91667C12.2083 4.425 12.4102 4.91251 12.7697 5.27195C13.1291 5.6314 13.6166 5.83333 14.125 5.83333C14.6773 5.83333 15.125 6.28105 15.125 6.83333C15.125 7.38562 14.6773 7.83333 14.125 7.83333C13.0862 7.83333 12.09 7.42069 11.3555 6.68617C10.621 5.95165 10.2083 4.95543 10.2083 3.91667C10.2083 2.8779 10.621 1.88168 11.3555 1.14716Z"/>
    </symbol>

    <symbol id="cat8" viewBox="0 0 42 31">
        <path fill-rule="evenodd" clip-rule="evenodd"
              d="M8.01144 7.89738C7.88641 8.05014 7.78467 8.29528 7.78467 8.60003V27.8168C7.78467 28.1215 7.88641 28.3667 8.01144 28.5194C8.13479 28.6702 8.25297 28.7062 8.331 28.7062H38.5562C38.6342 28.7062 38.7524 28.6702 38.8758 28.5194C39.0008 28.3667 39.1025 28.1215 39.1025 27.8168V8.60003C39.1025 8.29528 39.0008 8.05014 38.8758 7.89738C38.7524 7.74667 38.6342 7.71063 38.5562 7.71063H8.331C8.25297 7.71063 8.13479 7.74667 8.01144 7.89738ZM5.78467 8.60003C5.78467 7.20094 6.74668 5.71063 8.331 5.71063H38.5562C40.1405 5.71063 41.1025 7.20094 41.1025 8.60003V27.8168C41.1025 29.2159 40.1405 30.7062 38.5562 30.7062H8.331C6.74668 30.7062 5.78467 29.2159 5.78467 27.8168V8.60003Z"/>
        <path fill-rule="evenodd" clip-rule="evenodd"
              d="M9.55518 23.7072C9.55518 23.155 10.0029 22.7072 10.5552 22.7072H23.0641C23.6163 22.7072 24.0641 23.155 24.0641 23.7072C24.0641 24.2595 23.6163 24.7072 23.0641 24.7072H10.5552C10.0029 24.7072 9.55518 24.2595 9.55518 23.7072Z"/>
        <path fill-rule="evenodd" clip-rule="evenodd"
              d="M26.0535 23.7072C26.0535 23.155 26.5012 22.7072 27.0535 22.7072H30.2976C30.8498 22.7072 31.2976 23.155 31.2976 23.7072C31.2976 24.2595 30.8498 24.7072 30.2976 24.7072H27.0535C26.5012 24.7072 26.0535 24.2595 26.0535 23.7072Z"/>
        <path fill-rule="evenodd" clip-rule="evenodd"
              d="M5.8728 17.4961C5.8728 16.9438 6.32052 16.4961 6.8728 16.4961H39.7828C40.3351 16.4961 40.7828 16.9438 40.7828 17.4961C40.7828 18.0483 40.3351 18.4961 39.7828 18.4961H6.8728C6.32052 18.4961 5.8728 18.0483 5.8728 17.4961Z"/>
        <path fill-rule="evenodd" clip-rule="evenodd"
              d="M5.8728 13.1397C5.8728 12.5874 6.32052 12.1397 6.8728 12.1397H39.7828C40.3351 12.1397 40.7828 12.5874 40.7828 13.1397C40.7828 13.692 40.3351 14.1397 39.7828 14.1397H6.8728C6.32052 14.1397 5.8728 13.692 5.8728 13.1397Z"/>
        <path fill-rule="evenodd" clip-rule="evenodd"
              d="M2.8894 2C2.40251 2 2 2.40251 2 2.88939V22.1062C2 22.593 2.40251 22.9956 2.8894 22.9956H6.82474V24.9956H2.8894C1.29794 24.9956 0 23.6976 0 22.1062V2.88939C0 1.29794 1.29794 0 2.8894 0H32.4285C34.0199 0 35.3179 1.29794 35.3179 2.88939V6.49923H33.3179V2.88939C33.3179 2.40251 32.9154 2 32.4285 2H2.8894Z"/>
    </symbol>

    <symbol id="icon-arrow" viewBox="0 0 17 15">
        <path fill-rule="evenodd" clip-rule="evenodd"
              d="M9.15776 1.51788C8.87174 1.21827 8.88276 0.743526 9.18237 0.457508C9.48199 0.17149 9.95673 0.182509 10.2427 0.48212L16.2792 6.80549C16.3828 6.90864 16.4564 7.04187 16.4859 7.19098C16.5319 7.42294 16.4675 7.67238 16.2927 7.85544L10.2427 14.1919C9.95666 14.4915 9.48192 14.5025 9.18233 14.2164C8.88274 13.9304 8.87176 13.4556 9.15781 13.1561L13.9977 8.08698H0.750061C0.335848 8.08698 6.10352e-05 7.75119 6.10352e-05 7.33698C6.10352e-05 6.92276 0.335848 6.58698 0.750061 6.58698H13.9969L9.15776 1.51788Z"/>
    </symbol>

</svg>