<svg width="129" height="109" viewBox="0 0 129 109" fill="none" xmlns="http://www.w3.org/2000/svg">
    <path fill-rule="evenodd" clip-rule="evenodd" d="M1 93.0885C1 96.1741 1.05385 104.621 2.06872 106.804C4.83078 107.699 50.2879 106.982 57.2862 106.982C57.7492 105.789 57.9573 98.8571 58.5506 96.4729C60.6544 88.0182 61.843 82.7297 67.6772 75.2764C69.1341 73.4152 70.7466 71.6907 72.6045 70.1709C74.5896 68.547 76.1582 68.1107 77.4138 66.0143C78.056 61.2666 66.5746 55.2527 62.6298 54.7882C57.0279 54.1285 52.9354 59.9581 45.5302 59.9581C38.5427 59.9581 33.6476 54.4362 28.6086 54.4362C20.7474 54.4362 10.9419 63.0445 6.92089 69.7548C3.24831 75.8835 1 85.4234 1 93.0885V93.0885Z" stroke="#00B4C2" stroke-width="2" stroke-miterlimit="22.9256" stroke-linecap="square"/>
    <path fill-rule="evenodd" clip-rule="evenodd" d="M67.4391 105.557C74.0094 105.557 126.402 105.999 128 105.379C128 93.3702 122.784 75.4947 109.654 73.7845C106.941 73.4311 101.787 75.8107 97.7195 75.8107C92.5815 75.8107 89.8377 72.0355 85.7854 72.8414C81.7649 73.6411 76.9184 78.0939 74.3681 81.5107C71.7439 85.0268 69.9035 89.277 68.8463 93.4447C68.3086 95.5648 66.8136 103.549 67.4391 105.557Z" stroke="#00B4C2" stroke-width="2" stroke-miterlimit="22.9256" stroke-linecap="square"/>
    <path fill-rule="evenodd" clip-rule="evenodd" d="M25.9368 22.1965C25.9368 33.4093 35.0049 43.3928 46.4207 43.3928C52.9042 43.3928 58.0728 41.7998 62.8147 36.8023C65.8456 33.6081 69.1822 26.3778 68.4962 21.8401C68.1192 19.3461 68.1177 16.8226 67.131 14.5372C66.0958 12.1391 64.4836 8.91382 62.2734 7.11634C57.4006 3.15344 53.8202 1 47.3113 1C35.4303 1 25.9368 10.2809 25.9368 22.1965Z" stroke="#00B4C2" stroke-width="2" stroke-miterlimit="22.9256" stroke-linecap="square"/>
    <path fill-rule="evenodd" clip-rule="evenodd" d="M97.3634 64.7673C105.37 64.7673 110.9 59.2309 110.9 51.23C110.9 38.9235 96.0452 33.667 87.9226 41.7895C79.8067 49.9055 84.9662 64.7673 97.3634 64.7673V64.7673Z" stroke="#00B4C2" stroke-width="2" stroke-miterlimit="22.9256" stroke-linecap="square"/>
</svg>
