<svg width="180" height="180" viewBox="0 0 180 180" fill="none" xmlns="http://www.w3.org/2000/svg">
    <rect width="180" height="180" fill="#E7E7E7"/>
    <path fill-rule="evenodd" clip-rule="evenodd" d="M18.3264 105.263H18V104.193H25.1101V105.263H24.7877C23.5594 105.263 23.3913 105.625 23.3913 106.018C23.3913 106.309 23.7721 107.373 23.7721 107.373L27.0621 116.399L29.6539 109.394C29.5096 109.002 28.9326 107.508 28.9326 107.508C28.4075 106.151 28.0588 105.263 26.5819 105.263H26.2629V104.193H33.7456V105.263H33.4224C32.1356 105.263 31.8685 105.399 31.8685 106.09C31.8685 106.73 32.223 107.647 32.4814 108.316L35.478 116.399C36.2549 114.264 38.4283 108.341 38.4283 108.341L38.4737 108.206C38.6736 107.657 39.0375 106.642 39.0375 106.143C39.0375 105.571 38.7836 105.263 37.4288 105.263H37.1197V104.193H42.9808V105.263H42.6651C41.2637 105.263 40.8907 106.309 40.4674 107.542L35.2842 122H34.3321L30.5718 111.877L26.889 122H25.9089C25.9089 122 20.4492 107.28 20.4463 107.28C19.8692 105.676 19.6532 105.262 18.3269 105.262L18.3264 105.263ZM146.438 104.187L156.748 116.369V107.739C156.748 105.586 156.748 105.262 154.561 105.262H154.251V104.186H161V105.262H160.7C158.509 105.262 158.509 105.586 158.509 107.739V121.999H157.569L146.438 108.874V118.237C146.438 120.393 146.438 120.718 148.634 120.718H148.937V121.786H142.192V120.719H142.493C144.686 120.719 144.686 120.393 144.686 118.238V106.821C143.831 105.811 143.44 105.339 142.192 105.27V104.187H146.438L146.438 104.187ZM100.608 104H101.585L102.004 110.26H101.06L100.994 110.034C100.593 108.589 99.9706 107.476 99.1441 106.723C98.2373 105.896 97.0585 105.479 95.6365 105.479C92.0827 105.479 90.0465 108.324 90.0465 113.291C90.0465 115.753 90.7081 117.611 92.0118 118.829C93.034 119.777 94.4602 120.304 96.038 120.304C96.6191 120.304 98.0411 120.153 99.2604 119.499C100.608 118.76 101.725 117.514 101.725 117.514L102.523 118.296C102.523 118.296 101.492 120.028 99.5913 120.976C97.9385 121.8 96.4143 121.993 95.0685 121.985C93.839 121.977 92.6738 121.757 91.6145 121.314C90.5849 120.886 89.6715 120.259 88.9172 119.46C87.4016 117.88 86.5735 115.698 86.5735 113.315C86.5735 110.818 87.4482 108.49 89.0301 106.782C89.8298 105.911 90.7901 105.238 91.8659 104.764C92.9944 104.276 94.2289 104.031 95.5232 104.031C96.8236 104.031 97.9385 104.299 99.2665 104.938L99.3185 104.963C99.4792 105.043 99.7121 105.158 99.8638 105.158C100.242 105.158 100.49 104.615 100.564 104.247L100.609 103.999L100.608 104ZM44.463 105.284H44.1555V104.217H52.2919V105.284H51.9869C49.7908 105.284 49.7908 105.625 49.7908 107.778V118.241C49.7908 120.402 49.7908 120.735 51.9865 120.735H52.2923V121.801H44.1547V120.735H44.4622C46.6624 120.735 46.6624 120.402 46.6624 118.241V107.778C46.6624 105.626 46.6624 105.284 44.4622 105.284H44.463ZM53.6694 104.202H68.4736L68.678 108.862H67.6146L67.5887 108.505C67.4427 106.708 66.6489 105.911 65.0191 105.911H62.5832V118.222C62.5832 120.38 62.5832 120.71 64.6671 120.71H64.9804V121.787H57.1635V120.711H57.4726C59.5636 120.711 59.5636 120.381 59.5636 118.223V105.911H57.1317C55.4912 105.911 54.6978 106.708 54.5486 108.506L54.5292 108.862H53.4633L53.6678 104.202H53.6694ZM70.6874 104.202H85.4945L85.6977 108.862H84.626L84.6062 108.505C84.4636 106.708 83.6673 105.911 82.0301 105.911H79.5929V118.222C79.5929 120.38 79.5929 120.71 81.6818 120.71H81.9934V121.787H74.1827V120.711H74.4893C76.577 120.711 76.577 120.381 76.577 118.223V105.911H74.1419C72.5014 105.911 71.7059 106.708 71.5674 108.506L71.5435 108.862H70.4859L70.687 104.202H70.6874ZM124.98 105.27H124.666V104.187H138.68L138.948 108.52H137.849L137.793 108.274C137.336 105.821 136.782 105.73 134.503 105.73H130.123V111.84H133.576C135.456 111.84 136.109 111.721 136.25 109.636L136.266 109.35H137.336V115.881H136.272L136.25 115.602C136.057 113.572 135.573 113.366 133.576 113.366H130.123V119.265C130.123 120.119 130.269 120.245 131.207 120.245H135.041C137.126 120.245 137.87 119.326 139.194 117.072L139.288 116.91H140.389L138.742 121.774H124.667V120.71H124.981C127.083 120.71 127.083 120.374 127.083 118.222V107.754C127.083 105.596 127.083 105.27 124.981 105.27H124.98ZM104.77 105.27H104.466V104.187H112.344V105.27H112.035C109.933 105.27 109.933 105.596 109.933 107.753V112.066H117.234V107.753C117.234 105.595 117.234 105.269 115.122 105.269H114.808V104.187H122.69V105.269H122.374C120.268 105.269 120.268 105.595 120.268 107.753V118.222C120.268 120.373 120.268 120.709 122.374 120.709H122.69V121.773H114.807V120.709H115.121C117.233 120.709 117.233 120.373 117.233 118.222V113.601H109.932V118.222C109.932 120.373 109.932 120.709 112.035 120.709H112.344V121.773H104.466V120.709H104.77C106.884 120.709 106.884 120.373 106.884 118.222V107.753C106.884 105.595 106.884 105.269 104.77 105.269L104.77 105.27ZM98.7505 73.7232C98.8659 73.5735 99.0423 73.4314 99.3127 73.3382L99.438 73.2877C99.6882 73.191 100.213 72.9839 100.784 72.927C101.492 72.8513 102.07 73.0233 102.495 73.4319C103.406 74.3046 103.508 74.4355 103.608 74.8103L103.649 74.96C103.946 76.1665 104.265 77.0649 104.593 77.6266C104.861 78.0818 105.058 78.1798 105.131 78.2008C105.544 78.3257 105.891 78.2008 105.987 78.122C106.059 78.0673 106.153 77.968 106.269 77.8397L106.273 77.8354C106.552 77.5248 106.931 77.0987 107.588 76.8193C107.888 76.6867 108.259 76.5776 108.584 76.4848C108.688 76.4548 108.81 76.4313 108.945 76.4035C109.09 76.3791 109.236 76.3479 109.364 76.3111C109.521 76.264 109.665 76.187 109.627 75.9705C109.607 75.8268 109.547 75.7036 109.476 75.6518C109.354 75.5637 109.101 75.5816 108.788 75.6989C108.578 75.7776 108.505 75.8285 108.432 75.8828L108.425 75.8871C108.333 75.9543 108.235 76.021 108.055 76.0852L108.048 76.0895C107.917 76.1382 107.698 76.2148 107.482 76.0822C107.301 75.9675 107.262 75.7716 107.252 75.6608V75.6544C107.243 75.5945 107.237 75.5645 107.189 75.5089C107.133 75.4388 107.039 75.3592 106.944 75.2805L106.936 75.274C106.729 75.1029 106.453 74.8749 106.453 74.5442C106.453 74.5057 106.457 74.4586 106.467 74.4124C106.504 74.2392 106.612 74.1044 106.79 74.003C106.95 73.9157 107.153 73.8635 107.346 73.8148C107.52 73.772 107.667 73.7377 107.795 73.7099C108.16 73.6244 108.362 73.5786 108.634 73.4682C108.729 73.4314 108.747 73.3313 108.755 73.2286C108.757 73.215 108.757 73.1996 108.757 73.1871C108.757 73.019 108.701 72.8847 108.671 72.8406C108.325 72.9613 106.822 73.5581 106.604 73.665C106.289 73.822 105.197 74.2948 104.352 73.8379C103.737 73.5084 103.406 73.105 103.306 72.566L103.303 72.5587C103.27 72.3935 103.192 72.0059 103.558 71.8827C103.728 71.8228 103.857 71.8541 103.971 71.9768C104.066 72.0817 104.143 72.2549 104.232 72.4551L104.235 72.4624L104.328 72.6661C104.479 72.9976 104.939 73.1474 105.312 73.1225C105.561 73.1054 105.952 72.9942 106.358 72.8295V72.8265C106.377 72.8201 108.01 72.2584 108.311 72.124C108.301 72.0675 108.256 71.9375 108.236 71.8964L108.233 71.8934C108.186 71.795 108.135 71.7424 108.065 71.7309C107.815 71.7112 107.705 71.7672 107.304 71.9653L106.962 72.1398C106.687 72.2802 106.449 72.4038 106.177 72.3037C105.927 72.2109 105.807 71.9798 105.716 71.7702L105.64 71.5927V71.5901C105.64 71.5901 105.633 71.5717 105.622 71.5516C105.571 71.5289 105.413 71.4558 105.328 71.419C104.849 71.1858 104.727 70.8696 104.705 70.6468V70.651C104.7 70.6181 104.7 70.5911 104.7 70.5612C104.7 70.2224 104.909 69.8844 105.317 69.5601C105.934 69.0724 106.079 69.0296 106.591 68.9269L106.666 68.9124C106.858 68.8705 106.868 68.8593 106.995 68.6993L107.186 68.4824L107.318 68.3335C107.351 68.2963 107.37 68.2749 107.382 68.2651C107.655 67.9998 108.045 67.8056 108.602 67.6644C108.56 67.5224 108.541 67.3872 108.541 67.2606C108.541 67.2195 108.548 67.1771 108.557 67.1429L108.569 67.0882V67.0775C108.575 67.0646 108.575 67.0501 108.575 67.0334C108.583 67.0064 108.584 66.9778 108.594 66.9487L108.721 66.6107L109.051 66.7219C109.129 66.7468 109.61 66.8918 109.991 66.9915C110.009 66.8375 110.033 66.6556 110.066 66.4567L110.165 65.8419L110.649 66.2107C110.825 66.3378 111.063 66.3733 111.364 66.4203C111.364 66.4203 111.531 66.4443 111.548 66.449C111.846 66.345 112.098 66.2864 112.312 66.2402L112.741 66.132L113.26 66.0165L113.286 66.8114C113.294 66.9654 113.298 67.1237 113.298 67.282C113.298 67.6999 113.244 68.0499 113.129 68.3558C113.624 68.3956 114.352 68.3686 114.642 68.2677L115.333 68.0495L115.143 69.0206C115.095 69.3278 115.009 69.8335 114.71 70.3032C114.716 70.3049 114.719 70.3075 114.719 70.3075C115.444 70.5428 116.534 70.8962 116.846 71.979L117.029 72.6109L116.39 72.5296C116.197 72.5056 115.879 72.5822 115.739 72.7328C115.691 72.7841 115.693 72.8141 115.699 72.8496C115.736 73.0678 115.975 73.2967 116.254 73.5598L116.271 73.5747C116.772 74.0496 117.462 74.6991 117.604 75.9012L117.675 76.5335L117.079 76.371C116.883 76.3179 116.528 76.2846 116.185 76.338C115.812 76.3936 115.553 76.5378 115.454 76.7308C115.198 77.242 115.311 77.5693 115.595 78.2649L115.653 78.4172L116.12 79.5723L115.058 78.955C115.058 78.955 115.013 78.931 114.933 78.9135C115.208 79.6357 115.723 80.748 116.179 81.6002C116.734 82.6539 117.681 83.8822 118.373 84.7789L118.388 84.796L118.545 85.0074C118.796 85.3261 118.969 85.6846 119.122 85.9999C119.122 85.9999 119.149 86.0542 119.149 86.0555C119.322 86.4213 119.443 86.6596 119.575 86.8029C119.706 86.9497 119.84 87.0027 120.037 86.9877C120.407 86.9591 120.548 86.6318 120.595 86.4927C120.63 86.3849 120.648 86.2694 120.648 86.1454C120.648 86.0333 120.631 85.9122 120.602 85.7945C120.524 85.4968 120.349 85.2178 120.098 84.9868C120.093 84.986 119.354 84.378 119.354 84.378C118.774 83.9245 118.118 83.412 117.595 82.7352C116.991 81.9523 116.683 81.0975 116.645 80.12C116.642 80.0643 116.639 80.0087 116.639 79.9574C116.639 79.1368 116.88 78.4579 117.353 77.9381C118.173 77.0465 119.336 77.0097 119.467 77.0067C120.363 76.9939 121.003 77.3541 121.382 77.6643C121.635 77.5616 122.037 77.4033 122.551 77.4961C123.165 77.6095 123.781 78.0651 124.378 78.8549L124.831 79.4581L124.103 79.5544C123.893 79.58 123.751 79.6023 123.625 79.628C124.322 80.4237 124.47 81.2721 124.47 81.8492V81.8933C124.467 82.5726 124.39 82.9829 124.282 83.4903L123.999 84.8995L123.447 84.064C123.146 83.6127 122.757 83.2306 122.116 82.5996C121.736 82.2274 121.443 81.9206 121.222 81.6669C121.235 81.744 121.467 82.9431 121.467 82.9431L120.52 82.0276C120.344 81.862 120.07 81.5057 119.843 81.0778C119.643 80.7121 119.41 80.1555 119.41 79.5989C119.41 79.5574 119.418 79.5193 119.426 79.4799C119.428 79.4641 119.431 79.4466 119.431 79.4346C119.258 79.3661 119.06 79.4988 119 79.5441C118.955 79.5758 118.893 79.6853 118.864 79.877C118.862 79.9184 118.859 79.9732 118.859 80.0395C118.859 80.4845 119.04 80.9786 119.348 81.3658C119.902 82.064 120.444 82.4678 120.921 82.8246L120.94 82.8387L121.227 83.0625L121.421 83.2148L121.486 83.2648C121.499 83.2743 121.506 83.282 121.51 83.2862C121.947 83.6738 122.343 84.1834 122.627 84.7139C122.975 85.3612 123.153 86.02 123.153 86.6733C123.153 86.8316 123.141 86.9967 123.114 87.1764C123.034 87.7005 122.7 88.3058 122.223 88.7957C121.698 89.342 121.058 89.677 120.418 89.7476V89.7493C120.418 90.0903 120.511 90.3063 120.622 90.5634L120.624 90.572L120.628 90.5827C120.753 90.8723 120.889 91.2013 120.889 91.6779V91.7233L120.879 92.3855L120.297 92.1074H120.294C120.07 91.9821 119.842 92.1545 119.771 92.2131V92.2157L119.748 92.2371C119.599 92.3611 119.523 92.7205 119.523 93.2703C119.523 93.4029 119.527 93.5449 119.536 93.6981C119.573 94.3471 119.697 95.1663 119.857 95.8958L120.059 96.7814L119.984 96.7514C119.981 96.7501 119.546 96.588 119.224 96.5033C119.117 96.4755 119.028 96.5076 118.959 96.5931C118.818 96.7685 118.796 97.1493 118.911 97.4188V97.4205L119.254 98.3895L117.968 97.9005H117.962C117.713 97.7927 117.62 97.7508 117.417 97.8813C117.241 97.9882 117.207 98.0374 117.169 98.0952L117.162 98.0982C117.05 98.2479 116.936 98.3754 116.595 98.5731C116.393 98.6886 116.043 98.6929 114.735 98.6522L113.75 98.6295C113.214 98.6295 113.025 98.2304 112.893 97.9664C112.872 97.9194 112.852 97.8723 112.829 97.8329C112.752 97.7016 112.616 97.569 112.282 97.7174L112.279 97.7187L111.58 97.8971L111.725 97.1839V97.1822C112.037 96.2154 112.595 95.0119 113.482 94.7394C114.257 94.5007 115.108 94.6303 116.008 95.1218C116.112 95.035 116.186 94.9024 116.231 94.804C116.318 94.5931 116.364 94.3471 116.364 94.1079C116.364 93.9295 116.339 93.7785 116.294 93.6792C116.237 93.5552 116.014 93.3956 115.747 93.355C115.589 93.3306 115.366 93.3378 115.214 93.5133L114.955 93.8136L114.653 93.5697C114.539 93.4842 114.201 93.4101 113.848 93.4003C113.446 93.3892 113.131 93.4516 113.003 93.5723H113C112.844 93.7143 112.709 93.9488 112.709 93.9556L112.68 94.004L112.313 93.6728C112.099 93.4812 111.8 93.3678 111.687 93.4007C110.624 93.7216 110.556 95.2262 110.522 96.1259L110.469 97.1373L110.41 97.1133C110.409 97.1133 110.205 97.0321 109.982 96.9272C109.867 96.8716 109.774 96.8686 109.706 96.9144C109.525 97.0342 109.525 97.5061 109.525 97.6811V98.351L108.834 98.0229L108.776 97.9972C108.492 97.8616 107.961 97.6023 107.302 98.4396C107.137 98.6467 106.966 98.6415 106.787 98.6385L106.711 98.6368H106.145C105.412 98.6338 104.193 98.6304 104.126 98.6368C103.992 98.6539 103.877 98.6188 103.785 98.5397C103.599 98.3737 103.563 98.055 103.552 97.8796C103.548 97.8004 103.496 97.6828 103.399 97.6169C103.331 97.5754 103.227 97.539 103.082 97.5998H103.081L102.205 97.9099L102.556 97.006C103.579 94.878 104.894 93.9685 106.159 94.5101L106.229 94.54C106.517 94.6611 106.945 94.8412 107.046 94.8412C107.067 94.8249 107.135 94.7565 107.204 94.6765C107.533 94.3128 107.933 93.4444 107.968 93.0157V93.0093C107.968 92.9879 107.962 92.9686 107.944 92.9554C107.918 92.928 107.884 92.9147 107.858 92.9177L107.102 92.9502L107.533 92.2345L107.643 92.0488C107.884 91.6698 108.32 90.9579 108.36 90.6995C108.36 90.673 108.353 90.6276 108.323 90.6067C108.304 90.5895 108.272 90.5883 108.227 90.5989H108.224L107.336 90.7645L107.832 89.9144C109.476 87.1186 111.077 86.6527 112.129 86.7529C112.902 86.8264 113.633 87.1978 114.223 87.4973C114.403 87.5858 114.6 87.6834 114.768 87.7552C114.631 87.2577 114.181 86.4247 113.235 86.0974C113.229 86.0974 112.773 85.9554 112.773 85.9554C112.22 85.7877 111.583 85.5875 110.983 85.3188C110.28 85.0022 109.779 84.6565 109.45 84.2642C109.267 84.5423 108.98 84.8486 108.365 85.0672C108.036 85.1853 107.806 85.7107 107.607 86.1693L107.604 86.1804C107.449 86.5377 107.302 86.8718 107.079 87.0874L106.83 87.3287L106.552 87.1178C106.468 87.0566 106.304 87.0301 106.051 87.0493V87.1161C106.051 87.2213 106.055 87.3103 106.094 87.4327L106.097 87.4297C106.306 87.9311 106.153 88.5668 106.078 88.8137V88.8222L105.924 89.2928L105.499 89.0746C105.258 88.9497 104.96 88.8372 104.69 88.7709C104.353 88.6904 104.088 88.6853 103.929 88.7593C103.836 88.8013 103.783 88.868 103.751 88.9869L103.596 89.5405L103.131 89.2325C102.909 89.09 102.753 89.0605 102.593 89.0314C102.315 88.9792 101.966 88.9189 101.694 88.3824C101.596 88.1805 101.548 87.9897 101.548 87.8027C101.548 87.659 101.577 87.5482 101.596 87.4647L101.611 87.3993C101.603 87.3839 101.581 87.348 101.526 87.2923C101.229 86.9813 100.879 86.4213 100.879 85.8549C100.879 85.7881 100.886 85.7299 100.895 85.6726C100.94 85.3496 101.113 85.0916 101.385 84.9428C101.703 84.7673 101.95 84.7147 102.149 84.6741L102.155 84.6724C102.31 84.6403 102.382 84.6223 102.46 84.5684C102.464 84.5684 102.623 84.4473 102.623 84.4473C103.064 84.1094 103.878 83.4847 104.781 83.5609C105.495 83.6208 105.575 83.5096 105.815 83.1789C105.978 82.9564 106.013 82.5106 105.886 82.2612C105.886 82.2595 105.845 82.1885 105.775 82.1619C105.719 82.1474 105.657 82.1551 105.586 82.1962C105.43 82.2847 105.255 82.3908 105.09 82.4939L104.843 82.6462L104.828 82.6556C104.549 82.8246 104.326 82.9611 104.148 83.015L103.727 83.1408L103.627 82.701C103.58 82.517 103.58 82.3566 103.58 82.2064V82.1722C103.584 81.9001 103.588 81.7902 103.371 81.6203C103.124 81.4222 102.865 81.5005 102.686 81.6011L102.027 81.9938L102.067 81.2079C102.069 81.1553 102.069 81.1009 102.069 81.044C102.069 80.1991 101.811 78.6983 101.59 77.9851C101.063 78.0664 100.639 77.6472 100.405 77.417C100.353 77.3699 100.264 77.278 100.212 77.2386C100.177 77.2437 100.004 77.2814 100.004 77.2814L99.6103 76.7081C99.4866 76.5335 99.3609 76.3539 99.2418 76.172C98.9718 77.5085 98.7315 79.986 99.5551 83.1712C101.173 89.5054 97.4991 93.3498 93.5105 94.8164C91.0032 95.7435 90.4554 96.1349 89.8875 96.5405L89.4979 96.8199L89.1245 96.5409C88.5557 96.1354 88.0228 95.7439 85.5105 94.8168C81.5248 93.3503 77.8424 89.5059 79.4738 83.1716C80.2915 79.9818 80.0467 77.5017 79.778 76.1665C79.6576 76.3504 79.5307 76.5318 79.4045 76.7081L79.0117 77.2814L78.9804 77.2762C78.9804 77.2762 78.8897 77.2591 78.8061 77.239C78.7537 77.2762 78.6771 77.3528 78.6181 77.4123L78.6107 77.4166C78.3807 77.6476 77.9529 78.0668 77.4236 77.9847C77.2019 78.7077 76.9447 80.2102 76.9447 81.0436C76.9447 81.1014 76.9447 81.1519 76.9488 81.2049L76.9912 81.9942L76.3243 81.6006C76.1842 81.5193 75.9039 81.4081 75.6442 81.6199C75.4287 81.7902 75.4316 81.9001 75.4361 82.1735V82.1846C75.4361 82.3361 75.4361 82.5089 75.3908 82.701L75.2902 83.1408L74.8706 83.015C74.681 82.9564 74.4337 82.8032 74.174 82.6462L73.9284 82.4939C73.7594 82.3912 73.5863 82.2843 73.4304 82.1962C73.3612 82.1589 73.2961 82.1474 73.245 82.1619C73.1683 82.1846 73.1353 82.2552 73.1324 82.2612C73.0047 82.5106 73.036 82.9577 73.1984 83.1789C73.4391 83.51 73.5199 83.6204 74.2387 83.5609C75.1373 83.4839 75.9509 84.1094 76.3886 84.4473C76.3886 84.4473 76.5543 84.5684 76.5556 84.5684C76.636 84.6223 76.7068 84.6403 76.8647 84.6724H76.868C77.0634 84.7152 77.309 84.7665 77.6326 84.9428C77.9005 85.0904 78.0703 85.3458 78.1247 85.6726C78.133 85.7355 78.133 85.7975 78.133 85.8549C78.133 86.4239 77.7859 86.9843 77.4912 87.2923C77.4368 87.348 77.4129 87.3839 77.4034 87.3993C77.4096 87.4173 77.4187 87.4643 77.4187 87.4643C77.4434 87.5563 77.4652 87.6654 77.4652 87.8023C77.4652 87.9974 77.4158 88.1852 77.3169 88.382C77.0469 88.918 76.704 88.9784 76.4266 89.0306H76.4208C76.2613 89.0597 76.1063 89.0892 75.8891 89.2316L75.4192 89.5397L75.2667 88.9861C75.2337 88.8671 75.1822 88.8004 75.0841 88.7593C74.9275 88.6853 74.6637 88.69 74.3257 88.7709C74.0594 88.8363 73.7552 88.9489 73.5178 89.0733L73.0871 89.2915L72.9395 88.8226C72.914 88.7405 72.684 88.0068 72.914 87.4292L72.9173 87.4322C72.9626 87.3099 72.9667 87.2239 72.9667 87.1156V87.0489C72.712 87.0301 72.5463 87.0566 72.4639 87.1174L72.1869 87.3287L71.9363 87.0878C71.7146 86.8748 71.5703 86.5389 71.4141 86.1809C71.2224 85.7359 70.9833 85.1883 70.6474 85.0672C70.0333 84.8491 69.753 84.5423 69.5675 84.2642C69.2407 84.6565 68.7349 85.0018 68.0301 85.3188C67.4312 85.5905 66.7915 85.7877 66.2425 85.9554L65.7817 86.0979C64.8304 86.4307 64.3803 87.2585 64.2467 87.7561C64.4211 87.6842 64.6243 87.582 64.7908 87.4981C65.3802 87.1986 66.1131 86.8273 66.8834 86.7537C67.9369 86.6536 69.5378 87.1195 71.1824 89.9153L71.6803 90.7649L70.79 90.5989C70.7447 90.5878 70.7101 90.5895 70.687 90.6062C70.6623 90.6285 70.6528 90.6721 70.6528 90.6986C70.6948 90.9553 71.1301 91.6578 71.363 92.0334L71.485 92.2332L71.9124 92.949L71.1569 92.916C71.133 92.9126 71.0951 92.9259 71.0728 92.9485C71.0547 92.9665 71.0501 92.9858 71.0501 93.0071V93.0148C71.0852 93.4427 71.4854 94.3111 71.8147 94.6748C71.8901 94.7621 71.9474 94.8258 71.9713 94.8391C72.0678 94.8391 72.4775 94.6696 72.7504 94.5541L72.8567 94.5084C74.1221 93.9676 75.4369 94.8763 76.4612 97.0047L76.8103 97.9087L75.9365 97.5985H75.9332C75.7914 97.5377 75.683 97.5741 75.6212 97.6156C75.5206 97.6819 75.4707 97.7996 75.4662 97.8783C75.4604 98.0165 75.4241 98.366 75.23 98.538C75.1402 98.6163 75.0256 98.6518 74.8933 98.6347H74.8961C74.822 98.6283 73.6027 98.6317 72.8752 98.6347H72.3089L72.2322 98.636C72.0501 98.6385 71.8819 98.6437 71.7191 98.4366C71.0555 97.5993 70.5254 97.859 70.241 97.9942L70.1854 98.0199L69.495 98.3476V97.6828C69.495 97.5074 69.495 97.0359 69.3095 96.9153C69.2435 96.8699 69.1529 96.8725 69.0362 96.9281C68.8161 97.0333 68.6084 97.1146 68.6076 97.1146L68.5482 97.1386L68.4987 96.1259C68.4608 95.2275 68.3978 93.7233 67.3323 93.4024C67.2193 93.3695 66.9213 93.4829 66.7058 93.675L66.3373 94.0065L66.3117 93.9582C66.3088 93.9518 66.1778 93.7169 66.0166 93.5749C65.8888 93.4542 65.5727 93.3918 65.1708 93.4029C64.8143 93.4127 64.4771 93.4863 64.3671 93.5723L64.0621 93.8161L63.804 93.5154C63.6433 93.3314 63.4026 93.3378 63.2715 93.3571C63.0052 93.3982 62.7794 93.5582 62.7208 93.6831C62.6784 93.7815 62.6499 93.9355 62.6499 94.1101C62.6499 94.3505 62.6982 94.5978 62.7839 94.8031C62.8498 94.9499 62.9253 95.0581 63.0081 95.124C63.9108 94.632 64.764 94.5028 65.5364 94.7411C65.9387 94.863 66.3093 95.186 66.6328 95.708C66.8809 96.0981 67.1027 96.5948 67.2935 97.1839V97.1861L67.4378 97.8993L66.7396 97.7209L66.7346 97.7196C66.402 97.5711 66.2713 97.7037 66.1897 97.8351C66.1691 97.8749 66.1477 97.9164 66.1238 97.9677C65.9972 98.2329 65.8047 98.6317 65.2689 98.6317L64.2813 98.6539C62.9768 98.6946 62.6211 98.6899 62.4212 98.5744C62.084 98.3801 61.9719 98.2565 61.8553 98.0995H61.8536C61.8124 98.043 61.7782 97.9951 61.5964 97.8826C61.3961 97.7521 61.3038 97.794 61.0544 97.9018H61.0503L59.7602 98.3908L60.1064 97.4222V97.4214C60.2206 97.1501 60.1996 96.7698 60.052 96.5914C59.9832 96.5088 59.8954 96.4776 59.7903 96.5058C59.4696 96.5901 59.038 96.7523 59.0347 96.754L58.9564 96.7831L59.1534 95.8975C59.3191 95.1702 59.4411 94.3505 59.4799 93.6998C59.4894 93.5449 59.4951 93.402 59.4951 93.2694C59.4951 92.7231 59.4156 92.3633 59.2693 92.2396L59.2437 92.2182C59.1745 92.1562 58.9428 91.9842 58.7202 92.1087L58.135 92.3859L58.1238 91.7254V91.68C58.1238 91.2116 58.2611 90.8826 58.3835 90.5942L58.3917 90.5741L58.3967 90.5656C58.5039 90.3089 58.6007 90.089 58.6007 89.751V89.7489C57.9557 89.6783 57.3127 89.3433 56.7851 88.797C56.3119 88.308 55.9813 87.7039 55.8981 87.1798C55.8742 87.0215 55.8618 86.8555 55.8618 86.675C55.8618 86.0217 56.0366 85.3629 56.3811 84.7156C56.6672 84.1851 57.0645 83.676 57.4994 83.2884C57.5056 83.2841 57.5146 83.2755 57.5282 83.267L57.5913 83.2165L57.7891 83.0642L58.0735 82.8405L58.0851 82.8319C58.5632 82.4725 59.1052 82.0674 59.6637 81.3675C59.9687 80.9803 60.1526 80.4862 60.1526 80.0412C60.1526 80.0062 60.1497 79.9668 60.1497 79.9326L60.1468 79.874C60.1179 79.6742 60.0479 79.5745 60.0149 79.5458C59.9531 79.503 59.7552 79.3704 59.5767 79.4359C59.5796 79.4457 59.5825 79.459 59.5838 79.4714C59.592 79.512 59.6019 79.5548 59.6019 79.5997C59.6019 80.1559 59.3686 80.7129 59.1699 81.0787C58.9412 81.5065 58.6646 81.8629 58.4927 82.0285L57.5447 82.944C57.5447 82.944 57.7764 81.7452 57.792 81.6678C57.5653 81.9245 57.2735 82.2304 56.8959 82.6004C56.2303 83.2542 55.8626 83.6178 55.5621 84.0644L55.0098 84.8995L54.7295 83.4903C54.6389 83.0633 54.5461 82.6206 54.5399 81.8933V81.8492C54.5399 81.2704 54.6904 80.4237 55.3857 79.628C55.2654 79.6023 55.1211 79.5796 54.9076 79.5544L54.1772 79.4577L54.6347 78.8545C55.2312 78.0651 55.8478 77.6095 56.4619 77.4961C56.9722 77.4033 57.3803 77.562 57.6284 77.6643C58.0092 77.3541 58.6506 76.9935 59.5429 77.0067C59.606 77.0097 59.9312 77.0178 60.345 77.1428C60.8768 77.2985 61.3161 77.5672 61.6607 77.9406C62.1331 78.4583 62.3709 79.1407 62.3709 79.9664C62.3709 80.0177 62.3709 80.0665 62.3693 80.1204C62.3322 81.1001 62.0201 81.9557 61.4179 82.7344C60.8912 83.4159 60.235 83.9267 59.6538 84.378C59.6538 84.378 58.9193 84.9855 58.916 84.9868C58.5071 85.3624 58.3637 85.7881 58.3637 86.1402C58.3637 86.2716 58.3835 86.3896 58.4173 86.4932C58.4635 86.6322 58.6077 86.9595 58.9766 86.9882C59.1732 87.0031 59.3055 86.9497 59.4354 86.8042C59.5631 86.6604 59.6909 86.4192 59.8612 86.0555L59.8735 86.029C60.033 85.7047 60.2057 85.3359 60.4605 85.0082L60.6241 84.7964C61.3182 83.8955 62.2707 82.6616 62.8354 81.6006C63.2806 80.7621 63.797 79.6498 64.0786 78.9152C64.0126 78.928 63.9714 78.9473 63.9582 78.9554L62.8923 79.5723L63.356 78.4172L63.4162 78.2649C63.7006 77.5697 63.8172 77.2424 63.5563 76.7308C63.3263 76.2747 62.361 76.2516 61.9299 76.3701L61.338 76.5327L61.4089 75.9008C61.549 74.6952 62.2382 74.0492 62.7427 73.5743L62.7559 73.5632C63.0345 73.2988 63.2765 73.0712 63.3123 72.8479C63.3206 72.8119 63.3206 72.7824 63.2723 72.7324C63.1343 72.5848 62.8165 72.5056 62.6161 72.5287L61.9843 72.61L62.1632 71.9781C62.4764 70.8979 63.567 70.5419 64.2912 70.3054C64.2912 70.3054 64.297 70.3036 64.2995 70.3019C63.9928 69.8155 63.9087 69.282 63.8679 69.0193C63.8667 69.0193 63.68 68.0482 63.68 68.0482L64.3683 68.2664C64.6585 68.3673 65.3885 68.3947 65.8835 68.3541C65.7693 68.0482 65.7137 67.6982 65.7137 67.2802C65.7137 67.122 65.7194 66.9637 65.7285 66.8096L65.7574 66.0156L66.2717 66.1311C66.2717 66.1311 66.6946 66.2389 66.6979 66.2389C66.9593 66.2928 67.1913 66.3515 67.4592 66.4477C67.4798 66.4434 67.6468 66.4195 67.6468 66.4195C67.9477 66.3724 68.1875 66.3365 68.3619 66.2098L68.8466 65.8406L68.9455 66.4554C68.976 66.6402 69.0004 66.8233 69.0214 66.9902C69.4047 66.8905 69.8882 66.7455 69.9587 66.7207L70.2913 66.6094L70.4183 66.9474C70.4306 66.9765 70.4335 67.0052 70.4364 67.0317C70.438 67.0479 70.4393 67.0616 70.4438 67.0753L70.4455 67.0796V67.086C70.4455 67.0916 70.4537 67.1374 70.4537 67.1374C70.4632 67.175 70.4743 67.2144 70.4743 67.258C70.4743 67.3842 70.4512 67.5207 70.4108 67.6614C70.966 67.8026 71.356 67.9964 71.6317 68.2621H71.6296C71.642 68.2715 71.6614 68.2899 71.6956 68.3305L71.8275 68.4794L72.0171 68.6963C72.1449 68.8563 72.1506 68.8675 72.3448 68.9102L72.4231 68.9244C72.9334 69.027 73.0793 69.0698 73.6934 69.5575C74.1027 69.8784 74.3117 70.2181 74.3117 70.5586C74.3117 70.5886 74.3117 70.6155 74.3059 70.6485V70.6442C74.2865 70.8667 74.1616 71.1832 73.686 71.416C73.597 71.4528 73.4387 71.5259 73.3909 71.5486C73.3802 71.57 73.3727 71.5939 73.3727 71.5939L73.2944 71.7664C73.1984 71.9888 73.0747 72.2113 72.834 72.2994C72.5673 72.3995 72.325 72.2759 72.048 72.1356L71.708 71.961C71.3073 71.7629 71.1969 71.7069 70.9446 71.727C70.8605 71.7398 70.8135 71.8168 70.7731 71.8921C70.755 71.9332 70.7113 72.062 70.6965 72.1197C71.0064 72.2541 72.6349 72.8158 72.6527 72.8222H72.6547V72.8252C73.0607 72.9899 73.4502 73.1016 73.6992 73.1183C73.8908 73.132 74.1019 73.0956 74.2762 73.0229C74.4151 72.9643 74.5957 72.856 74.683 72.6618L74.7746 72.4607L74.7803 72.4513C74.8661 72.2515 74.9411 72.0782 75.0392 71.973C75.1521 71.8506 75.2824 71.819 75.4534 71.8789C75.8099 72.0008 75.7407 72.3679 75.7106 72.5441L75.7065 72.563C75.5993 73.1041 75.2712 73.5084 74.6596 73.8353C73.8175 74.2922 72.7248 73.8195 72.4091 73.6625C72.189 73.5555 70.6853 72.9587 70.342 72.8385C70.3107 72.8821 70.2534 73.0164 70.2534 73.185C70.2534 73.197 70.2534 73.2124 70.255 73.2261C70.2608 73.3288 70.2806 73.4289 70.377 73.4657C70.6507 73.576 70.8552 73.6231 71.2274 73.7087C71.3522 73.7386 71.4936 73.7728 71.6651 73.8113C71.8576 73.861 72.0595 73.9132 72.2191 73.9996C72.3992 74.1014 72.5059 74.2362 72.5447 74.4094C72.5542 74.4548 72.5603 74.4993 72.5603 74.5399C72.5603 74.868 72.2834 75.0986 72.074 75.2715L72.0678 75.2783C71.9746 75.3553 71.8782 75.4366 71.8213 75.5064C71.7731 75.5607 71.7669 75.5919 71.7578 75.6505L71.7554 75.6599C71.7479 75.7335 71.7281 75.9551 71.527 76.0792C71.3143 76.2135 71.0872 76.1318 70.9541 76.0835L70.9533 76.0818C70.7649 76.0116 70.6598 75.9372 70.5844 75.8837L70.5761 75.876C70.5003 75.8217 70.4265 75.7742 70.2233 75.6954C69.91 75.5782 69.6557 75.5603 69.5337 75.6484C69.4645 75.6997 69.4088 75.8204 69.3837 75.9671C69.3474 76.1836 69.4929 76.2602 69.6545 76.3077C69.7748 76.3444 69.9224 76.3761 70.0667 76.4005C70.1977 76.4283 70.3222 76.4518 70.4253 76.4818C70.7501 76.5738 71.1189 76.6816 71.4256 76.8168C72.0715 77.0961 72.454 77.5175 72.7322 77.8251L72.7425 77.838C72.8414 77.9475 72.9424 78.0604 73.0207 78.1229C73.1246 78.1999 73.4679 78.3231 73.8801 78.1982C73.9527 78.1768 74.148 78.0793 74.4147 77.6241C74.7469 77.0628 75.0647 76.166 75.3615 74.9579L75.4019 74.8082C75.4996 74.4295 75.6051 74.2999 76.5139 73.4289C76.9401 73.0207 77.5164 72.8487 78.227 72.924C78.7999 72.9814 79.3233 73.1884 79.5723 73.2851L79.5847 73.2902L79.6959 73.336C79.968 73.4293 80.1465 73.5739 80.2623 73.7253C80.7157 73.1191 81.1979 72.3734 81.308 71.8686L81.3657 71.6363L81.5841 71.5443C82.8866 71.0181 88.2037 70.7768 89.4419 70.7614H89.582C90.8169 70.7768 96.1216 71.0181 97.4245 71.5443L97.6529 71.6359L97.6962 71.8678C97.8091 72.3717 98.2938 73.1148 98.7484 73.7202L98.7505 73.7232ZM79.6955 74.4432V74.424C79.6955 74.3778 79.6955 74.3397 79.6803 74.3042C79.6712 74.2708 79.6457 74.181 79.4487 74.1117L79.2994 74.056C78.8613 73.8806 77.6936 73.4169 77.051 74.0295C76.2126 74.8338 76.2007 74.88 76.1599 75.0323L76.1281 75.1658C75.5503 77.5051 74.8821 78.7539 74.0949 78.9879C73.6827 79.1086 73.2854 79.0863 72.9705 78.9879C73.0075 79.42 72.9511 79.758 72.9465 79.788L72.8212 80.5024L72.32 79.9899C71.9532 79.6049 71.4652 79.3584 71.1115 79.2147C71.0571 80.1037 70.6553 80.8558 69.9348 81.3153L69.4723 81.6122L69.3767 81.0517C69.2819 80.4913 68.8499 80.1392 68.5482 79.9736C68.1113 80.9332 67.6109 81.1266 66.9984 81.3598C66.7697 81.4432 66.5397 81.533 66.2672 81.6738L65.3835 82.1316L65.7586 81.1861C66.1225 80.2427 65.8921 79.4851 65.5533 79.0919C65.3864 78.9037 65.1955 78.7839 64.9878 78.7313C64.771 79.447 64.0802 80.9525 63.5279 81.9972C62.9331 83.1138 61.9521 84.3827 61.2428 85.3064L61.0779 85.5203C60.8743 85.783 60.7205 86.1056 60.5717 86.4166C60.2461 87.099 59.8793 87.8733 58.9177 87.8006C58.3406 87.7561 57.8642 87.3544 57.6729 86.7533C57.4112 85.9468 57.6997 85.0121 58.3955 84.3716L59.1856 83.7299C60.2754 82.87 61.5152 81.901 61.5803 80.0857C61.6051 79.42 61.4402 78.8853 61.0899 78.5015C60.6109 77.9766 59.8595 77.8286 59.5335 77.8256C58.8286 77.8136 58.264 78.1323 57.9754 78.4322L57.8106 78.6046L57.6111 78.5293L57.3761 78.4416C56.9887 78.2799 56.4747 78.0664 55.6891 78.8549C55.8878 78.9007 56.0745 78.961 56.3362 79.0632L56.973 79.3114L56.429 79.7319C55.6994 80.3009 55.3297 81.0145 55.3297 81.8496V81.8903C55.3297 82.3331 55.375 82.6492 55.4286 82.953C55.6788 82.6757 55.9727 82.3823 56.3622 82.0066C57.3073 81.0689 57.5422 80.7275 57.6428 80.5161L57.9742 79.835L58.3064 80.5161C58.3382 80.5794 58.3806 80.6714 58.4251 80.7792C58.6312 80.4096 58.8138 79.9698 58.8138 79.6057C58.8138 79.515 58.8014 79.4346 58.7841 79.3567L58.7194 79.1527L58.8554 78.9918C59.2569 78.5075 59.9044 78.463 60.4703 78.8788C60.7127 79.0572 60.8751 79.3743 60.9279 79.7721C61.0165 80.4584 60.7651 81.2695 60.2713 81.8873C59.6456 82.6762 59.0298 83.1348 58.5331 83.5057L58.0125 83.9087C57.4272 84.4375 56.4698 85.6884 56.6742 87.0498C56.7855 87.7488 57.7566 89.0391 58.9535 88.9591L59.2899 88.9369L59.3435 89.2834C59.3698 89.4562 59.3789 89.6085 59.3789 89.7497C59.3789 90.2661 59.2313 90.6152 59.1069 90.9091C59.0632 91.0204 59.0178 91.1213 58.9816 91.227C59.2359 91.2428 59.397 91.2723 59.7012 91.5136C60.0005 91.7549 60.2383 92.706 60.2383 93.4966C60.2383 94.1956 60.1064 95.0829 60.0099 95.6079C60.2078 95.548 60.5759 95.5984 60.7461 95.8359C61.0363 96.2551 61.0635 96.6008 61.0635 97.0124C61.0635 97.0218 61.0594 97.0278 61.0594 97.0338C61.3182 96.9589 61.6265 96.9456 62.0032 97.1835C62.2876 97.3632 62.3866 97.4787 62.4785 97.6071C62.5238 97.6669 62.5667 97.7204 62.7699 97.8411C62.9504 97.8761 63.7331 97.8526 64.2537 97.8347L65.2636 97.8107C65.3419 97.8107 65.7442 96.4631 66.2981 96.7852C65.9972 96.0836 65.6428 95.6258 65.3106 95.5231C64.6882 95.3323 63.9743 95.4718 63.1948 95.9381L63.0564 96.0237L62.9018 95.9753C62.5424 95.8611 62.253 95.5719 62.0634 95.1377C61.8202 94.5601 61.7897 93.8055 62.0098 93.3336C62.1813 92.9421 62.6462 92.626 63.1536 92.5485C63.5254 92.4899 63.8667 92.5686 64.1482 92.7603C64.6527 92.5019 65.3089 92.4972 65.7648 92.5875C65.9362 92.6183 66.1831 92.6944 66.3995 92.827C67.4897 91.3322 66.8603 90.1651 66.3715 89.5863C65.6551 88.7418 64.5835 88.4042 64.1692 88.6802C64.025 88.782 63.4224 88.7144 63.4178 88.1711C63.4137 87.5696 63.8712 85.9036 65.534 85.3261C65.5405 85.3261 66.0236 85.1738 66.0236 85.1738C66.9869 84.8803 68.9962 84.2745 69.2069 83.3213L69.4253 82.3232L70.0036 83.4291C70.2249 83.8595 70.3437 84.0995 70.9112 84.2993C71.5583 84.5363 71.879 85.2649 72.1304 85.8459C72.1997 86.0042 72.2731 86.1659 72.3423 86.2951C72.7186 86.1796 73.1584 86.2395 73.5302 86.2908L74.1031 86.3747L73.8546 86.7554C73.8257 86.811 73.7524 86.9616 73.7524 87.087V87.1233C73.7524 87.2761 73.7524 87.4849 73.6411 87.7522V87.7565C73.6106 87.8335 73.597 87.9234 73.597 88.0235C73.597 88.0663 73.6073 88.1099 73.6106 88.1505C74.0846 87.9666 74.843 87.7612 75.406 88.0149C75.5762 88.0954 75.7151 88.21 75.8223 88.3602C76.0049 88.2862 76.1586 88.2575 76.291 88.2318C76.4995 88.1942 76.5267 88.1899 76.6232 88.0051C76.6636 87.9178 76.6809 87.8648 76.6809 87.8109C76.6809 87.7711 76.6714 87.7313 76.6549 87.6774C76.6368 87.5875 76.617 87.4955 76.617 87.3907C76.617 87.2012 76.6854 86.9757 76.9323 86.7216C77.2015 86.4393 77.3461 86.079 77.3461 85.86C77.3461 85.8386 77.3461 85.8164 77.3412 85.7992C77.3321 85.7257 77.3041 85.6966 77.2612 85.6709C77.037 85.5477 76.8791 85.5156 76.7089 85.4784C76.5317 85.4399 76.3309 85.3992 76.1203 85.2546L75.9249 85.1092C75.5663 84.8375 74.9027 84.334 74.3022 84.3797C73.315 84.4623 72.9853 84.2428 72.5727 83.6798C72.1902 83.1613 72.2129 82.3322 72.449 81.8573C72.6263 81.5159 72.9099 81.3311 73.2351 81.3469C73.6266 81.3683 74.1031 81.661 74.573 81.9416C74.5953 81.9579 74.6225 81.9767 74.6525 81.9929C74.6633 81.6849 74.7337 81.317 75.1657 80.9705C75.4612 80.7377 75.817 80.6581 76.1714 80.7146C76.2316 79.5818 76.5589 77.7755 76.8791 77.23L77.0926 76.8557L77.4211 77.1235C77.5654 77.2399 77.654 77.2476 78.0588 76.8369C78.2212 76.6764 78.4108 76.4959 78.6317 76.439C78.6977 76.3342 78.7661 76.2294 78.7661 76.2294C78.938 75.9919 79.2718 75.5235 79.4895 75.0854L79.4874 75.079L79.3835 74.8107L79.5657 74.5947C79.604 74.5519 79.6481 74.5018 79.6964 74.4449L79.6955 74.4432ZM99.5295 75.1008C99.748 75.5329 100.076 75.9928 100.242 76.2268C100.242 76.2268 100.314 76.3316 100.382 76.4364C100.604 76.4933 100.793 76.6739 100.954 76.8343C101.358 77.245 101.446 77.2373 101.592 77.1209L101.92 76.8536L102.139 77.2279C102.456 77.7734 102.777 79.5796 102.843 80.7125C103.2 80.6569 103.556 80.7356 103.85 80.9683C104.282 81.3148 104.35 81.6828 104.358 81.9908C104.391 81.9745 104.415 81.9557 104.441 81.9395C104.908 81.6588 105.389 81.3662 105.78 81.3448C106.104 81.3285 106.389 81.5138 106.563 81.8556C106.8 82.3305 106.825 83.1592 106.443 83.6781C106.029 84.2403 105.699 84.4602 104.713 84.3776C104.114 84.3318 103.444 84.8354 103.09 85.1075L102.895 85.2529C102.681 85.3971 102.484 85.4377 102.308 85.4762C102.138 85.5135 101.978 85.5456 101.752 85.6688C101.712 85.6944 101.683 85.7235 101.671 85.7971C101.668 85.8142 101.668 85.8369 101.668 85.8579C101.668 86.0769 101.812 86.4367 102.082 86.7195C102.327 86.9732 102.396 87.1986 102.396 87.3882C102.396 87.493 102.38 87.585 102.359 87.6748C102.343 87.7291 102.326 87.7689 102.326 87.8087C102.326 87.8626 102.349 87.9157 102.39 88.0034C102.486 88.1873 102.512 88.1916 102.727 88.2301C102.852 88.2549 103.01 88.284 103.189 88.3585C103.299 88.2079 103.436 88.0932 103.609 88.0128C104.168 87.7587 104.924 87.9649 105.4 88.1484C105.403 88.1078 105.415 88.0641 105.415 88.0209C105.415 87.9208 105.4 87.8301 105.373 87.754V87.7488C105.262 87.4819 105.256 87.2731 105.256 87.1199V87.0844C105.256 86.9595 105.19 86.8089 105.157 86.7529L104.91 86.3721L105.483 86.2887C105.854 86.2373 106.297 86.1774 106.675 86.293C106.743 86.1638 106.815 86.002 106.883 85.8437C107.137 85.2632 107.456 84.5346 108.107 84.2976C108.667 84.0978 108.792 83.8578 109.011 83.4274L109.587 82.3215L109.805 83.32C110.014 84.2732 112.029 84.879 112.991 85.1725C112.991 85.1725 113.472 85.3252 113.477 85.3252C115.142 85.9028 115.599 87.5687 115.593 88.1702C115.591 88.7136 114.988 88.7811 114.842 88.6793C114.43 88.4034 113.36 88.7409 112.641 89.5854C112.154 90.1643 111.523 91.3309 112.614 92.8262C112.833 92.6936 113.076 92.6174 113.248 92.5866C113.707 92.4968 114.361 92.501 114.864 92.7599C115.147 92.5682 115.492 92.4895 115.855 92.5481C116.362 92.6251 116.829 92.9417 117.007 93.3331C117.217 93.805 117.193 94.5597 116.946 95.1373C116.763 95.5715 116.47 95.8603 116.11 95.9749L115.954 96.0228L115.818 95.9381C115.039 95.471 114.323 95.3319 113.7 95.5231C113.366 95.625 113.015 96.0836 112.715 96.7852C113.271 96.4631 113.673 97.8098 113.746 97.8098L114.753 97.8334C115.276 97.8513 116.057 97.8749 116.24 97.8398C116.442 97.7191 116.487 97.6661 116.531 97.6062C116.624 97.4779 116.723 97.3623 117.01 97.1827C117.382 96.9444 117.693 96.9576 117.952 97.0329C117.952 97.0265 117.946 97.0201 117.946 97.0115C117.946 96.5995 117.977 96.2543 118.267 95.835C118.434 95.5972 118.797 95.5462 119.001 95.6066C118.905 95.0816 118.766 94.1948 118.766 93.4953C118.766 92.7047 119.009 91.7541 119.308 91.5128C119.608 91.2715 119.774 91.242 120.027 91.2261C119.99 91.1209 119.946 91.0208 119.899 90.9087C119.776 90.6148 119.627 90.2657 119.627 89.7493C119.627 89.6081 119.639 89.4558 119.668 89.283L119.72 88.9364L120.056 88.9587C121.253 89.0387 122.222 87.748 122.336 87.0493C122.538 85.6876 121.587 84.4371 120.999 83.9083L120.48 83.5006C119.981 83.1344 119.361 82.6757 118.738 81.8868C118.245 81.2691 117.997 80.4579 118.084 79.7717C118.132 79.3738 118.298 79.0572 118.541 78.8784C119.107 78.4626 119.754 78.5071 120.156 78.9914L120.289 79.1522L120.23 79.3563C120.206 79.4333 120.194 79.5146 120.194 79.6053C120.194 79.9689 120.379 80.4096 120.581 80.7792C120.626 80.6723 120.671 80.5799 120.701 80.5165L121.036 79.8355L121.367 80.5165C121.466 80.7283 121.698 81.0693 122.649 82.0054C123.038 82.3827 123.33 82.6762 123.583 82.9534C123.634 82.6496 123.679 82.3331 123.679 81.8907V81.8496C123.679 81.0154 123.311 80.3018 122.581 79.7319L122.037 79.3127L122.672 79.0637C122.931 78.961 123.121 78.9011 123.325 78.8553C122.535 78.0668 122.023 78.2803 121.635 78.442L121.396 78.5297L121.199 78.605L121.033 78.4326C120.743 78.1332 120.182 77.814 119.476 77.8251C119.147 77.8294 118.402 77.977 117.923 78.5019C117.571 78.8857 117.404 79.4205 117.431 80.0862C117.495 81.9014 118.734 82.8713 119.829 83.7312L120.61 84.372C121.313 85.0125 121.595 85.9473 121.337 86.7537C121.146 87.3548 120.67 87.7565 120.091 87.801C119.135 87.8737 118.765 87.0994 118.437 86.417C118.29 86.106 118.138 85.7838 117.933 85.5203L117.767 85.3064C117.058 84.3832 116.078 83.1143 115.486 81.9976C114.931 80.9529 114.242 79.4478 114.026 78.7317C113.818 78.7843 113.624 78.9045 113.458 79.0923C113.116 79.4859 112.885 80.2432 113.257 81.1865L113.624 82.132L112.745 81.6742C112.472 81.533 112.241 81.4432 112.015 81.3606C111.398 81.1266 110.9 80.9328 110.463 79.9745C110.159 80.1392 109.727 80.4922 109.635 81.0517L109.539 81.6122L109.075 81.3157C108.356 80.8558 107.956 80.1037 107.896 79.2151C107.549 79.3584 107.055 79.6053 106.691 79.9895L106.19 80.5028L106.064 79.7884C106.054 79.7576 106.004 79.4205 106.041 78.9884C105.727 79.0859 105.328 79.1082 104.915 78.9884C104.13 78.7539 103.46 77.5051 102.882 75.1654C102.882 75.1654 102.852 75.0422 102.85 75.0315C102.809 74.8792 102.799 74.833 101.96 74.0287C101.321 73.416 100.151 73.8789 99.7109 74.0552L99.5633 74.1108C99.3655 74.1801 99.3407 74.27 99.3271 74.3033C99.3177 74.3388 99.3119 74.3769 99.3119 74.4231V74.4253C99.3663 74.4886 99.4149 74.5442 99.4578 74.5912L99.633 74.8073L99.5394 75.076L99.5291 75.1004L99.5295 75.1008ZM111.448 92.5875C111.403 92.5917 111.355 92.6029 111.308 92.6174C109.812 93.0666 109.794 94.7864 109.74 95.8615C109.618 95.8701 109.512 95.9069 109.443 95.9437C109.049 96.161 108.877 96.7009 108.794 97.1232C108.307 96.9123 107.752 96.9153 107.387 97.2592C107.047 97.5784 106.901 97.6657 106.761 97.8394C106.485 97.8637 104.308 97.8351 104.308 97.8351C104.261 97.5484 104.142 96.6911 103.486 96.9217C103.993 96.0789 104.934 94.8767 105.858 95.2703C106.964 95.7383 107.224 95.8521 107.776 95.2382C108.144 94.8275 108.736 93.3858 108.752 93.008C108.769 92.6238 108.709 92.4005 108.465 92.3064C108.772 91.8324 109.163 91.1192 109.163 90.6109C109.163 90.5266 109.151 90.4484 109.13 90.3808C109.041 90.1095 108.942 89.9529 108.814 89.858C110.12 87.8699 111.287 87.5007 112.057 87.5708C112.537 87.6179 112.852 87.7557 113.303 87.9773C112.812 88.189 112.346 88.619 111.944 89.0896C111.058 90.1356 110.883 91.3806 111.448 92.5879L111.448 92.5875ZM66.9543 87.5713C67.7263 87.5011 68.8928 87.8707 70.1965 89.8584C70.0712 89.9525 69.969 90.11 69.8832 90.3812C69.8577 90.4496 69.8486 90.5266 69.8486 90.6109C69.8486 91.1187 70.2402 91.8319 70.5452 92.3051C70.3033 92.3992 70.2431 92.6234 70.2567 93.0076C70.2744 93.3849 70.8646 94.8275 71.2377 95.2378C71.7871 95.8521 72.0497 95.7383 73.1551 95.2694C74.0792 94.8759 75.0173 96.078 75.5198 96.9208C74.871 96.6907 74.7506 97.5476 74.7057 97.8342C74.7057 97.8342 72.5261 97.8633 72.2508 97.8385C72.1094 97.6657 71.9647 97.5775 71.6218 97.2588C71.2558 96.9148 70.7051 96.9123 70.2146 97.1228C70.1314 96.7001 69.9632 96.1602 69.5688 95.9433C69.5028 95.9065 69.3956 95.8705 69.2679 95.8611C69.2163 94.7864 69.1999 93.0662 67.7057 92.6165C67.6571 92.602 67.6093 92.5909 67.5627 92.5866C68.1282 91.3827 67.9543 90.1352 67.0672 89.0892C66.6641 88.6177 66.1976 88.1882 65.7038 87.9768C66.1613 87.7544 66.4712 87.6175 66.9543 87.5704V87.5713ZM99.0324 86.968L91.7575 94.5319C90.7188 94.9623 90.1912 95.2536 89.7898 95.5116L99.0625 85.8741C99.0646 85.9725 99.0658 86.0718 99.0658 86.1693C99.0658 86.4444 99.0535 86.7109 99.0328 86.9685L99.0324 86.968ZM88.991 95.3755C88.8096 95.2626 88.5945 95.142 88.3191 95.0085L94.9024 88.1659C95.3121 88.1959 95.6114 88.2708 95.7783 88.3242L88.991 95.3755ZM86.9495 94.4061L92.1553 88.9942L92.4397 88.8094C92.6573 88.6648 93.2096 88.3602 93.9165 88.2284L87.672 94.7081C87.4577 94.6149 87.2203 94.5148 86.9495 94.4061ZM85.8036 93.9655C85.717 93.9334 85.6235 93.897 85.5225 93.8551L92.5213 86.5719C92.5369 86.6515 92.5443 86.731 92.5443 86.8042C92.5443 86.9556 92.5188 87.093 92.4689 87.2046L92.4677 87.2081C92.3745 87.422 91.8535 87.9469 91.6582 88.1321L91.6005 88.1899C91.6005 88.1899 91.7464 88.4047 91.7666 88.4325L86.2681 94.1404C86.1197 94.0822 85.966 94.0266 85.8032 93.965L85.8036 93.9655ZM98.1359 89.944L95.2367 92.9541C94.4507 93.4555 93.7219 93.7755 93.2492 93.9509L98.8354 88.1424C98.6726 88.809 98.4306 89.4066 98.1355 89.9435L98.1359 89.944ZM84.8647 93.5642C84.6512 93.4593 84.4224 93.3391 84.1874 93.2018L87.1675 90.1117C87.5859 90.1091 87.9894 90.0398 88.3711 89.9132L84.8647 93.5642ZM83.0033 92.4048L85.5134 89.7951C85.7706 89.899 86.0385 89.9726 86.311 90.0278L83.6017 92.8386C83.4031 92.706 83.2028 92.5605 83.0029 92.4052L83.0033 92.4048ZM81.9658 91.4473L84.2959 89.0216C84.4805 89.1893 84.6779 89.336 84.8873 89.4665L82.4868 91.9701C82.3096 91.805 82.1332 91.6308 81.9662 91.4473H81.9658ZM81.099 90.3209L83.4484 87.8793C83.4905 87.9691 83.5234 88.0598 83.5745 88.1475C83.657 88.2819 83.7464 88.4102 83.8425 88.5326L81.5293 90.9326C81.3789 90.7393 81.2326 90.5348 81.099 90.3209ZM89.1653 86.7058L89.1468 86.7986C89.0326 87.4117 88.775 87.8707 88.7239 87.9764C88.39 88.6353 87.6242 88.9835 87.0422 88.9835C86.8765 88.9835 86.4264 88.972 85.9388 88.6712C85.5159 88.4137 85.3111 88.0539 85.2876 88.0132C84.8713 87.3201 84.9545 86.4752 85.0221 86.1073C84.8395 86.1188 84.546 86.1107 84.281 85.9349C83.9595 85.7252 83.8087 85.3034 83.7514 85.1092H83.3763C83.333 85.4857 83.2172 86.8307 83.8882 87.9435C84.5456 89.0438 85.7875 89.7296 87.1209 89.7296C87.7755 89.7296 88.3896 89.5743 88.9361 89.262C89.4089 88.9916 89.8318 88.6032 90.1628 88.142C90.4278 87.7715 90.631 87.3779 90.7687 86.9698C90.8965 86.5749 90.9608 86.186 90.9608 85.7992V83.4924H89.2115C89.2172 84.9543 89.2321 85.6658 89.2251 85.9126C89.2115 86.1779 89.2053 86.4465 89.1633 86.7067L89.1653 86.7058ZM80.4305 88.9702L83 86.3075C83.0247 86.5881 83.0906 86.8893 83.1772 87.1944L80.7528 89.704C80.6353 89.4716 80.5269 89.2261 80.4305 88.9694V88.9702ZM87.0348 88.2173C87.2417 88.1274 87.4189 88.0462 87.4263 88.0462C87.4428 88.0397 88.0652 87.9264 88.3331 87.8793C88.1897 88.0821 87.9894 88.2618 87.7503 88.3957C87.5005 88.5381 87.2268 88.6181 87.0521 88.5985C86.9466 88.5882 86.8439 88.5514 86.7388 88.53L87.0356 88.2177L87.0348 88.2173ZM91.004 83.0556C91.0069 83.0591 91.2089 83.3624 91.2048 83.3624C91.4018 83.6554 91.746 84.1881 92.053 84.6844L92.1561 84.8456C92.4116 85.2735 92.6391 85.6799 92.7826 86.0837C92.9475 86.5488 92.9578 86.9509 92.8197 87.3488C92.6734 87.7424 92.2702 88.0847 92.0786 88.2318L92.2435 88.4821C92.5019 88.3054 93.2319 87.8857 94.1601 87.7933C95.0533 87.7035 95.7379 87.8947 96.0025 87.9914L96.1233 87.585C95.9724 87.5242 95.7136 87.404 95.4609 87.1914C95.4172 87.1546 95.3867 87.1242 95.3558 87.1041C95.205 86.9817 95.0846 86.8833 94.4993 86.2373C93.7162 85.3731 92.0444 83.1241 92.025 83.1083L91.8832 82.92L92.1182 82.9029C92.8827 82.8678 93.705 82.5337 94.325 82.0302C94.8666 81.5895 95.5149 80.7831 95.5149 79.4872C95.5149 78.6512 95.2107 77.8307 94.6782 77.236C94.2743 76.7706 93.5282 76.2093 92.335 76.2093C91.9854 76.2093 91.6573 76.2332 91.361 76.282C91.361 76.282 91.3499 77.7032 91.361 77.7032C92.3074 77.7126 92.886 78.1516 93.2199 78.5161C93.6032 78.9524 93.8464 79.5317 93.8464 80.0361C93.8464 81.6246 92.4862 82.3489 91.2044 82.369L88.0174 82.3549L88.0256 82.2265L88.031 81.8355C88.0434 80.8575 88.0611 80.0216 88.5639 79.3007C88.634 79.2023 88.7107 79.106 88.7948 79.0098V77.6964C88.4246 77.8786 88.0545 78.0279 87.4189 78.1704C86.8625 78.3 86.3114 78.2671 86.0299 78.2311C86.1758 78.6512 86.513 79.6301 86.5975 80.413C86.8555 82.8815 86.7067 84.3926 86.4087 85.8989C86.2492 86.7203 85.9936 87.5169 85.811 88.0355L86.0204 88.2378C86.3139 88.059 86.764 87.8254 87.3254 87.6744C87.6943 87.5708 88.1184 87.4955 88.5792 87.4378L88.7721 86.8346C88.6967 86.7781 88.6258 86.7203 88.5578 86.6647C88.0252 86.2091 88.0252 85.4057 88.0252 85.0604C88.0252 84.6433 88.0294 83.1964 88.0294 83.1823V83.0561H91.004V83.0556ZM83.5997 84.7241L86.3345 81.892C86.3192 81.5848 86.2966 81.2502 86.2652 80.9003L80.0261 87.3681C80.0698 87.6688 80.1283 87.9649 80.2021 88.2421L82.9851 85.3586C82.9909 85.2409 83.0033 85.1378 83.0123 85.0574L83.0577 84.7237H83.5997V84.7241ZM98.9953 84.9757L96.6278 87.4365C96.533 87.3779 96.2197 87.1999 95.979 87.0579L98.8519 84.0709C98.9137 84.3802 98.9632 84.6826 98.9949 84.9757H98.9953ZM91.333 85.798V85.7851L91.8886 85.2076C92.0027 85.4138 92.1412 85.6748 92.2554 85.8835L91.1302 87.0609C91.1701 86.9171 91.333 86.3066 91.333 85.798ZM86.0468 85.8215C86.0439 85.8236 85.9701 86.0876 85.877 86.4136L85.356 86.9603C85.3519 86.8816 85.3378 86.7991 85.3378 86.7263C85.3378 86.4979 85.365 86.3019 85.3844 86.18C85.3844 86.1736 85.4553 85.8763 85.4809 85.7693L86.1836 85.0364C86.1412 85.3017 86.0979 85.5618 86.0464 85.8215H86.0468ZM89.1657 86.7054C89.1806 86.6266 89.169 86.6883 89.1595 86.7404L89.1653 86.7062L89.1657 86.7054ZM95.4399 86.6455C95.2742 86.4829 95.0788 86.2861 94.9222 86.1278L98.4727 82.4349C98.5304 82.7172 98.593 83.0026 98.6685 83.2935L95.4399 86.6459V86.6455ZM79.9449 86.1693C79.9449 85.9229 79.9532 85.6645 79.9758 85.3984L85.912 79.2395C85.9874 79.5334 86.0657 79.8419 86.1288 80.0797L79.9503 86.4808C79.9474 86.3798 79.9445 86.2754 79.9445 86.1685L79.9449 86.1693ZM88.8108 86.3691V86.3802L88.8067 86.3759L88.8108 86.3691ZM88.8438 84.307C88.8471 84.6578 88.8504 85.0484 88.8521 85.3539L88.4663 85.7612C88.4032 85.4874 88.397 85.2191 88.397 85.0595V84.7716L88.8442 84.307H88.8438ZM86.3081 83.9357L84.6347 85.6752C84.5811 85.6594 84.5275 85.6367 84.485 85.611C84.3498 85.5224 84.2336 85.3115 84.1462 85.1177L86.353 82.8375C86.3501 83.2289 86.3349 83.5891 86.3077 83.9352L86.3081 83.9357ZM94.4791 85.611C94.3348 85.427 94.1795 85.232 94.0204 85.0335L98.1936 80.6911C98.2295 80.9906 98.2699 81.2969 98.3198 81.6135L94.4791 85.611ZM91.3321 84.8153V84.2822C91.4072 84.402 91.4723 84.5081 91.532 84.6048L91.3321 84.8157V84.8153ZM98.096 78.7642V78.8528C98.096 79.1522 98.1034 79.4645 98.1232 79.7922L93.5991 84.4991C93.4363 84.292 93.283 84.0982 93.1399 83.9151L98.096 78.7642ZM80.3175 83.4129C80.3657 83.2323 80.4082 83.0505 80.4515 82.8695L84.0815 79.0987H84.2575C84.2575 79.0987 84.3915 78.8326 84.3915 78.8309C84.3915 78.8279 84.4154 78.7852 84.4512 78.7231L85.4763 77.6579C85.5893 77.6365 85.7096 77.6271 85.8522 77.6271H86.5253L86.2636 77.8974C85.9474 77.8974 85.6853 77.8957 85.6783 77.8957L85.5604 77.8927L85.6779 78.3539C85.6779 78.3539 85.6919 78.3997 85.71 78.4707L80.1275 84.2698C80.1803 83.9917 80.2429 83.7081 80.3171 83.4142L80.3175 83.4129ZM88.3983 83.8073C88.3995 83.6285 88.3995 83.4886 88.3995 83.4415H88.7507L88.3978 83.8078L88.3983 83.8073ZM92.5476 83.1669C92.7084 83.1412 92.8683 83.101 93.0245 83.0565L92.7162 83.3782C92.647 83.2927 92.5926 83.2229 92.5472 83.1665L92.5476 83.1669ZM92.2921 81.7564C92.0015 81.8779 91.6796 81.9557 91.3317 81.9737V81.7196L93.4008 79.5805C93.445 79.7379 93.4779 79.8885 93.4779 80.0352C93.4779 80.262 93.4342 80.4639 93.3695 80.6599L92.2925 81.7564H92.2921ZM90.9616 81.933V76.1173H83.6537V78.7184H84.0403C84.0873 78.5075 84.2258 78.0797 84.591 77.7113C84.9207 77.3776 85.2863 77.2382 85.8522 77.2382H89.2123V81.933H90.9612H90.9616ZM88.4621 80.641L88.8434 80.2483V81.3016L88.4057 81.7564C88.4114 81.3611 88.418 80.988 88.4626 80.6415L88.4621 80.641ZM83.2831 77.9017V78.9648L80.6864 81.6584C80.7536 81.2327 80.8018 80.8241 80.8389 80.4357L83.2831 77.9017ZM91.3317 79.693L92.5369 78.4395C92.703 78.5507 92.8494 78.6671 92.947 78.7817C92.9965 78.8322 93.0328 78.8938 93.0777 78.9494L91.3321 80.7488V79.693H91.3317ZM107.886 77.5736C108.134 77.4538 108.472 77.3682 108.794 77.2741C109.672 77.0187 110.525 76.8193 110.459 76.1703C110.433 75.9521 110.408 75.7523 110.231 75.4546C110.955 75.2651 111.575 75.0097 111.826 74.492C112.029 74.0856 112.093 73.455 111.826 72.838C111.742 72.6412 111.369 72.5343 111.187 72.6173C110.998 72.7054 110.913 72.9322 110.998 73.1281C111.159 73.514 111.202 73.8041 111.106 73.9906C110.913 74.3786 110.109 74.5716 109.212 74.7615C109.212 74.7615 108.711 74.8843 108.565 74.9369C108.356 75.0169 108.203 75.0931 108.102 75.1607C107.982 75.2325 107.912 75.1667 107.891 75.1239C107.867 75.079 107.828 75.0289 107.79 74.9784C107.709 74.8745 107.697 74.8672 107.599 74.7932C107.447 74.6837 107.519 74.5219 107.623 74.4971C108.348 74.3354 108.53 74.3089 108.942 74.145C109.246 74.0295 109.484 73.76 109.533 73.369C109.539 73.3151 109.546 73.2543 109.546 73.191C109.546 72.8188 109.406 72.3807 109.106 72.1535C109.087 72.1437 109.062 72.1343 109.044 72.1202C109.044 72.0932 109.048 72.0663 109.048 72.0355C109.048 71.9593 109.044 71.8797 109.026 71.8044C108.942 71.3467 108.603 71.0224 108.159 70.9603C107.628 70.8889 107.404 71.0031 106.96 71.2307L106.619 71.4027C106.563 71.4254 106.414 71.4395 106.361 71.2658C106.313 71.0904 106.167 70.903 105.891 70.7811L105.661 70.6754C105.516 70.6057 105.546 70.3374 105.79 70.156C106.289 69.786 106.317 69.8159 106.737 69.7269L106.82 69.7124C107.262 69.6174 107.413 69.4626 107.607 69.2136L107.913 68.8628C108.265 68.5282 108.98 68.4007 109.609 68.2852L109.884 68.2381C110.434 68.1372 110.688 67.9258 110.929 67.723C111.073 67.6011 111.212 67.4843 111.436 67.3739C111.844 67.1763 112.163 67.107 112.476 67.0372C112.476 67.0372 112.497 67.0308 112.503 67.0308C112.507 67.1143 112.511 67.1891 112.511 67.279C112.511 67.6567 112.43 68.0199 112.274 68.3511C112.216 68.4709 112.101 68.79 112.064 69.0022C112.15 69.0125 112.33 69.0022 112.431 69.0296C112.891 69.1562 113.695 69.2294 114.314 69.1562C114.245 69.4912 114.114 69.8835 113.768 70.1732L113.393 70.5039L113.774 70.7755C113.93 70.9082 114.176 70.9852 114.483 71.087C114.931 71.2324 115.507 71.4194 115.842 71.7818C115.591 71.8553 115.349 71.9751 115.17 72.1659C115.001 72.3516 114.908 72.5831 114.908 72.8248C114.908 72.8761 114.915 72.9309 114.918 72.9831C115.001 73.4849 115.359 73.8216 115.736 74.1758C116.118 74.5352 116.508 74.9087 116.703 75.5012C116.026 75.4687 115.121 75.6274 114.755 76.3526C114.586 76.6854 114.563 76.9883 114.521 77.2724C114.494 77.4401 114.524 77.6805 114.553 77.8315C113.105 77.4709 112 79.4401 112.204 80.5127C111.769 80.4211 111.48 80.1212 111.101 79.367L110.876 78.9135C110.876 78.9135 109.653 79.1574 109.108 80.1786C108.84 79.8778 108.709 79.5227 108.709 78.9879C108.709 78.8895 108.752 78.0425 108.752 78.0425C108.752 78.0425 107.757 78.1289 106.925 78.7355C106.967 78.4189 107.362 77.8315 107.887 77.5727L107.886 77.5736ZM62.3017 75.5021C62.502 74.9095 62.8886 74.5361 63.2744 74.1767C63.6536 73.8216 64.0101 73.4858 64.093 72.9839C64.0996 72.9317 64.1025 72.877 64.1025 72.8256C64.1025 72.5839 64.0105 72.3525 63.8415 72.1668C63.6643 71.976 63.4203 71.8562 63.1705 71.7826C63.5077 71.4203 64.0798 71.2329 64.5266 71.0878C64.8337 70.986 65.0789 70.9082 65.2384 70.7764L65.6189 70.5047L65.2397 70.1736C64.9017 69.884 64.7656 69.4912 64.6964 69.1562C65.3122 69.229 66.1155 69.1562 66.5821 69.0296C66.6831 69.0022 66.8624 69.0125 66.9481 69.0022C66.9102 68.79 66.7944 68.4704 66.7359 68.3519C66.5821 68.0204 66.498 67.6572 66.498 67.2798C66.498 67.19 66.5038 67.1147 66.5104 67.0317C66.5129 67.0317 66.5327 67.0377 66.5327 67.0377C66.8471 67.1074 67.1662 67.1767 67.5713 67.3744C67.7997 67.4847 67.9341 67.6011 68.0824 67.7235C68.3281 67.9258 68.5779 68.1376 69.1244 68.2386L69.3981 68.2856C70.0329 68.4011 70.7484 68.5286 71.0942 68.8632L71.4046 69.214C71.5983 69.463 71.7492 69.6179 72.1919 69.7128L72.273 69.7274C72.6893 69.8164 72.7215 69.7864 73.2239 70.156C73.463 70.337 73.4968 70.6053 73.3538 70.675L73.1213 70.7811C72.8452 70.9034 72.6968 71.0904 72.649 71.2658C72.5962 71.4399 72.447 71.4258 72.3959 71.4027L72.0513 71.2316C71.6086 71.0036 71.3844 70.8893 70.8531 70.9603C70.4047 71.022 70.0675 71.3467 69.9801 71.8044C69.9653 71.8793 69.9595 71.9584 69.9595 72.0355C69.9595 72.0654 69.9653 72.0928 69.9653 72.1193C69.9467 72.133 69.9241 72.1424 69.9076 72.1523C69.6009 72.379 69.4649 72.8179 69.4649 73.1897C69.4649 73.253 69.4711 73.3138 69.4773 73.3677C69.5255 73.7583 69.7633 74.0287 70.0667 74.1437C70.483 74.3076 70.6602 74.3341 71.384 74.4958C71.4924 74.5207 71.5662 74.6824 71.4141 74.7919C71.3118 74.8659 71.3044 74.8732 71.2216 74.9767C71.1812 75.0272 71.1433 75.0772 71.1194 75.1222C71.0934 75.165 71.0229 75.2304 70.9071 75.1585C70.8061 75.0909 70.654 75.0148 70.4434 74.9348C70.2975 74.8822 69.7963 74.7594 69.7963 74.7594C68.9006 74.5694 68.0956 74.3765 67.9056 73.9885C67.8079 73.8023 67.8487 73.5119 68.0116 73.126C68.0956 72.93 68.0115 72.7033 67.8248 72.6156C67.6381 72.533 67.2676 72.64 67.1789 72.8368C66.9168 73.4537 66.977 74.0839 67.1789 74.4911C67.4345 75.0088 68.0569 75.2638 68.7741 75.4537C68.5997 75.7511 68.5771 75.95 68.5532 76.169C68.4855 76.818 69.3388 77.0174 70.2163 77.2728C70.5349 77.3669 70.8749 77.4525 71.1231 77.5723C71.6457 77.8311 72.0414 78.4194 72.0818 78.736C71.2533 78.1285 70.255 78.0429 70.255 78.0429C70.255 78.0429 70.3016 78.89 70.3016 78.9875C70.3016 79.5223 70.1676 79.8774 69.9026 80.1781C69.3544 79.1565 68.1303 78.9131 68.1303 78.9131L67.9077 79.3666C67.5272 80.1204 67.2383 80.4203 66.8047 80.5118C67.0124 79.4393 65.9045 77.47 64.454 77.8311C64.4845 77.6805 64.513 77.4401 64.4891 77.2728C64.4454 76.9883 64.424 76.6854 64.2513 76.353C63.8885 75.6274 62.9838 75.4687 62.3004 75.5016L62.3017 75.5021ZM98.1322 77.7541L95.8175 80.1614C95.8529 79.9441 95.8784 79.7208 95.8784 79.4855C95.8784 79.3469 95.8578 79.2108 95.8414 79.0714L98.2641 76.5635C98.2085 76.9143 98.1631 77.3113 98.1322 77.7541ZM80.9049 78.3359L83.2831 75.8696V76.9293L80.9049 79.4021C80.9073 79.2155 80.9119 79.0329 80.9119 78.8523C80.9119 78.6761 80.9102 78.5024 80.9045 78.3355L80.9049 78.3359ZM91.3317 78.721V78.0908C91.5337 78.0908 91.7122 78.1165 91.8779 78.1537L91.3317 78.721ZM98.6161 75.0054C98.5893 75.0922 98.5592 75.1928 98.5255 75.3155L95.674 78.2752C95.5928 78.0219 95.4935 77.7772 95.3608 77.55L98.2493 74.5497C98.3907 74.735 98.5201 74.8911 98.6161 75.0058V75.0054ZM87.9391 77.6266C87.9238 77.6335 87.9073 77.642 87.888 77.6493C87.6984 77.7391 87.5294 77.8174 87.367 77.8495C87.3311 77.8559 87.2813 77.8624 87.2256 77.8666L87.4573 77.6271H87.9395L87.9391 77.6266ZM86.2368 71.8348L80.848 77.4144C80.815 77.0722 80.7787 76.7616 80.7301 76.4788L85.133 71.9182C85.4986 71.8883 85.8687 71.8583 86.2376 71.8348H86.2368ZM97.8425 73.9996L94.9601 76.987C94.9572 76.984 94.9543 76.9793 94.9519 76.9755L94.9531 76.978C94.8369 76.842 94.6596 76.6623 94.4235 76.4878L97.4254 73.3677C97.5614 73.5837 97.6999 73.7972 97.8429 73.9991L97.8425 73.9996ZM96.9274 72.3473C96.9728 72.4757 97.0255 72.607 97.0882 72.7409L93.8073 76.1519C93.56 76.0394 93.2962 75.9551 93.0188 75.9029L96.5449 72.2519C96.6933 72.2862 96.8211 72.314 96.9283 72.3478L96.9274 72.3473ZM95.7433 72.1185L92.1614 75.8405C91.9067 75.8619 91.4475 75.9064 91.3317 75.9175V75.7344H91.2295L94.8212 72.0068C95.1481 72.0436 95.4601 72.0795 95.7428 72.118L95.7433 72.1185ZM88.3546 75.7344L92.1412 71.7912C91.8049 71.7715 91.4776 71.754 91.1693 71.7381L87.3278 75.734H88.355L88.3546 75.7344ZM90.298 75.7344L93.968 71.9281C93.6568 71.899 93.339 71.8725 93.02 71.8536L89.2844 75.734H90.2984L90.298 75.7344ZM86.3852 75.7344L90.2745 71.7022C89.9963 71.6911 89.7572 71.6842 89.5655 71.6842H89.4501C89.3916 71.6842 89.3294 71.6842 89.2605 71.6885L85.3696 75.7344H86.3852ZM84.4302 75.7344L88.3047 71.7202C87.9791 71.7304 87.6151 71.7501 87.2343 71.7715L83.4134 75.7344H84.4302ZM81.1699 73.9991L82.9328 72.1706C83.2749 72.1172 83.6747 72.0658 84.1025 72.0196L80.5731 75.6792C80.5112 75.3904 80.4469 75.1667 80.3971 75.0058C80.5776 74.7889 80.8727 74.4231 81.1707 73.9996L81.1699 73.9991ZM97.645 61.023C97.2362 61.023 96.8974 61.3669 96.8974 61.7956C96.8974 61.8213 96.9081 61.8572 96.9081 61.888C96.6311 62.1533 96.2474 62.5114 95.8982 62.8506C96.0083 62.3308 96.1291 61.7588 96.214 61.3447C96.5046 61.2463 96.7201 60.9597 96.7201 60.6238C96.7201 60.1951 96.3846 59.8477 95.9794 59.8477C95.5739 59.8477 95.2355 60.1956 95.2355 60.6242C95.2355 60.7072 95.2569 60.7962 95.2791 60.8737C94.9997 61.2523 94.5892 61.7742 94.2293 62.2405C94.2664 61.633 94.3151 60.9545 94.3559 60.4736C94.5933 60.3423 94.7619 60.0886 94.7619 59.7909C94.7619 59.3665 94.4309 59.0182 94.0199 59.0182C93.6078 59.0182 93.2821 59.3669 93.2821 59.7913C93.2821 59.9171 93.311 60.0309 93.3605 60.1352C93.0991 60.5956 92.7059 61.2621 92.3778 61.8294C92.33 61.1877 92.2818 60.4501 92.2472 59.9325C92.4599 59.7981 92.6016 59.5577 92.6016 59.2762C92.6016 58.8561 92.267 58.5104 91.8605 58.5104C91.4496 58.5104 91.1219 58.8561 91.1219 59.2762C91.1219 59.4358 91.159 59.5697 91.2316 59.6856C91.0308 60.1789 90.7225 60.9109 90.469 61.5197C90.2737 60.7398 90.0334 59.7913 89.932 59.3523C90.0919 59.2167 90.1925 59.0067 90.1925 58.7679C90.1925 58.3435 89.8524 58 89.444 58C89.0392 58 88.7004 58.3431 88.7004 58.7675C88.7004 59.0186 88.8298 59.2398 89.0013 59.375C88.8871 59.8259 88.6567 60.7654 88.4671 61.5197C88.2095 60.9028 87.9008 60.1477 87.6992 59.6531C87.7511 59.5397 87.7858 59.4178 87.7858 59.2758C87.7858 58.8556 87.4544 58.51 87.0467 58.51C86.6358 58.51 86.306 58.8556 86.306 59.2758C86.306 59.5692 86.4656 59.8165 86.684 59.9474C86.6477 60.4681 86.604 61.195 86.5632 61.8286C86.2203 61.2501 85.8275 60.5699 85.5505 60.1104C85.5971 60.0142 85.6247 59.9025 85.6247 59.7909C85.6247 59.3665 85.295 59.0182 84.8828 59.0182C84.4789 59.0182 84.1462 59.3669 84.1462 59.7913C84.1462 60.1062 84.333 60.368 84.5831 60.4873C84.6235 60.9686 84.6685 61.6365 84.7138 62.2414C84.342 61.758 83.9265 61.2253 83.6314 60.8467C83.6562 60.7727 83.6685 60.7 83.6685 60.6242C83.6685 60.1964 83.3355 59.8486 82.9291 59.8486C82.5198 59.8486 82.1888 60.1964 82.1888 60.6251C82.1888 60.9691 82.4188 61.2651 82.7246 61.3601C82.81 61.7751 82.9291 62.3338 83.042 62.8515C82.6731 62.5032 82.2836 62.1302 82.0033 61.8581C82.0033 61.8354 82.0095 61.8161 82.0095 61.7965C82.0095 61.3678 81.6769 61.0238 81.2635 61.0238C80.8566 61.0238 80.5224 61.3678 80.5224 61.7965C80.5224 62.1883 80.8191 62.5135 81.1922 62.5567C81.5821 63.6793 82.3409 65.8757 82.3557 65.9219C82.7997 68.476 83.0119 68.7207 83.0737 68.8024C83.4707 69.27 87.1172 69.8784 89.4691 69.8784C91.8226 69.8784 95.4622 69.27 95.8628 68.802C95.9304 68.7199 96.1336 68.4751 96.5866 65.9211C96.5928 65.8749 97.3594 63.6772 97.7489 62.5499C98.1054 62.4964 98.3878 62.1828 98.3878 61.796C98.3878 61.3674 98.0482 61.0234 97.6459 61.0234L97.645 61.023ZM71.0955 69.8082C71.0955 69.8082 70.6627 69.0595 70.0691 69.0489C69.4731 69.0386 68.9946 68.9034 68.8396 68.6809C68.8396 68.6809 69.2501 69.4027 68.9674 69.7411C69.4909 69.5802 69.7505 69.5879 70.2229 69.5973C70.6907 69.6067 70.837 69.6114 71.0955 69.8082ZM107.915 69.8082C107.915 69.8082 108.352 69.0595 108.943 69.0489C109.54 69.0386 110.014 68.9034 110.174 68.6809C110.174 68.6809 109.763 69.4027 110.047 69.7411C109.522 69.5802 109.268 69.5879 108.792 69.5973C108.32 69.6067 108.175 69.6114 107.914 69.8082H107.915ZM89.4522 69.0553C85.9507 69.0553 83.5564 68.4935 83.5564 68.0413C83.5564 67.5836 86.163 66.8691 89.4518 66.8691C92.7459 66.8691 95.3439 67.5836 95.3439 68.0413C95.3439 68.4935 92.9582 69.0553 89.4518 69.0553H89.4522ZM95.5594 67.1472C94.0937 66.4948 91.5139 65.9951 89.4687 65.9951C87.4366 65.9951 84.7678 66.4759 83.3788 67.1408C83.3351 66.9714 83.3021 66.787 83.2625 66.5992C85.072 65.7636 87.7041 65.4175 89.4522 65.4175C91.171 65.4175 94.0653 65.8625 95.6831 66.5512C95.6365 66.754 95.5957 66.9649 95.5594 67.1472ZM95.8335 65.7072L95.8278 65.7388C95.8195 65.7987 95.8096 65.853 95.8071 65.9142C94.2009 65.237 91.5926 64.6573 89.4749 64.6573C87.3274 64.6573 84.6388 65.237 83.1426 65.945C83.1323 65.8749 83.1187 65.8094 83.1038 65.7397V65.7076C83.1038 65.7076 82.6282 64.3321 82.2156 63.1514C82.8174 63.7174 84.3218 65.1433 84.3218 65.1433C84.3218 65.1433 83.8725 63.0615 83.6953 62.2029C84.288 62.9644 85.6668 64.7518 85.6668 64.7518C85.6668 64.7518 85.4978 62.4356 85.4248 61.4217L87.1617 64.4027C87.1617 64.4027 87.3212 62.0241 87.3905 60.949C87.7952 61.9158 88.6501 63.9848 88.6501 63.9848C88.6501 63.9848 89.2205 61.728 89.4691 60.7077C89.7164 61.6929 90.2836 63.9848 90.2836 63.9848C90.2836 63.9848 91.1409 61.9163 91.5469 60.9494C91.6149 62.0241 91.7777 64.4032 91.7777 64.4032C91.7777 64.4032 92.9677 62.3561 93.5138 61.4213L93.2718 64.7518C93.2718 64.7518 94.6547 62.9644 95.2453 62.2029C95.0673 63.0615 94.6263 65.1433 94.6263 65.1433C94.6263 65.1433 96.1241 63.7174 96.7242 63.1514C96.3154 64.3321 95.8339 65.7076 95.8339 65.7076L95.8335 65.7072Z" fill="#B5985A"/>
</svg>
